G04 DipTrace 3.3.1.3*
G04 Bottom.gbr*
%MOIN*%
G04 #@! TF.FileFunction,Copper,L2,Bot*
G04 #@! TF.Part,Single*
G04 #@! TA.AperFunction,Conductor*
%ADD14C,0.012*%
%ADD15C,0.02*%
%ADD16C,0.016*%
%ADD17C,0.025199*%
%ADD18C,0.025*%
G04 #@! TA.AperFunction,ViaPad*
%ADD19C,0.03*%
G04 #@! TA.AperFunction,CopperBalancing*
%ADD21C,0.012992*%
G04 #@! TA.AperFunction,ComponentPad*
%ADD29R,0.059055X0.059055*%
%ADD30C,0.059055*%
%ADD35O,0.07874X0.11811*%
%ADD36O,0.11811X0.07874*%
%ADD38C,0.2*%
%ADD40C,0.062992*%
%ADD41R,0.12X0.12*%
%ADD42C,0.12*%
%ADD43R,0.090551X0.090551*%
%ADD44C,0.090551*%
G04 #@! TA.AperFunction,ViaPad*
%ADD52C,0.04*%
%FSLAX26Y26*%
G04*
G70*
G90*
G75*
G01*
G04 Bottom*
%LPD*%
X2631200Y2331200D2*
D16*
X2293700D1*
D14*
X2193700D1*
X2181200Y2318700D1*
X1037451D1*
X2756200Y3199949D2*
D17*
Y3193700D1*
X2624951Y3062451D1*
X2524951D1*
X2293700Y2831200D1*
X2299901Y3177165D2*
D18*
X2345915D1*
X2368700Y3199949D1*
X2656200D1*
X1149949Y2149951D2*
D14*
X2243700D1*
X1324951Y2087451D2*
X2149951D1*
X2037449Y2356200D2*
X1381200D1*
X1593700Y2731200D2*
X1587449D1*
X1912449Y2406200D1*
X1943700D1*
X1243700Y1493700D2*
X993700D1*
X1193700Y1606200D2*
X893700D1*
X2754200Y2997200D2*
X2793200Y2958200D1*
Y2347200D1*
X2910200Y2230200D1*
X1649949Y1318700D2*
D15*
X1699949Y1268700D1*
X2306579D1*
X2394079Y1356200D1*
X2556200Y1949949D2*
D14*
X1324949D1*
X1293700Y1918700D1*
Y1831200D1*
X3034842Y1368700D2*
X2687451D1*
X2593700Y2024949D2*
X1193700D1*
X1143700Y1556200D2*
X2143700D1*
X1093700Y1649951D2*
X1543700D1*
X1762451Y2999949D2*
X1937451D1*
X1993700Y2943700D1*
Y2831200D1*
X1462451Y3037451D2*
X2037449D1*
X2093700Y2981200D1*
Y2831200D1*
X1649949Y2931200D2*
Y2924951D1*
X1693700Y2881200D1*
Y2831200D1*
X853838Y2996062D2*
X856200Y2993700D1*
X1712451D1*
X1743700Y2962451D1*
X1837449D1*
X1893700Y2906200D1*
Y2831200D1*
X1143700Y2949949D2*
X1162451Y2968700D1*
X1706200D1*
X1743700Y2931200D1*
X1774951D1*
X1793700Y2912451D1*
Y2831200D1*
X1096634Y2272016D2*
X1099951Y2268700D1*
X2187449D1*
X1033691Y2228709D2*
X1037451Y2224949D1*
X1393700D1*
X1026495Y2445245D2*
X1024951Y2443700D1*
X1593700D1*
X3187449Y1431200D2*
Y1437007D1*
X2952755D1*
X2913385Y1476377D1*
X2814960D1*
Y1987451D2*
X1093700D1*
X1493700Y2399951D2*
X1081200D1*
X756987Y3459153D2*
X1031987D1*
X1306987D1*
X1581987D1*
X1856987D1*
X2156987D1*
X2238976Y3377165D1*
X2299901D1*
X1343700Y1687451D2*
X856200D1*
X956200Y1156200D2*
X1943700D1*
X1443700Y1468700D2*
X2143700D1*
X2293700D1*
X1443700D2*
X1293700D1*
X1237451Y2618700D2*
X1206201Y2649949D1*
X912451D1*
X893700Y2668700D1*
Y2731200D1*
D52*
X2631200Y2331200D3*
X1037451Y2318700D3*
X2293700Y2331200D3*
D3*
X1149949Y2149951D3*
X2243700D3*
X1324951Y2087451D3*
X2149951D3*
X2037449Y2356200D3*
X1381200D3*
X1943700Y2406200D3*
X1243700Y1493700D3*
X993700D3*
X1193700Y1606200D3*
X893700D3*
X1649949Y1318700D3*
X2394079Y1356200D3*
X2556200Y1949949D3*
X3034842Y1368700D3*
X2687451D3*
X2593700Y2024949D3*
X1193700D3*
X1143700Y1556200D3*
X2143700D3*
X1093700Y1649951D3*
X1543700D3*
X1649949Y2931200D3*
X853838Y2996062D3*
X1096634Y2272016D3*
X2187449Y2268700D3*
X1033691Y2228709D3*
X1393700Y2224949D3*
X1026495Y2445245D3*
X1593700Y2443700D3*
X3187449Y1431200D3*
X2814960Y1476377D3*
Y1987451D3*
X1093700D3*
X1493700Y2399951D3*
X1081200D3*
X1343700Y1687451D3*
X856200D3*
X956200Y1156200D3*
X1943700D3*
X1443700Y1468700D3*
X2143700D3*
X2293700D3*
X1293700D3*
X1237451Y2618700D3*
X1443700Y1468700D3*
X1293700D3*
D19*
X3037449Y2531200D3*
X3014200Y2529200D3*
X2987449Y2531200D3*
X2988200Y2490200D3*
X3014200D3*
X3040200D3*
X2988200Y2451200D3*
X3014200D3*
X3040200D3*
X3248200Y2880200D3*
Y2841200D3*
D52*
X2910200Y2230200D3*
X2754200Y2997200D3*
X3259842Y1446948D3*
X3384842Y1171948D3*
X2456200Y1231200D3*
X1581200Y1193700D3*
X1443700Y1056200D3*
X1006200Y1356200D3*
X1856200D3*
X893700Y2406200D3*
X468700Y1993700D3*
Y2581200D3*
X868700Y1993700D3*
Y2568700D3*
X2237451Y2456200D3*
X2293700Y1056200D3*
X756987Y3459153D3*
X1031987D3*
X1306987D3*
X1581987D3*
X1856987D3*
X699949Y3087449D3*
X974949Y3081200D3*
X1249949D3*
X1531200D3*
X1799949D3*
X1143700Y2949949D3*
X1462451Y3037451D3*
X1762451Y2999949D3*
X3543700Y1487451D3*
X2566860Y3838910D2*
D21*
X3999613D1*
X2566860Y3826049D2*
X3995909D1*
X2566860Y3813188D2*
X3993675D1*
X2566860Y3800327D2*
X3992863D1*
X2566860Y3787466D2*
X3993447D1*
X2566860Y3774606D2*
X3995426D1*
X2566860Y3761745D2*
X3998852D1*
X2566860Y3748884D2*
X4003927D1*
X2566860Y3736023D2*
X4010855D1*
X2566860Y3723162D2*
X4020040D1*
X2566860Y3710301D2*
X4032271D1*
X2566860Y3697440D2*
X4049272D1*
X2566860Y3684579D2*
X4077363D1*
X4150986D2*
X4165440D1*
X2566860Y3671718D2*
X4165440D1*
X2566860Y3658857D2*
X4165440D1*
X2566860Y3645997D2*
X4165440D1*
X2566860Y3633136D2*
X4165440D1*
X2566860Y3620275D2*
X4165440D1*
X2566860Y3607414D2*
X4165440D1*
X2566860Y3594553D2*
X4165440D1*
X2566860Y3581692D2*
X4165440D1*
X2566860Y3568831D2*
X4165440D1*
X2566860Y3555970D2*
X4165440D1*
X2566860Y3543109D2*
X4165440D1*
X2566860Y3530249D2*
X4165440D1*
X2566860Y3517388D2*
X4165440D1*
X2566860Y3504527D2*
X4165440D1*
X2566860Y3491666D2*
X4165440D1*
X2566860Y3478805D2*
X4165440D1*
X2566860Y3465944D2*
X4165440D1*
X2566860Y3453083D2*
X4165440D1*
X2566860Y3440222D2*
X4165440D1*
X2566860Y3427361D2*
X4165440D1*
X2566860Y3414501D2*
X4165440D1*
X2566860Y3401640D2*
X4165440D1*
X2566860Y3388779D2*
X4165440D1*
X2566860Y3375918D2*
X4165440D1*
X2566860Y3363057D2*
X4165440D1*
X2566860Y3350196D2*
X4165440D1*
X2566860Y3337335D2*
X4165440D1*
X2566860Y3324474D2*
X4165440D1*
X2566860Y3311613D2*
X4165440D1*
X2566860Y3298752D2*
X4165440D1*
X2566860Y3285892D2*
X4165440D1*
X2566860Y3273031D2*
X4165440D1*
X2566860Y3260170D2*
X4165440D1*
X2566860Y3247309D2*
X2640388D1*
X2672016D2*
X2740392D1*
X2772020D2*
X2840371D1*
X2872023D2*
X2905356D1*
X3007045D2*
X4165440D1*
X2566860Y3234448D2*
X2619352D1*
X2693052D2*
X2719356D1*
X2793056D2*
X2819360D1*
X2893035D2*
X2905356D1*
X3007045D2*
X4165440D1*
X2566860Y3221587D2*
X2610344D1*
X2702060D2*
X2710335D1*
X2802064D2*
X2810351D1*
X3007045D2*
X4165440D1*
X2566860Y3208726D2*
X2606157D1*
X3007045D2*
X4165440D1*
X2566860Y3195865D2*
X2605523D1*
X3007045D2*
X4165440D1*
X2566860Y3183004D2*
X2608364D1*
X3007045D2*
X4165440D1*
X2566860Y3170144D2*
X2615343D1*
X2797065D2*
X2815325D1*
X2897069D2*
X2905381D1*
X3007045D2*
X4165440D1*
X2566860Y3157283D2*
X2629730D1*
X2782678D2*
X2829738D1*
X2882655D2*
X2905356D1*
X3007045D2*
X4165440D1*
X2564272Y3144422D2*
X2659495D1*
X2754333D2*
X4165440D1*
X460564Y3131561D2*
X2274654D1*
X2325136D2*
X2646655D1*
X2741468D2*
X4165440D1*
X460564Y3118700D2*
X2633791D1*
X2728603D2*
X4165440D1*
X460564Y3105839D2*
X2620926D1*
X2715763D2*
X4165440D1*
X460564Y3092978D2*
X2512192D1*
X2702897D2*
X4165440D1*
X460564Y3080117D2*
X2495216D1*
X2690032D2*
X4165440D1*
X460564Y3067256D2*
X1434455D1*
X1490443D2*
X2482351D1*
X2677167D2*
X4165440D1*
X460564Y3054396D2*
X1424914D1*
X2058595D2*
X2469486D1*
X2664301D2*
X4165440D1*
X460564Y3041535D2*
X1421361D1*
X2071435D2*
X2456620D1*
X2651436D2*
X4165440D1*
X460564Y3028674D2*
X829356D1*
X878315D2*
X1422123D1*
X2084300D2*
X2443755D1*
X2538592D2*
X2728212D1*
X2780191D2*
X4165440D1*
X460564Y3015813D2*
X817735D1*
X2097165D2*
X2430890D1*
X2525728D2*
X2717478D1*
X2790924D2*
X4165440D1*
X460564Y3002952D2*
X813116D1*
X1972522D2*
X2033869D1*
X2110031D2*
X2418050D1*
X2512863D2*
X2713317D1*
X2795086D2*
X4165440D1*
X460564Y2990091D2*
X812990D1*
X1985386D2*
X2046734D1*
X2119444D2*
X2405186D1*
X2499997D2*
X2713519D1*
X2799399D2*
X4165440D1*
X460564Y2977230D2*
X817228D1*
X1998252D2*
X2059599D1*
X2121018D2*
X2392319D1*
X2487132D2*
X2718239D1*
X2812239D2*
X4165440D1*
X460564Y2964369D2*
X828113D1*
X879560D2*
X1105085D1*
X1873609D2*
X1934956D1*
X2011117D2*
X2066399D1*
X2121018D2*
X2379455D1*
X2474292D2*
X2730039D1*
X2819776D2*
X4165440D1*
X460564Y2951508D2*
X1102419D1*
X1886474D2*
X1947822D1*
X2019796D2*
X2066399D1*
X2121018D2*
X2366590D1*
X2461427D2*
X2761809D1*
X2820512D2*
X4165440D1*
X460564Y2938648D2*
X1104019D1*
X1183377D2*
X1609340D1*
X1690552D2*
X1698175D1*
X1899339D2*
X1960662D1*
X2021014D2*
X2066399D1*
X2121018D2*
X2353724D1*
X2448561D2*
X2765894D1*
X2820512D2*
X4165440D1*
X460564Y2925787D2*
X1110515D1*
X1176881D2*
X1609011D1*
X1690882D2*
X1711045D1*
X1817327D2*
X1836044D1*
X1912205D2*
X1966396D1*
X2021014D2*
X2066399D1*
X2121018D2*
X2340884D1*
X2435696D2*
X2765894D1*
X2820512D2*
X4165440D1*
X460564Y2912926D2*
X1127237D1*
X1160158D2*
X1613071D1*
X1700043D2*
X1723885D1*
X1821006D2*
X1848884D1*
X1920121D2*
X1966396D1*
X2021014D2*
X2066399D1*
X2121018D2*
X2328019D1*
X2422831D2*
X2765894D1*
X2820512D2*
X4165440D1*
X460564Y2900065D2*
X1623525D1*
X1712907D2*
X1766389D1*
X1821006D2*
X1861749D1*
X1921010D2*
X1966396D1*
X2021014D2*
X2066399D1*
X2121018D2*
X2315154D1*
X2409991D2*
X2765894D1*
X2820512D2*
X4165440D1*
X460564Y2887204D2*
X1649612D1*
X1720317D2*
X1766389D1*
X1821006D2*
X1866393D1*
X1921010D2*
X1966396D1*
X2021014D2*
X2066399D1*
X2121018D2*
X2302288D1*
X2397125D2*
X2765894D1*
X2820512D2*
X4165440D1*
X544529Y2874343D2*
X568067D1*
X619336D2*
X668071D1*
X719340D2*
X768050D1*
X819343D2*
X868054D1*
X919347D2*
X968058D1*
X1019351D2*
X1068062D1*
X1119330D2*
X1168066D1*
X1219334D2*
X1268069D1*
X1319338D2*
X1368073D1*
X1419342D2*
X1468052D1*
X1519346D2*
X1568056D1*
X1619350D2*
X1662477D1*
X1721002D2*
X1766389D1*
X1821006D2*
X1866393D1*
X1921010D2*
X1966396D1*
X2021014D2*
X2066399D1*
X2121018D2*
X2168053D1*
X2219347D2*
X2268057D1*
X2384260D2*
X2765894D1*
X2820512D2*
X4165440D1*
X544529Y2861482D2*
X553197D1*
X634205D2*
X653201D1*
X734209D2*
X753205D1*
X834188D2*
X853209D1*
X934192D2*
X953188D1*
X1034196D2*
X1053192D1*
X1134200D2*
X1153196D1*
X1234204D2*
X1253200D1*
X1334208D2*
X1353204D1*
X1434212D2*
X1453207D1*
X1534190D2*
X1553210D1*
X1634193D2*
X1653190D1*
X1734197D2*
X1753193D1*
X1834201D2*
X1853197D1*
X1934205D2*
X1953201D1*
X2034209D2*
X2053205D1*
X2134213D2*
X2153209D1*
X2234191D2*
X2253187D1*
X2371396D2*
X2765894D1*
X2820512D2*
X4165440D1*
X2358529Y2848621D2*
X2765894D1*
X2820512D2*
X4165440D1*
X2345665Y2835760D2*
X2765894D1*
X2820512D2*
X4165440D1*
X2343838Y2822899D2*
X2765894D1*
X2820512D2*
X4165440D1*
X639788Y2810039D2*
X647619D1*
X739792D2*
X747623D1*
X839796D2*
X847613D1*
X939775D2*
X947606D1*
X1039779D2*
X1047628D1*
X1139783D2*
X1147613D1*
X1239787D2*
X1247617D1*
X1339791D2*
X1347599D1*
X1439793D2*
X1447625D1*
X1539797D2*
X1547613D1*
X1639776D2*
X1647607D1*
X1739780D2*
X1747611D1*
X1839784D2*
X1847619D1*
X1939788D2*
X1947619D1*
X2039792D2*
X2047591D1*
X2139796D2*
X2147600D1*
X2239800D2*
X2247604D1*
X2339777D2*
X2765894D1*
X2820512D2*
X4165440D1*
X544529Y2797178D2*
X556396D1*
X631008D2*
X656399D1*
X731012D2*
X756403D1*
X830991D2*
X856407D1*
X930995D2*
X956385D1*
X1030999D2*
X1056389D1*
X1131002D2*
X1156393D1*
X1231006D2*
X1256397D1*
X1331010D2*
X1356401D1*
X1431014D2*
X1456405D1*
X1530993D2*
X1556409D1*
X1630997D2*
X1656386D1*
X1731001D2*
X1756390D1*
X1831004D2*
X1856394D1*
X1931008D2*
X1956398D1*
X2031012D2*
X2056402D1*
X2130990D2*
X2156406D1*
X2230994D2*
X2256410D1*
X2330998D2*
X2765894D1*
X2820512D2*
X4165440D1*
X544529Y2784317D2*
X576417D1*
X610987D2*
X676420D1*
X710991D2*
X776398D1*
X810995D2*
X876402D1*
X910999D2*
X976406D1*
X1011003D2*
X1076410D1*
X1110981D2*
X1176414D1*
X1210985D2*
X1276418D1*
X1310989D2*
X1376422D1*
X1410993D2*
X1476401D1*
X1510997D2*
X1576403D1*
X1611001D2*
X1676407D1*
X1710980D2*
X1776411D1*
X1810983D2*
X1876415D1*
X1910987D2*
X1976419D1*
X2010990D2*
X2076398D1*
X2110994D2*
X2176402D1*
X2210998D2*
X2276406D1*
X2311002D2*
X2765894D1*
X2820512D2*
X3889002D1*
X3973385D2*
X4165440D1*
X544529Y2771456D2*
X563525D1*
X623852D2*
X663529D1*
X723856D2*
X763533D1*
X823860D2*
X863537D1*
X923864D2*
X963541D1*
X1023868D2*
X1063545D1*
X1123872D2*
X1163523D1*
X1223876D2*
X1263527D1*
X1323855D2*
X1363531D1*
X1423859D2*
X1463535D1*
X1523861D2*
X1563539D1*
X1623865D2*
X1663543D1*
X1723869D2*
X1763546D1*
X1823873D2*
X1863525D1*
X1923877D2*
X1963529D1*
X2023856D2*
X2063532D1*
X2123860D2*
X2163536D1*
X2223864D2*
X2263540D1*
X2323868D2*
X2765894D1*
X2820512D2*
X3872661D1*
X3989728D2*
X4165440D1*
X544529Y2758595D2*
X551142D1*
X636262D2*
X651121D1*
X736266D2*
X751125D1*
X836270D2*
X851129D1*
X936272D2*
X951133D1*
X1036276D2*
X1051137D1*
X1136280D2*
X1151140D1*
X1236259D2*
X1251119D1*
X1336263D2*
X1351123D1*
X1436267D2*
X1451127D1*
X1536271D2*
X1551130D1*
X1636275D2*
X1651134D1*
X1736279D2*
X1751138D1*
X1836283D2*
X1851142D1*
X1936260D2*
X1951120D1*
X2036264D2*
X2051124D1*
X2136268D2*
X2151128D1*
X2236272D2*
X2251132D1*
X2336276D2*
X2765894D1*
X2820512D2*
X3862460D1*
X3999953D2*
X4165440D1*
X2342365Y2745734D2*
X2765894D1*
X2820512D2*
X3855812D1*
X4006602D2*
X4165440D1*
X2344498Y2732873D2*
X2765894D1*
X2820512D2*
X3851802D1*
X4010611D2*
X4165440D1*
X2343254Y2720012D2*
X2765894D1*
X2820512D2*
X3850025D1*
X4012388D2*
X4165440D1*
X638317Y2707151D2*
X649091D1*
X738296D2*
X749095D1*
X838298D2*
X849099D1*
X938302D2*
X949103D1*
X1038306D2*
X1049107D1*
X1138310D2*
X1149085D1*
X1238314D2*
X1249088D1*
X1338293D2*
X1349092D1*
X1438297D2*
X1449096D1*
X1538301D2*
X1549100D1*
X1738308D2*
X1749083D1*
X1838312D2*
X1849086D1*
X1938315D2*
X1949090D1*
X2038294D2*
X2049094D1*
X2138298D2*
X2149098D1*
X2238302D2*
X2249102D1*
X2338306D2*
X2765894D1*
X2820512D2*
X3850330D1*
X4012057D2*
X4165440D1*
X544529Y2694291D2*
X559364D1*
X628040D2*
X659368D1*
X728044D2*
X759372D1*
X828048D2*
X859376D1*
X928025D2*
X959354D1*
X1028029D2*
X1059357D1*
X1128033D2*
X1159361D1*
X1228037D2*
X1259365D1*
X1328041D2*
X1359369D1*
X1428045D2*
X1459373D1*
X1528049D2*
X1559352D1*
X1728031D2*
X1759360D1*
X1828035D2*
X1859363D1*
X1928039D2*
X1959367D1*
X2028043D2*
X2059371D1*
X2128046D2*
X2159375D1*
X2228025D2*
X2259354D1*
X2328029D2*
X2765894D1*
X2820512D2*
X3852767D1*
X4009621D2*
X4165440D1*
X460564Y2681430D2*
X866405D1*
X920997D2*
X1599140D1*
X1675301D2*
X2765894D1*
X2820512D2*
X3857537D1*
X4004876D2*
X4165440D1*
X460564Y2668569D2*
X866405D1*
X1225653D2*
X1612006D1*
X1688167D2*
X2765894D1*
X2820512D2*
X3865150D1*
X3997263D2*
X4165440D1*
X460564Y2655708D2*
X869881D1*
X1253945D2*
X1624871D1*
X1701032D2*
X2765894D1*
X2820512D2*
X3876797D1*
X3985616D2*
X4165440D1*
X460564Y2642847D2*
X881477D1*
X1270642D2*
X1637710D1*
X1713872D2*
X2765894D1*
X2820512D2*
X3896514D1*
X3965899D2*
X4165440D1*
X460564Y2629986D2*
X894469D1*
X1277138D2*
X1650575D1*
X1726737D2*
X2765894D1*
X2820512D2*
X4165440D1*
X460564Y2617125D2*
X1196182D1*
X1278737D2*
X1663441D1*
X1739603D2*
X2765894D1*
X2820512D2*
X4165440D1*
X460564Y2604264D2*
X1198846D1*
X1276073D2*
X1676306D1*
X1752468D2*
X2765894D1*
X2820512D2*
X4165440D1*
X460564Y2591403D2*
X1206890D1*
X1268003D2*
X1689171D1*
X1765333D2*
X2765894D1*
X2820512D2*
X4165440D1*
X460564Y2578543D2*
X1702037D1*
X1778199D2*
X2765894D1*
X2820512D2*
X4165440D1*
X460564Y2565682D2*
X1714877D1*
X1791039D2*
X2765894D1*
X2820512D2*
X4165440D1*
X460564Y2552821D2*
X1727742D1*
X1803903D2*
X2765894D1*
X2820512D2*
X4165440D1*
X460564Y2539960D2*
X1740607D1*
X1816768D2*
X2765894D1*
X2820512D2*
X4165440D1*
X460564Y2527099D2*
X1753473D1*
X1829634D2*
X2765894D1*
X2820512D2*
X4165440D1*
X460564Y2514238D2*
X1766338D1*
X1842499D2*
X2765894D1*
X2820512D2*
X4165440D1*
X460564Y2501377D2*
X492399D1*
X550087D2*
X1779203D1*
X1855364D2*
X2765894D1*
X2820512D2*
X4165440D1*
X460564Y2488516D2*
X480701D1*
X561810D2*
X1792043D1*
X1868204D2*
X2765894D1*
X2820512D2*
X4165440D1*
X460564Y2475655D2*
X475321D1*
X567190D2*
X999193D1*
X1053785D2*
X1568335D1*
X1619070D2*
X1804909D1*
X1881069D2*
X2765894D1*
X2820512D2*
X4165440D1*
X460564Y2462794D2*
X473977D1*
X568510D2*
X989246D1*
X1630159D2*
X1817773D1*
X1893935D2*
X2765894D1*
X2820512D2*
X4165440D1*
X460564Y2449934D2*
X476336D1*
X566175D2*
X985465D1*
X1634523D2*
X1830638D1*
X1906800D2*
X2765894D1*
X2820512D2*
X4165440D1*
X460564Y2437073D2*
X483061D1*
X559451D2*
X986024D1*
X1634447D2*
X1843504D1*
X1970441D2*
X2765894D1*
X2820512D2*
X4165440D1*
X460564Y2424212D2*
X497829D1*
X544682D2*
X991175D1*
X1629931D2*
X1856369D1*
X1980718D2*
X2765894D1*
X2820512D2*
X4165440D1*
X460564Y2411351D2*
X1003939D1*
X1533352D2*
X1568868D1*
X1618537D2*
X1869209D1*
X1984676D2*
X2765894D1*
X2820512D2*
X4165440D1*
X460564Y2398490D2*
X1039920D1*
X1534977D2*
X1882074D1*
X1984245D2*
X2765894D1*
X2820512D2*
X4165440D1*
X460564Y2385629D2*
X1042535D1*
X1532363D2*
X1895245D1*
X1979322D2*
X2009052D1*
X2065852D2*
X2765894D1*
X2820512D2*
X4165440D1*
X460564Y2372768D2*
X1050553D1*
X1111844D2*
X1343485D1*
X2075165D2*
X2765894D1*
X2820512D2*
X4165440D1*
X460564Y2359907D2*
X1340060D1*
X2078590D2*
X2264529D1*
X2322877D2*
X2602046D1*
X2660368D2*
X2765894D1*
X2820512D2*
X4165440D1*
X460564Y2347046D2*
X1007922D1*
X1066981D2*
X1340947D1*
X2077703D2*
X2171480D1*
X2669225D2*
X2765894D1*
X2831423D2*
X4165440D1*
X460564Y2334186D2*
X999270D1*
X2672397D2*
X2769396D1*
X2844288D2*
X4165440D1*
X460564Y2321325D2*
X996225D1*
X2671280D2*
X2780993D1*
X2857154D2*
X3696481D1*
X3803523D2*
X4165440D1*
X460564Y2308464D2*
X997468D1*
X2665418D2*
X2793857D1*
X2870019D2*
X3682423D1*
X3817582D2*
X4165440D1*
X460564Y2295603D2*
X1003482D1*
X2218357D2*
X2274148D1*
X2313260D2*
X2611638D1*
X2650751D2*
X2806722D1*
X2882884D2*
X3674683D1*
X3825321D2*
X4165440D1*
X460564Y2282742D2*
X1018606D1*
X2226224D2*
X2819588D1*
X2895750D2*
X3670674D1*
X3829305D2*
X4165440D1*
X460564Y2269881D2*
X1055375D1*
X2228735D2*
X2832428D1*
X2916608D2*
X3669659D1*
X3830344D2*
X4165440D1*
X460564Y2257020D2*
X1004116D1*
X2227010D2*
X2845293D1*
X2941196D2*
X3671460D1*
X3828518D2*
X4165440D1*
X460564Y2244159D2*
X995489D1*
X2220336D2*
X2858158D1*
X2948986D2*
X3676384D1*
X3823620D2*
X4165440D1*
X460564Y2231298D2*
X992469D1*
X1434490D2*
X2171936D1*
X2202955D2*
X2868918D1*
X2951499D2*
X3685468D1*
X3814536D2*
X4165440D1*
X460564Y2218438D2*
X993712D1*
X1434465D2*
X2870669D1*
X2949747D2*
X3702672D1*
X3797331D2*
X4165440D1*
X460564Y2205577D2*
X999751D1*
X1429999D2*
X2877368D1*
X2943023D2*
X4165440D1*
X460564Y2192716D2*
X503995D1*
X538516D2*
X1014926D1*
X1052466D2*
X1368708D1*
X1418707D2*
X2894927D1*
X2925489D2*
X4165440D1*
X460564Y2179855D2*
X485319D1*
X557167D2*
X1122086D1*
X1177819D2*
X2215835D1*
X2271569D2*
X4165440D1*
X460564Y2166994D2*
X477377D1*
X565109D2*
X1112443D1*
X2281187D2*
X4165440D1*
X460564Y2154133D2*
X474179D1*
X568306D2*
X1108865D1*
X2284789D2*
X3595411D1*
X3668375D2*
X3831629D1*
X3904592D2*
X4165440D1*
X460564Y2141272D2*
X474712D1*
X567798D2*
X1109602D1*
X2284053D2*
X3582596D1*
X3681165D2*
X3818814D1*
X3917382D2*
X4165440D1*
X460564Y2128411D2*
X479103D1*
X563384D2*
X1114930D1*
X2278725D2*
X3575491D1*
X3688294D2*
X3811709D1*
X3924512D2*
X4165440D1*
X460564Y2115550D2*
X488999D1*
X553487D2*
X1128226D1*
X1171679D2*
X1295170D1*
X2179735D2*
X2221976D1*
X2265428D2*
X3571939D1*
X3691847D2*
X3808157D1*
X3928065D2*
X4165440D1*
X460564Y2102690D2*
X1286670D1*
X2188237D2*
X3571203D1*
X3692557D2*
X3807420D1*
X3928776D2*
X4165440D1*
X460564Y2089829D2*
X1283726D1*
X2191180D2*
X3571203D1*
X3692557D2*
X3807420D1*
X3928776D2*
X4165440D1*
X460564Y2076968D2*
X1285045D1*
X2189860D2*
X3571203D1*
X3692557D2*
X3807420D1*
X3928776D2*
X4165440D1*
X460564Y2064107D2*
X1184204D1*
X1203195D2*
X1291161D1*
X2183746D2*
X2584182D1*
X2603199D2*
X3571279D1*
X3692507D2*
X3807497D1*
X3928725D2*
X4165440D1*
X460564Y2051246D2*
X1162255D1*
X1225145D2*
X1306615D1*
X2168267D2*
X2562258D1*
X2625148D2*
X3573309D1*
X3690451D2*
X3809553D1*
X3926670D2*
X4165440D1*
X460564Y2038385D2*
X1154718D1*
X2632684D2*
X3578511D1*
X3685250D2*
X3814754D1*
X3921468D2*
X4165440D1*
X460564Y2025524D2*
X1080115D1*
X1107276D2*
X1152409D1*
X2634993D2*
X2801368D1*
X2828556D2*
X3588027D1*
X3675759D2*
X3824245D1*
X3911977D2*
X4165440D1*
X460564Y2012663D2*
X1061338D1*
X2847334D2*
X3606474D1*
X3657285D2*
X3842718D1*
X3893504D2*
X4165440D1*
X460564Y1999802D2*
X1054359D1*
X2854312D2*
X4165440D1*
X460564Y1986941D2*
X1052405D1*
X2856266D2*
X4165440D1*
X460564Y1974081D2*
X1054690D1*
X2853956D2*
X4165440D1*
X460564Y1961220D2*
X1062200D1*
X1125217D2*
X1298140D1*
X2595890D2*
X2783453D1*
X2846470D2*
X4165440D1*
X460564Y1948359D2*
X1083896D1*
X1103522D2*
X1285273D1*
X2597464D2*
X2805150D1*
X2824775D2*
X4165440D1*
X460564Y1935498D2*
X1272536D1*
X2594798D2*
X4165440D1*
X460564Y1922637D2*
X1266699D1*
X1335704D2*
X2525667D1*
X2586730D2*
X4165440D1*
X460564Y1909776D2*
X1266394D1*
X1322864D2*
X4165440D1*
X460564Y1896915D2*
X1266394D1*
X1321012D2*
X4165440D1*
X460564Y1884054D2*
X1266394D1*
X1321012D2*
X4165440D1*
X544529Y1871193D2*
X563170D1*
X624233D2*
X663174D1*
X724237D2*
X763178D1*
X824216D2*
X863182D1*
X924220D2*
X963161D1*
X1024224D2*
X1063165D1*
X1124228D2*
X1163169D1*
X1224231D2*
X1263172D1*
X1324235D2*
X1363176D1*
X1424239D2*
X1463179D1*
X1524217D2*
X1563183D1*
X1624221D2*
X1663162D1*
X1724225D2*
X1763166D1*
X1824229D2*
X1863170D1*
X1924233D2*
X1963174D1*
X2024237D2*
X2063178D1*
X2124214D2*
X2163182D1*
X2224218D2*
X2263186D1*
X2324222D2*
X4165440D1*
X636439Y1858333D2*
X650969D1*
X736443D2*
X750947D1*
X836447D2*
X850951D1*
X936451D2*
X950955D1*
X1036455D2*
X1050959D1*
X1136432D2*
X1150962D1*
X1236436D2*
X1250966D1*
X1336440D2*
X1350945D1*
X1436444D2*
X1450949D1*
X1536448D2*
X1550953D1*
X1636452D2*
X1650956D1*
X1736431D2*
X1750960D1*
X1836435D2*
X1850964D1*
X1936438D2*
X1950968D1*
X2036441D2*
X2050947D1*
X2136445D2*
X2150951D1*
X2236449D2*
X2250955D1*
X2336453D2*
X4165440D1*
X2342441Y1845472D2*
X4165440D1*
X2344523Y1832611D2*
X4165440D1*
X2343204Y1819750D2*
X4165440D1*
X638165Y1806889D2*
X649243D1*
X738169D2*
X749247D1*
X838146D2*
X849251D1*
X938150D2*
X949229D1*
X1038154D2*
X1049233D1*
X1138158D2*
X1149237D1*
X1238162D2*
X1249241D1*
X1338166D2*
X1349245D1*
X1438170D2*
X1449249D1*
X1538149D2*
X1549252D1*
X1638153D2*
X1649231D1*
X1738155D2*
X1749235D1*
X1838159D2*
X1849238D1*
X1938163D2*
X1949242D1*
X2038167D2*
X2049246D1*
X2138146D2*
X2149250D1*
X2238150D2*
X2249254D1*
X2338154D2*
X4165440D1*
X544529Y1794028D2*
X559669D1*
X627735D2*
X659648D1*
X727739D2*
X759651D1*
X827743D2*
X859655D1*
X927747D2*
X959658D1*
X1027751D2*
X1059662D1*
X1127729D2*
X1159666D1*
X1227733D2*
X1259670D1*
X1327737D2*
X1359649D1*
X1427741D2*
X1459653D1*
X1527745D2*
X1559657D1*
X1627749D2*
X1659661D1*
X1727752D2*
X1759665D1*
X1827730D2*
X1859669D1*
X1927734D2*
X1959671D1*
X2027738D2*
X2059650D1*
X2127742D2*
X2159654D1*
X2227746D2*
X2259658D1*
X2327750D2*
X4165440D1*
X460564Y1781167D2*
X4165440D1*
X460564Y1768306D2*
X4165440D1*
X460564Y1755445D2*
X4165440D1*
X460564Y1742585D2*
X4165440D1*
X460564Y1729724D2*
X4165440D1*
X460564Y1716863D2*
X827784D1*
X884609D2*
X1315267D1*
X1372119D2*
X4165440D1*
X460564Y1704002D2*
X818470D1*
X1381431D2*
X4165440D1*
X460564Y1691141D2*
X815070D1*
X1384831D2*
X4165440D1*
X460564Y1678280D2*
X675329D1*
X702617D2*
X815959D1*
X1383943D2*
X1514158D1*
X1573242D2*
X4165440D1*
X460564Y1665419D2*
X647238D1*
X730708D2*
X821516D1*
X1581896D2*
X4165440D1*
X460564Y1652558D2*
X634881D1*
X743091D2*
X835319D1*
X877073D2*
X1052481D1*
X1584915D2*
X4165440D1*
X460564Y1639697D2*
X627598D1*
X750373D2*
X870515D1*
X916886D2*
X1053725D1*
X1583671D2*
X4165440D1*
X460564Y1626836D2*
X623640D1*
X754306D2*
X858132D1*
X1577658D2*
X4165440D1*
X460564Y1613976D2*
X622397D1*
X755550D2*
X853159D1*
X1234254D2*
X1524892D1*
X1562508D2*
X4165440D1*
X460564Y1601115D2*
X623716D1*
X754230D2*
X852728D1*
X1234686D2*
X4165440D1*
X460564Y1588254D2*
X627750D1*
X750196D2*
X856636D1*
X1230752D2*
X2118470D1*
X2168952D2*
X4165440D1*
X460564Y1575393D2*
X635161D1*
X742787D2*
X866886D1*
X920515D2*
X1107292D1*
X2180091D2*
X4165440D1*
X460564Y1562532D2*
X647746D1*
X730226D2*
X1102902D1*
X2184507D2*
X4165440D1*
X460564Y1549671D2*
X677613D1*
X700359D2*
X1102927D1*
X2184481D2*
X4165440D1*
X460564Y1536810D2*
X622397D1*
X755550D2*
X1107393D1*
X2179990D2*
X4165440D1*
X460564Y1523949D2*
X622397D1*
X755550D2*
X966205D1*
X1021179D2*
X1118735D1*
X1271175D2*
X2118724D1*
X2168672D2*
X4165440D1*
X460564Y1511088D2*
X622397D1*
X755550D2*
X956360D1*
X1281022D2*
X2793756D1*
X2836142D2*
X4165440D1*
X460564Y1498228D2*
X622397D1*
X755550D2*
X952655D1*
X1322002D2*
X1415398D1*
X1471995D2*
X2115399D1*
X2171997D2*
X2265393D1*
X2321990D2*
X2780155D1*
X2928788D2*
X4165440D1*
X460564Y1485367D2*
X622397D1*
X755550D2*
X953264D1*
X2331378D2*
X2774674D1*
X2942465D2*
X4165440D1*
X460564Y1472506D2*
X622397D1*
X755550D2*
X958466D1*
X2334830D2*
X2773836D1*
X2955330D2*
X4165440D1*
X460564Y1459645D2*
X622397D1*
X755550D2*
X971407D1*
X1016002D2*
X1221405D1*
X2333966D2*
X2777313D1*
X3216873D2*
X4165440D1*
X460564Y1446784D2*
X622397D1*
X755550D2*
X1258935D1*
X2328460D2*
X2786728D1*
X2843172D2*
X2904899D1*
X3225602D2*
X3852107D1*
X3985287D2*
X4165440D1*
X460564Y1433923D2*
X622397D1*
X755550D2*
X1272612D1*
X1314770D2*
X1422630D1*
X1464788D2*
X2122632D1*
X2164791D2*
X2272625D1*
X2314783D2*
X2917764D1*
X3228672D2*
X3852107D1*
X3985287D2*
X4165440D1*
X460564Y1421062D2*
X622397D1*
X755550D2*
X2930630D1*
X3227455D2*
X3852107D1*
X3985287D2*
X4165440D1*
X460564Y1408201D2*
X2679796D1*
X2695071D2*
X3027208D1*
X3042494D2*
X3153424D1*
X3221491D2*
X3852107D1*
X3985287D2*
X4165440D1*
X460564Y1395340D2*
X655410D1*
X722537D2*
X2384504D1*
X2403672D2*
X2656298D1*
X2718604D2*
X3003686D1*
X3065991D2*
X3168422D1*
X3206494D2*
X3852107D1*
X3985287D2*
X4165440D1*
X460564Y1382480D2*
X639347D1*
X738600D2*
X2362606D1*
X2425546D2*
X2648585D1*
X3073707D2*
X3852107D1*
X3985287D2*
X4165440D1*
X460564Y1369619D2*
X630237D1*
X747709D2*
X2355094D1*
X2433057D2*
X2646149D1*
X3076142D2*
X3852107D1*
X3985287D2*
X4165440D1*
X460564Y1356758D2*
X624985D1*
X752987D2*
X1636315D1*
X1663578D2*
X2350907D1*
X2435392D2*
X2647976D1*
X3074315D2*
X3852107D1*
X3985287D2*
X4165440D1*
X460564Y1343897D2*
X622599D1*
X755347D2*
X1617562D1*
X1682330D2*
X2338043D1*
X2433438D2*
X2654750D1*
X3067540D2*
X3852107D1*
X3985287D2*
X4165440D1*
X460564Y1331036D2*
X622827D1*
X755119D2*
X1610585D1*
X1689309D2*
X2325176D1*
X2426485D2*
X2672666D1*
X2702238D2*
X3020053D1*
X3049625D2*
X3852107D1*
X3985287D2*
X4165440D1*
X460564Y1318175D2*
X625670D1*
X752277D2*
X1608655D1*
X1694207D2*
X2312312D1*
X2407809D2*
X3897808D1*
X3939611D2*
X4165440D1*
X460564Y1305314D2*
X631506D1*
X746440D2*
X1610940D1*
X1707071D2*
X2299447D1*
X2386924D2*
X3874742D1*
X3962676D2*
X4165440D1*
X460564Y1292453D2*
X641478D1*
X736468D2*
X1618451D1*
X2374060D2*
X3863297D1*
X3974096D2*
X4165440D1*
X460564Y1279592D2*
X659697D1*
X718249D2*
X1640222D1*
X2361220D2*
X3856573D1*
X3980846D2*
X4165440D1*
X460564Y1266731D2*
X1658188D1*
X2348355D2*
X3853020D1*
X3984373D2*
X4165440D1*
X460564Y1253871D2*
X622397D1*
X755550D2*
X1671053D1*
X2335489D2*
X3852158D1*
X3985260D2*
X4165440D1*
X460564Y1241010D2*
X622397D1*
X755550D2*
X1687091D1*
X2319452D2*
X3853833D1*
X3983561D2*
X4165440D1*
X460564Y1228149D2*
X622397D1*
X755550D2*
X3858323D1*
X3979095D2*
X4165440D1*
X460564Y1215288D2*
X622397D1*
X755550D2*
X3866292D1*
X3971102D2*
X4165440D1*
X460564Y1202427D2*
X622397D1*
X755550D2*
X3879969D1*
X3957449D2*
X4165440D1*
X460564Y1189566D2*
X622397D1*
X755550D2*
X932836D1*
X979564D2*
X1920314D1*
X1967066D2*
X4165440D1*
X460564Y1176705D2*
X622397D1*
X755550D2*
X920556D1*
X1979348D2*
X3888621D1*
X3948771D2*
X4165440D1*
X460564Y1163844D2*
X622397D1*
X755550D2*
X915633D1*
X1984271D2*
X3870809D1*
X3966585D2*
X4165440D1*
X460564Y1150983D2*
X622397D1*
X755550D2*
X915226D1*
X1984676D2*
X3860989D1*
X3976405D2*
X4165440D1*
X460564Y1138123D2*
X622397D1*
X755550D2*
X919210D1*
X1980692D2*
X3855254D1*
X3982140D2*
X4165440D1*
X460564Y1125262D2*
X668071D1*
X709875D2*
X929539D1*
X982861D2*
X1917041D1*
X1970365D2*
X3852512D1*
X3984880D2*
X4165440D1*
X460564Y1112401D2*
X645006D1*
X732941D2*
X3852360D1*
X3985032D2*
X4165440D1*
X460564Y1099540D2*
X633587D1*
X744360D2*
X3854822D1*
X3982596D2*
X4165440D1*
X460564Y1086679D2*
X626836D1*
X751109D2*
X3860176D1*
X3977217D2*
X4165440D1*
X460564Y1073818D2*
X623284D1*
X754662D2*
X3869438D1*
X3967955D2*
X4165440D1*
X460564Y1060957D2*
X622422D1*
X755525D2*
X3885856D1*
X3951562D2*
X4165440D1*
X460564Y1048096D2*
X624121D1*
X753825D2*
X4165440D1*
X460564Y1035235D2*
X628588D1*
X749359D2*
X4165440D1*
X460564Y1022375D2*
X636556D1*
X741390D2*
X4165440D1*
X460564Y1009514D2*
X650233D1*
X727713D2*
X4165440D1*
X460564Y996653D2*
X4165440D1*
X460564Y983792D2*
X622397D1*
X755550D2*
X4165440D1*
X460564Y970931D2*
X622397D1*
X755550D2*
X4165440D1*
X460564Y958070D2*
X622397D1*
X755550D2*
X4165440D1*
X460564Y945209D2*
X622397D1*
X755550D2*
X4165440D1*
X460564Y932348D2*
X622397D1*
X755550D2*
X4165440D1*
X460564Y919487D2*
X622397D1*
X755550D2*
X4165440D1*
X460564Y906627D2*
X622397D1*
X755550D2*
X4165440D1*
X460564Y893766D2*
X622397D1*
X755550D2*
X4165440D1*
X460564Y880905D2*
X622397D1*
X755550D2*
X4165440D1*
X460564Y868044D2*
X622397D1*
X755550D2*
X4165440D1*
X460564Y855183D2*
X4165440D1*
X460564Y842322D2*
X4165440D1*
X460564Y829461D2*
X4165440D1*
X460564Y816600D2*
X4165440D1*
X460564Y803739D2*
X4165440D1*
X460564Y790878D2*
X4165440D1*
X460564Y778018D2*
X4165440D1*
X460564Y765157D2*
X4165440D1*
X460564Y752296D2*
X4165440D1*
X460564Y739435D2*
X4165440D1*
X460564Y726574D2*
X695730D1*
X760955D2*
X833519D1*
X898743D2*
X937354D1*
X1070508D2*
X1109119D1*
X1174343D2*
X1246906D1*
X1312130D2*
X1350742D1*
X1483896D2*
X1522507D1*
X1587731D2*
X1660294D1*
X1725519D2*
X1764130D1*
X1897284D2*
X1935896D1*
X2001120D2*
X2073683D1*
X2138907D2*
X2177518D1*
X2310672D2*
X2349283D1*
X2414508D2*
X2487071D1*
X2552296D2*
X2590906D1*
X2724061D2*
X2762671D1*
X2827896D2*
X2900459D1*
X2965683D2*
X3004294D1*
X3137448D2*
X3176060D1*
X3241284D2*
X3313847D1*
X3379071D2*
X3417657D1*
X3550836D2*
X3589422D1*
X3654646D2*
X3727235D1*
X3792460D2*
X3831045D1*
X3964225D2*
X4165440D1*
X460564Y713713D2*
X679212D1*
X777474D2*
X816999D1*
X915288D2*
X937354D1*
X1070508D2*
X1092599D1*
X1190863D2*
X1230388D1*
X1328675D2*
X1350742D1*
X1483896D2*
X1505987D1*
X1604251D2*
X1643775D1*
X1742039D2*
X1764130D1*
X1897284D2*
X1919376D1*
X2017638D2*
X2057163D1*
X2155427D2*
X2177518D1*
X2310672D2*
X2332738D1*
X2431027D2*
X2470552D1*
X2568814D2*
X2590906D1*
X2724061D2*
X2746127D1*
X2844415D2*
X2883940D1*
X2982203D2*
X3004294D1*
X3137448D2*
X3159515D1*
X3257804D2*
X3297327D1*
X3395591D2*
X3417657D1*
X3550836D2*
X3572903D1*
X3671191D2*
X3710716D1*
X3808980D2*
X3831045D1*
X3964225D2*
X4165440D1*
X460564Y700852D2*
X669898D1*
X786787D2*
X807687D1*
X924575D2*
X937354D1*
X1070508D2*
X1083287D1*
X1200175D2*
X1221074D1*
X1337962D2*
X1350742D1*
X1483896D2*
X1496675D1*
X1613564D2*
X1634462D1*
X1751351D2*
X1764130D1*
X1897284D2*
X1910064D1*
X2026952D2*
X2047851D1*
X2164739D2*
X2177518D1*
X2310672D2*
X2323451D1*
X2440340D2*
X2461239D1*
X2578128D2*
X2590906D1*
X2724061D2*
X2736839D1*
X2853728D2*
X2874627D1*
X2991515D2*
X3004294D1*
X3137448D2*
X3150203D1*
X3267116D2*
X3288015D1*
X3404903D2*
X3417657D1*
X3550836D2*
X3563590D1*
X3680504D2*
X3701403D1*
X3818292D2*
X3831045D1*
X3964225D2*
X4165440D1*
X460564Y687991D2*
X664494D1*
X792192D2*
X802306D1*
X929980D2*
X937361D1*
X1070508D2*
X1077882D1*
X1205581D2*
X1215670D1*
X1343368D2*
X1350742D1*
X1483896D2*
X1491270D1*
X1618969D2*
X1629058D1*
X1756756D2*
X1764130D1*
X1897284D2*
X1904646D1*
X2032356D2*
X2042445D1*
X2170144D2*
X2177532D1*
X2310672D2*
X2318046D1*
X2445745D2*
X2455834D1*
X2583532D2*
X2590906D1*
X2724061D2*
X2731436D1*
X2859133D2*
X2869222D1*
X2996920D2*
X3004271D1*
X3137448D2*
X3144813D1*
X3272495D2*
X3282611D1*
X3410309D2*
X3417653D1*
X3550836D2*
X3558210D1*
X3685884D2*
X3695998D1*
X3823696D2*
X3831045D1*
X3964225D2*
X4165440D1*
X460564Y675130D2*
X662032D1*
X3964225D2*
X4165440D1*
X460564Y662270D2*
X662134D1*
X3964225D2*
X4165440D1*
X460564Y649409D2*
X507877D1*
X555111D2*
X664875D1*
X791836D2*
X802662D1*
X929624D2*
X937365D1*
X1070508D2*
X1078263D1*
X1205225D2*
X1216050D1*
X1343012D2*
X1350742D1*
X1483896D2*
X1491625D1*
X1618588D2*
X1629439D1*
X1756401D2*
X1764130D1*
X1897284D2*
X1905019D1*
X2031976D2*
X2042826D1*
X2169789D2*
X2177523D1*
X2310672D2*
X2318402D1*
X2445364D2*
X2456214D1*
X2583178D2*
X2590906D1*
X2724061D2*
X2731789D1*
X2858752D2*
X2869577D1*
X2996540D2*
X3004266D1*
X3137448D2*
X3145203D1*
X3272141D2*
X3282965D1*
X3409928D2*
X3417676D1*
X3550836D2*
X3558566D1*
X3685528D2*
X3696354D1*
X3823315D2*
X3831045D1*
X3964225D2*
X4090558D1*
X4137792D2*
X4165440D1*
X460564Y636548D2*
X472175D1*
X590814D2*
X670558D1*
X786128D2*
X808372D1*
X923915D2*
X937354D1*
X1070508D2*
X1083947D1*
X1199516D2*
X1221759D1*
X1337304D2*
X1350742D1*
X1483896D2*
X1497335D1*
X1612903D2*
X1635123D1*
X1750691D2*
X1764130D1*
X1897284D2*
X1910722D1*
X2026292D2*
X2048511D1*
X2164079D2*
X2177518D1*
X2310672D2*
X2324111D1*
X2439654D2*
X2461898D1*
X2577468D2*
X2590906D1*
X2724061D2*
X2737499D1*
X2853043D2*
X2875287D1*
X2990856D2*
X3004294D1*
X3137448D2*
X3150888D1*
X3266431D2*
X3288675D1*
X3404243D2*
X3417657D1*
X3550836D2*
X3564275D1*
X3679819D2*
X3702064D1*
X3817632D2*
X3831045D1*
X3964225D2*
X4054855D1*
X609617Y623687D2*
X680327D1*
X776357D2*
X818116D1*
X914146D2*
X937354D1*
X1070508D2*
X1093716D1*
X1189746D2*
X1231503D1*
X1327533D2*
X1350742D1*
X1483896D2*
X1507104D1*
X1603134D2*
X1644892D1*
X1740922D2*
X1764130D1*
X1897284D2*
X1920493D1*
X2016523D2*
X2058280D1*
X2154310D2*
X2177518D1*
X2310672D2*
X2333881D1*
X2429910D2*
X2471669D1*
X2567699D2*
X2590906D1*
X2724061D2*
X2747268D1*
X2843298D2*
X2885056D1*
X2981086D2*
X3004294D1*
X3137448D2*
X3160657D1*
X3256687D2*
X3298444D1*
X3394474D2*
X3417657D1*
X3550836D2*
X3574045D1*
X3670049D2*
X3711833D1*
X3807863D2*
X3831045D1*
X3964225D2*
X4036052D1*
X622838Y610826D2*
X697989D1*
X758697D2*
X835802D1*
X896485D2*
X937354D1*
X1070508D2*
X1111377D1*
X1172085D2*
X1249191D1*
X1309872D2*
X1350742D1*
X1483896D2*
X1524766D1*
X1585473D2*
X1662553D1*
X1723260D2*
X1764130D1*
X1897284D2*
X1938154D1*
X1998861D2*
X2075941D1*
X2136649D2*
X2177518D1*
X2310672D2*
X2351541D1*
X2412250D2*
X2489329D1*
X2550037D2*
X2590906D1*
X2724061D2*
X2764930D1*
X2825612D2*
X2902717D1*
X2963426D2*
X3004294D1*
X3137448D2*
X3178318D1*
X3239001D2*
X3316106D1*
X3376813D2*
X3417657D1*
X3550836D2*
X3591707D1*
X3652389D2*
X3729494D1*
X3790201D2*
X3831045D1*
X3964225D2*
X4022831D1*
X632709Y597965D2*
X4012961D1*
X640169Y585104D2*
X4005501D1*
X645675Y572243D2*
X3999994D1*
X649507Y559382D2*
X3996162D1*
X651867Y546522D2*
X3993802D1*
X652780Y533661D2*
X3992889D1*
X652323Y520800D2*
X3993346D1*
X650472Y507939D2*
X3995197D1*
X647148Y495078D2*
X3998522D1*
X642225Y482217D2*
X4003445D1*
X635474Y469356D2*
X4010195D1*
X2913161Y3249485D2*
X3005735D1*
Y3150414D1*
X2906665D1*
Y3249485D1*
X2913161D1*
X2905583Y3196062D2*
X2904367Y3188385D1*
X2901965Y3180993D1*
X2898436Y3174067D1*
X2893867Y3167779D1*
X2888371Y3162283D1*
X2882082Y3157713D1*
X2875157Y3154184D1*
X2867764Y3151783D1*
X2860087Y3150566D1*
X2852313D1*
X2844636Y3151783D1*
X2837243Y3154184D1*
X2830318Y3157713D1*
X2824029Y3162283D1*
X2818533Y3167779D1*
X2813964Y3174067D1*
X2810435Y3180993D1*
X2808033Y3188385D1*
X2806817Y3196062D1*
Y3203836D1*
X2808033Y3211514D1*
X2810435Y3218906D1*
X2813964Y3225831D1*
X2818533Y3232120D1*
X2824029Y3237616D1*
X2830318Y3242186D1*
X2837243Y3245714D1*
X2844636Y3248116D1*
X2852313Y3249333D1*
X2860087D1*
X2867764Y3248116D1*
X2875157Y3245714D1*
X2882082Y3242186D1*
X2888371Y3237616D1*
X2893867Y3232120D1*
X2898436Y3225831D1*
X2901965Y3218906D1*
X2904367Y3211514D1*
X2905583Y3203836D1*
Y3196062D1*
X2805583D2*
X2804367Y3188385D1*
X2801965Y3180993D1*
X2798436Y3174067D1*
X2793867Y3167779D1*
X2788371Y3162283D1*
X2782082Y3157713D1*
X2775157Y3154184D1*
X2767764Y3151783D1*
X2760087Y3150566D1*
X2759130Y3150529D1*
X2646128Y3037655D1*
X2641989Y3034648D1*
X2637430Y3032325D1*
X2632562Y3030743D1*
X2627508Y3029944D1*
X2605462Y3029843D1*
X2538447D1*
X2343116Y2834502D1*
X2343083Y2827313D1*
X2341867Y2819636D1*
X2339465Y2812243D1*
X2335936Y2805318D1*
X2331367Y2799029D1*
X2325871Y2793533D1*
X2319582Y2788964D1*
X2312657Y2785435D1*
X2305264Y2783033D1*
X2297587Y2781817D1*
X2289813D1*
X2282136Y2783033D1*
X2274743Y2785435D1*
X2267818Y2788964D1*
X2261529Y2793533D1*
X2256033Y2799029D1*
X2251464Y2805318D1*
X2247935Y2812243D1*
X2245533Y2819636D1*
X2244317Y2827313D1*
Y2835087D1*
X2245533Y2842764D1*
X2247935Y2850157D1*
X2251464Y2857082D1*
X2256033Y2863371D1*
X2261529Y2868867D1*
X2267818Y2873436D1*
X2274743Y2876965D1*
X2282136Y2879367D1*
X2289813Y2880583D1*
X2296994Y2880606D1*
X2503773Y3087246D1*
X2507913Y3090254D1*
X2512472Y3092577D1*
X2517339Y3094158D1*
X2522393Y3094957D1*
X2544439Y3095058D1*
X2611455D1*
X2668301Y3151915D1*
X2662536Y3150821D1*
X2657356Y3150427D1*
X2652165Y3150578D1*
X2647016Y3151272D1*
X2641969Y3152502D1*
X2637079Y3154252D1*
X2632398Y3156507D1*
X2627981Y3159238D1*
X2623872Y3162417D1*
X2620120Y3166008D1*
X2616764Y3169973D1*
X2613842Y3174268D1*
X2611385Y3178846D1*
X2609422Y3183654D1*
X2607972Y3188642D1*
X2607053Y3193755D1*
X2606675Y3198935D1*
X2606842Y3204128D1*
X2607550Y3209273D1*
X2608794Y3214317D1*
X2610560Y3219201D1*
X2612826Y3223876D1*
X2615570Y3228287D1*
X2618760Y3232385D1*
X2622364Y3236128D1*
X2626338Y3239472D1*
X2630641Y3242381D1*
X2635225Y3244825D1*
X2640040Y3246775D1*
X2645032Y3248209D1*
X2650148Y3249113D1*
X2655329Y3249477D1*
X2660520Y3249296D1*
X2665665Y3248573D1*
X2670704Y3247314D1*
X2675585Y3245535D1*
X2680251Y3243254D1*
X2684654Y3240498D1*
X2688743Y3237294D1*
X2692476Y3233682D1*
X2695808Y3229697D1*
X2698705Y3225386D1*
X2701136Y3220794D1*
X2703071Y3215974D1*
X2704493Y3210978D1*
X2705381Y3205860D1*
X2705735Y3199949D1*
X2705462Y3194762D1*
X2704649Y3189632D1*
X2704228Y3187839D1*
X2707275Y3192200D1*
X2706665Y3199949D1*
X2707275Y3207699D1*
X2709088Y3215256D1*
X2712064Y3222438D1*
X2716125Y3229066D1*
X2721174Y3234976D1*
X2727083Y3240024D1*
X2733712Y3244086D1*
X2740893Y3247061D1*
X2748451Y3248875D1*
X2756200Y3249485D1*
X2763949Y3248875D1*
X2771507Y3247061D1*
X2778688Y3244086D1*
X2785317Y3240024D1*
X2791226Y3234976D1*
X2796275Y3229066D1*
X2800336Y3222438D1*
X2803312Y3215256D1*
X2805125Y3207699D1*
X2805735Y3199949D1*
X2805583Y3196062D1*
X567103Y2460927D2*
X565974Y2453798D1*
X563743Y2446934D1*
X560466Y2440502D1*
X556224Y2434663D1*
X551120Y2429560D1*
X545281Y2425317D1*
X538850Y2422040D1*
X531985Y2419809D1*
X524856Y2418680D1*
X517638D1*
X510510Y2419809D1*
X503645Y2422040D1*
X497213Y2425317D1*
X491375Y2429560D1*
X486271Y2434663D1*
X482028Y2440502D1*
X478751Y2446934D1*
X476520Y2453798D1*
X475392Y2460927D1*
Y2468145D1*
X476520Y2475273D1*
X478751Y2482138D1*
X482028Y2488570D1*
X486271Y2494409D1*
X491375Y2499512D1*
X497213Y2503755D1*
X503645Y2507032D1*
X510510Y2509263D1*
X517638Y2510392D1*
X524856D1*
X531985Y2509263D1*
X538850Y2507032D1*
X545281Y2503755D1*
X551120Y2499512D1*
X556224Y2494409D1*
X560466Y2488570D1*
X563743Y2482138D1*
X565974Y2475273D1*
X567103Y2468145D1*
Y2460927D1*
Y2145966D2*
X565974Y2138838D1*
X563743Y2131973D1*
X560466Y2125541D1*
X556224Y2119703D1*
X551120Y2114599D1*
X545281Y2110356D1*
X538850Y2107079D1*
X531985Y2104848D1*
X524856Y2103720D1*
X517638D1*
X510510Y2104848D1*
X503645Y2107079D1*
X497213Y2110356D1*
X491375Y2114599D1*
X486271Y2119703D1*
X482028Y2125541D1*
X478751Y2131973D1*
X476520Y2138838D1*
X475392Y2145966D1*
Y2153184D1*
X476520Y2160313D1*
X478751Y2167178D1*
X482028Y2173609D1*
X486271Y2179448D1*
X491375Y2184552D1*
X497213Y2188794D1*
X503645Y2192071D1*
X510510Y2194302D1*
X517638Y2195431D1*
X524856D1*
X531985Y2194302D1*
X538850Y2192071D1*
X545281Y2188794D1*
X551120Y2184552D1*
X556224Y2179448D1*
X560466Y2173609D1*
X563743Y2167178D1*
X565974Y2160313D1*
X567103Y2153184D1*
Y2145966D1*
X651497Y530196D2*
X651053Y521115D1*
X649924Y512092D1*
X648116Y503182D1*
X645637Y494434D1*
X642503Y485898D1*
X638733Y477625D1*
X634347Y469661D1*
X629369Y462052D1*
X627322Y459255D1*
X4018357Y459251D1*
X4013516Y466149D1*
X4008857Y473957D1*
X4004804Y482095D1*
X4001377Y490518D1*
X3998599Y499175D1*
X3996483Y508018D1*
X3995044Y516995D1*
X3994288Y526056D1*
X3994220Y535148D1*
X3994840Y544220D1*
X3996146Y553217D1*
X3998130Y562091D1*
X4000780Y570788D1*
X4004079Y579260D1*
X4008012Y587459D1*
X4012554Y595335D1*
X4017679Y602846D1*
X4023357Y609947D1*
X4029558Y616596D1*
X4036243Y622759D1*
X4043377Y628397D1*
X4050917Y633478D1*
X4058819Y637976D1*
X4067040Y641860D1*
X4075531Y645112D1*
X4084243Y647712D1*
X4093128Y649644D1*
X4102133Y650898D1*
X4111208Y651466D1*
X4120300Y651347D1*
X4129356Y650539D1*
X4138325Y649048D1*
X4147155Y646881D1*
X4155797Y644053D1*
X4164199Y640579D1*
X4166735Y639378D1*
X4166731Y3691322D1*
X4158678Y3687762D1*
X4150112Y3684712D1*
X4141340Y3682319D1*
X4132413Y3680598D1*
X4123380Y3679558D1*
X4114294Y3679204D1*
X4105208Y3679539D1*
X4096174Y3680561D1*
X4087242Y3682264D1*
X4078465Y3684640D1*
X4069894Y3687671D1*
X4061577Y3691344D1*
X4053561Y3695636D1*
X4045893Y3700522D1*
X4038617Y3705974D1*
X4031775Y3711962D1*
X4025406Y3718451D1*
X4019546Y3725403D1*
X4014229Y3732779D1*
X4009486Y3740537D1*
X4005344Y3748630D1*
X4001827Y3757015D1*
X3998956Y3765642D1*
X3996745Y3774461D1*
X3995208Y3783423D1*
X3994354Y3792476D1*
X3994188Y3801566D1*
X3994710Y3810644D1*
X3995919Y3819655D1*
X3997806Y3828549D1*
X4000361Y3837275D1*
X4003569Y3845783D1*
X4006284Y3851767D1*
X2565528Y3851771D1*
X2565531Y3149096D1*
X2565056Y3147120D1*
X2563994Y3145386D1*
X2562448Y3144066D1*
X2560571Y3143289D1*
X2559054Y3143109D1*
X2338518D1*
X2333350Y3138001D1*
X2326812Y3133250D1*
X2319611Y3129581D1*
X2311924Y3127083D1*
X2303941Y3125819D1*
X2295860D1*
X2287877Y3127083D1*
X2280191Y3129581D1*
X2272990Y3133250D1*
X2266452Y3138001D1*
X2261305Y3143100D1*
X459228Y3143109D1*
X459251Y2880755D1*
X543235Y2880735D1*
Y2781665D1*
X459270D1*
X463653Y2780735D1*
X543235D1*
Y2681665D1*
X459270D1*
X459251Y1880716D1*
X543235Y1880735D1*
Y1781665D1*
X459270D1*
X459251Y627331D1*
X467140Y632788D1*
X474993Y637369D1*
X483171Y641343D1*
X491625Y644687D1*
X500310Y647380D1*
X509174Y649409D1*
X518165Y650760D1*
X527233Y651427D1*
X536325Y651406D1*
X545389Y650696D1*
X554375Y649302D1*
X563228Y647231D1*
X571898Y644498D1*
X580338Y641113D1*
X588497Y637102D1*
X596329Y632482D1*
X603789Y627284D1*
X610834Y621536D1*
X617423Y615271D1*
X623519Y608525D1*
X629086Y601336D1*
X634094Y593747D1*
X638512Y585801D1*
X642317Y577544D1*
X645485Y569020D1*
X647999Y560283D1*
X649844Y551380D1*
X651010Y542363D1*
X651490Y533283D1*
X651497Y530196D1*
X945149Y734574D2*
X1069220D1*
Y604007D1*
X938653D1*
Y734574D1*
X945149D1*
X931411Y667991D2*
X930960Y661514D1*
X929867Y655113D1*
X928142Y648852D1*
X925806Y642794D1*
X922878Y636998D1*
X919390Y631522D1*
X915375Y626419D1*
X910872Y621739D1*
X905927Y617532D1*
X900588Y613835D1*
X894909Y610687D1*
X888945Y608120D1*
X882755Y606157D1*
X876401Y604818D1*
X869945Y604119D1*
X863452Y604062D1*
X856986Y604653D1*
X850609Y605881D1*
X844388Y607738D1*
X838381Y610204D1*
X832648Y613254D1*
X827247Y616857D1*
X822230Y620981D1*
X817649Y625582D1*
X813546Y630616D1*
X809965Y636032D1*
X806939Y641777D1*
X804498Y647794D1*
X802667Y654024D1*
X801465Y660405D1*
X800902Y666875D1*
X800985Y673367D1*
X801712Y679819D1*
X803077Y686169D1*
X805065Y692350D1*
X807658Y698302D1*
X810830Y703969D1*
X814548Y709292D1*
X818777Y714220D1*
X823474Y718703D1*
X828595Y722696D1*
X834086Y726162D1*
X839894Y729065D1*
X845962Y731377D1*
X852229Y733074D1*
X858634Y734141D1*
X865115Y734566D1*
X871604Y734346D1*
X878040Y733481D1*
X884357Y731981D1*
X890495Y729861D1*
X896392Y727142D1*
X901989Y723851D1*
X907231Y720020D1*
X912067Y715687D1*
X916449Y710896D1*
X920334Y705692D1*
X923682Y700128D1*
X926461Y694259D1*
X928644Y688144D1*
X930207Y681840D1*
X931137Y675414D1*
X931424Y669291D1*
X931411Y667991D1*
X793428Y664169D2*
X792826Y659078D1*
X791826Y654050D1*
X790434Y649117D1*
X788659Y644308D1*
X786514Y639653D1*
X784008Y635180D1*
X781161Y630918D1*
X777987Y626893D1*
X774508Y623128D1*
X770743Y619649D1*
X766718Y616476D1*
X762456Y613628D1*
X757983Y611123D1*
X753329Y608977D1*
X748519Y607203D1*
X743586Y605810D1*
X738558Y604810D1*
X733468Y604208D1*
X728346Y604007D1*
X723224Y604208D1*
X718133Y604810D1*
X713106Y605810D1*
X708172Y607203D1*
X703363Y608977D1*
X698708Y611123D1*
X694235Y613628D1*
X689973Y616476D1*
X685948Y619649D1*
X682183Y623128D1*
X678704Y626893D1*
X675531Y630918D1*
X672683Y635180D1*
X670178Y639653D1*
X668032Y644308D1*
X666258Y649117D1*
X664865Y654050D1*
X663865Y659078D1*
X663263Y664169D1*
X663062Y669291D1*
X663263Y674413D1*
X663865Y679503D1*
X664865Y684531D1*
X666258Y689464D1*
X668032Y694273D1*
X670178Y698928D1*
X672683Y703401D1*
X675531Y707663D1*
X678704Y711688D1*
X682183Y715453D1*
X685948Y718932D1*
X689973Y722106D1*
X694235Y724953D1*
X698708Y727459D1*
X703363Y729604D1*
X708172Y731378D1*
X713106Y732771D1*
X718133Y733771D1*
X723224Y734373D1*
X728346Y734574D1*
X733468Y734373D1*
X738558Y733771D1*
X743586Y732771D1*
X748519Y731378D1*
X753329Y729604D1*
X757983Y727459D1*
X762456Y724953D1*
X766718Y722106D1*
X770743Y718932D1*
X774508Y715453D1*
X777987Y711688D1*
X781161Y707663D1*
X784008Y703401D1*
X786514Y698928D1*
X788659Y694273D1*
X790434Y689464D1*
X791826Y684531D1*
X792826Y679503D1*
X793428Y674413D1*
X793629Y669291D1*
X793428Y664169D1*
X1353338Y734574D2*
X1482606D1*
Y604007D1*
X1352039D1*
Y734574D1*
X1353338D1*
X1344609Y664169D2*
X1344007Y659078D1*
X1343007Y654050D1*
X1341615Y649117D1*
X1339840Y644308D1*
X1337695Y639653D1*
X1335190Y635180D1*
X1332342Y630918D1*
X1329169Y626893D1*
X1325690Y623128D1*
X1321924Y619649D1*
X1317899Y616476D1*
X1313637Y613628D1*
X1309165Y611123D1*
X1304510Y608977D1*
X1299700Y607203D1*
X1294767Y605810D1*
X1289739Y604810D1*
X1284649Y604208D1*
X1279527Y604007D1*
X1274405Y604208D1*
X1269314Y604810D1*
X1264287Y605810D1*
X1259354Y607203D1*
X1254544Y608977D1*
X1249889Y611123D1*
X1245417Y613628D1*
X1241154Y616476D1*
X1237129Y619649D1*
X1233364Y623128D1*
X1229885Y626893D1*
X1226712Y630918D1*
X1223864Y635180D1*
X1221359Y639653D1*
X1219213Y644308D1*
X1217439Y649117D1*
X1216046Y654050D1*
X1215046Y659078D1*
X1214444Y664169D1*
X1214243Y669291D1*
X1214444Y674413D1*
X1215046Y679503D1*
X1216046Y684531D1*
X1217439Y689464D1*
X1219213Y694273D1*
X1221359Y698928D1*
X1223864Y703401D1*
X1226712Y707663D1*
X1229885Y711688D1*
X1233364Y715453D1*
X1237129Y718932D1*
X1241154Y722106D1*
X1245417Y724953D1*
X1249889Y727459D1*
X1254544Y729604D1*
X1259354Y731378D1*
X1264287Y732771D1*
X1269314Y733771D1*
X1274405Y734373D1*
X1279527Y734574D1*
X1284649Y734373D1*
X1289739Y733771D1*
X1294767Y732771D1*
X1299700Y731378D1*
X1304510Y729604D1*
X1309165Y727459D1*
X1313637Y724953D1*
X1317899Y722106D1*
X1321924Y718932D1*
X1325690Y715453D1*
X1329169Y711688D1*
X1332342Y707663D1*
X1335190Y703401D1*
X1337695Y698928D1*
X1339840Y694273D1*
X1341615Y689464D1*
X1343007Y684531D1*
X1344007Y679503D1*
X1344609Y674413D1*
X1344810Y669291D1*
X1344609Y664169D1*
X1207002Y667991D2*
X1206550Y661514D1*
X1205457Y655113D1*
X1203733Y648852D1*
X1201397Y642794D1*
X1198469Y636998D1*
X1194981Y631522D1*
X1190965Y626419D1*
X1186462Y621739D1*
X1181518Y617532D1*
X1176179Y613835D1*
X1170499Y610687D1*
X1164536Y608120D1*
X1158346Y606157D1*
X1151991Y604818D1*
X1145536Y604119D1*
X1139043Y604062D1*
X1132577Y604653D1*
X1126200Y605881D1*
X1119978Y607738D1*
X1113972Y610204D1*
X1108238Y613254D1*
X1102838Y616857D1*
X1097821Y620981D1*
X1093239Y625582D1*
X1089137Y630616D1*
X1085556Y636032D1*
X1082529Y641777D1*
X1080088Y647794D1*
X1078258Y654024D1*
X1077056Y660405D1*
X1076493Y666875D1*
X1076575Y673367D1*
X1077302Y679819D1*
X1078667Y686169D1*
X1080655Y692350D1*
X1083249Y698302D1*
X1086420Y703969D1*
X1090138Y709292D1*
X1094368Y714220D1*
X1099065Y718703D1*
X1104186Y722696D1*
X1109676Y726162D1*
X1115485Y729065D1*
X1121553Y731377D1*
X1127819Y733074D1*
X1134225Y734141D1*
X1140705Y734566D1*
X1147195Y734346D1*
X1153630Y733481D1*
X1159948Y731981D1*
X1166086Y729861D1*
X1171982Y727142D1*
X1177579Y723851D1*
X1182822Y720020D1*
X1187658Y715687D1*
X1192040Y710896D1*
X1195924Y705692D1*
X1199272Y700128D1*
X1202052Y694259D1*
X1204234Y688144D1*
X1205797Y681840D1*
X1206728Y675414D1*
X1207015Y669291D1*
X1207002Y667991D1*
X2598692Y734574D2*
X2722763D1*
Y604007D1*
X2592196D1*
Y734574D1*
X2598692D1*
X2584955Y667991D2*
X2584503Y661514D1*
X2583410Y655113D1*
X2581686Y648852D1*
X2579350Y642794D1*
X2576422Y636998D1*
X2572934Y631522D1*
X2568918Y626419D1*
X2564415Y621739D1*
X2559470Y617532D1*
X2554132Y613835D1*
X2548452Y610687D1*
X2542489Y608120D1*
X2536298Y606157D1*
X2529944Y604818D1*
X2523489Y604119D1*
X2516995Y604062D1*
X2510529Y604653D1*
X2504153Y605881D1*
X2497931Y607738D1*
X2491924Y610204D1*
X2486191Y613254D1*
X2480791Y616857D1*
X2475773Y620981D1*
X2471192Y625582D1*
X2467090Y630616D1*
X2463508Y636032D1*
X2460482Y641777D1*
X2458041Y647794D1*
X2456210Y654024D1*
X2455008Y660405D1*
X2454445Y666875D1*
X2454528Y673367D1*
X2455255Y679819D1*
X2456620Y686169D1*
X2458608Y692350D1*
X2461201Y698302D1*
X2464373Y703969D1*
X2468091Y709292D1*
X2472321Y714220D1*
X2477018Y718703D1*
X2482138Y722696D1*
X2487629Y726162D1*
X2493438Y729065D1*
X2499506Y731377D1*
X2505772Y733074D1*
X2512178Y734141D1*
X2518658Y734566D1*
X2525148Y734346D1*
X2531583Y733481D1*
X2537901Y731981D1*
X2544039Y729861D1*
X2549935Y727142D1*
X2555532Y723851D1*
X2560775Y720020D1*
X2565611Y715687D1*
X2569993Y710896D1*
X2573877Y705692D1*
X2577225Y700128D1*
X2580004Y694259D1*
X2582187Y688144D1*
X2583750Y681840D1*
X2584680Y675414D1*
X2584968Y669291D1*
X2584955Y667991D1*
X2446972Y664169D2*
X2446369Y659078D1*
X2445369Y654050D1*
X2443977Y649117D1*
X2442203Y644308D1*
X2440057Y639653D1*
X2437552Y635180D1*
X2434704Y630918D1*
X2431531Y626893D1*
X2428052Y623128D1*
X2424287Y619649D1*
X2420262Y616476D1*
X2415999Y613628D1*
X2411527Y611123D1*
X2406872Y608977D1*
X2402062Y607203D1*
X2397129Y605810D1*
X2392102Y604810D1*
X2387011Y604208D1*
X2381889Y604007D1*
X2376767Y604208D1*
X2371676Y604810D1*
X2366649Y605810D1*
X2361716Y607203D1*
X2356906Y608977D1*
X2352251Y611123D1*
X2347779Y613628D1*
X2343516Y616476D1*
X2339491Y619649D1*
X2335726Y623128D1*
X2332247Y626893D1*
X2329074Y630918D1*
X2326226Y635180D1*
X2323721Y639653D1*
X2321575Y644308D1*
X2319801Y649117D1*
X2318409Y654050D1*
X2317409Y659078D1*
X2316806Y664169D1*
X2316606Y669291D1*
X2316806Y674413D1*
X2317409Y679503D1*
X2318409Y684531D1*
X2319801Y689464D1*
X2321575Y694273D1*
X2323721Y698928D1*
X2326226Y703401D1*
X2329074Y707663D1*
X2332247Y711688D1*
X2335726Y715453D1*
X2339491Y718932D1*
X2343516Y722106D1*
X2347779Y724953D1*
X2352251Y727459D1*
X2356906Y729604D1*
X2361716Y731378D1*
X2366649Y732771D1*
X2371676Y733771D1*
X2376767Y734373D1*
X2381889Y734574D1*
X2387011Y734373D1*
X2392102Y733771D1*
X2397129Y732771D1*
X2402062Y731378D1*
X2406872Y729604D1*
X2411527Y727459D1*
X2415999Y724953D1*
X2420262Y722106D1*
X2424287Y718932D1*
X2428052Y715453D1*
X2431531Y711688D1*
X2434704Y707663D1*
X2437552Y703401D1*
X2440057Y698928D1*
X2442203Y694273D1*
X2443977Y689464D1*
X2445369Y684531D1*
X2446369Y679503D1*
X2446972Y674413D1*
X2447172Y669291D1*
X2446972Y664169D1*
X624991Y1266070D2*
X754259D1*
Y1135503D1*
X623692D1*
Y1266070D1*
X624991D1*
X754058Y1333460D2*
X753456Y1328369D1*
X752456Y1323342D1*
X751064Y1318409D1*
X749289Y1313599D1*
X747144Y1308944D1*
X744638Y1304472D1*
X741791Y1300209D1*
X738617Y1296184D1*
X735138Y1292419D1*
X731373Y1288940D1*
X727348Y1285767D1*
X723086Y1282919D1*
X718613Y1280414D1*
X713959Y1278268D1*
X709149Y1276494D1*
X704216Y1275102D1*
X699188Y1274102D1*
X694098Y1273499D1*
X688976Y1273298D1*
X683854Y1273499D1*
X678763Y1274102D1*
X673735Y1275102D1*
X668802Y1276494D1*
X663993Y1278268D1*
X659338Y1280414D1*
X654865Y1282919D1*
X650603Y1285767D1*
X646578Y1288940D1*
X642813Y1292419D1*
X639334Y1296184D1*
X636161Y1300209D1*
X633313Y1304472D1*
X630808Y1308944D1*
X628662Y1313599D1*
X626888Y1318409D1*
X625495Y1323342D1*
X624495Y1328369D1*
X623893Y1333460D1*
X623692Y1338582D1*
X623893Y1343704D1*
X624495Y1348794D1*
X625495Y1353822D1*
X626888Y1358755D1*
X628662Y1363565D1*
X630808Y1368220D1*
X633313Y1372692D1*
X636161Y1376955D1*
X639334Y1380980D1*
X642813Y1384745D1*
X646578Y1388224D1*
X650603Y1391397D1*
X654865Y1394245D1*
X659338Y1396750D1*
X663993Y1398896D1*
X668802Y1400670D1*
X673735Y1402062D1*
X678763Y1403062D1*
X683854Y1403665D1*
X688976Y1403865D1*
X694098Y1403665D1*
X699188Y1403062D1*
X704216Y1402062D1*
X709149Y1400670D1*
X713959Y1398896D1*
X718613Y1396750D1*
X723086Y1394245D1*
X727348Y1391397D1*
X731373Y1388224D1*
X735138Y1384745D1*
X738617Y1380980D1*
X741791Y1376955D1*
X744638Y1372692D1*
X747144Y1368220D1*
X749289Y1363565D1*
X751064Y1358755D1*
X752456Y1353822D1*
X753456Y1348794D1*
X754058Y1343704D1*
X754259Y1338582D1*
X754058Y1333460D1*
X624991Y990480D2*
X754259D1*
Y859913D1*
X623692D1*
Y990480D1*
X624991D1*
X754058Y1057869D2*
X753456Y1052779D1*
X752456Y1047751D1*
X751064Y1042818D1*
X749289Y1038008D1*
X747144Y1033354D1*
X744638Y1028881D1*
X741791Y1024619D1*
X738617Y1020594D1*
X735138Y1016829D1*
X731373Y1013350D1*
X727348Y1010176D1*
X723086Y1007329D1*
X718613Y1004823D1*
X713959Y1002678D1*
X709149Y1000903D1*
X704216Y999511D1*
X699188Y998511D1*
X694098Y997909D1*
X688976Y997708D1*
X683854Y997909D1*
X678763Y998511D1*
X673735Y999511D1*
X668802Y1000903D1*
X663993Y1002678D1*
X659338Y1004823D1*
X654865Y1007329D1*
X650603Y1010176D1*
X646578Y1013350D1*
X642813Y1016829D1*
X639334Y1020594D1*
X636161Y1024619D1*
X633313Y1028881D1*
X630808Y1033354D1*
X628662Y1038008D1*
X626888Y1042818D1*
X625495Y1047751D1*
X624495Y1052779D1*
X623893Y1057869D1*
X623692Y1062991D1*
X623893Y1068113D1*
X624495Y1073204D1*
X625495Y1078231D1*
X626888Y1083165D1*
X628662Y1087974D1*
X630808Y1092629D1*
X633313Y1097102D1*
X636161Y1101364D1*
X639334Y1105389D1*
X642813Y1109154D1*
X646578Y1112633D1*
X650603Y1115806D1*
X654865Y1118654D1*
X659338Y1121159D1*
X663993Y1123305D1*
X668802Y1125079D1*
X673735Y1126472D1*
X678763Y1127472D1*
X683854Y1128074D1*
X688976Y1128275D1*
X694098Y1128074D1*
X699188Y1127472D1*
X704216Y1126472D1*
X709149Y1125079D1*
X713959Y1123305D1*
X718613Y1121159D1*
X723086Y1118654D1*
X727348Y1115806D1*
X731373Y1112633D1*
X735138Y1109154D1*
X738617Y1105389D1*
X741791Y1101364D1*
X744638Y1097102D1*
X747144Y1092629D1*
X749289Y1087974D1*
X751064Y1083165D1*
X752456Y1078231D1*
X753456Y1073204D1*
X754058Y1068113D1*
X754259Y1062991D1*
X754058Y1057869D1*
X3006881Y734574D2*
X3136149D1*
Y604007D1*
X3005582D1*
Y734574D1*
X3006881D1*
X2998153Y664169D2*
X2997550Y659078D1*
X2996550Y654050D1*
X2995158Y649117D1*
X2993384Y644308D1*
X2991238Y639653D1*
X2988733Y635180D1*
X2985885Y630918D1*
X2982712Y626893D1*
X2979233Y623128D1*
X2975468Y619649D1*
X2971443Y616476D1*
X2967180Y613628D1*
X2962708Y611123D1*
X2958053Y608977D1*
X2953243Y607203D1*
X2948310Y605810D1*
X2943283Y604810D1*
X2938192Y604208D1*
X2933070Y604007D1*
X2927948Y604208D1*
X2922857Y604810D1*
X2917830Y605810D1*
X2912897Y607203D1*
X2908087Y608977D1*
X2903432Y611123D1*
X2898960Y613628D1*
X2894697Y616476D1*
X2890672Y619649D1*
X2886907Y623128D1*
X2883428Y626893D1*
X2880255Y630918D1*
X2877407Y635180D1*
X2874902Y639653D1*
X2872756Y644308D1*
X2870982Y649117D1*
X2869590Y654050D1*
X2868590Y659078D1*
X2867987Y664169D1*
X2867787Y669291D1*
X2867987Y674413D1*
X2868590Y679503D1*
X2869590Y684531D1*
X2870982Y689464D1*
X2872756Y694273D1*
X2874902Y698928D1*
X2877407Y703401D1*
X2880255Y707663D1*
X2883428Y711688D1*
X2886907Y715453D1*
X2890672Y718932D1*
X2894697Y722106D1*
X2898960Y724953D1*
X2903432Y727459D1*
X2908087Y729604D1*
X2912897Y731378D1*
X2917830Y732771D1*
X2922857Y733771D1*
X2927948Y734373D1*
X2933070Y734574D1*
X2938192Y734373D1*
X2943283Y733771D1*
X2948310Y732771D1*
X2953243Y731378D1*
X2958053Y729604D1*
X2962708Y727459D1*
X2967180Y724953D1*
X2971443Y722106D1*
X2975468Y718932D1*
X2979233Y715453D1*
X2982712Y711688D1*
X2985885Y707663D1*
X2988733Y703401D1*
X2991238Y698928D1*
X2993384Y694273D1*
X2995158Y689464D1*
X2996550Y684531D1*
X2997550Y679503D1*
X2998153Y674413D1*
X2998354Y669291D1*
X2998153Y664169D1*
X2860545Y667991D2*
X2860094Y661514D1*
X2859001Y655113D1*
X2857276Y648852D1*
X2854940Y642794D1*
X2852012Y636998D1*
X2848524Y631522D1*
X2844508Y626419D1*
X2840006Y621739D1*
X2835061Y617532D1*
X2829722Y613835D1*
X2824043Y610687D1*
X2818079Y608120D1*
X2811889Y606157D1*
X2805535Y604818D1*
X2799079Y604119D1*
X2792586Y604062D1*
X2786120Y604653D1*
X2779743Y605881D1*
X2773522Y607738D1*
X2767515Y610204D1*
X2761781Y613254D1*
X2756381Y616857D1*
X2751364Y620981D1*
X2746783Y625582D1*
X2742680Y630616D1*
X2739099Y636032D1*
X2736073Y641777D1*
X2733632Y647794D1*
X2731801Y654024D1*
X2730599Y660405D1*
X2730036Y666875D1*
X2730119Y673367D1*
X2730846Y679819D1*
X2732210Y686169D1*
X2734199Y692350D1*
X2736792Y698302D1*
X2739964Y703969D1*
X2743682Y709292D1*
X2747911Y714220D1*
X2752608Y718703D1*
X2757729Y722696D1*
X2763220Y726162D1*
X2769028Y729065D1*
X2775096Y731377D1*
X2781363Y733074D1*
X2787768Y734141D1*
X2794249Y734566D1*
X2800738Y734346D1*
X2807174Y733481D1*
X2813491Y731981D1*
X2819629Y729861D1*
X2825525Y727142D1*
X2831123Y723851D1*
X2836365Y720020D1*
X2841201Y715687D1*
X2845583Y710896D1*
X2849468Y705692D1*
X2852815Y700128D1*
X2855595Y694259D1*
X2857777Y688144D1*
X2859340Y681840D1*
X2860271Y675414D1*
X2860558Y669291D1*
X2860545Y667991D1*
X3425464Y734574D2*
X3549535D1*
Y604007D1*
X3418968D1*
Y734574D1*
X3425464D1*
X3411726Y667991D2*
X3411275Y661514D1*
X3410182Y655113D1*
X3408457Y648852D1*
X3406121Y642794D1*
X3403193Y636998D1*
X3399705Y631522D1*
X3395690Y626419D1*
X3391187Y621739D1*
X3386242Y617532D1*
X3380903Y613835D1*
X3375224Y610687D1*
X3369260Y608120D1*
X3363070Y606157D1*
X3356716Y604818D1*
X3350260Y604119D1*
X3343767Y604062D1*
X3337301Y604653D1*
X3330924Y605881D1*
X3324703Y607738D1*
X3318696Y610204D1*
X3312962Y613254D1*
X3307562Y616857D1*
X3302545Y620981D1*
X3297964Y625582D1*
X3293861Y630616D1*
X3290280Y636032D1*
X3287254Y641777D1*
X3284813Y647794D1*
X3282982Y654024D1*
X3281780Y660405D1*
X3281217Y666875D1*
X3281300Y673367D1*
X3282027Y679819D1*
X3283392Y686169D1*
X3285380Y692350D1*
X3287973Y698302D1*
X3291145Y703969D1*
X3294863Y709292D1*
X3299092Y714220D1*
X3303789Y718703D1*
X3308910Y722696D1*
X3314401Y726162D1*
X3320209Y729065D1*
X3326277Y731377D1*
X3332544Y733074D1*
X3338949Y734141D1*
X3345430Y734566D1*
X3351919Y734346D1*
X3358355Y733481D1*
X3364672Y731981D1*
X3370810Y729861D1*
X3376707Y727142D1*
X3382304Y723851D1*
X3387546Y720020D1*
X3392382Y715687D1*
X3396764Y710896D1*
X3400649Y705692D1*
X3403997Y700128D1*
X3406776Y694259D1*
X3408959Y688144D1*
X3410522Y681840D1*
X3411452Y675414D1*
X3411739Y669291D1*
X3411726Y667991D1*
X3273743Y664169D2*
X3273141Y659078D1*
X3272141Y654050D1*
X3270749Y649117D1*
X3268974Y644308D1*
X3266829Y639653D1*
X3264323Y635180D1*
X3261476Y630918D1*
X3258302Y626893D1*
X3254823Y623128D1*
X3251058Y619649D1*
X3247033Y616476D1*
X3242771Y613628D1*
X3238298Y611123D1*
X3233644Y608977D1*
X3228834Y607203D1*
X3223901Y605810D1*
X3218873Y604810D1*
X3213783Y604208D1*
X3208661Y604007D1*
X3203539Y604208D1*
X3198448Y604810D1*
X3193420Y605810D1*
X3188487Y607203D1*
X3183678Y608977D1*
X3179023Y611123D1*
X3174550Y613628D1*
X3170288Y616476D1*
X3166263Y619649D1*
X3162498Y623128D1*
X3159019Y626893D1*
X3155846Y630918D1*
X3152998Y635180D1*
X3150493Y639653D1*
X3148347Y644308D1*
X3146573Y649117D1*
X3145180Y654050D1*
X3144180Y659078D1*
X3143578Y664169D1*
X3143377Y669291D1*
X3143578Y674413D1*
X3144180Y679503D1*
X3145180Y684531D1*
X3146573Y689464D1*
X3148347Y694273D1*
X3150493Y698928D1*
X3152998Y703401D1*
X3155846Y707663D1*
X3159019Y711688D1*
X3162498Y715453D1*
X3166263Y718932D1*
X3170288Y722106D1*
X3174550Y724953D1*
X3179023Y727459D1*
X3183678Y729604D1*
X3188487Y731378D1*
X3193420Y732771D1*
X3198448Y733771D1*
X3203539Y734373D1*
X3208661Y734574D1*
X3213783Y734373D1*
X3218873Y733771D1*
X3223901Y732771D1*
X3228834Y731378D1*
X3233644Y729604D1*
X3238298Y727459D1*
X3242771Y724953D1*
X3247033Y722106D1*
X3251058Y718932D1*
X3254823Y715453D1*
X3258302Y711688D1*
X3261476Y707663D1*
X3264323Y703401D1*
X3266829Y698928D1*
X3268974Y694273D1*
X3270749Y689464D1*
X3272141Y684531D1*
X3273141Y679503D1*
X3273743Y674413D1*
X3273944Y669291D1*
X3273743Y664169D1*
X3838850Y734574D2*
X3962920D1*
Y604007D1*
X3832354D1*
Y734574D1*
X3838850D1*
X3824924Y664169D2*
X3824322Y659078D1*
X3823322Y654050D1*
X3821930Y649117D1*
X3820155Y644308D1*
X3818010Y639653D1*
X3815504Y635180D1*
X3812657Y630918D1*
X3809483Y626893D1*
X3806004Y623128D1*
X3802239Y619649D1*
X3798214Y616476D1*
X3793952Y613628D1*
X3789480Y611123D1*
X3784825Y608977D1*
X3780015Y607203D1*
X3775082Y605810D1*
X3770054Y604810D1*
X3764964Y604208D1*
X3759842Y604007D1*
X3754720Y604208D1*
X3749629Y604810D1*
X3744602Y605810D1*
X3739669Y607203D1*
X3734859Y608977D1*
X3730204Y611123D1*
X3725731Y613628D1*
X3721469Y616476D1*
X3717444Y619649D1*
X3713679Y623128D1*
X3710200Y626893D1*
X3707027Y630918D1*
X3704179Y635180D1*
X3701674Y639653D1*
X3699528Y644308D1*
X3697754Y649117D1*
X3696361Y654050D1*
X3695361Y659078D1*
X3694759Y664169D1*
X3694558Y669291D1*
X3694759Y674413D1*
X3695361Y679503D1*
X3696361Y684531D1*
X3697754Y689464D1*
X3699528Y694273D1*
X3701674Y698928D1*
X3704179Y703401D1*
X3707027Y707663D1*
X3710200Y711688D1*
X3713679Y715453D1*
X3717444Y718932D1*
X3721469Y722106D1*
X3725731Y724953D1*
X3730204Y727459D1*
X3734859Y729604D1*
X3739669Y731378D1*
X3744602Y732771D1*
X3749629Y733771D1*
X3754720Y734373D1*
X3759842Y734574D1*
X3764964Y734373D1*
X3770054Y733771D1*
X3775082Y732771D1*
X3780015Y731378D1*
X3784825Y729604D1*
X3789480Y727459D1*
X3793952Y724953D1*
X3798214Y722106D1*
X3802239Y718932D1*
X3806004Y715453D1*
X3809483Y711688D1*
X3812657Y707663D1*
X3815504Y703401D1*
X3818010Y698928D1*
X3820155Y694273D1*
X3821930Y689464D1*
X3823322Y684531D1*
X3824322Y679503D1*
X3824924Y674413D1*
X3825125Y669291D1*
X3824924Y664169D1*
X3687317Y667991D2*
X3686865Y661514D1*
X3685772Y655113D1*
X3684048Y648852D1*
X3681712Y642794D1*
X3678784Y636998D1*
X3675296Y631522D1*
X3671280Y626419D1*
X3666777Y621739D1*
X3661833Y617532D1*
X3656494Y613835D1*
X3650814Y610687D1*
X3644851Y608120D1*
X3638661Y606157D1*
X3632306Y604818D1*
X3625851Y604119D1*
X3619357Y604062D1*
X3612892Y604653D1*
X3606515Y605881D1*
X3600293Y607738D1*
X3594287Y610204D1*
X3588553Y613254D1*
X3583153Y616857D1*
X3578136Y620981D1*
X3573554Y625582D1*
X3569452Y630616D1*
X3565871Y636032D1*
X3562844Y641777D1*
X3560403Y647794D1*
X3558573Y654024D1*
X3557371Y660405D1*
X3556808Y666875D1*
X3556890Y673367D1*
X3557617Y679819D1*
X3558982Y686169D1*
X3560970Y692350D1*
X3563564Y698302D1*
X3566735Y703969D1*
X3570453Y709292D1*
X3574683Y714220D1*
X3579380Y718703D1*
X3584501Y722696D1*
X3589991Y726162D1*
X3595800Y729065D1*
X3601868Y731377D1*
X3608134Y733074D1*
X3614540Y734141D1*
X3621020Y734566D1*
X3627510Y734346D1*
X3633945Y733481D1*
X3640263Y731981D1*
X3646401Y729861D1*
X3652297Y727142D1*
X3657894Y723851D1*
X3663137Y720020D1*
X3667973Y715687D1*
X3672355Y710896D1*
X3676239Y705692D1*
X3679587Y700128D1*
X3682367Y694259D1*
X3684549Y688144D1*
X3686112Y681840D1*
X3687043Y675414D1*
X3687330Y669291D1*
X3687317Y667991D1*
X4010961Y2709273D2*
X4010222Y2703035D1*
X4008998Y2696873D1*
X4007292Y2690826D1*
X4005117Y2684932D1*
X4002487Y2679228D1*
X3999418Y2673746D1*
X3995928Y2668523D1*
X3992039Y2663590D1*
X3987773Y2658977D1*
X3983161Y2654712D1*
X3978228Y2650822D1*
X3973004Y2647333D1*
X3967523Y2644263D1*
X3961818Y2641633D1*
X3955924Y2639459D1*
X3949877Y2637752D1*
X3943716Y2636528D1*
X3937477Y2635789D1*
X3931200Y2635543D1*
X3924923Y2635789D1*
X3918684Y2636528D1*
X3912523Y2637752D1*
X3906476Y2639459D1*
X3900582Y2641633D1*
X3894877Y2644263D1*
X3889396Y2647333D1*
X3884172Y2650822D1*
X3879239Y2654712D1*
X3874627Y2658977D1*
X3870361Y2663590D1*
X3866472Y2668523D1*
X3862982Y2673746D1*
X3859913Y2679228D1*
X3857283Y2684932D1*
X3855108Y2690826D1*
X3853402Y2696873D1*
X3852178Y2703035D1*
X3851439Y2709273D1*
X3851192Y2715550D1*
X3851439Y2721827D1*
X3852178Y2728066D1*
X3853402Y2734228D1*
X3855108Y2740275D1*
X3857283Y2746169D1*
X3859913Y2751873D1*
X3862982Y2757355D1*
X3866472Y2762578D1*
X3870361Y2767511D1*
X3874627Y2772124D1*
X3879239Y2776389D1*
X3884172Y2780279D1*
X3889396Y2783768D1*
X3894877Y2786838D1*
X3900582Y2789468D1*
X3906476Y2791642D1*
X3912523Y2793348D1*
X3918684Y2794573D1*
X3924923Y2795312D1*
X3931200Y2795558D1*
X3937477Y2795312D1*
X3943716Y2794573D1*
X3949877Y2793348D1*
X3955924Y2791642D1*
X3961818Y2789468D1*
X3967523Y2786838D1*
X3973004Y2783768D1*
X3978228Y2780279D1*
X3983161Y2776389D1*
X3987773Y2772124D1*
X3992039Y2767511D1*
X3995928Y2762578D1*
X3999418Y2757355D1*
X4002487Y2751873D1*
X4005117Y2746169D1*
X4007292Y2740275D1*
X4008998Y2734228D1*
X4010222Y2728066D1*
X4010961Y2721827D1*
X4011208Y2715550D1*
X4010961Y2709273D1*
X3854716Y1458983D2*
X3983983D1*
Y1328417D1*
X3853417D1*
Y1458983D1*
X3854716D1*
X3983783Y1250783D2*
X3983180Y1245692D1*
X3982180Y1240665D1*
X3980788Y1235731D1*
X3979014Y1230922D1*
X3976868Y1226267D1*
X3974363Y1221794D1*
X3971515Y1217532D1*
X3968342Y1213507D1*
X3964863Y1209742D1*
X3961098Y1206263D1*
X3957073Y1203090D1*
X3952810Y1200242D1*
X3948338Y1197737D1*
X3943683Y1195591D1*
X3938873Y1193817D1*
X3933940Y1192424D1*
X3928913Y1191424D1*
X3923822Y1190822D1*
X3918700Y1190621D1*
X3913578Y1190822D1*
X3908487Y1191424D1*
X3903460Y1192424D1*
X3898527Y1193817D1*
X3893717Y1195591D1*
X3889062Y1197737D1*
X3884590Y1200242D1*
X3880327Y1203090D1*
X3876302Y1206263D1*
X3872537Y1209742D1*
X3869058Y1213507D1*
X3865885Y1217532D1*
X3863037Y1221794D1*
X3860532Y1226267D1*
X3858386Y1230922D1*
X3856612Y1235731D1*
X3855220Y1240665D1*
X3854220Y1245692D1*
X3853617Y1250783D1*
X3853417Y1255905D1*
X3853617Y1261027D1*
X3854220Y1266117D1*
X3855220Y1271145D1*
X3856612Y1276078D1*
X3858386Y1280888D1*
X3860532Y1285543D1*
X3863037Y1290015D1*
X3865885Y1294277D1*
X3869058Y1298302D1*
X3872537Y1302067D1*
X3876302Y1305546D1*
X3880327Y1308720D1*
X3884590Y1311567D1*
X3889062Y1314073D1*
X3893717Y1316218D1*
X3898527Y1317993D1*
X3903460Y1319385D1*
X3908487Y1320385D1*
X3913578Y1320987D1*
X3918700Y1321188D1*
X3923822Y1320987D1*
X3928913Y1320385D1*
X3933940Y1319385D1*
X3938873Y1317993D1*
X3943683Y1316218D1*
X3948338Y1314073D1*
X3952810Y1311567D1*
X3957073Y1308720D1*
X3961098Y1305546D1*
X3964863Y1302067D1*
X3968342Y1298302D1*
X3971515Y1294277D1*
X3974363Y1290015D1*
X3976868Y1285543D1*
X3979014Y1280888D1*
X3980788Y1276078D1*
X3982180Y1271145D1*
X3983180Y1266117D1*
X3983783Y1261027D1*
X3983983Y1255905D1*
X3983783Y1250783D1*
Y1112987D2*
X3983180Y1107897D1*
X3982180Y1102869D1*
X3980788Y1097936D1*
X3979014Y1093127D1*
X3976868Y1088472D1*
X3974363Y1083999D1*
X3971515Y1079737D1*
X3968342Y1075712D1*
X3964863Y1071947D1*
X3961098Y1068468D1*
X3957073Y1065294D1*
X3952810Y1062447D1*
X3948338Y1059941D1*
X3943683Y1057796D1*
X3938873Y1056022D1*
X3933940Y1054629D1*
X3928913Y1053629D1*
X3923822Y1053027D1*
X3918700Y1052826D1*
X3913578Y1053027D1*
X3908487Y1053629D1*
X3903460Y1054629D1*
X3898527Y1056022D1*
X3893717Y1057796D1*
X3889062Y1059941D1*
X3884590Y1062447D1*
X3880327Y1065294D1*
X3876302Y1068468D1*
X3872537Y1071947D1*
X3869058Y1075712D1*
X3865885Y1079737D1*
X3863037Y1083999D1*
X3860532Y1088472D1*
X3858386Y1093127D1*
X3856612Y1097936D1*
X3855220Y1102869D1*
X3854220Y1107897D1*
X3853617Y1112987D1*
X3853417Y1118109D1*
X3853617Y1123231D1*
X3854220Y1128322D1*
X3855220Y1133350D1*
X3856612Y1138283D1*
X3858386Y1143092D1*
X3860532Y1147747D1*
X3863037Y1152220D1*
X3865885Y1156482D1*
X3869058Y1160507D1*
X3872537Y1164272D1*
X3876302Y1167751D1*
X3880327Y1170924D1*
X3884590Y1173772D1*
X3889062Y1176277D1*
X3893717Y1178423D1*
X3898527Y1180197D1*
X3903460Y1181590D1*
X3908487Y1182590D1*
X3913578Y1183192D1*
X3918700Y1183393D1*
X3923822Y1183192D1*
X3928913Y1182590D1*
X3933940Y1181590D1*
X3938873Y1180197D1*
X3943683Y1178423D1*
X3948338Y1176277D1*
X3952810Y1173772D1*
X3957073Y1170924D1*
X3961098Y1167751D1*
X3964863Y1164272D1*
X3968342Y1160507D1*
X3971515Y1156482D1*
X3974363Y1152220D1*
X3976868Y1147747D1*
X3979014Y1143092D1*
X3980788Y1138283D1*
X3982180Y1133350D1*
X3983180Y1128322D1*
X3983783Y1123231D1*
X3983983Y1118109D1*
X3983783Y1112987D1*
X1771920Y734574D2*
X1895991D1*
Y604007D1*
X1765424D1*
Y734574D1*
X1771920D1*
X1758183Y667991D2*
X1757731Y661514D1*
X1756638Y655113D1*
X1754914Y648852D1*
X1752578Y642794D1*
X1749650Y636998D1*
X1746162Y631522D1*
X1742146Y626419D1*
X1737644Y621739D1*
X1732699Y617532D1*
X1727360Y613835D1*
X1721680Y610687D1*
X1715717Y608120D1*
X1709527Y606157D1*
X1703172Y604818D1*
X1696717Y604119D1*
X1690224Y604062D1*
X1683758Y604653D1*
X1677381Y605881D1*
X1671159Y607738D1*
X1665153Y610204D1*
X1659419Y613254D1*
X1654019Y616857D1*
X1649002Y620981D1*
X1644420Y625582D1*
X1640318Y630616D1*
X1636737Y636032D1*
X1633710Y641777D1*
X1631270Y647794D1*
X1629439Y654024D1*
X1628237Y660405D1*
X1627674Y666875D1*
X1627756Y673367D1*
X1628483Y679819D1*
X1629848Y686169D1*
X1631836Y692350D1*
X1634430Y698302D1*
X1637602Y703969D1*
X1641319Y709292D1*
X1645549Y714220D1*
X1650246Y718703D1*
X1655367Y722696D1*
X1660857Y726162D1*
X1666666Y729065D1*
X1672734Y731377D1*
X1679001Y733074D1*
X1685406Y734141D1*
X1691886Y734566D1*
X1698376Y734346D1*
X1704812Y733481D1*
X1711129Y731981D1*
X1717267Y729861D1*
X1723163Y727142D1*
X1728760Y723851D1*
X1734003Y720020D1*
X1738839Y715687D1*
X1743221Y710896D1*
X1747106Y705692D1*
X1750453Y700128D1*
X1753233Y694259D1*
X1755415Y688144D1*
X1756978Y681840D1*
X1757909Y675414D1*
X1758196Y669291D1*
X1758183Y667991D1*
X1620200Y664169D2*
X1619598Y659078D1*
X1618598Y654050D1*
X1617205Y649117D1*
X1615431Y644308D1*
X1613285Y639653D1*
X1610780Y635180D1*
X1607932Y630918D1*
X1604759Y626893D1*
X1601280Y623128D1*
X1597515Y619649D1*
X1593490Y616476D1*
X1589228Y613628D1*
X1584755Y611123D1*
X1580100Y608977D1*
X1575291Y607203D1*
X1570357Y605810D1*
X1565330Y604810D1*
X1560239Y604208D1*
X1555117Y604007D1*
X1549995Y604208D1*
X1544905Y604810D1*
X1539877Y605810D1*
X1534944Y607203D1*
X1530134Y608977D1*
X1525480Y611123D1*
X1521007Y613628D1*
X1516745Y616476D1*
X1512720Y619649D1*
X1508955Y623128D1*
X1505476Y626893D1*
X1502302Y630918D1*
X1499455Y635180D1*
X1496949Y639653D1*
X1494804Y644308D1*
X1493029Y649117D1*
X1491637Y654050D1*
X1490637Y659078D1*
X1490035Y664169D1*
X1489834Y669291D1*
X1490035Y674413D1*
X1490637Y679503D1*
X1491637Y684531D1*
X1493029Y689464D1*
X1494804Y694273D1*
X1496949Y698928D1*
X1499455Y703401D1*
X1502302Y707663D1*
X1505476Y711688D1*
X1508955Y715453D1*
X1512720Y718932D1*
X1516745Y722106D1*
X1521007Y724953D1*
X1525480Y727459D1*
X1530134Y729604D1*
X1534944Y731378D1*
X1539877Y732771D1*
X1544905Y733771D1*
X1549995Y734373D1*
X1555117Y734574D1*
X1560239Y734373D1*
X1565330Y733771D1*
X1570357Y732771D1*
X1575291Y731378D1*
X1580100Y729604D1*
X1584755Y727459D1*
X1589228Y724953D1*
X1593490Y722106D1*
X1597515Y718932D1*
X1601280Y715453D1*
X1604759Y711688D1*
X1607932Y707663D1*
X1610780Y703401D1*
X1613285Y698928D1*
X1615431Y694273D1*
X1617205Y689464D1*
X1618598Y684531D1*
X1619598Y679503D1*
X1620200Y674413D1*
X1620401Y669291D1*
X1620200Y664169D1*
X2180109Y734574D2*
X2309377D1*
Y604007D1*
X2178810D1*
Y734574D1*
X2180109D1*
X2171381Y664169D2*
X2170779Y659078D1*
X2169779Y654050D1*
X2168386Y649117D1*
X2166612Y644308D1*
X2164466Y639653D1*
X2161961Y635180D1*
X2159113Y630918D1*
X2155940Y626893D1*
X2152461Y623128D1*
X2148696Y619649D1*
X2144671Y616476D1*
X2140409Y613628D1*
X2135936Y611123D1*
X2131281Y608977D1*
X2126472Y607203D1*
X2121539Y605810D1*
X2116511Y604810D1*
X2111420Y604208D1*
X2106298Y604007D1*
X2101176Y604208D1*
X2096086Y604810D1*
X2091058Y605810D1*
X2086125Y607203D1*
X2081315Y608977D1*
X2076661Y611123D1*
X2072188Y613628D1*
X2067926Y616476D1*
X2063901Y619649D1*
X2060136Y623128D1*
X2056657Y626893D1*
X2053483Y630918D1*
X2050636Y635180D1*
X2048130Y639653D1*
X2045985Y644308D1*
X2044210Y649117D1*
X2042818Y654050D1*
X2041818Y659078D1*
X2041216Y664169D1*
X2041015Y669291D1*
X2041216Y674413D1*
X2041818Y679503D1*
X2042818Y684531D1*
X2044210Y689464D1*
X2045985Y694273D1*
X2048130Y698928D1*
X2050636Y703401D1*
X2053483Y707663D1*
X2056657Y711688D1*
X2060136Y715453D1*
X2063901Y718932D1*
X2067926Y722106D1*
X2072188Y724953D1*
X2076661Y727459D1*
X2081315Y729604D1*
X2086125Y731378D1*
X2091058Y732771D1*
X2096086Y733771D1*
X2101176Y734373D1*
X2106298Y734574D1*
X2111420Y734373D1*
X2116511Y733771D1*
X2121539Y732771D1*
X2126472Y731378D1*
X2131281Y729604D1*
X2135936Y727459D1*
X2140409Y724953D1*
X2144671Y722106D1*
X2148696Y718932D1*
X2152461Y715453D1*
X2155940Y711688D1*
X2159113Y707663D1*
X2161961Y703401D1*
X2164466Y698928D1*
X2166612Y694273D1*
X2168386Y689464D1*
X2169779Y684531D1*
X2170779Y679503D1*
X2171381Y674413D1*
X2171582Y669291D1*
X2171381Y664169D1*
X2033773Y667991D2*
X2033322Y661514D1*
X2032229Y655113D1*
X2030504Y648852D1*
X2028169Y642794D1*
X2025241Y636998D1*
X2021752Y631522D1*
X2017737Y626419D1*
X2013234Y621739D1*
X2008289Y617532D1*
X2002951Y613835D1*
X1997271Y610687D1*
X1991308Y608120D1*
X1985117Y606157D1*
X1978763Y604818D1*
X1972308Y604119D1*
X1965814Y604062D1*
X1959348Y604653D1*
X1952972Y605881D1*
X1946750Y607738D1*
X1940743Y610204D1*
X1935010Y613254D1*
X1929609Y616857D1*
X1924592Y620981D1*
X1920011Y625582D1*
X1915909Y630616D1*
X1912327Y636032D1*
X1909301Y641777D1*
X1906860Y647794D1*
X1905029Y654024D1*
X1903827Y660405D1*
X1903264Y666875D1*
X1903347Y673367D1*
X1904074Y679819D1*
X1905439Y686169D1*
X1907427Y692350D1*
X1910020Y698302D1*
X1913192Y703969D1*
X1916910Y709292D1*
X1921140Y714220D1*
X1925836Y718703D1*
X1930957Y722696D1*
X1936448Y726162D1*
X1942256Y729065D1*
X1948325Y731377D1*
X1954591Y733074D1*
X1960997Y734141D1*
X1967477Y734566D1*
X1973966Y734346D1*
X1980402Y733481D1*
X1986720Y731981D1*
X1992857Y729861D1*
X1998754Y727142D1*
X2004351Y723851D1*
X2009594Y720020D1*
X2014430Y715687D1*
X2018812Y710896D1*
X2022696Y705692D1*
X2026044Y700128D1*
X2028823Y694259D1*
X2031006Y688144D1*
X2032569Y681840D1*
X2033499Y675414D1*
X2033787Y669291D1*
X2033773Y667991D1*
X624991Y1541661D2*
X754259D1*
Y1411094D1*
X623692D1*
Y1541661D1*
X624991D1*
X754058Y1609050D2*
X753456Y1603960D1*
X752456Y1598932D1*
X751064Y1593999D1*
X749289Y1589190D1*
X747144Y1584535D1*
X744638Y1580062D1*
X741791Y1575800D1*
X738617Y1571775D1*
X735138Y1568010D1*
X731373Y1564531D1*
X727348Y1561357D1*
X723086Y1558510D1*
X718613Y1556004D1*
X713959Y1553859D1*
X709149Y1552085D1*
X704216Y1550692D1*
X699188Y1549692D1*
X694098Y1549090D1*
X688976Y1548889D1*
X683854Y1549090D1*
X678763Y1549692D1*
X673735Y1550692D1*
X668802Y1552085D1*
X663993Y1553859D1*
X659338Y1556004D1*
X654865Y1558510D1*
X650603Y1561357D1*
X646578Y1564531D1*
X642813Y1568010D1*
X639334Y1571775D1*
X636161Y1575800D1*
X633313Y1580062D1*
X630808Y1584535D1*
X628662Y1589190D1*
X626888Y1593999D1*
X625495Y1598932D1*
X624495Y1603960D1*
X623893Y1609050D1*
X623692Y1614172D1*
X623893Y1619294D1*
X624495Y1624385D1*
X625495Y1629413D1*
X626888Y1634346D1*
X628662Y1639155D1*
X630808Y1643810D1*
X633313Y1648283D1*
X636161Y1652545D1*
X639334Y1656570D1*
X642813Y1660335D1*
X646578Y1663814D1*
X650603Y1666987D1*
X654865Y1669835D1*
X659338Y1672340D1*
X663993Y1674486D1*
X668802Y1676260D1*
X673735Y1677653D1*
X678763Y1678653D1*
X683854Y1679255D1*
X688976Y1679456D1*
X694098Y1679255D1*
X699188Y1678653D1*
X704216Y1677653D1*
X709149Y1676260D1*
X713959Y1674486D1*
X718613Y1672340D1*
X723086Y1669835D1*
X727348Y1666987D1*
X731373Y1663814D1*
X735138Y1660335D1*
X738617Y1656570D1*
X741791Y1652545D1*
X744638Y1648283D1*
X747144Y1643810D1*
X749289Y1639155D1*
X751064Y1634346D1*
X752456Y1629413D1*
X753456Y1624385D1*
X754058Y1619294D1*
X754259Y1614172D1*
X754058Y1609050D1*
X643083Y1827313D2*
X641867Y1819636D1*
X639465Y1812243D1*
X635936Y1805318D1*
X631367Y1799029D1*
X625871Y1793533D1*
X619582Y1788964D1*
X612657Y1785435D1*
X605264Y1783033D1*
X597587Y1781817D1*
X589813D1*
X582136Y1783033D1*
X574743Y1785435D1*
X567818Y1788964D1*
X561529Y1793533D1*
X556033Y1799029D1*
X551464Y1805318D1*
X547935Y1812243D1*
X545533Y1819636D1*
X544317Y1827313D1*
Y1835087D1*
X545533Y1842764D1*
X547935Y1850157D1*
X551464Y1857082D1*
X556033Y1863371D1*
X561529Y1868867D1*
X567818Y1873436D1*
X574743Y1876965D1*
X582136Y1879367D1*
X589813Y1880583D1*
X597587D1*
X605264Y1879367D1*
X612657Y1876965D1*
X619582Y1873436D1*
X625871Y1868867D1*
X631367Y1863371D1*
X635936Y1857082D1*
X639465Y1850157D1*
X641867Y1842764D1*
X643083Y1835087D1*
Y1827313D1*
X743083D2*
X741867Y1819636D1*
X739465Y1812243D1*
X735936Y1805318D1*
X731367Y1799029D1*
X725871Y1793533D1*
X719582Y1788964D1*
X712657Y1785435D1*
X705264Y1783033D1*
X697587Y1781817D1*
X689813D1*
X682136Y1783033D1*
X674743Y1785435D1*
X667818Y1788964D1*
X661529Y1793533D1*
X656033Y1799029D1*
X651464Y1805318D1*
X647935Y1812243D1*
X645533Y1819636D1*
X644317Y1827313D1*
Y1835087D1*
X645533Y1842764D1*
X647935Y1850157D1*
X651464Y1857082D1*
X656033Y1863371D1*
X661529Y1868867D1*
X667818Y1873436D1*
X674743Y1876965D1*
X682136Y1879367D1*
X689813Y1880583D1*
X697587D1*
X705264Y1879367D1*
X712657Y1876965D1*
X719582Y1873436D1*
X725871Y1868867D1*
X731367Y1863371D1*
X735936Y1857082D1*
X739465Y1850157D1*
X741867Y1842764D1*
X743083Y1835087D1*
Y1827313D1*
X843083D2*
X841867Y1819636D1*
X839465Y1812243D1*
X835936Y1805318D1*
X831367Y1799029D1*
X825871Y1793533D1*
X819582Y1788964D1*
X812657Y1785435D1*
X805264Y1783033D1*
X797587Y1781817D1*
X789813D1*
X782136Y1783033D1*
X774743Y1785435D1*
X767818Y1788964D1*
X761529Y1793533D1*
X756033Y1799029D1*
X751464Y1805318D1*
X747935Y1812243D1*
X745533Y1819636D1*
X744317Y1827313D1*
Y1835087D1*
X745533Y1842764D1*
X747935Y1850157D1*
X751464Y1857082D1*
X756033Y1863371D1*
X761529Y1868867D1*
X767818Y1873436D1*
X774743Y1876965D1*
X782136Y1879367D1*
X789813Y1880583D1*
X797587D1*
X805264Y1879367D1*
X812657Y1876965D1*
X819582Y1873436D1*
X825871Y1868867D1*
X831367Y1863371D1*
X835936Y1857082D1*
X839465Y1850157D1*
X841867Y1842764D1*
X843083Y1835087D1*
Y1827313D1*
X943083D2*
X941867Y1819636D1*
X939465Y1812243D1*
X935936Y1805318D1*
X931367Y1799029D1*
X925871Y1793533D1*
X919582Y1788964D1*
X912657Y1785435D1*
X905264Y1783033D1*
X897587Y1781817D1*
X889813D1*
X882136Y1783033D1*
X874743Y1785435D1*
X867818Y1788964D1*
X861529Y1793533D1*
X856033Y1799029D1*
X851464Y1805318D1*
X847935Y1812243D1*
X845533Y1819636D1*
X844317Y1827313D1*
Y1835087D1*
X845533Y1842764D1*
X847935Y1850157D1*
X851464Y1857082D1*
X856033Y1863371D1*
X861529Y1868867D1*
X867818Y1873436D1*
X874743Y1876965D1*
X882136Y1879367D1*
X889813Y1880583D1*
X897587D1*
X905264Y1879367D1*
X912657Y1876965D1*
X919582Y1873436D1*
X925871Y1868867D1*
X931367Y1863371D1*
X935936Y1857082D1*
X939465Y1850157D1*
X941867Y1842764D1*
X943083Y1835087D1*
Y1827313D1*
X1043083D2*
X1041867Y1819636D1*
X1039465Y1812243D1*
X1035936Y1805318D1*
X1031367Y1799029D1*
X1025871Y1793533D1*
X1019582Y1788964D1*
X1012657Y1785435D1*
X1005264Y1783033D1*
X997587Y1781817D1*
X989813D1*
X982136Y1783033D1*
X974743Y1785435D1*
X967818Y1788964D1*
X961529Y1793533D1*
X956033Y1799029D1*
X951464Y1805318D1*
X947935Y1812243D1*
X945533Y1819636D1*
X944317Y1827313D1*
Y1835087D1*
X945533Y1842764D1*
X947935Y1850157D1*
X951464Y1857082D1*
X956033Y1863371D1*
X961529Y1868867D1*
X967818Y1873436D1*
X974743Y1876965D1*
X982136Y1879367D1*
X989813Y1880583D1*
X997587D1*
X1005264Y1879367D1*
X1012657Y1876965D1*
X1019582Y1873436D1*
X1025871Y1868867D1*
X1031367Y1863371D1*
X1035936Y1857082D1*
X1039465Y1850157D1*
X1041867Y1842764D1*
X1043083Y1835087D1*
Y1827313D1*
X1143083D2*
X1141867Y1819636D1*
X1139465Y1812243D1*
X1135936Y1805318D1*
X1131367Y1799029D1*
X1125871Y1793533D1*
X1119582Y1788964D1*
X1112657Y1785435D1*
X1105264Y1783033D1*
X1097587Y1781817D1*
X1089813D1*
X1082136Y1783033D1*
X1074743Y1785435D1*
X1067818Y1788964D1*
X1061529Y1793533D1*
X1056033Y1799029D1*
X1051464Y1805318D1*
X1047935Y1812243D1*
X1045533Y1819636D1*
X1044317Y1827313D1*
Y1835087D1*
X1045533Y1842764D1*
X1047935Y1850157D1*
X1051464Y1857082D1*
X1056033Y1863371D1*
X1061529Y1868867D1*
X1067818Y1873436D1*
X1074743Y1876965D1*
X1082136Y1879367D1*
X1089813Y1880583D1*
X1097587D1*
X1105264Y1879367D1*
X1112657Y1876965D1*
X1119582Y1873436D1*
X1125871Y1868867D1*
X1131367Y1863371D1*
X1135936Y1857082D1*
X1139465Y1850157D1*
X1141867Y1842764D1*
X1143083Y1835087D1*
Y1827313D1*
X1243083D2*
X1241867Y1819636D1*
X1239465Y1812243D1*
X1235936Y1805318D1*
X1231367Y1799029D1*
X1225871Y1793533D1*
X1219582Y1788964D1*
X1212657Y1785435D1*
X1205264Y1783033D1*
X1197587Y1781817D1*
X1189813D1*
X1182136Y1783033D1*
X1174743Y1785435D1*
X1167818Y1788964D1*
X1161529Y1793533D1*
X1156033Y1799029D1*
X1151464Y1805318D1*
X1147935Y1812243D1*
X1145533Y1819636D1*
X1144317Y1827313D1*
Y1835087D1*
X1145533Y1842764D1*
X1147935Y1850157D1*
X1151464Y1857082D1*
X1156033Y1863371D1*
X1161529Y1868867D1*
X1167818Y1873436D1*
X1174743Y1876965D1*
X1182136Y1879367D1*
X1189813Y1880583D1*
X1197587D1*
X1205264Y1879367D1*
X1212657Y1876965D1*
X1219582Y1873436D1*
X1225871Y1868867D1*
X1231367Y1863371D1*
X1235936Y1857082D1*
X1239465Y1850157D1*
X1241867Y1842764D1*
X1243083Y1835087D1*
Y1827313D1*
X1343083D2*
X1341867Y1819636D1*
X1339465Y1812243D1*
X1335936Y1805318D1*
X1331367Y1799029D1*
X1325871Y1793533D1*
X1319582Y1788964D1*
X1312657Y1785435D1*
X1305264Y1783033D1*
X1297587Y1781817D1*
X1289813D1*
X1282136Y1783033D1*
X1274743Y1785435D1*
X1267818Y1788964D1*
X1261529Y1793533D1*
X1256033Y1799029D1*
X1251464Y1805318D1*
X1247935Y1812243D1*
X1245533Y1819636D1*
X1244317Y1827313D1*
Y1835087D1*
X1245533Y1842764D1*
X1247935Y1850157D1*
X1251464Y1857082D1*
X1256033Y1863371D1*
X1261529Y1868867D1*
X1267704Y1873360D1*
X1267772Y1920741D1*
X1268411Y1924771D1*
X1269671Y1928653D1*
X1271524Y1932289D1*
X1273923Y1935591D1*
X1299658Y1961439D1*
X1124081Y1961441D1*
X1119683Y1957028D1*
X1114604Y1953338D1*
X1109010Y1950487D1*
X1103040Y1948548D1*
X1096839Y1947565D1*
X1090561D1*
X1084360Y1948548D1*
X1078390Y1950487D1*
X1072796Y1953338D1*
X1067717Y1957028D1*
X1063277Y1961466D1*
X1059587Y1966546D1*
X1056738Y1972140D1*
X1054797Y1978111D1*
X1053815Y1984312D1*
Y1990588D1*
X1054797Y1996789D1*
X1056738Y2002760D1*
X1059587Y2008354D1*
X1063277Y2013434D1*
X1067717Y2017872D1*
X1072796Y2021562D1*
X1078390Y2024413D1*
X1084360Y2026352D1*
X1090561Y2027335D1*
X1096839D1*
X1103040Y2026352D1*
X1109010Y2024413D1*
X1114604Y2021562D1*
X1119683Y2017872D1*
X1124098Y2013460D1*
X1155388Y2013459D1*
X1154184Y2018691D1*
X1153692Y2024949D1*
X1154184Y2031209D1*
X1155650Y2037313D1*
X1158053Y2043113D1*
X1161333Y2048466D1*
X1165410Y2053239D1*
X1170184Y2057317D1*
X1175537Y2060598D1*
X1181336Y2062999D1*
X1187441Y2064465D1*
X1193700Y2064959D1*
X1199959Y2064465D1*
X1206064Y2062999D1*
X1211863Y2060598D1*
X1217216Y2057317D1*
X1221990Y2053239D1*
X1224098Y2050960D1*
X1308574Y2050959D1*
X1304046Y2053338D1*
X1298966Y2057028D1*
X1294528Y2061466D1*
X1290838Y2066546D1*
X1287987Y2072140D1*
X1286048Y2078111D1*
X1285065Y2084312D1*
Y2090588D1*
X1286048Y2096789D1*
X1287987Y2102760D1*
X1290838Y2108354D1*
X1294528Y2113434D1*
X1298966Y2117872D1*
X1304046Y2121562D1*
X1308625Y2123945D1*
X1180351Y2123941D1*
X1175934Y2119528D1*
X1170854Y2115838D1*
X1165260Y2112987D1*
X1159289Y2111048D1*
X1153088Y2110065D1*
X1146812D1*
X1140611Y2111048D1*
X1134640Y2112987D1*
X1129046Y2115838D1*
X1123966Y2119528D1*
X1119528Y2123966D1*
X1115838Y2129046D1*
X1112987Y2134640D1*
X1111048Y2140611D1*
X1110065Y2146812D1*
Y2153088D1*
X1111048Y2159289D1*
X1112987Y2165260D1*
X1115838Y2170854D1*
X1119528Y2175934D1*
X1123966Y2180372D1*
X1129046Y2184062D1*
X1134640Y2186913D1*
X1140611Y2188852D1*
X1146812Y2189835D1*
X1153088D1*
X1159289Y2188852D1*
X1165260Y2186913D1*
X1170854Y2184062D1*
X1175934Y2180372D1*
X1180347Y2175960D1*
X2213300Y2175959D1*
X2217717Y2180372D1*
X2222796Y2184062D1*
X2228390Y2186913D1*
X2234360Y2188852D1*
X2240561Y2189835D1*
X2246839D1*
X2253040Y2188852D1*
X2259010Y2186913D1*
X2264604Y2184062D1*
X2269683Y2180372D1*
X2274123Y2175934D1*
X2277813Y2170854D1*
X2280662Y2165260D1*
X2282603Y2159289D1*
X2283585Y2153088D1*
Y2146812D1*
X2282603Y2140611D1*
X2280662Y2134640D1*
X2277813Y2129046D1*
X2274123Y2123966D1*
X2269683Y2119528D1*
X2264604Y2115838D1*
X2259010Y2112987D1*
X2253040Y2111048D1*
X2246839Y2110065D1*
X2240561D1*
X2234360Y2111048D1*
X2228390Y2112987D1*
X2222796Y2115838D1*
X2217717Y2119528D1*
X2213302Y2123940D1*
X2166331Y2123941D1*
X2170854Y2121562D1*
X2175934Y2117872D1*
X2180372Y2113434D1*
X2184062Y2108354D1*
X2186913Y2102760D1*
X2188852Y2096789D1*
X2189835Y2090588D1*
Y2084312D1*
X2188852Y2078111D1*
X2186913Y2072140D1*
X2184062Y2066546D1*
X2180372Y2061466D1*
X2175934Y2057028D1*
X2170854Y2053338D1*
X2166275Y2050955D1*
X2563279Y2050959D1*
X2567717Y2055372D1*
X2572796Y2059062D1*
X2578390Y2061913D1*
X2584360Y2063852D1*
X2590561Y2064835D1*
X2596839D1*
X2603040Y2063852D1*
X2609010Y2061913D1*
X2614604Y2059062D1*
X2619683Y2055372D1*
X2624123Y2050934D1*
X2627813Y2045854D1*
X2630662Y2040260D1*
X2632603Y2034289D1*
X2633585Y2028088D1*
Y2021812D1*
X2632603Y2015611D1*
X2631993Y2013449D1*
X2784579Y2013459D1*
X2788977Y2017872D1*
X2794056Y2021562D1*
X2799650Y2024413D1*
X2805620Y2026352D1*
X2811821Y2027335D1*
X2818099D1*
X2824300Y2026352D1*
X2830270Y2024413D1*
X2835864Y2021562D1*
X2840943Y2017872D1*
X2845382Y2013434D1*
X2849073Y2008354D1*
X2851922Y2002760D1*
X2853863Y1996789D1*
X2854844Y1990588D1*
Y1984312D1*
X2853863Y1978111D1*
X2851922Y1972140D1*
X2849073Y1966546D1*
X2845382Y1961466D1*
X2840943Y1957028D1*
X2835864Y1953338D1*
X2830270Y1950487D1*
X2824300Y1948548D1*
X2818099Y1947565D1*
X2811821D1*
X2805620Y1948548D1*
X2799650Y1950487D1*
X2794056Y1953338D1*
X2788977Y1957028D1*
X2784562Y1961440D1*
X2594525Y1961441D1*
X2595716Y1956209D1*
X2596208Y1949949D1*
X2595716Y1943691D1*
X2594250Y1937587D1*
X2591847Y1931787D1*
X2588567Y1926434D1*
X2584490Y1921661D1*
X2579716Y1917583D1*
X2574363Y1914302D1*
X2568564Y1911901D1*
X2562459Y1910435D1*
X2556200Y1909941D1*
X2549941Y1910435D1*
X2543836Y1911901D1*
X2538037Y1914302D1*
X2532684Y1917583D1*
X2527910Y1921661D1*
X2525802Y1923940D1*
X1335726Y1923941D1*
X1319709Y1907928D1*
X1319708Y1873355D1*
X1325871Y1868867D1*
X1331367Y1863371D1*
X1335936Y1857082D1*
X1339465Y1850157D1*
X1341867Y1842764D1*
X1343083Y1835087D1*
Y1827313D1*
X1443083D2*
X1441867Y1819636D1*
X1439465Y1812243D1*
X1435936Y1805318D1*
X1431367Y1799029D1*
X1425871Y1793533D1*
X1419582Y1788964D1*
X1412657Y1785435D1*
X1405264Y1783033D1*
X1397587Y1781817D1*
X1389813D1*
X1382136Y1783033D1*
X1374743Y1785435D1*
X1367818Y1788964D1*
X1361529Y1793533D1*
X1356033Y1799029D1*
X1351464Y1805318D1*
X1347935Y1812243D1*
X1345533Y1819636D1*
X1344317Y1827313D1*
Y1835087D1*
X1345533Y1842764D1*
X1347935Y1850157D1*
X1351464Y1857082D1*
X1356033Y1863371D1*
X1361529Y1868867D1*
X1367818Y1873436D1*
X1374743Y1876965D1*
X1382136Y1879367D1*
X1389813Y1880583D1*
X1397587D1*
X1405264Y1879367D1*
X1412657Y1876965D1*
X1419582Y1873436D1*
X1425871Y1868867D1*
X1431367Y1863371D1*
X1435936Y1857082D1*
X1439465Y1850157D1*
X1441867Y1842764D1*
X1443083Y1835087D1*
Y1827313D1*
X1543083D2*
X1541867Y1819636D1*
X1539465Y1812243D1*
X1535936Y1805318D1*
X1531367Y1799029D1*
X1525871Y1793533D1*
X1519582Y1788964D1*
X1512657Y1785435D1*
X1505264Y1783033D1*
X1497587Y1781817D1*
X1489813D1*
X1482136Y1783033D1*
X1474743Y1785435D1*
X1467818Y1788964D1*
X1461529Y1793533D1*
X1456033Y1799029D1*
X1451464Y1805318D1*
X1447935Y1812243D1*
X1445533Y1819636D1*
X1444317Y1827313D1*
Y1835087D1*
X1445533Y1842764D1*
X1447935Y1850157D1*
X1451464Y1857082D1*
X1456033Y1863371D1*
X1461529Y1868867D1*
X1467818Y1873436D1*
X1474743Y1876965D1*
X1482136Y1879367D1*
X1489813Y1880583D1*
X1497587D1*
X1505264Y1879367D1*
X1512657Y1876965D1*
X1519582Y1873436D1*
X1525871Y1868867D1*
X1531367Y1863371D1*
X1535936Y1857082D1*
X1539465Y1850157D1*
X1541867Y1842764D1*
X1543083Y1835087D1*
Y1827313D1*
X1643083D2*
X1641867Y1819636D1*
X1639465Y1812243D1*
X1635936Y1805318D1*
X1631367Y1799029D1*
X1625871Y1793533D1*
X1619582Y1788964D1*
X1612657Y1785435D1*
X1605264Y1783033D1*
X1597587Y1781817D1*
X1589813D1*
X1582136Y1783033D1*
X1574743Y1785435D1*
X1567818Y1788964D1*
X1561529Y1793533D1*
X1556033Y1799029D1*
X1551464Y1805318D1*
X1547935Y1812243D1*
X1545533Y1819636D1*
X1544317Y1827313D1*
Y1835087D1*
X1545533Y1842764D1*
X1547935Y1850157D1*
X1551464Y1857082D1*
X1556033Y1863371D1*
X1561529Y1868867D1*
X1567818Y1873436D1*
X1574743Y1876965D1*
X1582136Y1879367D1*
X1589813Y1880583D1*
X1597587D1*
X1605264Y1879367D1*
X1612657Y1876965D1*
X1619582Y1873436D1*
X1625871Y1868867D1*
X1631367Y1863371D1*
X1635936Y1857082D1*
X1639465Y1850157D1*
X1641867Y1842764D1*
X1643083Y1835087D1*
Y1827313D1*
X1743218Y1829901D2*
X1742810Y1824722D1*
X1741861Y1819616D1*
X1740384Y1814636D1*
X1738393Y1809838D1*
X1735910Y1805275D1*
X1732962Y1800998D1*
X1729585Y1797052D1*
X1725812Y1793482D1*
X1721684Y1790327D1*
X1717251Y1787621D1*
X1712557Y1785394D1*
X1707657Y1783671D1*
X1702603Y1782472D1*
X1697452Y1781806D1*
X1692258Y1781686D1*
X1687081Y1782108D1*
X1681977Y1783071D1*
X1677002Y1784564D1*
X1672209Y1786569D1*
X1667654Y1789065D1*
X1663385Y1792024D1*
X1659449Y1795414D1*
X1655890Y1799197D1*
X1652746Y1803334D1*
X1650053Y1807775D1*
X1647840Y1812474D1*
X1646132Y1817380D1*
X1644945Y1822438D1*
X1644296Y1827591D1*
X1644190Y1832784D1*
X1644628Y1837960D1*
X1645606Y1843062D1*
X1647112Y1848033D1*
X1649132Y1852819D1*
X1651640Y1857368D1*
X1654612Y1861628D1*
X1658014Y1865554D1*
X1661806Y1869103D1*
X1665951Y1872234D1*
X1670401Y1874914D1*
X1675107Y1877113D1*
X1680018Y1878808D1*
X1685078Y1879980D1*
X1690233Y1880613D1*
X1695427Y1880705D1*
X1700602Y1880252D1*
X1705700Y1879260D1*
X1710667Y1877739D1*
X1715448Y1875707D1*
X1719989Y1873184D1*
X1724241Y1870200D1*
X1728157Y1866788D1*
X1731693Y1862983D1*
X1734813Y1858830D1*
X1737481Y1854373D1*
X1739667Y1849661D1*
X1741347Y1844746D1*
X1742504Y1839682D1*
X1743124Y1834524D1*
X1743218Y1829901D1*
X1843083Y1827313D2*
X1841867Y1819636D1*
X1839465Y1812243D1*
X1835936Y1805318D1*
X1831367Y1799029D1*
X1825871Y1793533D1*
X1819582Y1788964D1*
X1812657Y1785435D1*
X1805264Y1783033D1*
X1797587Y1781817D1*
X1789813D1*
X1782136Y1783033D1*
X1774743Y1785435D1*
X1767818Y1788964D1*
X1761529Y1793533D1*
X1756033Y1799029D1*
X1751464Y1805318D1*
X1747935Y1812243D1*
X1745533Y1819636D1*
X1744317Y1827313D1*
Y1835087D1*
X1745533Y1842764D1*
X1747935Y1850157D1*
X1751464Y1857082D1*
X1756033Y1863371D1*
X1761529Y1868867D1*
X1767818Y1873436D1*
X1774743Y1876965D1*
X1782136Y1879367D1*
X1789813Y1880583D1*
X1797587D1*
X1805264Y1879367D1*
X1812657Y1876965D1*
X1819582Y1873436D1*
X1825871Y1868867D1*
X1831367Y1863371D1*
X1835936Y1857082D1*
X1839465Y1850157D1*
X1841867Y1842764D1*
X1843083Y1835087D1*
Y1827313D1*
X1943083D2*
X1941867Y1819636D1*
X1939465Y1812243D1*
X1935936Y1805318D1*
X1931367Y1799029D1*
X1925871Y1793533D1*
X1919582Y1788964D1*
X1912657Y1785435D1*
X1905264Y1783033D1*
X1897587Y1781817D1*
X1889813D1*
X1882136Y1783033D1*
X1874743Y1785435D1*
X1867818Y1788964D1*
X1861529Y1793533D1*
X1856033Y1799029D1*
X1851464Y1805318D1*
X1847935Y1812243D1*
X1845533Y1819636D1*
X1844317Y1827313D1*
Y1835087D1*
X1845533Y1842764D1*
X1847935Y1850157D1*
X1851464Y1857082D1*
X1856033Y1863371D1*
X1861529Y1868867D1*
X1867818Y1873436D1*
X1874743Y1876965D1*
X1882136Y1879367D1*
X1889813Y1880583D1*
X1897587D1*
X1905264Y1879367D1*
X1912657Y1876965D1*
X1919582Y1873436D1*
X1925871Y1868867D1*
X1931367Y1863371D1*
X1935936Y1857082D1*
X1939465Y1850157D1*
X1941867Y1842764D1*
X1943083Y1835087D1*
Y1827313D1*
X2043083D2*
X2041867Y1819636D1*
X2039465Y1812243D1*
X2035936Y1805318D1*
X2031367Y1799029D1*
X2025871Y1793533D1*
X2019582Y1788964D1*
X2012657Y1785435D1*
X2005264Y1783033D1*
X1997587Y1781817D1*
X1989813D1*
X1982136Y1783033D1*
X1974743Y1785435D1*
X1967818Y1788964D1*
X1961529Y1793533D1*
X1956033Y1799029D1*
X1951464Y1805318D1*
X1947935Y1812243D1*
X1945533Y1819636D1*
X1944317Y1827313D1*
Y1835087D1*
X1945533Y1842764D1*
X1947935Y1850157D1*
X1951464Y1857082D1*
X1956033Y1863371D1*
X1961529Y1868867D1*
X1967818Y1873436D1*
X1974743Y1876965D1*
X1982136Y1879367D1*
X1989813Y1880583D1*
X1997587D1*
X2005264Y1879367D1*
X2012657Y1876965D1*
X2019582Y1873436D1*
X2025871Y1868867D1*
X2031367Y1863371D1*
X2035936Y1857082D1*
X2039465Y1850157D1*
X2041867Y1842764D1*
X2043083Y1835087D1*
Y1827313D1*
X2143083D2*
X2141867Y1819636D1*
X2139465Y1812243D1*
X2135936Y1805318D1*
X2131367Y1799029D1*
X2125871Y1793533D1*
X2119582Y1788964D1*
X2112657Y1785435D1*
X2105264Y1783033D1*
X2097587Y1781817D1*
X2089813D1*
X2082136Y1783033D1*
X2074743Y1785435D1*
X2067818Y1788964D1*
X2061529Y1793533D1*
X2056033Y1799029D1*
X2051464Y1805318D1*
X2047935Y1812243D1*
X2045533Y1819636D1*
X2044317Y1827313D1*
Y1835087D1*
X2045533Y1842764D1*
X2047935Y1850157D1*
X2051464Y1857082D1*
X2056033Y1863371D1*
X2061529Y1868867D1*
X2067818Y1873436D1*
X2074743Y1876965D1*
X2082136Y1879367D1*
X2089813Y1880583D1*
X2097587D1*
X2105264Y1879367D1*
X2112657Y1876965D1*
X2119582Y1873436D1*
X2125871Y1868867D1*
X2131367Y1863371D1*
X2135936Y1857082D1*
X2139465Y1850157D1*
X2141867Y1842764D1*
X2143083Y1835087D1*
Y1827313D1*
X2243083D2*
X2241867Y1819636D1*
X2239465Y1812243D1*
X2235936Y1805318D1*
X2231367Y1799029D1*
X2225871Y1793533D1*
X2219582Y1788964D1*
X2212657Y1785435D1*
X2205264Y1783033D1*
X2197587Y1781817D1*
X2189813D1*
X2182136Y1783033D1*
X2174743Y1785435D1*
X2167818Y1788964D1*
X2161529Y1793533D1*
X2156033Y1799029D1*
X2151464Y1805318D1*
X2147935Y1812243D1*
X2145533Y1819636D1*
X2144317Y1827313D1*
Y1835087D1*
X2145533Y1842764D1*
X2147935Y1850157D1*
X2151464Y1857082D1*
X2156033Y1863371D1*
X2161529Y1868867D1*
X2167818Y1873436D1*
X2174743Y1876965D1*
X2182136Y1879367D1*
X2189813Y1880583D1*
X2197587D1*
X2205264Y1879367D1*
X2212657Y1876965D1*
X2219582Y1873436D1*
X2225871Y1868867D1*
X2231367Y1863371D1*
X2235936Y1857082D1*
X2239465Y1850157D1*
X2241867Y1842764D1*
X2243083Y1835087D1*
Y1827313D1*
X2343218Y1829901D2*
X2342810Y1824722D1*
X2341861Y1819616D1*
X2340384Y1814636D1*
X2338393Y1809838D1*
X2335910Y1805275D1*
X2332962Y1800998D1*
X2329585Y1797052D1*
X2325812Y1793482D1*
X2321684Y1790327D1*
X2317251Y1787621D1*
X2312557Y1785394D1*
X2307657Y1783671D1*
X2302603Y1782472D1*
X2297452Y1781806D1*
X2292258Y1781686D1*
X2287081Y1782108D1*
X2281977Y1783071D1*
X2277002Y1784564D1*
X2272209Y1786569D1*
X2267654Y1789065D1*
X2263385Y1792024D1*
X2259449Y1795414D1*
X2255890Y1799197D1*
X2252746Y1803334D1*
X2250053Y1807775D1*
X2247840Y1812474D1*
X2246132Y1817380D1*
X2244945Y1822438D1*
X2244296Y1827591D1*
X2244190Y1832784D1*
X2244628Y1837960D1*
X2245606Y1843062D1*
X2247112Y1848033D1*
X2249132Y1852819D1*
X2251640Y1857368D1*
X2254612Y1861628D1*
X2258014Y1865554D1*
X2261806Y1869103D1*
X2265951Y1872234D1*
X2270401Y1874914D1*
X2275107Y1877113D1*
X2280018Y1878808D1*
X2285078Y1879980D1*
X2290233Y1880613D1*
X2295427Y1880705D1*
X2300602Y1880252D1*
X2305700Y1879260D1*
X2310667Y1877739D1*
X2315448Y1875707D1*
X2319989Y1873184D1*
X2324241Y1870200D1*
X2328157Y1866788D1*
X2331693Y1862983D1*
X2334813Y1858830D1*
X2337481Y1854373D1*
X2339667Y1849661D1*
X2341347Y1844746D1*
X2342504Y1839682D1*
X2343124Y1834524D1*
X2343218Y1829901D1*
X643083Y2727313D2*
X641867Y2719636D1*
X639465Y2712243D1*
X635936Y2705318D1*
X631367Y2699029D1*
X625871Y2693533D1*
X619582Y2688964D1*
X612657Y2685435D1*
X605264Y2683033D1*
X597587Y2681817D1*
X589813D1*
X582136Y2683033D1*
X574743Y2685435D1*
X567818Y2688964D1*
X561529Y2693533D1*
X556033Y2699029D1*
X551464Y2705318D1*
X547935Y2712243D1*
X545533Y2719636D1*
X544317Y2727313D1*
Y2735087D1*
X545533Y2742764D1*
X547935Y2750157D1*
X551464Y2757082D1*
X556033Y2763371D1*
X561529Y2768867D1*
X567818Y2773436D1*
X574743Y2776965D1*
X582136Y2779367D1*
X589813Y2780583D1*
X597587D1*
X605264Y2779367D1*
X612657Y2776965D1*
X619582Y2773436D1*
X625871Y2768867D1*
X631367Y2763371D1*
X635936Y2757082D1*
X639465Y2750157D1*
X641867Y2742764D1*
X643083Y2735087D1*
Y2727313D1*
X743083D2*
X741867Y2719636D1*
X739465Y2712243D1*
X735936Y2705318D1*
X731367Y2699029D1*
X725871Y2693533D1*
X719582Y2688964D1*
X712657Y2685435D1*
X705264Y2683033D1*
X697587Y2681817D1*
X689813D1*
X682136Y2683033D1*
X674743Y2685435D1*
X667818Y2688964D1*
X661529Y2693533D1*
X656033Y2699029D1*
X651464Y2705318D1*
X647935Y2712243D1*
X645533Y2719636D1*
X644317Y2727313D1*
Y2735087D1*
X645533Y2742764D1*
X647935Y2750157D1*
X651464Y2757082D1*
X656033Y2763371D1*
X661529Y2768867D1*
X667818Y2773436D1*
X674743Y2776965D1*
X682136Y2779367D1*
X689813Y2780583D1*
X697587D1*
X705264Y2779367D1*
X712657Y2776965D1*
X719582Y2773436D1*
X725871Y2768867D1*
X731367Y2763371D1*
X735936Y2757082D1*
X739465Y2750157D1*
X741867Y2742764D1*
X743083Y2735087D1*
Y2727313D1*
X843083D2*
X841867Y2719636D1*
X839465Y2712243D1*
X835936Y2705318D1*
X831367Y2699029D1*
X825871Y2693533D1*
X819582Y2688964D1*
X812657Y2685435D1*
X805264Y2683033D1*
X797587Y2681817D1*
X789813D1*
X782136Y2683033D1*
X774743Y2685435D1*
X767818Y2688964D1*
X761529Y2693533D1*
X756033Y2699029D1*
X751464Y2705318D1*
X747935Y2712243D1*
X745533Y2719636D1*
X744317Y2727313D1*
Y2735087D1*
X745533Y2742764D1*
X747935Y2750157D1*
X751464Y2757082D1*
X756033Y2763371D1*
X761529Y2768867D1*
X767818Y2773436D1*
X774743Y2776965D1*
X782136Y2779367D1*
X789813Y2780583D1*
X797587D1*
X805264Y2779367D1*
X812657Y2776965D1*
X819582Y2773436D1*
X825871Y2768867D1*
X831367Y2763371D1*
X835936Y2757082D1*
X839465Y2750157D1*
X841867Y2742764D1*
X843083Y2735087D1*
Y2727313D1*
X943083D2*
X941867Y2719636D1*
X939465Y2712243D1*
X935936Y2705318D1*
X931367Y2699029D1*
X925871Y2693533D1*
X919696Y2689040D1*
X919708Y2679460D1*
X923233Y2675948D1*
X1208242Y2675877D1*
X1212272Y2675239D1*
X1216154Y2673978D1*
X1219791Y2672125D1*
X1223092Y2669726D1*
X1234335Y2658596D1*
X1240590Y2658585D1*
X1246791Y2657603D1*
X1252760Y2655662D1*
X1258355Y2652813D1*
X1263434Y2649123D1*
X1267873Y2644683D1*
X1271564Y2639604D1*
X1274413Y2634010D1*
X1276354Y2628040D1*
X1277335Y2621839D1*
Y2615561D1*
X1276354Y2609360D1*
X1274413Y2603390D1*
X1271564Y2597796D1*
X1267873Y2592717D1*
X1263434Y2588277D1*
X1258355Y2584587D1*
X1252760Y2581738D1*
X1246791Y2579797D1*
X1240590Y2578815D1*
X1234312D1*
X1228111Y2579797D1*
X1222141Y2581738D1*
X1216546Y2584587D1*
X1211468Y2588277D1*
X1207028Y2592717D1*
X1203338Y2597796D1*
X1200489Y2603390D1*
X1198548Y2609360D1*
X1197566Y2615561D1*
X1197565Y2621802D1*
X1195430Y2623940D1*
X910410Y2624022D1*
X906380Y2624659D1*
X902498Y2625920D1*
X898861Y2627773D1*
X895560Y2630172D1*
X875309Y2650309D1*
X872659Y2653413D1*
X870527Y2656893D1*
X868965Y2660663D1*
X868012Y2664632D1*
X867692Y2668708D1*
Y2689025D1*
X861529Y2693533D1*
X856033Y2699029D1*
X851464Y2705318D1*
X847935Y2712243D1*
X845533Y2719636D1*
X844317Y2727313D1*
Y2735087D1*
X845533Y2742764D1*
X847935Y2750157D1*
X851464Y2757082D1*
X856033Y2763371D1*
X861529Y2768867D1*
X867818Y2773436D1*
X874743Y2776965D1*
X882136Y2779367D1*
X889813Y2780583D1*
X897587D1*
X905264Y2779367D1*
X912657Y2776965D1*
X919582Y2773436D1*
X925871Y2768867D1*
X931367Y2763371D1*
X935936Y2757082D1*
X939465Y2750157D1*
X941867Y2742764D1*
X943083Y2735087D1*
Y2727313D1*
X1043218Y2729901D2*
X1042810Y2724722D1*
X1041861Y2719616D1*
X1040384Y2714636D1*
X1038393Y2709838D1*
X1035910Y2705275D1*
X1032962Y2700998D1*
X1029585Y2697052D1*
X1025812Y2693482D1*
X1021684Y2690327D1*
X1017251Y2687621D1*
X1012557Y2685394D1*
X1007657Y2683671D1*
X1002603Y2682472D1*
X997452Y2681806D1*
X992258Y2681686D1*
X987081Y2682108D1*
X981977Y2683071D1*
X977002Y2684564D1*
X972209Y2686569D1*
X967654Y2689065D1*
X963385Y2692024D1*
X959449Y2695414D1*
X955890Y2699197D1*
X952746Y2703334D1*
X950053Y2707775D1*
X947840Y2712474D1*
X946132Y2717380D1*
X944945Y2722438D1*
X944296Y2727591D1*
X944190Y2732784D1*
X944628Y2737960D1*
X945606Y2743062D1*
X947112Y2748033D1*
X949132Y2752819D1*
X951640Y2757368D1*
X954612Y2761628D1*
X958014Y2765554D1*
X961806Y2769103D1*
X965951Y2772234D1*
X970401Y2774914D1*
X975107Y2777113D1*
X980018Y2778808D1*
X985078Y2779980D1*
X990233Y2780613D1*
X995427Y2780705D1*
X1000602Y2780252D1*
X1005700Y2779260D1*
X1010667Y2777739D1*
X1015448Y2775707D1*
X1019989Y2773184D1*
X1024241Y2770200D1*
X1028157Y2766788D1*
X1031693Y2762983D1*
X1034813Y2758830D1*
X1037481Y2754373D1*
X1039667Y2749661D1*
X1041347Y2744746D1*
X1042504Y2739682D1*
X1043124Y2734524D1*
X1043218Y2729901D1*
X1143083Y2727313D2*
X1141867Y2719636D1*
X1139465Y2712243D1*
X1135936Y2705318D1*
X1131367Y2699029D1*
X1125871Y2693533D1*
X1119582Y2688964D1*
X1112657Y2685435D1*
X1105264Y2683033D1*
X1097587Y2681817D1*
X1089813D1*
X1082136Y2683033D1*
X1074743Y2685435D1*
X1067818Y2688964D1*
X1061529Y2693533D1*
X1056033Y2699029D1*
X1051464Y2705318D1*
X1047935Y2712243D1*
X1045533Y2719636D1*
X1044317Y2727313D1*
Y2735087D1*
X1045533Y2742764D1*
X1047935Y2750157D1*
X1051464Y2757082D1*
X1056033Y2763371D1*
X1061529Y2768867D1*
X1067818Y2773436D1*
X1074743Y2776965D1*
X1082136Y2779367D1*
X1089813Y2780583D1*
X1097587D1*
X1105264Y2779367D1*
X1112657Y2776965D1*
X1119582Y2773436D1*
X1125871Y2768867D1*
X1131367Y2763371D1*
X1135936Y2757082D1*
X1139465Y2750157D1*
X1141867Y2742764D1*
X1143083Y2735087D1*
Y2727313D1*
X1243083D2*
X1241867Y2719636D1*
X1239465Y2712243D1*
X1235936Y2705318D1*
X1231367Y2699029D1*
X1225871Y2693533D1*
X1219582Y2688964D1*
X1212657Y2685435D1*
X1205264Y2683033D1*
X1197587Y2681817D1*
X1189813D1*
X1182136Y2683033D1*
X1174743Y2685435D1*
X1167818Y2688964D1*
X1161529Y2693533D1*
X1156033Y2699029D1*
X1151464Y2705318D1*
X1147935Y2712243D1*
X1145533Y2719636D1*
X1144317Y2727313D1*
Y2735087D1*
X1145533Y2742764D1*
X1147935Y2750157D1*
X1151464Y2757082D1*
X1156033Y2763371D1*
X1161529Y2768867D1*
X1167818Y2773436D1*
X1174743Y2776965D1*
X1182136Y2779367D1*
X1189813Y2780583D1*
X1197587D1*
X1205264Y2779367D1*
X1212657Y2776965D1*
X1219582Y2773436D1*
X1225871Y2768867D1*
X1231367Y2763371D1*
X1235936Y2757082D1*
X1239465Y2750157D1*
X1241867Y2742764D1*
X1243083Y2735087D1*
Y2727313D1*
X1343083D2*
X1341867Y2719636D1*
X1339465Y2712243D1*
X1335936Y2705318D1*
X1331367Y2699029D1*
X1325871Y2693533D1*
X1319582Y2688964D1*
X1312657Y2685435D1*
X1305264Y2683033D1*
X1297587Y2681817D1*
X1289813D1*
X1282136Y2683033D1*
X1274743Y2685435D1*
X1267818Y2688964D1*
X1261529Y2693533D1*
X1256033Y2699029D1*
X1251464Y2705318D1*
X1247935Y2712243D1*
X1245533Y2719636D1*
X1244317Y2727313D1*
Y2735087D1*
X1245533Y2742764D1*
X1247935Y2750157D1*
X1251464Y2757082D1*
X1256033Y2763371D1*
X1261529Y2768867D1*
X1267818Y2773436D1*
X1274743Y2776965D1*
X1282136Y2779367D1*
X1289813Y2780583D1*
X1297587D1*
X1305264Y2779367D1*
X1312657Y2776965D1*
X1319582Y2773436D1*
X1325871Y2768867D1*
X1331367Y2763371D1*
X1335936Y2757082D1*
X1339465Y2750157D1*
X1341867Y2742764D1*
X1343083Y2735087D1*
Y2727313D1*
X1443083D2*
X1441867Y2719636D1*
X1439465Y2712243D1*
X1435936Y2705318D1*
X1431367Y2699029D1*
X1425871Y2693533D1*
X1419582Y2688964D1*
X1412657Y2685435D1*
X1405264Y2683033D1*
X1397587Y2681817D1*
X1389813D1*
X1382136Y2683033D1*
X1374743Y2685435D1*
X1367818Y2688964D1*
X1361529Y2693533D1*
X1356033Y2699029D1*
X1351464Y2705318D1*
X1347935Y2712243D1*
X1345533Y2719636D1*
X1344317Y2727313D1*
Y2735087D1*
X1345533Y2742764D1*
X1347935Y2750157D1*
X1351464Y2757082D1*
X1356033Y2763371D1*
X1361529Y2768867D1*
X1367818Y2773436D1*
X1374743Y2776965D1*
X1382136Y2779367D1*
X1389813Y2780583D1*
X1397587D1*
X1405264Y2779367D1*
X1412657Y2776965D1*
X1419582Y2773436D1*
X1425871Y2768867D1*
X1431367Y2763371D1*
X1435936Y2757082D1*
X1439465Y2750157D1*
X1441867Y2742764D1*
X1443083Y2735087D1*
Y2727313D1*
X1543083D2*
X1541867Y2719636D1*
X1539465Y2712243D1*
X1535936Y2705318D1*
X1531367Y2699029D1*
X1525871Y2693533D1*
X1519582Y2688964D1*
X1512657Y2685435D1*
X1505264Y2683033D1*
X1497587Y2681817D1*
X1489813D1*
X1482136Y2683033D1*
X1474743Y2685435D1*
X1467818Y2688964D1*
X1461529Y2693533D1*
X1456033Y2699029D1*
X1451464Y2705318D1*
X1447935Y2712243D1*
X1445533Y2719636D1*
X1444317Y2727313D1*
Y2735087D1*
X1445533Y2742764D1*
X1447935Y2750157D1*
X1451464Y2757082D1*
X1456033Y2763371D1*
X1461529Y2768867D1*
X1467818Y2773436D1*
X1474743Y2776965D1*
X1482136Y2779367D1*
X1489813Y2780583D1*
X1497587D1*
X1505264Y2779367D1*
X1512657Y2776965D1*
X1519582Y2773436D1*
X1525871Y2768867D1*
X1531367Y2763371D1*
X1535936Y2757082D1*
X1539465Y2750157D1*
X1541867Y2742764D1*
X1543083Y2735087D1*
Y2727313D1*
X1643083D2*
X1641867Y2719636D1*
X1640469Y2714966D1*
X1654448Y2700983D1*
X1651464Y2705318D1*
X1647935Y2712243D1*
X1645533Y2719636D1*
X1644317Y2727313D1*
Y2735087D1*
X1645533Y2742764D1*
X1647935Y2750157D1*
X1651464Y2757082D1*
X1656033Y2763371D1*
X1661529Y2768867D1*
X1667818Y2773436D1*
X1674743Y2776965D1*
X1682136Y2779367D1*
X1689813Y2780583D1*
X1697587D1*
X1705264Y2779367D1*
X1712657Y2776965D1*
X1719582Y2773436D1*
X1725871Y2768867D1*
X1731367Y2763371D1*
X1735936Y2757082D1*
X1739465Y2750157D1*
X1741867Y2742764D1*
X1743083Y2735087D1*
Y2727313D1*
X1741867Y2719636D1*
X1739465Y2712243D1*
X1735936Y2705318D1*
X1731367Y2699029D1*
X1725871Y2693533D1*
X1719582Y2688964D1*
X1712657Y2685435D1*
X1705264Y2683033D1*
X1697587Y2681817D1*
X1689813D1*
X1682136Y2683033D1*
X1674743Y2685435D1*
X1667818Y2688964D1*
X1663259Y2692169D1*
X1918318Y2437113D1*
X1922796Y2440313D1*
X1928390Y2443162D1*
X1934360Y2445103D1*
X1940561Y2446085D1*
X1946839D1*
X1953040Y2445103D1*
X1959010Y2443162D1*
X1964604Y2440313D1*
X1969683Y2436623D1*
X1974123Y2432183D1*
X1977813Y2427104D1*
X1980662Y2421510D1*
X1982603Y2415540D1*
X1983585Y2409339D1*
Y2403061D1*
X1982603Y2396860D1*
X1980662Y2390890D1*
X1977813Y2385296D1*
X1975695Y2382212D1*
X2007029Y2382208D1*
X2011466Y2386623D1*
X2016546Y2390313D1*
X2022140Y2393162D1*
X2028111Y2395103D1*
X2034312Y2396085D1*
X2040588D1*
X2046789Y2395103D1*
X2052760Y2393162D1*
X2058354Y2390313D1*
X2063434Y2386623D1*
X2067872Y2382183D1*
X2071562Y2377104D1*
X2074413Y2371510D1*
X2076352Y2365540D1*
X2077335Y2359339D1*
Y2353061D1*
X2076352Y2346860D1*
X2075743Y2344699D1*
X2170430Y2344708D1*
X2176809Y2350977D1*
X2180111Y2353376D1*
X2183747Y2355228D1*
X2187629Y2356489D1*
X2191659Y2357128D1*
X2226180Y2357208D1*
X2263304D1*
X2267717Y2361623D1*
X2272796Y2365313D1*
X2278390Y2368162D1*
X2284360Y2370103D1*
X2290561Y2371085D1*
X2296839D1*
X2303040Y2370103D1*
X2309010Y2368162D1*
X2314604Y2365313D1*
X2319683Y2361623D1*
X2322249Y2359210D1*
X2602644Y2359208D1*
X2605217Y2361623D1*
X2610296Y2365313D1*
X2615890Y2368162D1*
X2621860Y2370103D1*
X2628061Y2371085D1*
X2634339D1*
X2640540Y2370103D1*
X2646510Y2368162D1*
X2652104Y2365313D1*
X2657183Y2361623D1*
X2661623Y2357183D1*
X2665313Y2352104D1*
X2668162Y2346510D1*
X2670103Y2340540D1*
X2671085Y2334339D1*
Y2328061D1*
X2670103Y2321860D1*
X2668162Y2315890D1*
X2665313Y2310296D1*
X2661623Y2305217D1*
X2657183Y2300777D1*
X2652104Y2297087D1*
X2646510Y2294238D1*
X2640540Y2292297D1*
X2634339Y2291315D1*
X2628061D1*
X2621860Y2292297D1*
X2615890Y2294238D1*
X2610296Y2297087D1*
X2605217Y2300777D1*
X2602651Y2303190D1*
X2322256Y2303192D1*
X2319683Y2300777D1*
X2314604Y2297087D1*
X2309010Y2294238D1*
X2303040Y2292297D1*
X2296839Y2291315D1*
X2290561D1*
X2284360Y2292297D1*
X2278390Y2294238D1*
X2272796Y2297087D1*
X2267717Y2300777D1*
X2263302Y2305190D1*
X2204456Y2305192D1*
X2208354Y2302813D1*
X2213434Y2299123D1*
X2217872Y2294683D1*
X2221562Y2289604D1*
X2224413Y2284010D1*
X2226352Y2278040D1*
X2227335Y2271839D1*
Y2265561D1*
X2226352Y2259360D1*
X2224413Y2253390D1*
X2221562Y2247796D1*
X2217872Y2242717D1*
X2213434Y2238277D1*
X2208354Y2234587D1*
X2202760Y2231738D1*
X2196789Y2229797D1*
X2190588Y2228815D1*
X2184312D1*
X2178111Y2229797D1*
X2172140Y2231738D1*
X2166546Y2234587D1*
X2161466Y2238277D1*
X2157053Y2242690D1*
X1429567Y2242692D1*
X1431750Y2237313D1*
X1433216Y2231209D1*
X1433708Y2224949D1*
X1433216Y2218691D1*
X1431750Y2212587D1*
X1429347Y2206787D1*
X1426067Y2201434D1*
X1421990Y2196661D1*
X1417216Y2192583D1*
X1411863Y2189302D1*
X1406064Y2186901D1*
X1399959Y2185435D1*
X1393700Y2184941D1*
X1387441Y2185435D1*
X1381336Y2186901D1*
X1375537Y2189302D1*
X1370184Y2192583D1*
X1365410Y2196661D1*
X1363302Y2198940D1*
X1060447Y2198941D1*
X1057207Y2196342D1*
X1051854Y2193062D1*
X1046054Y2190659D1*
X1039949Y2189193D1*
X1033691Y2188701D1*
X1027432Y2189193D1*
X1021327Y2190659D1*
X1015528Y2193062D1*
X1010175Y2196342D1*
X1005401Y2200419D1*
X1001323Y2205193D1*
X998044Y2210546D1*
X995641Y2216346D1*
X994175Y2222451D1*
X993683Y2228709D1*
X994175Y2234968D1*
X995641Y2241073D1*
X998044Y2246872D1*
X1001323Y2252225D1*
X1005401Y2256999D1*
X1010175Y2261077D1*
X1015528Y2264356D1*
X1021327Y2266759D1*
X1027432Y2268225D1*
X1033691Y2268717D1*
X1039949Y2268225D1*
X1046054Y2266759D1*
X1051854Y2264356D1*
X1057207Y2261077D1*
X1058449Y2260096D1*
X1057119Y2265758D1*
X1056625Y2272016D1*
X1057119Y2278275D1*
X1058585Y2284380D1*
X1058750Y2284829D1*
X1052760Y2281738D1*
X1046789Y2279797D1*
X1040588Y2278815D1*
X1034312D1*
X1028111Y2279797D1*
X1022140Y2281738D1*
X1016546Y2284587D1*
X1011466Y2288277D1*
X1007028Y2292717D1*
X1003338Y2297796D1*
X1000487Y2303390D1*
X998548Y2309360D1*
X997565Y2315561D1*
Y2321839D1*
X998548Y2328040D1*
X1000487Y2334010D1*
X1003338Y2339604D1*
X1007028Y2344683D1*
X1011466Y2349123D1*
X1016546Y2352813D1*
X1022140Y2355662D1*
X1028111Y2357603D1*
X1034312Y2358585D1*
X1040588D1*
X1046789Y2357603D1*
X1052760Y2355662D1*
X1058354Y2352813D1*
X1063434Y2349123D1*
X1067847Y2344710D1*
X1342892Y2344708D1*
X1341684Y2349941D1*
X1341192Y2356200D1*
X1341684Y2362459D1*
X1343150Y2368564D1*
X1345363Y2373951D1*
X1111625Y2373941D1*
X1107183Y2369528D1*
X1102104Y2365838D1*
X1096510Y2362987D1*
X1090540Y2361048D1*
X1084339Y2360065D1*
X1078061D1*
X1071860Y2361048D1*
X1065890Y2362987D1*
X1060296Y2365838D1*
X1055217Y2369528D1*
X1050777Y2373966D1*
X1047087Y2379046D1*
X1044238Y2384640D1*
X1042297Y2390611D1*
X1041315Y2396812D1*
Y2403088D1*
X1042123Y2408411D1*
X1035834Y2406342D1*
X1029633Y2405360D1*
X1023356D1*
X1017155Y2406342D1*
X1011184Y2408283D1*
X1005591Y2411132D1*
X1000511Y2414822D1*
X996073Y2419262D1*
X992382Y2424340D1*
X989532Y2429935D1*
X987592Y2435905D1*
X986609Y2442106D1*
Y2448384D1*
X987592Y2454585D1*
X989532Y2460554D1*
X992382Y2466149D1*
X996073Y2471228D1*
X1000511Y2475667D1*
X1005591Y2479357D1*
X1011184Y2482207D1*
X1017155Y2484148D1*
X1023356Y2485129D1*
X1029633D1*
X1035834Y2484148D1*
X1041805Y2482207D1*
X1047398Y2479357D1*
X1052478Y2475667D1*
X1056917Y2471228D1*
X1058109Y2469714D1*
X1563285Y2469708D1*
X1567717Y2474123D1*
X1572796Y2477813D1*
X1578390Y2480662D1*
X1584360Y2482603D1*
X1590561Y2483585D1*
X1596839D1*
X1603040Y2482603D1*
X1609010Y2480662D1*
X1614604Y2477813D1*
X1619683Y2474123D1*
X1624123Y2469683D1*
X1627813Y2464604D1*
X1630662Y2459010D1*
X1632603Y2453040D1*
X1633585Y2446839D1*
Y2440561D1*
X1632603Y2434360D1*
X1630662Y2428390D1*
X1627813Y2422796D1*
X1624123Y2417717D1*
X1619683Y2413277D1*
X1614604Y2409587D1*
X1609010Y2406738D1*
X1603040Y2404797D1*
X1596839Y2403815D1*
X1590561D1*
X1584360Y2404797D1*
X1578390Y2406738D1*
X1572796Y2409587D1*
X1567717Y2413277D1*
X1563302Y2417690D1*
X1529577Y2417692D1*
X1531750Y2412313D1*
X1533216Y2406209D1*
X1533708Y2399951D1*
X1533216Y2393691D1*
X1531750Y2387587D1*
X1529537Y2382199D1*
X1902432Y2382208D1*
X1898861Y2384024D1*
X1895560Y2386423D1*
X1871092Y2410776D1*
X1599812Y2682057D1*
X1593700Y2681665D1*
X1585951Y2682275D1*
X1578393Y2684088D1*
X1571212Y2687064D1*
X1564583Y2691125D1*
X1558674Y2696174D1*
X1553625Y2702083D1*
X1549564Y2708712D1*
X1546588Y2715893D1*
X1544775Y2723451D1*
X1544165Y2731200D1*
X1544775Y2738949D1*
X1546588Y2746507D1*
X1549564Y2753688D1*
X1553625Y2760317D1*
X1558674Y2766226D1*
X1564583Y2771275D1*
X1571212Y2775336D1*
X1578393Y2778312D1*
X1585951Y2780125D1*
X1593700Y2780735D1*
X1601449Y2780125D1*
X1609007Y2778312D1*
X1616188Y2775336D1*
X1622817Y2771275D1*
X1628726Y2766226D1*
X1633775Y2760317D1*
X1637836Y2753688D1*
X1640812Y2746507D1*
X1642625Y2738949D1*
X1643235Y2731200D1*
X1643083Y2727313D1*
X1843083D2*
X1841867Y2719636D1*
X1839465Y2712243D1*
X1835936Y2705318D1*
X1831367Y2699029D1*
X1825871Y2693533D1*
X1819582Y2688964D1*
X1812657Y2685435D1*
X1805264Y2683033D1*
X1797587Y2681817D1*
X1789813D1*
X1782136Y2683033D1*
X1774743Y2685435D1*
X1767818Y2688964D1*
X1761529Y2693533D1*
X1756033Y2699029D1*
X1751464Y2705318D1*
X1747935Y2712243D1*
X1745533Y2719636D1*
X1744317Y2727313D1*
Y2735087D1*
X1745533Y2742764D1*
X1747935Y2750157D1*
X1751464Y2757082D1*
X1756033Y2763371D1*
X1761529Y2768867D1*
X1767818Y2773436D1*
X1774743Y2776965D1*
X1782136Y2779367D1*
X1789813Y2780583D1*
X1797587D1*
X1805264Y2779367D1*
X1812657Y2776965D1*
X1819582Y2773436D1*
X1825871Y2768867D1*
X1831367Y2763371D1*
X1835936Y2757082D1*
X1839465Y2750157D1*
X1841867Y2742764D1*
X1843083Y2735087D1*
Y2727313D1*
X1943083D2*
X1941867Y2719636D1*
X1939465Y2712243D1*
X1935936Y2705318D1*
X1931367Y2699029D1*
X1925871Y2693533D1*
X1919582Y2688964D1*
X1912657Y2685435D1*
X1905264Y2683033D1*
X1897587Y2681817D1*
X1889813D1*
X1882136Y2683033D1*
X1874743Y2685435D1*
X1867818Y2688964D1*
X1861529Y2693533D1*
X1856033Y2699029D1*
X1851464Y2705318D1*
X1847935Y2712243D1*
X1845533Y2719636D1*
X1844317Y2727313D1*
Y2735087D1*
X1845533Y2742764D1*
X1847935Y2750157D1*
X1851464Y2757082D1*
X1856033Y2763371D1*
X1861529Y2768867D1*
X1867818Y2773436D1*
X1874743Y2776965D1*
X1882136Y2779367D1*
X1889813Y2780583D1*
X1897587D1*
X1905264Y2779367D1*
X1912657Y2776965D1*
X1919582Y2773436D1*
X1925871Y2768867D1*
X1931367Y2763371D1*
X1935936Y2757082D1*
X1939465Y2750157D1*
X1941867Y2742764D1*
X1943083Y2735087D1*
Y2727313D1*
X2043083D2*
X2041867Y2719636D1*
X2039465Y2712243D1*
X2035936Y2705318D1*
X2031367Y2699029D1*
X2025871Y2693533D1*
X2019582Y2688964D1*
X2012657Y2685435D1*
X2005264Y2683033D1*
X1997587Y2681817D1*
X1989813D1*
X1982136Y2683033D1*
X1974743Y2685435D1*
X1967818Y2688964D1*
X1961529Y2693533D1*
X1956033Y2699029D1*
X1951464Y2705318D1*
X1947935Y2712243D1*
X1945533Y2719636D1*
X1944317Y2727313D1*
Y2735087D1*
X1945533Y2742764D1*
X1947935Y2750157D1*
X1951464Y2757082D1*
X1956033Y2763371D1*
X1961529Y2768867D1*
X1967818Y2773436D1*
X1974743Y2776965D1*
X1982136Y2779367D1*
X1989813Y2780583D1*
X1997587D1*
X2005264Y2779367D1*
X2012657Y2776965D1*
X2019582Y2773436D1*
X2025871Y2768867D1*
X2031367Y2763371D1*
X2035936Y2757082D1*
X2039465Y2750157D1*
X2041867Y2742764D1*
X2043083Y2735087D1*
Y2727313D1*
X2143083D2*
X2141867Y2719636D1*
X2139465Y2712243D1*
X2135936Y2705318D1*
X2131367Y2699029D1*
X2125871Y2693533D1*
X2119582Y2688964D1*
X2112657Y2685435D1*
X2105264Y2683033D1*
X2097587Y2681817D1*
X2089813D1*
X2082136Y2683033D1*
X2074743Y2685435D1*
X2067818Y2688964D1*
X2061529Y2693533D1*
X2056033Y2699029D1*
X2051464Y2705318D1*
X2047935Y2712243D1*
X2045533Y2719636D1*
X2044317Y2727313D1*
Y2735087D1*
X2045533Y2742764D1*
X2047935Y2750157D1*
X2051464Y2757082D1*
X2056033Y2763371D1*
X2061529Y2768867D1*
X2067818Y2773436D1*
X2074743Y2776965D1*
X2082136Y2779367D1*
X2089813Y2780583D1*
X2097587D1*
X2105264Y2779367D1*
X2112657Y2776965D1*
X2119582Y2773436D1*
X2125871Y2768867D1*
X2131367Y2763371D1*
X2135936Y2757082D1*
X2139465Y2750157D1*
X2141867Y2742764D1*
X2143083Y2735087D1*
Y2727313D1*
X2243083D2*
X2241867Y2719636D1*
X2239465Y2712243D1*
X2235936Y2705318D1*
X2231367Y2699029D1*
X2225871Y2693533D1*
X2219582Y2688964D1*
X2212657Y2685435D1*
X2205264Y2683033D1*
X2197587Y2681817D1*
X2189813D1*
X2182136Y2683033D1*
X2174743Y2685435D1*
X2167818Y2688964D1*
X2161529Y2693533D1*
X2156033Y2699029D1*
X2151464Y2705318D1*
X2147935Y2712243D1*
X2145533Y2719636D1*
X2144317Y2727313D1*
Y2735087D1*
X2145533Y2742764D1*
X2147935Y2750157D1*
X2151464Y2757082D1*
X2156033Y2763371D1*
X2161529Y2768867D1*
X2167818Y2773436D1*
X2174743Y2776965D1*
X2182136Y2779367D1*
X2189813Y2780583D1*
X2197587D1*
X2205264Y2779367D1*
X2212657Y2776965D1*
X2219582Y2773436D1*
X2225871Y2768867D1*
X2231367Y2763371D1*
X2235936Y2757082D1*
X2239465Y2750157D1*
X2241867Y2742764D1*
X2243083Y2735087D1*
Y2727313D1*
X2343083D2*
X2341867Y2719636D1*
X2339465Y2712243D1*
X2335936Y2705318D1*
X2331367Y2699029D1*
X2325871Y2693533D1*
X2319582Y2688964D1*
X2312657Y2685435D1*
X2305264Y2683033D1*
X2297587Y2681817D1*
X2289813D1*
X2282136Y2683033D1*
X2274743Y2685435D1*
X2267818Y2688964D1*
X2261529Y2693533D1*
X2256033Y2699029D1*
X2251464Y2705318D1*
X2247935Y2712243D1*
X2245533Y2719636D1*
X2244317Y2727313D1*
Y2735087D1*
X2245533Y2742764D1*
X2247935Y2750157D1*
X2251464Y2757082D1*
X2256033Y2763371D1*
X2261529Y2768867D1*
X2267818Y2773436D1*
X2274743Y2776965D1*
X2282136Y2779367D1*
X2289813Y2780583D1*
X2297587D1*
X2305264Y2779367D1*
X2312657Y2776965D1*
X2319582Y2773436D1*
X2325871Y2768867D1*
X2331367Y2763371D1*
X2335936Y2757082D1*
X2339465Y2750157D1*
X2341867Y2742764D1*
X2343083Y2735087D1*
Y2727313D1*
X643083Y2827313D2*
X641867Y2819636D1*
X639465Y2812243D1*
X635936Y2805318D1*
X631367Y2799029D1*
X625871Y2793533D1*
X619582Y2788964D1*
X612657Y2785435D1*
X605264Y2783033D1*
X597587Y2781817D1*
X589813D1*
X582136Y2783033D1*
X574743Y2785435D1*
X567818Y2788964D1*
X561529Y2793533D1*
X556033Y2799029D1*
X551464Y2805318D1*
X547935Y2812243D1*
X545533Y2819636D1*
X544317Y2827313D1*
Y2835087D1*
X545533Y2842764D1*
X547935Y2850157D1*
X551464Y2857082D1*
X556033Y2863371D1*
X561529Y2868867D1*
X567818Y2873436D1*
X574743Y2876965D1*
X582136Y2879367D1*
X589813Y2880583D1*
X597587D1*
X605264Y2879367D1*
X612657Y2876965D1*
X619582Y2873436D1*
X625871Y2868867D1*
X631367Y2863371D1*
X635936Y2857082D1*
X639465Y2850157D1*
X641867Y2842764D1*
X643083Y2835087D1*
Y2827313D1*
X743083D2*
X741867Y2819636D1*
X739465Y2812243D1*
X735936Y2805318D1*
X731367Y2799029D1*
X725871Y2793533D1*
X719582Y2788964D1*
X712657Y2785435D1*
X705264Y2783033D1*
X697587Y2781817D1*
X689813D1*
X682136Y2783033D1*
X674743Y2785435D1*
X667818Y2788964D1*
X661529Y2793533D1*
X656033Y2799029D1*
X651464Y2805318D1*
X647935Y2812243D1*
X645533Y2819636D1*
X644317Y2827313D1*
Y2835087D1*
X645533Y2842764D1*
X647935Y2850157D1*
X651464Y2857082D1*
X656033Y2863371D1*
X661529Y2868867D1*
X667818Y2873436D1*
X674743Y2876965D1*
X682136Y2879367D1*
X689813Y2880583D1*
X697587D1*
X705264Y2879367D1*
X712657Y2876965D1*
X719582Y2873436D1*
X725871Y2868867D1*
X731367Y2863371D1*
X735936Y2857082D1*
X739465Y2850157D1*
X741867Y2842764D1*
X743083Y2835087D1*
Y2827313D1*
X843083D2*
X841867Y2819636D1*
X839465Y2812243D1*
X835936Y2805318D1*
X831367Y2799029D1*
X825871Y2793533D1*
X819582Y2788964D1*
X812657Y2785435D1*
X805264Y2783033D1*
X797587Y2781817D1*
X789813D1*
X782136Y2783033D1*
X774743Y2785435D1*
X767818Y2788964D1*
X761529Y2793533D1*
X756033Y2799029D1*
X751464Y2805318D1*
X747935Y2812243D1*
X745533Y2819636D1*
X744317Y2827313D1*
Y2835087D1*
X745533Y2842764D1*
X747935Y2850157D1*
X751464Y2857082D1*
X756033Y2863371D1*
X761529Y2868867D1*
X767818Y2873436D1*
X774743Y2876965D1*
X782136Y2879367D1*
X789813Y2880583D1*
X797587D1*
X805264Y2879367D1*
X812657Y2876965D1*
X819582Y2873436D1*
X825871Y2868867D1*
X831367Y2863371D1*
X835936Y2857082D1*
X839465Y2850157D1*
X841867Y2842764D1*
X843083Y2835087D1*
Y2827313D1*
X943083D2*
X941867Y2819636D1*
X939465Y2812243D1*
X935936Y2805318D1*
X931367Y2799029D1*
X925871Y2793533D1*
X919582Y2788964D1*
X912657Y2785435D1*
X905264Y2783033D1*
X897587Y2781817D1*
X889813D1*
X882136Y2783033D1*
X874743Y2785435D1*
X867818Y2788964D1*
X861529Y2793533D1*
X856033Y2799029D1*
X851464Y2805318D1*
X847935Y2812243D1*
X845533Y2819636D1*
X844317Y2827313D1*
Y2835087D1*
X845533Y2842764D1*
X847935Y2850157D1*
X851464Y2857082D1*
X856033Y2863371D1*
X861529Y2868867D1*
X867818Y2873436D1*
X874743Y2876965D1*
X882136Y2879367D1*
X889813Y2880583D1*
X897587D1*
X905264Y2879367D1*
X912657Y2876965D1*
X919582Y2873436D1*
X925871Y2868867D1*
X931367Y2863371D1*
X935936Y2857082D1*
X939465Y2850157D1*
X941867Y2842764D1*
X943083Y2835087D1*
Y2827313D1*
X1043218Y2829901D2*
X1042810Y2824722D1*
X1041861Y2819616D1*
X1040384Y2814636D1*
X1038393Y2809838D1*
X1035910Y2805275D1*
X1032962Y2800998D1*
X1029585Y2797052D1*
X1025812Y2793482D1*
X1021684Y2790327D1*
X1017251Y2787621D1*
X1012557Y2785394D1*
X1007657Y2783671D1*
X1002603Y2782472D1*
X997452Y2781806D1*
X992258Y2781686D1*
X987081Y2782108D1*
X981977Y2783071D1*
X977002Y2784564D1*
X972209Y2786569D1*
X967654Y2789065D1*
X963385Y2792024D1*
X959449Y2795414D1*
X955890Y2799197D1*
X952746Y2803334D1*
X950053Y2807775D1*
X947840Y2812474D1*
X946132Y2817380D1*
X944945Y2822438D1*
X944296Y2827591D1*
X944190Y2832784D1*
X944628Y2837960D1*
X945606Y2843062D1*
X947112Y2848033D1*
X949132Y2852819D1*
X951640Y2857368D1*
X954612Y2861628D1*
X958014Y2865554D1*
X961806Y2869103D1*
X965951Y2872234D1*
X970401Y2874914D1*
X975107Y2877113D1*
X980018Y2878808D1*
X985078Y2879980D1*
X990233Y2880613D1*
X995427Y2880705D1*
X1000602Y2880252D1*
X1005700Y2879260D1*
X1010667Y2877739D1*
X1015448Y2875707D1*
X1019989Y2873184D1*
X1024241Y2870200D1*
X1028157Y2866788D1*
X1031693Y2862983D1*
X1034813Y2858830D1*
X1037481Y2854373D1*
X1039667Y2849661D1*
X1041347Y2844746D1*
X1042504Y2839682D1*
X1043124Y2834524D1*
X1043218Y2829901D1*
X1143083Y2827313D2*
X1141867Y2819636D1*
X1139465Y2812243D1*
X1135936Y2805318D1*
X1131367Y2799029D1*
X1125871Y2793533D1*
X1119582Y2788964D1*
X1112657Y2785435D1*
X1105264Y2783033D1*
X1097587Y2781817D1*
X1089813D1*
X1082136Y2783033D1*
X1074743Y2785435D1*
X1067818Y2788964D1*
X1061529Y2793533D1*
X1056033Y2799029D1*
X1051464Y2805318D1*
X1047935Y2812243D1*
X1045533Y2819636D1*
X1044317Y2827313D1*
Y2835087D1*
X1045533Y2842764D1*
X1047935Y2850157D1*
X1051464Y2857082D1*
X1056033Y2863371D1*
X1061529Y2868867D1*
X1067818Y2873436D1*
X1074743Y2876965D1*
X1082136Y2879367D1*
X1089813Y2880583D1*
X1097587D1*
X1105264Y2879367D1*
X1112657Y2876965D1*
X1119582Y2873436D1*
X1125871Y2868867D1*
X1131367Y2863371D1*
X1135936Y2857082D1*
X1139465Y2850157D1*
X1141867Y2842764D1*
X1143083Y2835087D1*
Y2827313D1*
X1243083D2*
X1241867Y2819636D1*
X1239465Y2812243D1*
X1235936Y2805318D1*
X1231367Y2799029D1*
X1225871Y2793533D1*
X1219582Y2788964D1*
X1212657Y2785435D1*
X1205264Y2783033D1*
X1197587Y2781817D1*
X1189813D1*
X1182136Y2783033D1*
X1174743Y2785435D1*
X1167818Y2788964D1*
X1161529Y2793533D1*
X1156033Y2799029D1*
X1151464Y2805318D1*
X1147935Y2812243D1*
X1145533Y2819636D1*
X1144317Y2827313D1*
Y2835087D1*
X1145533Y2842764D1*
X1147935Y2850157D1*
X1151464Y2857082D1*
X1156033Y2863371D1*
X1161529Y2868867D1*
X1167818Y2873436D1*
X1174743Y2876965D1*
X1182136Y2879367D1*
X1189813Y2880583D1*
X1197587D1*
X1205264Y2879367D1*
X1212657Y2876965D1*
X1219582Y2873436D1*
X1225871Y2868867D1*
X1231367Y2863371D1*
X1235936Y2857082D1*
X1239465Y2850157D1*
X1241867Y2842764D1*
X1243083Y2835087D1*
Y2827313D1*
X1343083D2*
X1341867Y2819636D1*
X1339465Y2812243D1*
X1335936Y2805318D1*
X1331367Y2799029D1*
X1325871Y2793533D1*
X1319582Y2788964D1*
X1312657Y2785435D1*
X1305264Y2783033D1*
X1297587Y2781817D1*
X1289813D1*
X1282136Y2783033D1*
X1274743Y2785435D1*
X1267818Y2788964D1*
X1261529Y2793533D1*
X1256033Y2799029D1*
X1251464Y2805318D1*
X1247935Y2812243D1*
X1245533Y2819636D1*
X1244317Y2827313D1*
Y2835087D1*
X1245533Y2842764D1*
X1247935Y2850157D1*
X1251464Y2857082D1*
X1256033Y2863371D1*
X1261529Y2868867D1*
X1267818Y2873436D1*
X1274743Y2876965D1*
X1282136Y2879367D1*
X1289813Y2880583D1*
X1297587D1*
X1305264Y2879367D1*
X1312657Y2876965D1*
X1319582Y2873436D1*
X1325871Y2868867D1*
X1331367Y2863371D1*
X1335936Y2857082D1*
X1339465Y2850157D1*
X1341867Y2842764D1*
X1343083Y2835087D1*
Y2827313D1*
X1443083D2*
X1441867Y2819636D1*
X1439465Y2812243D1*
X1435936Y2805318D1*
X1431367Y2799029D1*
X1425871Y2793533D1*
X1419582Y2788964D1*
X1412657Y2785435D1*
X1405264Y2783033D1*
X1397587Y2781817D1*
X1389813D1*
X1382136Y2783033D1*
X1374743Y2785435D1*
X1367818Y2788964D1*
X1361529Y2793533D1*
X1356033Y2799029D1*
X1351464Y2805318D1*
X1347935Y2812243D1*
X1345533Y2819636D1*
X1344317Y2827313D1*
Y2835087D1*
X1345533Y2842764D1*
X1347935Y2850157D1*
X1351464Y2857082D1*
X1356033Y2863371D1*
X1361529Y2868867D1*
X1367818Y2873436D1*
X1374743Y2876965D1*
X1382136Y2879367D1*
X1389813Y2880583D1*
X1397587D1*
X1405264Y2879367D1*
X1412657Y2876965D1*
X1419582Y2873436D1*
X1425871Y2868867D1*
X1431367Y2863371D1*
X1435936Y2857082D1*
X1439465Y2850157D1*
X1441867Y2842764D1*
X1443083Y2835087D1*
Y2827313D1*
X1543083D2*
X1541867Y2819636D1*
X1539465Y2812243D1*
X1535936Y2805318D1*
X1531367Y2799029D1*
X1525871Y2793533D1*
X1519582Y2788964D1*
X1512657Y2785435D1*
X1505264Y2783033D1*
X1497587Y2781817D1*
X1489813D1*
X1482136Y2783033D1*
X1474743Y2785435D1*
X1467818Y2788964D1*
X1461529Y2793533D1*
X1456033Y2799029D1*
X1451464Y2805318D1*
X1447935Y2812243D1*
X1445533Y2819636D1*
X1444317Y2827313D1*
Y2835087D1*
X1445533Y2842764D1*
X1447935Y2850157D1*
X1451464Y2857082D1*
X1456033Y2863371D1*
X1461529Y2868867D1*
X1467818Y2873436D1*
X1474743Y2876965D1*
X1482136Y2879367D1*
X1489813Y2880583D1*
X1497587D1*
X1505264Y2879367D1*
X1512657Y2876965D1*
X1519582Y2873436D1*
X1525871Y2868867D1*
X1531367Y2863371D1*
X1535936Y2857082D1*
X1539465Y2850157D1*
X1541867Y2842764D1*
X1543083Y2835087D1*
Y2827313D1*
X1643083D2*
X1641867Y2819636D1*
X1639465Y2812243D1*
X1635936Y2805318D1*
X1631367Y2799029D1*
X1625871Y2793533D1*
X1619582Y2788964D1*
X1612657Y2785435D1*
X1605264Y2783033D1*
X1597587Y2781817D1*
X1589813D1*
X1582136Y2783033D1*
X1574743Y2785435D1*
X1567818Y2788964D1*
X1561529Y2793533D1*
X1556033Y2799029D1*
X1551464Y2805318D1*
X1547935Y2812243D1*
X1545533Y2819636D1*
X1544317Y2827313D1*
Y2835087D1*
X1545533Y2842764D1*
X1547935Y2850157D1*
X1551464Y2857082D1*
X1556033Y2863371D1*
X1561529Y2868867D1*
X1567818Y2873436D1*
X1574743Y2876965D1*
X1582136Y2879367D1*
X1589813Y2880583D1*
X1597587D1*
X1605264Y2879367D1*
X1612657Y2876965D1*
X1619582Y2873436D1*
X1625871Y2868867D1*
X1631367Y2863371D1*
X1635936Y2857082D1*
X1639465Y2850157D1*
X1641867Y2842764D1*
X1643083Y2835087D1*
Y2827313D1*
X1743083D2*
X1741867Y2819636D1*
X1739465Y2812243D1*
X1735936Y2805318D1*
X1731367Y2799029D1*
X1725871Y2793533D1*
X1719582Y2788964D1*
X1712657Y2785435D1*
X1705264Y2783033D1*
X1697587Y2781817D1*
X1689813D1*
X1682136Y2783033D1*
X1674743Y2785435D1*
X1667818Y2788964D1*
X1661529Y2793533D1*
X1656033Y2799029D1*
X1651464Y2805318D1*
X1647935Y2812243D1*
X1645533Y2819636D1*
X1644317Y2827313D1*
Y2835087D1*
X1645533Y2842764D1*
X1647935Y2850157D1*
X1651464Y2857082D1*
X1656033Y2863371D1*
X1661529Y2868867D1*
X1665935Y2872178D1*
X1646798Y2891321D1*
X1640609Y2892297D1*
X1634640Y2894238D1*
X1629045Y2897087D1*
X1623966Y2900777D1*
X1619527Y2905217D1*
X1615836Y2910296D1*
X1612987Y2915890D1*
X1611046Y2921860D1*
X1610065Y2928061D1*
Y2934339D1*
X1611046Y2940540D1*
X1611657Y2942701D1*
X1183039Y2942692D1*
X1181750Y2937586D1*
X1179347Y2931787D1*
X1176067Y2926434D1*
X1171990Y2921659D1*
X1167216Y2917582D1*
X1161863Y2914302D1*
X1156064Y2911899D1*
X1149959Y2910434D1*
X1143700Y2909941D1*
X1137441Y2910434D1*
X1131336Y2911899D1*
X1125537Y2914302D1*
X1120184Y2917582D1*
X1115410Y2921659D1*
X1111333Y2926434D1*
X1108053Y2931787D1*
X1105650Y2937586D1*
X1104184Y2943691D1*
X1103692Y2949949D1*
X1104184Y2956208D1*
X1105650Y2962313D1*
X1107863Y2967700D1*
X882045Y2967692D1*
X877354Y2963695D1*
X872001Y2960415D1*
X866201Y2958012D1*
X860096Y2956546D1*
X853838Y2956054D1*
X847579Y2956546D1*
X841474Y2958012D1*
X835675Y2960415D1*
X830322Y2963695D1*
X825548Y2967772D1*
X821470Y2972546D1*
X818191Y2977899D1*
X815788Y2983699D1*
X814322Y2989804D1*
X813830Y2996062D1*
X814322Y3002321D1*
X815788Y3008426D1*
X818191Y3014225D1*
X821470Y3019578D1*
X825548Y3024352D1*
X830322Y3028430D1*
X835675Y3031709D1*
X841474Y3034112D1*
X847579Y3035578D1*
X853838Y3036070D1*
X860096Y3035578D1*
X866201Y3034112D1*
X872001Y3031709D1*
X877354Y3028430D1*
X882128Y3024352D1*
X886106Y3019704D1*
X1426611Y3019708D1*
X1424401Y3025087D1*
X1422935Y3031192D1*
X1422443Y3037451D1*
X1422935Y3043709D1*
X1424401Y3049814D1*
X1426804Y3055613D1*
X1430083Y3060966D1*
X1434161Y3065741D1*
X1438935Y3069818D1*
X1444288Y3073098D1*
X1450087Y3075501D1*
X1456192Y3076966D1*
X1462451Y3077459D1*
X1468709Y3076966D1*
X1474814Y3075501D1*
X1480613Y3073098D1*
X1485966Y3069818D1*
X1490741Y3065741D1*
X1492848Y3063461D1*
X2039490Y3063378D1*
X2043520Y3062741D1*
X2047402Y3061480D1*
X2051039Y3059627D1*
X2054340Y3057228D1*
X2078806Y3032875D1*
X2113477Y2998091D1*
X2115876Y2994789D1*
X2117729Y2991153D1*
X2118990Y2987271D1*
X2119628Y2983241D1*
X2119708Y2948720D1*
Y2873381D1*
X2125871Y2868867D1*
X2131367Y2863371D1*
X2135936Y2857082D1*
X2139465Y2850157D1*
X2141867Y2842764D1*
X2143083Y2835087D1*
Y2827313D1*
X2141867Y2819636D1*
X2139465Y2812243D1*
X2135936Y2805318D1*
X2131367Y2799029D1*
X2125871Y2793533D1*
X2119582Y2788964D1*
X2112657Y2785435D1*
X2105264Y2783033D1*
X2097587Y2781817D1*
X2089813D1*
X2082136Y2783033D1*
X2074743Y2785435D1*
X2067818Y2788964D1*
X2061529Y2793533D1*
X2056033Y2799029D1*
X2051464Y2805318D1*
X2047935Y2812243D1*
X2045533Y2819636D1*
X2044317Y2827313D1*
Y2835087D1*
X2045533Y2842764D1*
X2047935Y2850157D1*
X2051464Y2857082D1*
X2056033Y2863371D1*
X2061529Y2868867D1*
X2067704Y2873360D1*
X2067692Y2970434D1*
X2026666Y3011453D1*
X1962720Y3011443D1*
X2013477Y2960591D1*
X2015876Y2957289D1*
X2017729Y2953653D1*
X2018990Y2949771D1*
X2019628Y2945741D1*
X2019708Y2911220D1*
Y2873334D1*
X2025871Y2868867D1*
X2031367Y2863371D1*
X2035936Y2857082D1*
X2039465Y2850157D1*
X2041867Y2842764D1*
X2043083Y2835087D1*
Y2827313D1*
X2041867Y2819636D1*
X2039465Y2812243D1*
X2035936Y2805318D1*
X2031367Y2799029D1*
X2025871Y2793533D1*
X2019582Y2788964D1*
X2012657Y2785435D1*
X2005264Y2783033D1*
X1997587Y2781817D1*
X1989813D1*
X1982136Y2783033D1*
X1974743Y2785435D1*
X1967818Y2788964D1*
X1961529Y2793533D1*
X1956033Y2799029D1*
X1951464Y2805318D1*
X1947935Y2812243D1*
X1945533Y2819636D1*
X1944317Y2827313D1*
Y2835087D1*
X1945533Y2842764D1*
X1947935Y2850157D1*
X1951464Y2857082D1*
X1956033Y2863371D1*
X1961529Y2868867D1*
X1967704Y2873360D1*
X1967692Y2932930D1*
X1926666Y2973953D1*
X1862721Y2973941D1*
X1913477Y2923091D1*
X1915876Y2919789D1*
X1917728Y2916153D1*
X1918989Y2912271D1*
X1919628Y2908241D1*
X1919708Y2873339D1*
X1925871Y2868867D1*
X1931367Y2863371D1*
X1935936Y2857082D1*
X1939465Y2850157D1*
X1941867Y2842764D1*
X1943083Y2835087D1*
Y2827313D1*
X1941867Y2819636D1*
X1939465Y2812243D1*
X1935936Y2805318D1*
X1931367Y2799029D1*
X1925871Y2793533D1*
X1919582Y2788964D1*
X1912657Y2785435D1*
X1905264Y2783033D1*
X1897587Y2781817D1*
X1889813D1*
X1882136Y2783033D1*
X1874743Y2785435D1*
X1867818Y2788964D1*
X1861529Y2793533D1*
X1856033Y2799029D1*
X1851464Y2805318D1*
X1847935Y2812243D1*
X1845533Y2819636D1*
X1844317Y2827313D1*
Y2835087D1*
X1845533Y2842764D1*
X1847935Y2850157D1*
X1851464Y2857082D1*
X1856033Y2863371D1*
X1861529Y2868867D1*
X1867704Y2873360D1*
X1867692Y2895424D1*
X1826666Y2936453D1*
X1806466Y2936443D1*
X1813477Y2929342D1*
X1815876Y2926040D1*
X1817729Y2922403D1*
X1818990Y2918522D1*
X1819628Y2914491D1*
X1819708Y2879970D1*
Y2873347D1*
X1825871Y2868867D1*
X1831367Y2863371D1*
X1835936Y2857082D1*
X1839465Y2850157D1*
X1841867Y2842764D1*
X1843083Y2835087D1*
Y2827313D1*
X1841867Y2819636D1*
X1839465Y2812243D1*
X1835936Y2805318D1*
X1831367Y2799029D1*
X1825871Y2793533D1*
X1819582Y2788964D1*
X1812657Y2785435D1*
X1805264Y2783033D1*
X1797587Y2781817D1*
X1789813D1*
X1782136Y2783033D1*
X1774743Y2785435D1*
X1767818Y2788964D1*
X1761529Y2793533D1*
X1756033Y2799029D1*
X1751464Y2805318D1*
X1747935Y2812243D1*
X1745533Y2819636D1*
X1744317Y2827313D1*
Y2835087D1*
X1745533Y2842764D1*
X1747935Y2850157D1*
X1751464Y2857082D1*
X1756033Y2863371D1*
X1761529Y2868867D1*
X1767704Y2873360D1*
X1767692Y2901667D1*
X1764167Y2905203D1*
X1741659Y2905272D1*
X1737629Y2905911D1*
X1733747Y2907171D1*
X1730111Y2909024D1*
X1726809Y2911423D1*
X1702343Y2935776D1*
X1695435Y2942684D1*
X1688259Y2942692D1*
X1689465Y2937459D1*
X1689957Y2931200D1*
X1689465Y2924941D1*
X1689012Y2922667D1*
X1713477Y2898091D1*
X1715876Y2894789D1*
X1717728Y2891153D1*
X1718989Y2887271D1*
X1719628Y2883241D1*
X1719708Y2873359D1*
X1725871Y2868867D1*
X1731367Y2863371D1*
X1735936Y2857082D1*
X1739465Y2850157D1*
X1741867Y2842764D1*
X1743083Y2835087D1*
Y2827313D1*
X2243083D2*
X2241867Y2819636D1*
X2239465Y2812243D1*
X2235936Y2805318D1*
X2231367Y2799029D1*
X2225871Y2793533D1*
X2219582Y2788964D1*
X2212657Y2785435D1*
X2205264Y2783033D1*
X2197587Y2781817D1*
X2189813D1*
X2182136Y2783033D1*
X2174743Y2785435D1*
X2167818Y2788964D1*
X2161529Y2793533D1*
X2156033Y2799029D1*
X2151464Y2805318D1*
X2147935Y2812243D1*
X2145533Y2819636D1*
X2144317Y2827313D1*
Y2835087D1*
X2145533Y2842764D1*
X2147935Y2850157D1*
X2151464Y2857082D1*
X2156033Y2863371D1*
X2161529Y2868867D1*
X2167818Y2873436D1*
X2174743Y2876965D1*
X2182136Y2879367D1*
X2189813Y2880583D1*
X2197587D1*
X2205264Y2879367D1*
X2212657Y2876965D1*
X2219582Y2873436D1*
X2225871Y2868867D1*
X2231367Y2863371D1*
X2235936Y2857082D1*
X2239465Y2850157D1*
X2241867Y2842764D1*
X2243083Y2835087D1*
Y2827313D1*
X3572512Y2106280D2*
X3572693Y2110957D1*
X3573242Y2115587D1*
X3574151Y2120159D1*
X3575417Y2124648D1*
X3577031Y2129022D1*
X3578983Y2133255D1*
X3581260Y2137323D1*
X3583851Y2141200D1*
X3586738Y2144861D1*
X3589902Y2148285D1*
X3593326Y2151449D1*
X3596987Y2154336D1*
X3600864Y2156927D1*
X3604932Y2159204D1*
X3609166Y2161157D1*
X3613540Y2162771D1*
X3618028Y2164036D1*
X3622600Y2164945D1*
X3627230Y2165494D1*
X3631889Y2165676D1*
X3636548Y2165494D1*
X3641178Y2164945D1*
X3645750Y2164036D1*
X3650238Y2162771D1*
X3654612Y2161157D1*
X3658846Y2159204D1*
X3662914Y2156927D1*
X3666791Y2154336D1*
X3670452Y2151449D1*
X3673876Y2148285D1*
X3677040Y2144861D1*
X3679927Y2141200D1*
X3682518Y2137323D1*
X3684794Y2133255D1*
X3686747Y2129022D1*
X3688361Y2124648D1*
X3689627Y2120159D1*
X3690536Y2115587D1*
X3691085Y2110957D1*
X3691267Y2099802D1*
Y2066928D1*
X3691085Y2062270D1*
X3690536Y2057640D1*
X3689627Y2053067D1*
X3688361Y2048579D1*
X3686747Y2044205D1*
X3684794Y2039972D1*
X3682518Y2035903D1*
X3679927Y2032027D1*
X3677040Y2028365D1*
X3673876Y2024941D1*
X3670452Y2021777D1*
X3666791Y2018890D1*
X3662914Y2016300D1*
X3658846Y2014023D1*
X3654612Y2012070D1*
X3650238Y2010456D1*
X3645750Y2009191D1*
X3641178Y2008281D1*
X3636548Y2007733D1*
X3631889Y2007550D1*
X3627230Y2007733D1*
X3622600Y2008281D1*
X3618028Y2009191D1*
X3613540Y2010456D1*
X3609166Y2012070D1*
X3604932Y2014023D1*
X3600864Y2016300D1*
X3596987Y2018890D1*
X3593326Y2021777D1*
X3589902Y2024941D1*
X3586738Y2028365D1*
X3583851Y2032027D1*
X3581260Y2035903D1*
X3578983Y2039972D1*
X3577031Y2044205D1*
X3575417Y2048579D1*
X3574151Y2053067D1*
X3573242Y2057640D1*
X3572693Y2062270D1*
X3572511Y2073424D1*
X3572536Y2106298D1*
X3808735Y2106301D2*
X3809008Y2112032D1*
X3809989Y2118451D1*
X3811662Y2124724D1*
X3814011Y2130776D1*
X3817007Y2136536D1*
X3820615Y2141935D1*
X3824789Y2146907D1*
X3829482Y2151396D1*
X3834637Y2155343D1*
X3840192Y2158704D1*
X3846081Y2161439D1*
X3852233Y2163515D1*
X3858575Y2164906D1*
X3865031Y2165596D1*
X3871524Y2165578D1*
X3877976Y2164851D1*
X3884310Y2163423D1*
X3890451Y2161313D1*
X3896323Y2158545D1*
X3901859Y2155153D1*
X3906991Y2151175D1*
X3911659Y2146662D1*
X3915805Y2141666D1*
X3919382Y2136246D1*
X3922346Y2130469D1*
X3924659Y2124403D1*
X3926298Y2118120D1*
X3927242Y2111696D1*
X3927487Y2104999D1*
X3927360Y2063033D1*
X3926581Y2056587D1*
X3925102Y2050266D1*
X3922941Y2044142D1*
X3920125Y2038292D1*
X3916688Y2032784D1*
X3912670Y2027684D1*
X3908119Y2023053D1*
X3903088Y2018947D1*
X3897641Y2015415D1*
X3891840Y2012498D1*
X3885755Y2010233D1*
X3879460Y2008645D1*
X3873028Y2007754D1*
X3866537Y2007571D1*
X3860066Y2008098D1*
X3853691Y2009327D1*
X3847489Y2011246D1*
X3841532Y2013830D1*
X3835893Y2017050D1*
X3830640Y2020865D1*
X3825835Y2025231D1*
X3821535Y2030096D1*
X3817792Y2035402D1*
X3814650Y2041085D1*
X3812149Y2047077D1*
X3810315Y2053305D1*
X3809174Y2059696D1*
X3808737Y2066175D1*
X3808731Y2106226D1*
X3730333Y2212276D2*
X3725655Y2212457D1*
X3721025Y2213006D1*
X3716453Y2213915D1*
X3711965Y2215180D1*
X3707591Y2216794D1*
X3703357Y2218747D1*
X3699289Y2221024D1*
X3695413Y2223615D1*
X3691751Y2226502D1*
X3688327Y2229666D1*
X3685163Y2233090D1*
X3682276Y2236751D1*
X3679686Y2240628D1*
X3677409Y2244696D1*
X3675456Y2248930D1*
X3673842Y2253304D1*
X3672577Y2257792D1*
X3671667Y2262364D1*
X3671119Y2266994D1*
X3670936Y2271653D1*
X3671119Y2276312D1*
X3671667Y2280941D1*
X3672577Y2285514D1*
X3673842Y2290002D1*
X3675456Y2294376D1*
X3677409Y2298609D1*
X3679686Y2302678D1*
X3682276Y2306554D1*
X3685163Y2310216D1*
X3688327Y2313640D1*
X3691751Y2316804D1*
X3695413Y2319691D1*
X3699289Y2322281D1*
X3703357Y2324558D1*
X3707591Y2326511D1*
X3711965Y2328125D1*
X3716453Y2329390D1*
X3721025Y2330300D1*
X3725655Y2330848D1*
X3736810Y2331031D1*
X3774343Y2330848D1*
X3778973Y2330300D1*
X3783545Y2329390D1*
X3788033Y2328125D1*
X3792407Y2326511D1*
X3796641Y2324558D1*
X3800709Y2322281D1*
X3804586Y2319691D1*
X3808247Y2316804D1*
X3811671Y2313640D1*
X3814835Y2310216D1*
X3817722Y2306554D1*
X3820313Y2302678D1*
X3822590Y2298609D1*
X3824543Y2294376D1*
X3826157Y2290002D1*
X3827422Y2285514D1*
X3828331Y2280941D1*
X3828880Y2276312D1*
X3829062Y2271653D1*
X3828880Y2266994D1*
X3828331Y2262364D1*
X3827422Y2257792D1*
X3826157Y2253304D1*
X3824543Y2248930D1*
X3822590Y2244696D1*
X3820313Y2240628D1*
X3817722Y2236751D1*
X3814835Y2233090D1*
X3811671Y2229666D1*
X3808247Y2226502D1*
X3804586Y2223615D1*
X3800709Y2221024D1*
X3796641Y2218747D1*
X3792407Y2216794D1*
X3788033Y2215180D1*
X3783545Y2213915D1*
X3778973Y2213006D1*
X3774343Y2212457D1*
X3763188Y2212275D1*
X3730314Y2212300D1*
X2950085Y2227061D2*
X2949103Y2220860D1*
X2947162Y2214890D1*
X2944313Y2209296D1*
X2940623Y2204217D1*
X2936183Y2199777D1*
X2931104Y2196087D1*
X2925510Y2193238D1*
X2919540Y2191297D1*
X2913339Y2190315D1*
X2907061D1*
X2900860Y2191297D1*
X2894890Y2193238D1*
X2889296Y2196087D1*
X2884217Y2199777D1*
X2879777Y2204217D1*
X2876087Y2209296D1*
X2873238Y2214890D1*
X2871297Y2220860D1*
X2870315Y2227061D1*
X2870314Y2233302D1*
X2773423Y2330309D1*
X2771024Y2333611D1*
X2769172Y2337247D1*
X2767911Y2341129D1*
X2767272Y2345159D1*
X2767192Y2379680D1*
Y2947452D1*
X2757315Y2957304D1*
X2751061Y2957315D1*
X2744860Y2958297D1*
X2738890Y2960238D1*
X2733296Y2963087D1*
X2728217Y2966777D1*
X2723777Y2971217D1*
X2720087Y2976296D1*
X2717238Y2981890D1*
X2715297Y2987860D1*
X2714315Y2994061D1*
Y3000339D1*
X2715297Y3006540D1*
X2717238Y3012510D1*
X2720087Y3018104D1*
X2723777Y3023183D1*
X2728217Y3027623D1*
X2733296Y3031313D1*
X2738890Y3034162D1*
X2744860Y3036103D1*
X2751061Y3037085D1*
X2757339D1*
X2763540Y3036103D1*
X2769510Y3034162D1*
X2775104Y3031313D1*
X2780183Y3027623D1*
X2784623Y3023183D1*
X2788313Y3018104D1*
X2791162Y3012510D1*
X2793103Y3006540D1*
X2794085Y3000339D1*
X2794086Y2994098D1*
X2812977Y2975091D1*
X2815376Y2971789D1*
X2817228Y2968153D1*
X2818489Y2964271D1*
X2819128Y2960241D1*
X2819208Y2925720D1*
Y2357948D1*
X2907102Y2270079D1*
X2913339Y2270085D1*
X2919540Y2269103D1*
X2925510Y2267162D1*
X2931104Y2264313D1*
X2936183Y2260623D1*
X2940623Y2256183D1*
X2944313Y2251104D1*
X2947162Y2245510D1*
X2949103Y2239540D1*
X2950085Y2233339D1*
Y2227061D1*
X2322249Y2303190D2*
X2319683Y2300777D1*
X2314604Y2297087D1*
X2309010Y2294238D1*
X2303040Y2292297D1*
X2296839Y2291315D1*
X2290561D1*
X2284360Y2292297D1*
X2278390Y2294238D1*
X2272796Y2297087D1*
X2267717Y2300777D1*
X2263302Y2305190D1*
Y2357210D2*
X2267717Y2361623D1*
X2272796Y2365313D1*
X2278390Y2368162D1*
X2284360Y2370103D1*
X2290561Y2371085D1*
X2296839D1*
X2303040Y2370103D1*
X2309010Y2368162D1*
X2314604Y2365313D1*
X2319683Y2361623D1*
X2322249Y2359210D1*
X1213275Y1467692D2*
X1024077D1*
X1019683Y1463277D1*
X1014604Y1459587D1*
X1009010Y1456738D1*
X1003040Y1454797D1*
X996839Y1453815D1*
X990561D1*
X984360Y1454797D1*
X978390Y1456738D1*
X972796Y1459587D1*
X967717Y1463277D1*
X963277Y1467717D1*
X959587Y1472796D1*
X956738Y1478390D1*
X954797Y1484360D1*
X953815Y1490561D1*
Y1496839D1*
X954797Y1503040D1*
X956738Y1509010D1*
X959587Y1514604D1*
X963277Y1519683D1*
X967717Y1524123D1*
X972796Y1527813D1*
X978390Y1530662D1*
X984360Y1532603D1*
X990561Y1533585D1*
X996839D1*
X1003040Y1532603D1*
X1009010Y1530662D1*
X1014604Y1527813D1*
X1019683Y1524123D1*
X1024098Y1519710D1*
X1127301Y1519708D1*
X1122796Y1522087D1*
X1117717Y1525777D1*
X1113277Y1530217D1*
X1109587Y1535296D1*
X1106738Y1540890D1*
X1104797Y1546860D1*
X1103815Y1553061D1*
Y1559339D1*
X1104797Y1565540D1*
X1106738Y1571510D1*
X1109587Y1577104D1*
X1111705Y1580188D1*
X924088Y1580192D1*
X919683Y1575777D1*
X914604Y1572087D1*
X909010Y1569238D1*
X903040Y1567297D1*
X896839Y1566315D1*
X890561D1*
X884360Y1567297D1*
X878390Y1569238D1*
X872796Y1572087D1*
X867717Y1575777D1*
X863277Y1580217D1*
X859587Y1585296D1*
X856738Y1590890D1*
X854797Y1596860D1*
X853815Y1603061D1*
Y1609339D1*
X854797Y1615540D1*
X856738Y1621510D1*
X859587Y1627104D1*
X863277Y1632183D1*
X867717Y1636623D1*
X872796Y1640313D1*
X878390Y1643162D1*
X884360Y1645103D1*
X890561Y1646085D1*
X896839D1*
X903040Y1645103D1*
X909010Y1643162D1*
X914604Y1640313D1*
X919683Y1636623D1*
X924098Y1632210D1*
X1057852Y1632208D1*
X1055650Y1637587D1*
X1054184Y1643692D1*
X1053692Y1649951D1*
X1054184Y1656209D1*
X1055407Y1661452D1*
X886616Y1661443D1*
X882183Y1657028D1*
X877104Y1653338D1*
X871510Y1650489D1*
X865540Y1648548D1*
X859339Y1647566D1*
X853061D1*
X846860Y1648548D1*
X840890Y1650489D1*
X835296Y1653338D1*
X830217Y1657028D1*
X825777Y1661468D1*
X822087Y1666546D1*
X819238Y1672141D1*
X817297Y1678111D1*
X816315Y1684312D1*
Y1690590D1*
X817297Y1696791D1*
X819238Y1702760D1*
X822087Y1708355D1*
X825777Y1713434D1*
X830217Y1717873D1*
X835296Y1721564D1*
X840890Y1724413D1*
X846860Y1726354D1*
X853061Y1727335D1*
X859339D1*
X865540Y1726354D1*
X871510Y1724413D1*
X877104Y1721564D1*
X882183Y1717873D1*
X886598Y1713461D1*
X1313284Y1713459D1*
X1317717Y1717873D1*
X1322796Y1721564D1*
X1328390Y1724413D1*
X1334360Y1726354D1*
X1340561Y1727335D1*
X1346839D1*
X1353040Y1726354D1*
X1359010Y1724413D1*
X1364604Y1721564D1*
X1369683Y1717873D1*
X1374123Y1713434D1*
X1377813Y1708355D1*
X1380662Y1702760D1*
X1382603Y1696791D1*
X1383585Y1690590D1*
Y1684312D1*
X1382603Y1678111D1*
X1381993Y1675949D1*
X1513280Y1675959D1*
X1517717Y1680373D1*
X1522796Y1684064D1*
X1528390Y1686913D1*
X1534360Y1688854D1*
X1540561Y1689835D1*
X1546839D1*
X1553040Y1688854D1*
X1559010Y1686913D1*
X1564604Y1684064D1*
X1569683Y1680373D1*
X1574123Y1675934D1*
X1577813Y1670855D1*
X1580662Y1665260D1*
X1582603Y1659291D1*
X1583585Y1653090D1*
Y1646812D1*
X1582603Y1640611D1*
X1580662Y1634641D1*
X1577813Y1629046D1*
X1574123Y1623968D1*
X1569683Y1619528D1*
X1564604Y1615838D1*
X1559010Y1612989D1*
X1553040Y1611048D1*
X1546839Y1610066D1*
X1540561D1*
X1534360Y1611048D1*
X1528390Y1612989D1*
X1522796Y1615838D1*
X1517717Y1619528D1*
X1513302Y1623940D1*
X1229579Y1623943D1*
X1231750Y1618564D1*
X1233216Y1612459D1*
X1233708Y1606200D1*
X1233216Y1599941D1*
X1231750Y1593836D1*
X1229347Y1588037D1*
X1226067Y1582684D1*
X1225695Y1582212D1*
X2113314Y1582208D1*
X2117717Y1586623D1*
X2122796Y1590313D1*
X2128390Y1593162D1*
X2134360Y1595103D1*
X2140561Y1596085D1*
X2146839D1*
X2153040Y1595103D1*
X2159010Y1593162D1*
X2164604Y1590313D1*
X2169683Y1586623D1*
X2174123Y1582183D1*
X2177813Y1577104D1*
X2180662Y1571510D1*
X2182603Y1565540D1*
X2183585Y1559339D1*
Y1553061D1*
X2182603Y1546860D1*
X2180662Y1540890D1*
X2177813Y1535296D1*
X2174123Y1530217D1*
X2169683Y1525777D1*
X2164604Y1522087D1*
X2159010Y1519238D1*
X2153040Y1517297D1*
X2146839Y1516315D1*
X2140561D1*
X2134360Y1517297D1*
X2128390Y1519238D1*
X2122796Y1522087D1*
X2117717Y1525777D1*
X2113302Y1530190D1*
X1260108Y1530192D1*
X1264604Y1527813D1*
X1269683Y1524123D1*
X1274123Y1519683D1*
X1277813Y1514604D1*
X1280662Y1509010D1*
X1281482Y1506788D1*
X1287441Y1508216D1*
X1293700Y1508708D1*
X1299959Y1508216D1*
X1306064Y1506750D1*
X1311863Y1504347D1*
X1317216Y1501067D1*
X1321990Y1496990D1*
X1324098Y1494710D1*
X1413293Y1494708D1*
X1417717Y1499123D1*
X1422796Y1502813D1*
X1428390Y1505662D1*
X1434360Y1507603D1*
X1440561Y1508585D1*
X1446839D1*
X1453040Y1507603D1*
X1459010Y1505662D1*
X1464604Y1502813D1*
X1469683Y1499123D1*
X1474098Y1494710D1*
X2113276Y1494708D1*
X2117717Y1499123D1*
X2122796Y1502813D1*
X2128390Y1505662D1*
X2134360Y1507603D1*
X2140561Y1508585D1*
X2146839D1*
X2153040Y1507603D1*
X2159010Y1505662D1*
X2164604Y1502813D1*
X2169683Y1499123D1*
X2174098Y1494710D1*
X2263293Y1494708D1*
X2267717Y1499123D1*
X2272796Y1502813D1*
X2278390Y1505662D1*
X2284360Y1507603D1*
X2290561Y1508585D1*
X2296839D1*
X2303040Y1507603D1*
X2309010Y1505662D1*
X2314604Y1502813D1*
X2319683Y1499123D1*
X2324123Y1494683D1*
X2327813Y1489604D1*
X2330662Y1484010D1*
X2332603Y1478040D1*
X2333585Y1471839D1*
Y1465561D1*
X2332603Y1459360D1*
X2330662Y1453390D1*
X2327813Y1447796D1*
X2324123Y1442717D1*
X2319683Y1438277D1*
X2314604Y1434587D1*
X2309010Y1431738D1*
X2303040Y1429797D1*
X2296839Y1428815D1*
X2290561D1*
X2284360Y1429797D1*
X2278390Y1431738D1*
X2272796Y1434587D1*
X2267717Y1438277D1*
X2263302Y1442690D1*
X2174107Y1442692D1*
X2169683Y1438277D1*
X2164604Y1434587D1*
X2159010Y1431738D1*
X2153040Y1429797D1*
X2146839Y1428815D1*
X2140561D1*
X2134360Y1429797D1*
X2128390Y1431738D1*
X2122796Y1434587D1*
X2117717Y1438277D1*
X2113302Y1442690D1*
X1474124Y1442692D1*
X1469683Y1438277D1*
X1464604Y1434587D1*
X1459010Y1431738D1*
X1453040Y1429797D1*
X1446839Y1428815D1*
X1440561D1*
X1434360Y1429797D1*
X1428390Y1431738D1*
X1422796Y1434587D1*
X1417717Y1438277D1*
X1413302Y1442690D1*
X1324107Y1442692D1*
X1319683Y1438277D1*
X1314604Y1434587D1*
X1309010Y1431738D1*
X1303040Y1429797D1*
X1296839Y1428815D1*
X1290561D1*
X1284360Y1429797D1*
X1278390Y1431738D1*
X1272796Y1434587D1*
X1267717Y1438277D1*
X1263277Y1442717D1*
X1259587Y1447796D1*
X1256738Y1453390D1*
X1255918Y1455612D1*
X1249959Y1454184D1*
X1243700Y1453692D1*
X1237441Y1454184D1*
X1231336Y1455650D1*
X1225537Y1458053D1*
X1220184Y1461333D1*
X1215410Y1465410D1*
X1213302Y1467690D1*
X1689882Y1321204D2*
X1712384Y1298704D1*
X2294162Y1298708D1*
X2354136Y1358695D1*
X2355176Y1365540D1*
X2357117Y1371510D1*
X2359966Y1377104D1*
X2363657Y1382183D1*
X2368096Y1386623D1*
X2373175Y1390313D1*
X2378770Y1393162D1*
X2384739Y1395103D1*
X2390940Y1396085D1*
X2397218D1*
X2403419Y1395103D1*
X2409389Y1393162D1*
X2414983Y1390313D1*
X2420062Y1386623D1*
X2424502Y1382183D1*
X2428192Y1377104D1*
X2431041Y1371510D1*
X2432982Y1365540D1*
X2433964Y1359339D1*
Y1353061D1*
X2432982Y1346860D1*
X2431041Y1340890D1*
X2428192Y1335296D1*
X2424502Y1330217D1*
X2420062Y1325777D1*
X2414983Y1322087D1*
X2409389Y1319238D1*
X2403419Y1317297D1*
X2397218Y1316315D1*
X2396617Y1316292D1*
X2326067Y1245882D1*
X2322258Y1243113D1*
X2318062Y1240977D1*
X2313585Y1239522D1*
X2308934Y1238784D1*
X2280595Y1238692D1*
X1697595Y1238784D1*
X1692944Y1239522D1*
X1688466Y1240977D1*
X1684271Y1243113D1*
X1680461Y1245882D1*
X1660357Y1265855D1*
X1647456Y1278756D1*
X1640609Y1279797D1*
X1634640Y1281738D1*
X1629045Y1284587D1*
X1623966Y1288277D1*
X1619527Y1292717D1*
X1615836Y1297796D1*
X1612987Y1303390D1*
X1611046Y1309360D1*
X1610065Y1315561D1*
Y1321839D1*
X1611046Y1328040D1*
X1612987Y1334010D1*
X1615836Y1339604D1*
X1619527Y1344683D1*
X1623966Y1349123D1*
X1629045Y1352813D1*
X1634640Y1355662D1*
X1640609Y1357603D1*
X1646810Y1358585D1*
X1653088D1*
X1659289Y1357603D1*
X1665259Y1355662D1*
X1670854Y1352813D1*
X1675932Y1349123D1*
X1680372Y1344683D1*
X1684062Y1339604D1*
X1686911Y1334010D1*
X1688852Y1328040D1*
X1689834Y1321839D1*
X1689857Y1321238D1*
X3004417Y1342692D2*
X2717829D1*
X2713434Y1338277D1*
X2708354Y1334587D1*
X2702760Y1331738D1*
X2696789Y1329797D1*
X2690588Y1328815D1*
X2684312D1*
X2678111Y1329797D1*
X2672140Y1331738D1*
X2666546Y1334587D1*
X2661466Y1338277D1*
X2657028Y1342717D1*
X2653338Y1347796D1*
X2650487Y1353390D1*
X2648548Y1359360D1*
X2647565Y1365561D1*
Y1371839D1*
X2648548Y1378040D1*
X2650487Y1384010D1*
X2653338Y1389604D1*
X2657028Y1394683D1*
X2661466Y1399123D1*
X2666546Y1402813D1*
X2672140Y1405662D1*
X2678111Y1407603D1*
X2684312Y1408585D1*
X2690588D1*
X2696789Y1407603D1*
X2702760Y1405662D1*
X2708354Y1402813D1*
X2713434Y1399123D1*
X2717847Y1394710D1*
X3004462Y1394708D1*
X3008859Y1399123D1*
X3013938Y1402813D1*
X3019532Y1405662D1*
X3025502Y1407603D1*
X3031703Y1408585D1*
X3037981D1*
X3044182Y1407603D1*
X3050151Y1405662D1*
X3055746Y1402813D1*
X3060825Y1399123D1*
X3065264Y1394683D1*
X3068955Y1389604D1*
X3071804Y1384010D1*
X3073745Y1378040D1*
X3074726Y1371839D1*
Y1365561D1*
X3073745Y1359360D1*
X3071804Y1353390D1*
X3068955Y1347796D1*
X3065264Y1342717D1*
X3060825Y1338277D1*
X3055746Y1334587D1*
X3050151Y1331738D1*
X3044182Y1329797D1*
X3037981Y1328815D1*
X3031703D1*
X3025502Y1329797D1*
X3019532Y1331738D1*
X3013938Y1334587D1*
X3008859Y1338277D1*
X3004444Y1342690D1*
X3152914Y1410999D2*
X2950714Y1411079D1*
X2946684Y1411718D1*
X2942802Y1412980D1*
X2939166Y1414831D1*
X2935864Y1417230D1*
X2911398Y1441583D1*
X2902624Y1450357D1*
X2845354Y1450369D1*
X2840943Y1445955D1*
X2835864Y1442264D1*
X2830270Y1439415D1*
X2824300Y1437474D1*
X2818099Y1436493D1*
X2811821D1*
X2805620Y1437474D1*
X2799650Y1439415D1*
X2794056Y1442264D1*
X2788977Y1445955D1*
X2784537Y1450394D1*
X2780847Y1455473D1*
X2777998Y1461067D1*
X2776057Y1467037D1*
X2775075Y1473238D1*
Y1479516D1*
X2776057Y1485717D1*
X2777998Y1491687D1*
X2780847Y1497281D1*
X2784537Y1502360D1*
X2788977Y1506800D1*
X2794056Y1510490D1*
X2799650Y1513339D1*
X2805620Y1515280D1*
X2811821Y1516262D1*
X2818099D1*
X2824300Y1515280D1*
X2830270Y1513339D1*
X2835864Y1510490D1*
X2840943Y1506800D1*
X2845357Y1502388D1*
X2915426Y1502305D1*
X2919456Y1501666D1*
X2923338Y1500405D1*
X2926974Y1498553D1*
X2930276Y1496154D1*
X2954742Y1471801D1*
X2963516Y1463027D1*
X3163192Y1463015D1*
X3166546Y1465313D1*
X3172140Y1468162D1*
X3178111Y1470103D1*
X3184312Y1471085D1*
X3190588D1*
X3196789Y1470103D1*
X3202760Y1468162D1*
X3208354Y1465313D1*
X3213434Y1461623D1*
X3217872Y1457183D1*
X3221562Y1452104D1*
X3224413Y1446510D1*
X3226352Y1440540D1*
X3227335Y1434339D1*
Y1428061D1*
X3226352Y1421860D1*
X3224413Y1415890D1*
X3221562Y1410296D1*
X3217872Y1405217D1*
X3213434Y1400777D1*
X3208354Y1397087D1*
X3202760Y1394238D1*
X3196789Y1392297D1*
X3190588Y1391315D1*
X3184312D1*
X3178111Y1392297D1*
X3172140Y1394238D1*
X3166546Y1397087D1*
X3161466Y1400777D1*
X3157028Y1405217D1*
X3153338Y1410296D1*
X3152948Y1410991D1*
X986625Y1182208D2*
X1913279D1*
X1917717Y1186623D1*
X1922796Y1190313D1*
X1928390Y1193162D1*
X1934360Y1195103D1*
X1940561Y1196085D1*
X1946839D1*
X1953040Y1195103D1*
X1959010Y1193162D1*
X1964604Y1190313D1*
X1969683Y1186623D1*
X1974123Y1182183D1*
X1977813Y1177104D1*
X1980662Y1171510D1*
X1982603Y1165540D1*
X1983585Y1159339D1*
Y1153061D1*
X1982603Y1146860D1*
X1980662Y1140890D1*
X1977813Y1135296D1*
X1974123Y1130217D1*
X1969683Y1125777D1*
X1964604Y1122087D1*
X1959010Y1119238D1*
X1953040Y1117297D1*
X1946839Y1116315D1*
X1940561D1*
X1934360Y1117297D1*
X1928390Y1119238D1*
X1922796Y1122087D1*
X1917717Y1125777D1*
X1913302Y1130190D1*
X986621Y1130192D1*
X982183Y1125777D1*
X977104Y1122087D1*
X971510Y1119238D1*
X965540Y1117297D1*
X959339Y1116315D1*
X953061D1*
X946860Y1117297D1*
X940890Y1119238D1*
X935296Y1122087D1*
X930217Y1125777D1*
X925777Y1130217D1*
X922087Y1135296D1*
X919238Y1140890D1*
X917297Y1146860D1*
X916315Y1153061D1*
Y1159339D1*
X917297Y1165540D1*
X919238Y1171510D1*
X922087Y1177104D1*
X925777Y1182183D1*
X930217Y1186623D1*
X935296Y1190313D1*
X940890Y1193162D1*
X946860Y1195103D1*
X953061Y1196085D1*
X959339D1*
X965540Y1195103D1*
X971510Y1193162D1*
X977104Y1190313D1*
X982183Y1186623D1*
X986598Y1182210D1*
X1474098Y1442690D2*
X1469683Y1438277D1*
X1464604Y1434587D1*
X1459010Y1431738D1*
X1453040Y1429797D1*
X1446839Y1428815D1*
X1440561D1*
X1434360Y1429797D1*
X1428390Y1431738D1*
X1422796Y1434587D1*
X1417717Y1438277D1*
X1413302Y1442690D1*
Y1494710D2*
X1417717Y1499123D1*
X1422796Y1502813D1*
X1428390Y1505662D1*
X1434360Y1507603D1*
X1440561Y1508585D1*
X1446839D1*
X1453040Y1507603D1*
X1459010Y1505662D1*
X1464604Y1502813D1*
X1469683Y1499123D1*
X1474098Y1494710D1*
X1324098Y1442690D2*
X1319683Y1438277D1*
X1314604Y1434587D1*
X1309010Y1431738D1*
X1303040Y1429797D1*
X1296839Y1428815D1*
X1290561D1*
X1284360Y1429797D1*
X1278390Y1431738D1*
X1272796Y1434587D1*
X1267717Y1438277D1*
X1263277Y1442717D1*
X1259587Y1447796D1*
X1256738Y1453390D1*
X1255918Y1455612D1*
X1281514Y1506800D2*
X1287441Y1508216D1*
X1293700Y1508708D1*
X1299959Y1508216D1*
X1306064Y1506750D1*
X1311863Y1504347D1*
X1317216Y1501067D1*
X1321990Y1496990D1*
X1324098Y1494710D1*
X2621191Y3234959D2*
X2656200Y3199949D1*
X2691209Y3234959D2*
X2621191Y3164940D1*
X616335Y616335D2*
X531495Y531495D1*
X4029333Y616335D2*
X4114172Y531495D1*
Y3799212D2*
X4029333Y3714372D1*
X819997Y715435D2*
X912285Y623146D1*
Y715435D2*
X819997Y623146D1*
X1352057Y734556D2*
X1482587Y604025D1*
Y734556D2*
X1352057Y604025D1*
X1095587Y715435D2*
X1187876Y623146D1*
Y715435D2*
X1095587Y623146D1*
X2473540Y715435D2*
X2565829Y623146D1*
Y715435D2*
X2473540Y623146D1*
X623710Y1266052D2*
X754241Y1135522D1*
Y1266052D2*
X623710Y1135522D1*
Y990461D2*
X754241Y859931D1*
Y990461D2*
X623710Y859931D1*
X3005600Y734556D2*
X3136130Y604025D1*
Y734556D2*
X3005600Y604025D1*
X2749130Y715435D2*
X2841419Y623146D1*
Y715435D2*
X2749130Y623146D1*
X3300312Y715435D2*
X3392600Y623146D1*
Y715435D2*
X3300312Y623146D1*
X3575902Y715435D2*
X3668191Y623146D1*
Y715435D2*
X3575902Y623146D1*
X3853435Y1458965D2*
X3983965Y1328435D1*
Y1458965D2*
X3853435Y1328435D1*
X1646768Y715435D2*
X1739057Y623146D1*
Y715435D2*
X1646768Y623146D1*
X2178829Y734556D2*
X2309360Y604024D1*
Y734556D2*
X2178829Y604024D1*
X1922359Y715435D2*
X2014648Y623146D1*
Y715435D2*
X1922359Y623146D1*
X623710Y1541642D2*
X754242Y1411111D1*
Y1541642D2*
X623710Y1411111D1*
X1658691Y1866209D2*
X1728709Y1796191D1*
Y1866209D2*
X1658691Y1796191D1*
X2258691Y1866209D2*
X2328709Y1796191D1*
Y1866209D2*
X2258691Y1796191D1*
X958691Y2766209D2*
X1028709Y2696191D1*
Y2766209D2*
X958691Y2696191D1*
Y2866209D2*
X1028709Y2796191D1*
Y2866209D2*
X958691Y2796191D1*
X3818183Y2138469D2*
X3918036Y2034758D1*
Y2138469D2*
X3818183Y2034758D1*
D29*
X493700Y2831200D3*
D30*
X593700D3*
X693700D3*
X793700D3*
X893700D3*
X993700D3*
X1093700D3*
X1193700D3*
X1293700D3*
X1393700D3*
X1493700D3*
X1593700D3*
X1693700D3*
X1793700D3*
X1893700D3*
X1993700D3*
X2093700D3*
X2193700D3*
X2293700D3*
D29*
X2956200Y3199949D3*
D30*
X2856200D3*
X2756200D3*
X2656200D3*
D29*
X493700Y2731200D3*
D30*
X593700D3*
X693700D3*
X793700D3*
X893700D3*
X993700D3*
X1093700D3*
X1193700D3*
X1293700D3*
X1393700D3*
X1493700D3*
X1593700D3*
X1693700D3*
X1793700D3*
X1893700D3*
X1993700D3*
X2093700D3*
X2193700D3*
X2293700D3*
D29*
X493700Y1831200D3*
D30*
X593700D3*
X693700D3*
X793700D3*
X893700D3*
X993700D3*
X1093700D3*
X1193700D3*
X1293700D3*
X1393700D3*
X1493700D3*
X1593700D3*
X1693700D3*
X1793700D3*
X1893700D3*
X1993700D3*
X2093700D3*
X2193700D3*
X2293700D3*
D35*
X3631889Y2086613D3*
X3868109D3*
D36*
X3749999Y2271653D3*
D38*
X531495Y531495D3*
X4114172D3*
Y3799212D3*
X531495D3*
D40*
X2299901Y3177165D3*
Y3277165D3*
Y3377165D3*
Y3477165D3*
D41*
X3931200Y2518700D3*
D42*
Y2715550D3*
D43*
X1043306Y3661417D3*
D44*
X905511D3*
X767716D3*
D43*
X1456692D3*
D44*
X1318897D3*
X1181102D3*
D43*
X1732283D3*
D44*
X1594487D3*
D43*
X2007873D3*
D44*
X1870078D3*
D43*
X3918700Y1393700D3*
D44*
Y1255905D3*
Y1118109D3*
D43*
X1830708Y669291D3*
D44*
X1692913D3*
X1555117D3*
D43*
X2244094D3*
D44*
X2106298D3*
X1968503D3*
D43*
X1003936D3*
D44*
X866141D3*
X728346D3*
D43*
X1417322D3*
D44*
X1279527D3*
X1141731D3*
D43*
X688976Y1200787D3*
D44*
Y1338582D3*
D43*
Y925196D3*
D44*
Y1062991D3*
D43*
X2657480Y669291D3*
D44*
X2519684D3*
X2381889D3*
D43*
X3070865D3*
D44*
X2933070D3*
X2795275D3*
D43*
X3484251D3*
D44*
X3346456D3*
X3208661D3*
D43*
X3897637D3*
D44*
X3759842D3*
X3622046D3*
D43*
X688976Y1476377D3*
D44*
Y1614172D3*
M02*
