M48
INCH
T01C0.013
T02C0.0191
T03C0.0354
T04C0.0394
T05C0.0551
T06C0.063
T07C0.14
%
T01
X+030374Y+025312
X+030142Y+025292
X+029874Y+025312
X+029882Y+024902
X+030142Y+024902
X+030402Y+024902
X+030402Y+024512
X+030142Y+024512
X+029882Y+024512
X+032482Y+028412
X+032482Y+028802
T02
X+029102Y+022302
X+028150Y+019875
X+025937Y+020249
X+025562Y+019499
X+022437Y+021500
X+021500Y+020875
X+021874Y+022687
X+022937Y+023312
X+022375Y+024562
X+020374Y+023562
X+019437Y+024062
X+015937Y+024437
X+014937Y+024000
X+013812Y+023562
X+013937Y+022249
X+013250Y+020875
X+011937Y+020249
X+010937Y+019875
X+011499Y+021500
X+010966Y+022720
X+010375Y+023187
X+010337Y+022287
X+010812Y+024000
X+010265Y+024452
X+008937Y+024062
X+008687Y+025687
X+012375Y+026187
X+011437Y+029499
X+012499Y+030812
X+014625Y+030375
X+015312Y+030812
X+016499Y+029312
X+017625Y+029999
X+017999Y+030812
X+018570Y+034592
X+015820Y+034592
X+013070Y+034592
X+010320Y+034592
X+007570Y+034592
X+006999Y+030874
X+008538Y+029961
X+009749Y+030812
X+004687Y+025812
X+004687Y+019937
X+008687Y+019937
X+008562Y+016875
X+008937Y+016062
X+009937Y+014937
X+010062Y+013562
X+009562Y+011562
X+011437Y+015562
X+011937Y+016062
X+010937Y+016500
X+012437Y+014937
X+012937Y+014687
X+014437Y+014687
X+015437Y+016500
X+013437Y+016875
X+016499Y+013187
X+015812Y+011937
X+014437Y+010562
X+019437Y+011562
X+018562Y+013562
X+021437Y+014687
X+021437Y+015562
X+022937Y+014687
X+023941Y+013562
X+024562Y+012312
X+022937Y+010562
X+026875Y+013687
X+028150Y+014764
X+030348Y+013687
X+031874Y+014312
X+032598Y+014469
X+035437Y+014875
X+033848Y+011719
X+026312Y+023312
X+027542Y+029972
T03
X+004937Y+028312
X+005937Y+028312
X+006937Y+028312
X+007937Y+028312
X+008937Y+028312
X+009937Y+028312
X+010937Y+028312
X+011937Y+028312
X+012937Y+028312
X+013937Y+028312
X+014937Y+028312
X+015937Y+028312
X+016937Y+028312
X+017937Y+028312
X+018937Y+028312
X+019937Y+028312
X+020937Y+028312
X+021937Y+028312
X+022937Y+028312
X+022937Y+027312
X+021937Y+027312
X+020937Y+027312
X+019937Y+027312
X+018937Y+027312
X+017937Y+027312
X+016937Y+027312
X+015937Y+027312
X+014937Y+027312
X+013937Y+027312
X+012937Y+027312
X+011937Y+027312
X+010937Y+027312
X+009937Y+027312
X+008937Y+027312
X+007937Y+027312
X+006937Y+027312
X+005937Y+027312
X+004937Y+027312
X+004937Y+018312
X+005937Y+018312
X+006937Y+018312
X+007937Y+018312
X+008937Y+018312
X+009937Y+018312
X+010937Y+018312
X+011937Y+018312
X+012937Y+018312
X+013937Y+018312
X+014937Y+018312
X+015937Y+018312
X+016937Y+018312
X+017937Y+018312
X+018937Y+018312
X+019937Y+018312
X+020937Y+018312
X+021937Y+018312
X+022937Y+018312
X+026562Y+031999
X+027562Y+031999
X+028562Y+031999
X+029562Y+031999
T04
X+005212Y+024645
X+005212Y+021496
X+022999Y+031772
X+022999Y+032772
X+022999Y+033772
X+022999Y+034772
X+037697Y+022717G85X+037303Y+022717
X+038681Y+020669G85X+038681Y+021063
X+036319Y+020669G85X+036319Y+021063
T05
X+010433Y+036614
X+009055Y+036614
X+007677Y+036614
X+011811Y+036614
X+013189Y+036614
X+014567Y+036614
X+015945Y+036614
X+017323Y+036614
X+018701Y+036614
X+020079Y+036614
X+006890Y+016142
X+006890Y+014764
X+006890Y+013386
X+006890Y+012008
X+006890Y+010630
X+006890Y+009252
X+007283Y+006693
X+008661Y+006693
X+010039Y+006693
X+011417Y+006693
X+012795Y+006693
X+014173Y+006693
X+015551Y+006693
X+016929Y+006693
X+018307Y+006693
X+019685Y+006693
X+021063Y+006693
X+022441Y+006693
X+023819Y+006693
X+025197Y+006693
X+026575Y+006693
X+027953Y+006693
X+029331Y+006693
X+030709Y+006693
X+032087Y+006693
X+033465Y+006693
X+034843Y+006693
X+036220Y+006693
X+037598Y+006693
X+038976Y+006693
X+039187Y+011181
X+039187Y+012559
X+039187Y+013937
T06
X+039312Y+025187
X+039312Y+027156
T07
X+005315Y+005315
X+005315Y+037992
X+041142Y+037992
X+041142Y+005315
T00
M30
