G04 DipTrace 3.3.1.3*
G04 TopMask.gbr*
%MOIN*%
G04 #@! TF.FileFunction,Soldermask,Top*
G04 #@! TF.Part,Single*
%ADD55C,0.03937*%
%ADD65R,0.074929X0.106425*%
%ADD67R,0.031622X0.08674*%
%ADD69R,0.08674X0.031622*%
%ADD71R,0.11115X0.146189*%
%ADD73R,0.070992X0.032016*%
%ADD75C,0.098551*%
%ADD77R,0.098551X0.098551*%
%ADD79C,0.128*%
%ADD81R,0.128X0.128*%
%ADD83C,0.070992*%
%ADD85R,0.074929X0.094614*%
%ADD87C,0.208*%
%ADD89R,0.145795X0.10052*%
%ADD91O,0.12611X0.08674*%
%ADD93O,0.08674X0.12611*%
%ADD95R,0.063118X0.039496*%
%ADD97R,0.063118X0.055244*%
%ADD99R,0.08674X0.055244*%
%ADD101R,0.059181X0.035559*%
%ADD103C,0.067055*%
%ADD105R,0.067055X0.067055*%
%ADD107R,0.106425X0.074929*%
%ADD109R,0.067055X0.059181*%
%ADD111R,0.059181X0.067055*%
%ADD113R,0.078866X0.070992*%
%FSLAX26Y26*%
G04*
G70*
G90*
G75*
G01*
G04 TopMask*
%LPD*%
D113*
X3209200Y2633200D3*
Y2522964D3*
D111*
X3040200Y2646200D3*
X3115003D3*
D113*
X2206200Y2506200D3*
Y2616436D3*
D111*
X2832200Y2464200D3*
X2757397D3*
D109*
X2399949Y3449949D3*
Y3375146D3*
D113*
X3175966Y2866221D3*
Y2976457D3*
D111*
X3381200Y1443700D3*
X3306397D3*
D109*
X1581200Y1318700D3*
Y1243897D3*
X2456200Y1356200D3*
Y1281397D3*
D107*
X3053200Y2750200D3*
X3210680D3*
D105*
X493700Y2831200D3*
D103*
X593700D3*
X693700D3*
X793700D3*
X893700D3*
X993700D3*
X1093700D3*
X1193700D3*
X1293700D3*
X1393700D3*
X1493700D3*
X1593700D3*
X1693700D3*
X1793700D3*
X1893700D3*
X1993700D3*
X2093700D3*
X2193700D3*
X2293700D3*
D105*
X2956200Y3199949D3*
D103*
X2856200D3*
X2756200D3*
X2656200D3*
D105*
X493700Y2731200D3*
D103*
X593700D3*
X693700D3*
X793700D3*
X893700D3*
X993700D3*
X1093700D3*
X1193700D3*
X1293700D3*
X1393700D3*
X1493700D3*
X1593700D3*
X1693700D3*
X1793700D3*
X1893700D3*
X1993700D3*
X2093700D3*
X2193700D3*
X2293700D3*
D105*
X493700Y1831200D3*
D103*
X593700D3*
X693700D3*
X793700D3*
X893700D3*
X993700D3*
X1093700D3*
X1193700D3*
X1293700D3*
X1393700D3*
X1493700D3*
X1593700D3*
X1693700D3*
X1793700D3*
X1893700D3*
X1993700D3*
X2093700D3*
X2193700D3*
X2293700D3*
D101*
X952350Y2185402D3*
Y2228709D3*
Y2272016D3*
Y2315323D3*
Y2358630D3*
Y2401938D3*
Y2445245D3*
Y2488552D3*
Y2531859D3*
D99*
X536995Y1997213D3*
D97*
X918885D3*
D95*
Y2575166D3*
D99*
X536995D3*
D55*
X521247Y2464536D3*
Y2149575D3*
D93*
X3631889Y2086613D3*
X3868109D3*
D91*
X3749999Y2271653D3*
D89*
X2819754Y2672491D3*
Y2910680D3*
D87*
X531495Y531495D3*
X4114172D3*
Y3799212D3*
X531495D3*
D85*
X853838Y3393700D3*
X753838D3*
Y3059054D3*
X853838D3*
X1129428Y3393700D3*
X1029428D3*
Y3059054D3*
X1129428D3*
X1405019Y3393700D3*
X1305019D3*
Y3059054D3*
X1405019D3*
X1687794Y3393700D3*
X1587794D3*
Y3059054D3*
X1687794D3*
X1956200Y3393700D3*
X1856200D3*
Y3059054D3*
X1956200D3*
D83*
X2299901Y3177165D3*
Y3277165D3*
Y3377165D3*
Y3477165D3*
D109*
X3209200Y2373200D3*
Y2448003D3*
D111*
X2832200Y2373200D3*
X2757397D3*
X2754200Y2282200D3*
X2829003D3*
D109*
X2910200D3*
Y2357003D3*
D111*
X2181791Y3610235D3*
X2256594D3*
X3034842Y1321948D3*
X2960039D3*
X3131200Y1431200D3*
X3056397D3*
X3034842Y1246948D3*
X2960039D3*
X3131200Y1131200D3*
X3056397D3*
D109*
X932578Y3413385D3*
Y3338582D3*
X1208169Y3413385D3*
Y3338582D3*
X1483759Y3413385D3*
Y3338582D3*
X1766535Y3413385D3*
Y3338582D3*
X2034940Y3413385D3*
Y3338582D3*
X3543700Y1131200D3*
Y1056397D3*
Y1431200D3*
Y1356397D3*
X1993700Y2556200D3*
Y2631003D3*
X1893700Y2556200D3*
Y2631003D3*
X1799949Y2556200D3*
Y2631003D3*
X2093700Y2556200D3*
Y2631003D3*
X3543700Y1281200D3*
Y1206397D3*
D81*
X3931200Y2518700D3*
D79*
Y2715550D3*
D77*
X1043306Y3661417D3*
D75*
X905511D3*
X767716D3*
D77*
X1456692D3*
D75*
X1318897D3*
X1181102D3*
D77*
X1732283D3*
D75*
X1594487D3*
D77*
X2007873D3*
D75*
X1870078D3*
D77*
X3918700Y1393700D3*
D75*
Y1255905D3*
Y1118109D3*
D77*
X1830708Y669291D3*
D75*
X1692913D3*
X1555117D3*
D77*
X2244094D3*
D75*
X2106298D3*
X1968503D3*
D77*
X1003936D3*
D75*
X866141D3*
X728346D3*
D77*
X1417322D3*
D75*
X1279527D3*
X1141731D3*
D77*
X688976Y1200787D3*
D75*
Y1338582D3*
D77*
Y925196D3*
D75*
Y1062991D3*
D77*
X2657480Y669291D3*
D75*
X2519684D3*
X2381889D3*
D77*
X3070865D3*
D75*
X2933070D3*
X2795275D3*
D77*
X3484251D3*
D75*
X3346456D3*
X3208661D3*
D77*
X3897637D3*
D75*
X3759842D3*
X3622046D3*
D77*
X688976Y1476377D3*
D75*
Y1614172D3*
D73*
X2907245Y2566252D3*
Y2516252D3*
Y2466252D3*
Y2416252D3*
X3119843D3*
Y2466252D3*
Y2516252D3*
Y2566252D3*
D71*
X3013544Y2491252D3*
D69*
X3168700Y1356200D3*
Y1306200D3*
Y1256200D3*
Y1206200D3*
X3381298D3*
Y1256200D3*
Y1306200D3*
Y1356200D3*
D67*
X1493700D3*
X1443700D3*
X1393700D3*
X1343700D3*
X1293700D3*
X1243700D3*
X1193700D3*
X1143700D3*
X1093700D3*
X1043700D3*
Y986121D3*
X1093700D3*
X1143700D3*
X1193700D3*
X1243700D3*
X1293700D3*
X1343700D3*
X1393700D3*
X1443700D3*
X1493700D3*
X2343700Y1356200D3*
X2293700D3*
X2243700D3*
X2193700D3*
X2143700D3*
X2093700D3*
X2043700D3*
X1993700D3*
X1943700D3*
X1893700D3*
Y986121D3*
X1943700D3*
X1993700D3*
X2043700D3*
X2093700D3*
X2143700D3*
X2193700D3*
X2243700D3*
X2293700D3*
X2343700D3*
D65*
X487449Y3068700D3*
Y3226180D3*
M02*
