G04 DipTrace 3.3.1.3*
G04 TopPaste.gbr*
%MOIN*%
G04 #@! TF.FileFunction,Paste,Top*
G04 #@! TF.Part,Single*
%ADD66R,0.058929X0.090425*%
%ADD68R,0.015622X0.07074*%
%ADD70R,0.07074X0.015622*%
%ADD72R,0.09515X0.130189*%
%ADD74R,0.054992X0.016016*%
%ADD86R,0.058929X0.078614*%
%ADD90R,0.129795X0.08452*%
%ADD96R,0.047118X0.023496*%
%ADD98R,0.047118X0.039244*%
%ADD100R,0.07074X0.039244*%
%ADD102R,0.043181X0.019559*%
%ADD108R,0.090425X0.058929*%
%ADD110R,0.051055X0.043181*%
%ADD112R,0.043181X0.051055*%
%ADD114R,0.062866X0.054992*%
%FSLAX26Y26*%
G04*
G70*
G90*
G75*
G01*
G04 TopPaste*
%LPD*%
D114*
X3209200Y2633200D3*
Y2522964D3*
D112*
X3040200Y2646200D3*
X3115003D3*
D114*
X2206200Y2506200D3*
Y2616436D3*
D112*
X2832200Y2464200D3*
X2757397D3*
D110*
X2399949Y3449949D3*
Y3375146D3*
D114*
X3175966Y2866221D3*
Y2976457D3*
D112*
X3381200Y1443700D3*
X3306397D3*
D110*
X1581200Y1318700D3*
Y1243897D3*
X2456200Y1356200D3*
Y1281397D3*
D108*
X3053200Y2750200D3*
X3210680D3*
D102*
X952350Y2185402D3*
Y2228709D3*
Y2272016D3*
Y2315323D3*
Y2358630D3*
Y2401938D3*
Y2445245D3*
Y2488552D3*
Y2531859D3*
D100*
X536995Y1997213D3*
D98*
X918885D3*
D96*
Y2575166D3*
D100*
X536995D3*
D90*
X2819754Y2672491D3*
Y2910680D3*
D86*
X853838Y3393700D3*
X753838D3*
Y3059054D3*
X853838D3*
X1129428Y3393700D3*
X1029428D3*
Y3059054D3*
X1129428D3*
X1405019Y3393700D3*
X1305019D3*
Y3059054D3*
X1405019D3*
X1687794Y3393700D3*
X1587794D3*
Y3059054D3*
X1687794D3*
X1956200Y3393700D3*
X1856200D3*
Y3059054D3*
X1956200D3*
D110*
X3209200Y2373200D3*
Y2448003D3*
D112*
X2832200Y2373200D3*
X2757397D3*
X2754200Y2282200D3*
X2829003D3*
D110*
X2910200D3*
Y2357003D3*
D112*
X2181791Y3610235D3*
X2256594D3*
X3034842Y1321948D3*
X2960039D3*
X3131200Y1431200D3*
X3056397D3*
X3034842Y1246948D3*
X2960039D3*
X3131200Y1131200D3*
X3056397D3*
D110*
X932578Y3413385D3*
Y3338582D3*
X1208169Y3413385D3*
Y3338582D3*
X1483759Y3413385D3*
Y3338582D3*
X1766535Y3413385D3*
Y3338582D3*
X2034940Y3413385D3*
Y3338582D3*
X3543700Y1131200D3*
Y1056397D3*
Y1431200D3*
Y1356397D3*
X1993700Y2556200D3*
Y2631003D3*
X1893700Y2556200D3*
Y2631003D3*
X1799949Y2556200D3*
Y2631003D3*
X2093700Y2556200D3*
Y2631003D3*
X3543700Y1281200D3*
Y1206397D3*
D74*
X2907245Y2566252D3*
Y2516252D3*
Y2466252D3*
Y2416252D3*
X3119843D3*
Y2466252D3*
Y2516252D3*
Y2566252D3*
D72*
X3013544Y2491252D3*
D70*
X3168700Y1356200D3*
Y1306200D3*
Y1256200D3*
Y1206200D3*
X3381298D3*
Y1256200D3*
Y1306200D3*
Y1356200D3*
D68*
X1493700D3*
X1443700D3*
X1393700D3*
X1343700D3*
X1293700D3*
X1243700D3*
X1193700D3*
X1143700D3*
X1093700D3*
X1043700D3*
Y986121D3*
X1093700D3*
X1143700D3*
X1193700D3*
X1243700D3*
X1293700D3*
X1343700D3*
X1393700D3*
X1443700D3*
X1493700D3*
X2343700Y1356200D3*
X2293700D3*
X2243700D3*
X2193700D3*
X2143700D3*
X2093700D3*
X2043700D3*
X1993700D3*
X1943700D3*
X1893700D3*
Y986121D3*
X1943700D3*
X1993700D3*
X2043700D3*
X2093700D3*
X2143700D3*
X2193700D3*
X2243700D3*
X2293700D3*
X2343700D3*
D66*
X487449Y3068700D3*
Y3226180D3*
M02*
