G04 DipTrace 3.3.1.3*
G04 TopSilk.gbr*
%MOIN*%
G04 #@! TF.FileFunction,Legend,Top*
G04 #@! TF.Part,Single*
%ADD10C,0.009843*%
%ADD12C,0.003*%
%ADD22C,0.01*%
%ADD23C,0.011811*%
%ADD27C,0.019695*%
%ADD45C,0.019705*%
%ADD50C,0.019677*%
%ADD115C,0.006176*%
%ADD116C,0.00772*%
%ADD117C,0.009264*%
%FSLAX26Y26*%
G04*
G70*
G90*
G75*
G01*
G04 TopSilk*
%LPD*%
X3177735Y2582413D2*
D10*
X3240665D1*
X3177735Y2589861D2*
X3240665D1*
X3177735D2*
Y2566302D1*
X3240665Y2589861D2*
Y2566302D1*
X2998840Y2620629D2*
Y2671771D1*
X2237665Y2556987D2*
X2174735D1*
X2237665Y2549539D2*
X2174735D1*
X2237665D2*
Y2573098D1*
X2174735Y2549539D2*
Y2573098D1*
X2873560Y2489771D2*
Y2438629D1*
X2374378Y3491309D2*
X2425520D1*
X3207431Y2917008D2*
X3144502D1*
X3207431Y2909560D2*
X3144502D1*
X3207431D2*
Y2933119D1*
X3144502Y2909560D2*
Y2933119D1*
X3422560Y1469271D2*
Y1418129D1*
X1555629Y1360060D2*
X1606771D1*
X2430629Y1397560D2*
X2481771D1*
X3013821Y2789566D2*
Y2809255D1*
X3250045D1*
Y2789566D1*
X3013821Y2710834D2*
Y2691145D1*
X3250045D1*
Y2710834D1*
X3112267Y2789566D2*
Y2710834D1*
D27*
X2984307Y2750200D3*
X1969400Y2881200D2*
D10*
X1977000D1*
X517800D2*
X2343700D1*
X443700D2*
X517800D1*
X443700Y2781200D2*
Y2881200D1*
Y2781200D2*
X2343700D1*
Y2881200D1*
X2606200Y3249949D2*
Y3149949D1*
X3006200Y3249949D2*
X2606200D1*
X3006200Y3149949D2*
X2606200D1*
X3006200Y3249949D2*
Y3149949D1*
X1969400Y2781200D2*
X1977000D1*
X517800D2*
X2343700D1*
X443700D2*
X517800D1*
X443700Y2681200D2*
Y2781200D1*
Y2681200D2*
X2343700D1*
Y2781200D1*
X1969400Y1881200D2*
X1977000D1*
X517800D2*
X2343700D1*
X443700D2*
X517800D1*
X443700Y1781200D2*
Y1881200D1*
Y1781200D2*
X2343700D1*
Y1881200D1*
X402940Y2575148D2*
X427960Y2550173D1*
X402940Y2625166D2*
X1002940D1*
Y1950166D1*
X402940D1*
Y2625166D1*
X427960Y2550173D2*
Y2025158D1*
X402940Y2000183D1*
X427960Y2300153D2*
X602920D1*
X577960Y2350171D1*
X602920Y2300153D2*
X577960Y2250136D1*
X3826793Y2263799D2*
X4171259D1*
Y1909456D1*
X4167324D1*
X4171259D2*
X3604325D1*
Y2015751D1*
Y2157464D2*
Y2263799D1*
X3673253D1*
X2741018Y2633110D2*
X2681959D1*
Y2948077D1*
X2741018D1*
X2898490D2*
X2957549D1*
Y2633110D1*
X2898490D1*
X713287Y3332661D2*
Y3120093D1*
X894389Y3332661D2*
X713287D1*
Y3120093D2*
X894389D1*
Y3332661D2*
Y3250010D1*
Y3120093D2*
Y3202744D1*
Y3250010D2*
G03X894389Y3202744I-1J-23633D01*
G01*
X988877Y3332661D2*
Y3120093D1*
X1169980Y3332661D2*
X988877D1*
Y3120093D2*
X1169980D1*
Y3332661D2*
Y3250010D1*
Y3120093D2*
Y3202744D1*
Y3250010D2*
G03X1169980Y3202744I-1J-23633D01*
G01*
X1264468Y3332661D2*
Y3120093D1*
X1445570Y3332661D2*
X1264468D1*
Y3120093D2*
X1445570D1*
Y3332661D2*
Y3250010D1*
Y3120093D2*
Y3202744D1*
Y3250010D2*
G03X1445570Y3202744I-1J-23633D01*
G01*
X1547243Y3332661D2*
Y3120093D1*
X1728346Y3332661D2*
X1547243D1*
Y3120093D2*
X1728346D1*
Y3332661D2*
Y3250010D1*
Y3120093D2*
Y3202744D1*
Y3250010D2*
G03X1728346Y3202744I-1J-23633D01*
G01*
X1815649Y3332661D2*
Y3120093D1*
X1996751Y3332661D2*
X1815649D1*
Y3120093D2*
X1996751D1*
Y3332661D2*
Y3250010D1*
Y3120093D2*
Y3202744D1*
Y3250010D2*
G03X1996751Y3202744I-1J-23633D01*
G01*
X2099901Y3092165D2*
X2334901D1*
Y3562165D1*
X2099901D1*
Y3092165D1*
X2324890Y3327165D2*
X2099901D1*
X3813090Y2400590D2*
X4049310D1*
Y2833661D1*
X3813090D1*
Y2400590D1*
X1099133Y3523621D2*
X708661D1*
Y3799212D1*
X1099133D1*
Y3523621D1*
X1512519D2*
X1122046D1*
Y3799212D1*
X1512519D1*
Y3523621D1*
X1788110Y3523916D2*
X1538090D1*
Y3799211D1*
X1788110D1*
Y3523916D1*
X2063701D2*
X1813681D1*
Y3799211D1*
X2063701D1*
Y3523916D1*
X4056495Y1449527D2*
X3780905D1*
Y1059054D1*
X4056495D1*
Y1449527D1*
X1886535Y531495D2*
X1496062D1*
Y807086D1*
X1886535D1*
Y531495D1*
X2299920D2*
X1909448D1*
Y807086D1*
X2299920D1*
Y531495D1*
X1059763D2*
X669291D1*
Y807086D1*
X1059763D1*
Y531495D1*
X1473149D2*
X1082676D1*
Y807086D1*
X1473149D1*
Y531495D1*
X551475Y1144959D2*
X826770D1*
Y1394979D1*
X551475D1*
Y1144959D1*
Y869369D2*
X826770D1*
Y1119388D1*
X551475D1*
Y869369D1*
X2713306Y531495D2*
X2322834D1*
Y807086D1*
X2713306D1*
Y531495D1*
X3126692D2*
X2736220D1*
Y807086D1*
X3126692D1*
Y531495D1*
X3540078D2*
X3149606D1*
Y807086D1*
X3540078D1*
Y531495D1*
X3953464D2*
X3562991D1*
Y807086D1*
X3953464D1*
Y531495D1*
X551475Y1420550D2*
X826770D1*
Y1670569D1*
X551475D1*
Y1420550D1*
X3074560Y2585938D2*
X2946603D1*
Y2398930D1*
X3074560D1*
Y2585938D1*
D45*
X2956455Y2576092D3*
G36*
X3035205Y2585938D2*
X2985985D1*
Y2566246D1*
X3035205D1*
Y2585938D1*
G37*
X3223811Y1379627D2*
D10*
Y1182773D1*
X3326187Y1379627D2*
Y1182773D1*
X3223811D2*
X3326187D1*
X3255305Y1379627D2*
X3223811D1*
X3294694D2*
X3326187D1*
X3255305D2*
G03X3294694Y1379627I19694J9D01*
G01*
X1520645Y1299119D2*
X1016755D1*
X1520645Y1047152D2*
X1016755D1*
Y1299119D2*
Y1047152D1*
X1520645Y1299119D2*
Y1204643D1*
Y1141628D2*
Y1047152D1*
Y1204643D2*
G03X1520645Y1141628I64J-31507D01*
G01*
X2370645Y1299119D2*
X1866755D1*
X2370645Y1047152D2*
X1866755D1*
Y1299119D2*
Y1047152D1*
X2370645Y1299119D2*
Y1204643D1*
Y1141628D2*
Y1047152D1*
Y1204643D2*
G03X2370645Y1141628I64J-31507D01*
G01*
X448083Y3029321D2*
X428394D1*
Y3265545D1*
X448083D1*
X526815Y3029321D2*
X546504D1*
Y3265545D1*
X526815D1*
X448083Y3127767D2*
X526815D1*
D50*
X487449Y2999807D3*
X826771Y1397637D2*
D22*
X915354D1*
Y866141D1*
X826771D1*
Y1397637D1*
X2562451Y3880707D2*
D23*
X3799949D1*
Y3443208D1*
X2562451D1*
Y3880707D1*
X1488949Y916949D2*
D22*
X1486949Y412451D1*
X2314449Y913700D2*
X2315200Y412700D1*
X3139949Y920200D2*
X3140451Y409451D1*
X443700Y2681200D2*
X2343700D1*
Y1881200D1*
X443700D1*
Y2681200D1*
X2343700Y2731200D2*
X2543700D1*
Y1931200D1*
X2343700D1*
Y2731200D1*
Y2631200D2*
X2543700D1*
Y1931200D1*
X2343700D1*
Y2631200D1*
X3415354Y3120078D2*
X4330708D1*
Y1850393D1*
X3415354D1*
Y3120078D1*
X968700Y3799949D2*
Y3931200D1*
X1256200Y3799949D2*
Y3924949D1*
X1799949Y3806200D2*
Y3918700D1*
X1524951Y3806200D2*
Y3931200D1*
X3987451Y3565575D2*
X3987664Y3571897D1*
X3988302Y3578188D1*
X3989363Y3584417D1*
X3990840Y3590555D1*
X3992728Y3596571D1*
X3995015Y3602436D1*
X3997693Y3608121D1*
X4000746Y3613599D1*
X4004162Y3618843D1*
X4007922Y3623828D1*
X4012008Y3628529D1*
X4016402Y3632923D1*
X4021080Y3636989D1*
X4026021Y3640707D1*
X4031201Y3644059D1*
X4036593Y3647028D1*
X4042173Y3649601D1*
X4047912Y3651765D1*
X4053782Y3653508D1*
X4059756Y3654823D1*
X4065804Y3655704D1*
X4071897Y3656145D1*
X4078004D1*
X4084097Y3655704D1*
X4090145Y3654823D1*
X4096119Y3653508D1*
X4101990Y3651765D1*
X4107729Y3649601D1*
X4113308Y3647028D1*
X4118701Y3644059D1*
X4123880Y3640707D1*
X4128821Y3636989D1*
X4133500Y3632923D1*
X4137893Y3628529D1*
X4141980Y3623828D1*
X4145740Y3618843D1*
X4149155Y3613599D1*
X4152209Y3608121D1*
X4154886Y3602436D1*
X4157174Y3596571D1*
X4159061Y3590555D1*
X4160539Y3584417D1*
X4161599Y3578188D1*
X4162238Y3571897D1*
X4162451Y3565575D1*
X4162238Y3559254D1*
X4161599Y3552963D1*
X4160539Y3546733D1*
X4159061Y3540596D1*
X4157174Y3534580D1*
X4154886Y3528715D1*
X4152209Y3523030D1*
X4149155Y3517552D1*
X4145740Y3512307D1*
X4141980Y3507323D1*
X4137893Y3502622D1*
X4133500Y3498228D1*
X4128821Y3494162D1*
X4123880Y3490444D1*
X4118701Y3487092D1*
X4113308Y3484122D1*
X4107729Y3481550D1*
X4101990Y3479386D1*
X4096119Y3477643D1*
X4090145Y3476327D1*
X4084097Y3475447D1*
X4078004Y3475006D1*
X4071897D1*
X4065804Y3475447D1*
X4059756Y3476327D1*
X4053782Y3477643D1*
X4047912Y3479386D1*
X4042173Y3481550D1*
X4036593Y3484122D1*
X4031201Y3487092D1*
X4026021Y3490444D1*
X4021080Y3494162D1*
X4016402Y3498228D1*
X4012008Y3502622D1*
X4007922Y3507323D1*
X4004162Y3512307D1*
X4000746Y3517552D1*
X3997693Y3523030D1*
X3995015Y3528715D1*
X3992728Y3534580D1*
X3990840Y3540596D1*
X3989363Y3546733D1*
X3988302Y3552963D1*
X3987664Y3559254D1*
X3987451Y3565575D1*
X4012451Y3549951D2*
X4143700D1*
X4037451Y3524951D2*
X4106200D1*
X4062451Y3499951D2*
X4087451D1*
X4074949Y3549951D2*
Y3631200D1*
X4024951Y765575D2*
X4025164Y771897D1*
X4025802Y778188D1*
X4026863Y784417D1*
X4028340Y790555D1*
X4030228Y796571D1*
X4032515Y802436D1*
X4035193Y808121D1*
X4038246Y813599D1*
X4041662Y818843D1*
X4045422Y823828D1*
X4049508Y828529D1*
X4053902Y832923D1*
X4058580Y836989D1*
X4063521Y840707D1*
X4068701Y844059D1*
X4074093Y847028D1*
X4079673Y849601D1*
X4085412Y851765D1*
X4091282Y853508D1*
X4097256Y854823D1*
X4103304Y855704D1*
X4109397Y856145D1*
X4115504D1*
X4121597Y855704D1*
X4127645Y854823D1*
X4133619Y853508D1*
X4139490Y851765D1*
X4145229Y849601D1*
X4150808Y847028D1*
X4156201Y844059D1*
X4161380Y840707D1*
X4166321Y836989D1*
X4171000Y832923D1*
X4175393Y828529D1*
X4179480Y823828D1*
X4183240Y818843D1*
X4186655Y813599D1*
X4189709Y808121D1*
X4192386Y802436D1*
X4194674Y796571D1*
X4196561Y790555D1*
X4198039Y784417D1*
X4199099Y778188D1*
X4199738Y771897D1*
X4199951Y765575D1*
X4199738Y759254D1*
X4199099Y752963D1*
X4198039Y746733D1*
X4196561Y740596D1*
X4194674Y734580D1*
X4192386Y728715D1*
X4189709Y723030D1*
X4186655Y717552D1*
X4183240Y712307D1*
X4179480Y707323D1*
X4175393Y702622D1*
X4171000Y698228D1*
X4166321Y694162D1*
X4161380Y690444D1*
X4156201Y687092D1*
X4150808Y684122D1*
X4145229Y681550D1*
X4139490Y679386D1*
X4133619Y677643D1*
X4127645Y676327D1*
X4121597Y675447D1*
X4115504Y675006D1*
X4109397D1*
X4103304Y675447D1*
X4097256Y676327D1*
X4091282Y677643D1*
X4085412Y679386D1*
X4079673Y681550D1*
X4074093Y684122D1*
X4068701Y687092D1*
X4063521Y690444D1*
X4058580Y694162D1*
X4053902Y698228D1*
X4049508Y702622D1*
X4045422Y707323D1*
X4041662Y712307D1*
X4038246Y717552D1*
X4035193Y723030D1*
X4032515Y728715D1*
X4030228Y734580D1*
X4028340Y740596D1*
X4026863Y746733D1*
X4025802Y752963D1*
X4025164Y759254D1*
X4024951Y765575D1*
X4049951Y749951D2*
X4181200D1*
X4074951Y724951D2*
X4143700D1*
X4099951Y699951D2*
X4124951D1*
X4112449Y749951D2*
Y831200D1*
X443701Y753075D2*
X443914Y759397D1*
X444553Y765688D1*
X445613Y771917D1*
X447091Y778055D1*
X448978Y784071D1*
X451266Y789936D1*
X453943Y795621D1*
X456997Y801099D1*
X460412Y806343D1*
X464172Y811328D1*
X468259Y816029D1*
X472652Y820423D1*
X477331Y824489D1*
X482272Y828207D1*
X487451Y831559D1*
X492843Y834528D1*
X498423Y837101D1*
X504162Y839265D1*
X510033Y841008D1*
X516007Y842323D1*
X522054Y843204D1*
X528147Y843645D1*
X534254D1*
X540347Y843204D1*
X546395Y842323D1*
X552369Y841008D1*
X558239Y839265D1*
X563978Y837101D1*
X569558Y834528D1*
X574950Y831559D1*
X580130Y828207D1*
X585071Y824489D1*
X589749Y820423D1*
X594142Y816029D1*
X598229Y811328D1*
X601989Y806343D1*
X605404Y801099D1*
X608458Y795621D1*
X611135Y789936D1*
X613423Y784071D1*
X615310Y778055D1*
X616788Y771917D1*
X617848Y765688D1*
X618487Y759397D1*
X618700Y753075D1*
X618487Y746754D1*
X617848Y740463D1*
X616788Y734233D1*
X615310Y728096D1*
X613423Y722080D1*
X611135Y716215D1*
X608458Y710530D1*
X605404Y705052D1*
X601989Y699807D1*
X598229Y694823D1*
X594142Y690122D1*
X589749Y685728D1*
X585071Y681662D1*
X580130Y677944D1*
X574950Y674592D1*
X569558Y671622D1*
X563978Y669050D1*
X558239Y666886D1*
X552369Y665143D1*
X546395Y663827D1*
X540347Y662947D1*
X534254Y662506D1*
X528147D1*
X522054Y662947D1*
X516007Y663827D1*
X510033Y665143D1*
X504162Y666886D1*
X498423Y669050D1*
X492843Y671622D1*
X487451Y674592D1*
X482272Y677944D1*
X477331Y681662D1*
X472652Y685728D1*
X468259Y690122D1*
X464172Y694823D1*
X460412Y699807D1*
X456997Y705052D1*
X453943Y710530D1*
X451266Y716215D1*
X448978Y722080D1*
X447091Y728096D1*
X445613Y734233D1*
X444553Y740463D1*
X443914Y746754D1*
X443701Y753075D1*
X468701Y737451D2*
X599949D1*
X493701Y712451D2*
X562451D1*
X518700Y687451D2*
X543700D1*
X531199Y737451D2*
Y818700D1*
X3875036Y3089205D2*
D12*
X3887036D1*
X4043036D2*
X4056536D1*
X3834536Y3087705D2*
X3839036D1*
X3871009D2*
X3889741D1*
X3906536D2*
X3914036D1*
X3951536D2*
X3957536D1*
X3966536D2*
X3990536D1*
X4039919D2*
X4060795D1*
X3833769Y3086205D2*
X3839036D1*
X3868021D2*
X3892113D1*
X3907286D2*
X3914786D1*
X3950786D2*
X3957304D1*
X3966536D2*
X3994858D1*
X4037186D2*
X4064155D1*
X3832964Y3084705D2*
X3839036D1*
X3865852D2*
X3894056D1*
X3907909D2*
X3915409D1*
X3950163D2*
X3956926D1*
X3966536D2*
X3998469D1*
X4034861D2*
X4066752D1*
X3831930Y3083205D2*
X3839036D1*
X3865164D2*
X3895556D1*
X3908492D2*
X3915992D1*
X3949580D2*
X3956485D1*
X3966536D2*
X4001295D1*
X4032911D2*
X4067831D1*
X3829360Y3081705D2*
X3839036D1*
X3864798D2*
X3875312D1*
X3885184D2*
X3896605D1*
X3909026D2*
X3916526D1*
X3949046D2*
X3956031D1*
X3966536D2*
X4003495D1*
X4031246D2*
X4044599D1*
X4056178D2*
X4068209D1*
X3826407Y3080205D2*
X3839036D1*
X3864631D2*
X3871338D1*
X3887363D2*
X3897345D1*
X3909518D2*
X3917018D1*
X3948554D2*
X3955527D1*
X3966536D2*
X3972536D1*
X3988383D2*
X4005318D1*
X4029844D2*
X4041850D1*
X4059805D2*
X4068403D1*
X3823915Y3078705D2*
X3839036D1*
X3864536D2*
X3867536D1*
X3888947D2*
X3897964D1*
X3910037D2*
X3917537D1*
X3948035D2*
X3955026D1*
X3966536D2*
X3972536D1*
X3992887D2*
X4006948D1*
X4028672D2*
X4039465D1*
X4062705D2*
X4068486D1*
X3822085Y3077205D2*
X3839036D1*
X3890057D2*
X3898460D1*
X3910543D2*
X3918043D1*
X3947529D2*
X3954547D1*
X3966536D2*
X3972536D1*
X3996282D2*
X4008448D1*
X4027601D2*
X4037511D1*
X4065001D2*
X4068519D1*
X3821527Y3075705D2*
X3839036D1*
X3890791D2*
X3898766D1*
X3911024D2*
X3918524D1*
X3947048D2*
X3954032D1*
X3966536D2*
X3972536D1*
X3998770D2*
X4009770D1*
X4026602D2*
X4035964D1*
X4067036D2*
X4068536D1*
X3821224Y3074205D2*
X3839036D1*
X3891201D2*
X3898921D1*
X3911539D2*
X3919039D1*
X3946533D2*
X3953528D1*
X3966536D2*
X3972536D1*
X4000673D2*
X4010859D1*
X4025796D2*
X4034770D1*
X3831536Y3072705D2*
X3839036D1*
X3891392D2*
X3898991D1*
X3912044D2*
X3919544D1*
X3946028D2*
X3953047D1*
X3966536D2*
X3972536D1*
X4002166D2*
X4011733D1*
X4025161D2*
X4033809D1*
X3831536Y3071205D2*
X3839036D1*
X3891424D2*
X3899013D1*
X3912524D2*
X3920024D1*
X3945547D2*
X3952533D1*
X3966536D2*
X3972536D1*
X4003327D2*
X4012416D1*
X4024583D2*
X4032973D1*
X3831536Y3069705D2*
X3839036D1*
X3891267D2*
X3898971D1*
X3913039D2*
X3920539D1*
X3945033D2*
X3952028D1*
X3966536D2*
X3972536D1*
X4004272D2*
X4012974D1*
X4024097D2*
X4032241D1*
X3831536Y3068205D2*
X3839036D1*
X3890914D2*
X3898784D1*
X3913544D2*
X3921044D1*
X3944528D2*
X3951547D1*
X3966536D2*
X3972536D1*
X4005102D2*
X4013515D1*
X4023744D2*
X4031667D1*
X3831536Y3066705D2*
X3839036D1*
X3890481D2*
X3898420D1*
X3914025D2*
X3921525D1*
X3944047D2*
X3951033D1*
X3966536D2*
X3972536D1*
X4005832D2*
X4013979D1*
X4023400D2*
X4031273D1*
X3831536Y3065205D2*
X3839036D1*
X3890024D2*
X3897984D1*
X3914539D2*
X3922039D1*
X3943533D2*
X3950528D1*
X3966536D2*
X3972536D1*
X4006399D2*
X4014273D1*
X4022972D2*
X4030911D1*
X3831536Y3063705D2*
X3839036D1*
X3889468D2*
X3897525D1*
X3915044D2*
X3922544D1*
X3943028D2*
X3950047D1*
X3966536D2*
X3972536D1*
X4006740D2*
X4014424D1*
X4022559D2*
X4030476D1*
X3831536Y3062205D2*
X3839036D1*
X3888776D2*
X3896974D1*
X3915525D2*
X3923025D1*
X3942547D2*
X3949533D1*
X3966536D2*
X3972536D1*
X4006912D2*
X4014492D1*
X4022287D2*
X4030060D1*
X3831536Y3060705D2*
X3839036D1*
X3887932D2*
X3896329D1*
X3916039D2*
X3923539D1*
X3942033D2*
X3949028D1*
X3966536D2*
X3972536D1*
X4006987D2*
X4014519D1*
X4022144D2*
X4029787D1*
X3831536Y3059205D2*
X3839036D1*
X3886980D2*
X3895623D1*
X3916544D2*
X3924044D1*
X3941528D2*
X3948547D1*
X3966536D2*
X3972536D1*
X4007018D2*
X4014530D1*
X4022079D2*
X4029644D1*
X3831536Y3057705D2*
X3839036D1*
X3886017D2*
X3894839D1*
X3917025D2*
X3924525D1*
X3941047D2*
X3948033D1*
X3966536D2*
X3972536D1*
X4007030D2*
X4014534D1*
X4022052D2*
X4029579D1*
X3831536Y3056205D2*
X3839036D1*
X3884980D2*
X3893902D1*
X3917539D2*
X3925039D1*
X3940533D2*
X3947528D1*
X3966536D2*
X3972536D1*
X4007034D2*
X4014535D1*
X4022042D2*
X4029552D1*
X3831536Y3054705D2*
X3839036D1*
X3883779D2*
X3892741D1*
X3918044D2*
X3925544D1*
X3940028D2*
X3947047D1*
X3966536D2*
X3972536D1*
X4007035D2*
X4014536D1*
X4022038D2*
X4029548D1*
X3831536Y3053205D2*
X3839036D1*
X3882482D2*
X3891418D1*
X3918525D2*
X3926025D1*
X3939547D2*
X3946533D1*
X3966536D2*
X3972536D1*
X4007036D2*
X4014536D1*
X4022042D2*
X4029597D1*
X3831536Y3051705D2*
X3839036D1*
X3881241D2*
X3890046D1*
X3919039D2*
X3926539D1*
X3939033D2*
X3946028D1*
X3966536D2*
X3972536D1*
X4007030D2*
X4014536D1*
X4022095D2*
X4029786D1*
X3831536Y3050205D2*
X3839036D1*
X3880128D2*
X3888768D1*
X3919544D2*
X3927044D1*
X3938528D2*
X3945547D1*
X3966536D2*
X3972536D1*
X4006977D2*
X4014530D1*
X4022286D2*
X4030145D1*
X3831536Y3048705D2*
X3839036D1*
X3879024D2*
X3887639D1*
X3920025D2*
X3927525D1*
X3938047D2*
X3945033D1*
X3966536D2*
X3972536D1*
X4006786D2*
X4014477D1*
X4022645D2*
X4030535D1*
X3831536Y3047205D2*
X3839036D1*
X3877789D2*
X3886527D1*
X3920539D2*
X3928039D1*
X3937533D2*
X3944528D1*
X3966536D2*
X3972536D1*
X4006421D2*
X4014280D1*
X4023035D2*
X4030850D1*
X3831536Y3045705D2*
X3839036D1*
X3876430D2*
X3885290D1*
X3921044D2*
X3928544D1*
X3937028D2*
X3944047D1*
X3966536D2*
X3972536D1*
X4005978D2*
X4013868D1*
X4023350D2*
X4031186D1*
X3831536Y3044205D2*
X3839036D1*
X3874994D2*
X3883930D1*
X3921525D2*
X3929025D1*
X3936547D2*
X3943533D1*
X3966536D2*
X3972536D1*
X4005467D2*
X4013287D1*
X4023680D2*
X4031661D1*
X3831536Y3042705D2*
X3839036D1*
X3873520D2*
X3882494D1*
X3922039D2*
X3929545D1*
X3936027D2*
X3943028D1*
X3966536D2*
X3972536D1*
X4004718D2*
X4012613D1*
X4024109D2*
X4032269D1*
X3831536Y3041205D2*
X3839036D1*
X3872030D2*
X3881020D1*
X3922544D2*
X3930112D1*
X3935460D2*
X3942547D1*
X3966536D2*
X3972536D1*
X4003661D2*
X4011892D1*
X4024572D2*
X4032959D1*
X3831536Y3039705D2*
X3839036D1*
X3870534D2*
X3879530D1*
X3923025D2*
X3930866D1*
X3934706D2*
X3942033D1*
X3966536D2*
X3972536D1*
X4002374D2*
X4011149D1*
X4025041D2*
X4033736D1*
X3831536Y3038205D2*
X3839036D1*
X3869035D2*
X3878028D1*
X3923539D2*
X3932049D1*
X3933523D2*
X3941528D1*
X3966536D2*
X3972536D1*
X4000905D2*
X4010350D1*
X4025602D2*
X4034672D1*
X3831536Y3036705D2*
X3839036D1*
X3867542D2*
X3876471D1*
X3924044D2*
X3941047D1*
X3966536D2*
X3972536D1*
X3999071D2*
X4009405D1*
X4026301D2*
X4035843D1*
X3831536Y3035205D2*
X3839036D1*
X3866100D2*
X3874722D1*
X3924525D2*
X3940533D1*
X3966536D2*
X3972536D1*
X3996098D2*
X4008243D1*
X4027198D2*
X4037330D1*
X4067036D2*
X4068536D1*
X3831536Y3033705D2*
X3839036D1*
X3864850D2*
X3872618D1*
X3925039D2*
X3940028D1*
X3966536D2*
X3972536D1*
X3990458D2*
X4006906D1*
X4028341D2*
X4039140D1*
X4063311D2*
X4068536D1*
X3831536Y3032205D2*
X3839036D1*
X3863959D2*
X3870159D1*
X3925544D2*
X3939542D1*
X3966536D2*
X3972536D1*
X3981116D2*
X4005423D1*
X4029664D2*
X4043824D1*
X4058063D2*
X4068524D1*
X3831536Y3030705D2*
X3839036D1*
X3863453D2*
X3902036D1*
X3926030D2*
X3938980D1*
X3966536D2*
X4003692D1*
X4031092D2*
X4050917D1*
X4050508D2*
X4068407D1*
X3821036Y3029205D2*
X3851036D1*
X3863208D2*
X3902036D1*
X3926597D2*
X3938336D1*
X3966536D2*
X4001481D1*
X4032625D2*
X4068126D1*
X3821036Y3027705D2*
X3851036D1*
X3863102D2*
X3902036D1*
X3927284D2*
X3937673D1*
X3966536D2*
X3998529D1*
X4034419D2*
X4066925D1*
X3821036Y3026205D2*
X3851036D1*
X3863059D2*
X3902036D1*
X3928110D2*
X3937069D1*
X3966536D2*
X3994761D1*
X4036751D2*
X4064206D1*
X3821036Y3024705D2*
X3851036D1*
X3863036D2*
X3902036D1*
X3929036D2*
X3936536D1*
X3966536D2*
X3990536D1*
X4039721D2*
X4060626D1*
X4043036Y3023205D2*
X4056536D1*
X3781193Y2967485D2*
X3805193D1*
X4046693D2*
X4070693D1*
X3781193Y2965985D2*
X3808591D1*
X4046693D2*
X4070693D1*
X3781193Y2964485D2*
X3811399D1*
X4046693D2*
X4070693D1*
X3781193Y2962985D2*
X3813614D1*
X4046693D2*
X4070693D1*
X3781193Y2961485D2*
X3815401D1*
X4046693D2*
X4070693D1*
X3781193Y2959985D2*
X3788693D1*
X3803104D2*
X3816849D1*
X4054193D2*
X4061693D1*
X3781193Y2958485D2*
X3788693D1*
X3806352D2*
X3817988D1*
X4054193D2*
X4061693D1*
X3781193Y2956985D2*
X3788693D1*
X3808799D2*
X3818874D1*
X4054193D2*
X4061693D1*
X3781193Y2955485D2*
X3788693D1*
X3810536D2*
X3819511D1*
X4054193D2*
X4061693D1*
X3781193Y2953985D2*
X3788693D1*
X3811831D2*
X3819881D1*
X4054193D2*
X4061693D1*
X3781193Y2952485D2*
X3788693D1*
X3812276D2*
X3820063D1*
X3841193D2*
X3853193D1*
X3956693D2*
X3967193D1*
X4054193D2*
X4061693D1*
X4099193D2*
X4108193D1*
X3781193Y2950985D2*
X3788693D1*
X3812516D2*
X3820143D1*
X3838488D2*
X3855899D1*
X3872693D2*
X3880193D1*
X3901193D2*
X3907193D1*
X3928193D2*
X3934193D1*
X3953296D2*
X3970078D1*
X3989693D2*
X3997193D1*
X4007693D2*
X4013693D1*
X4054193D2*
X4061693D1*
X4081193D2*
X4088693D1*
X4096426D2*
X4110386D1*
X3781193Y2949485D2*
X3788693D1*
X3812624D2*
X3820175D1*
X3836111D2*
X3858270D1*
X3873392D2*
X3880425D1*
X3900675D2*
X3907712D1*
X3927681D2*
X3934136D1*
X3950494D2*
X3972434D1*
X3989693D2*
X3997255D1*
X4004926D2*
X4013693D1*
X4054193D2*
X4061693D1*
X4081193D2*
X4088969D1*
X4093811D2*
X4112311D1*
X3781193Y2947985D2*
X3788693D1*
X3812662D2*
X3820187D1*
X3834114D2*
X3860220D1*
X3873875D2*
X3880797D1*
X3900176D2*
X3908211D1*
X3927234D2*
X3933944D1*
X3948326D2*
X3974317D1*
X3989693D2*
X3997488D1*
X4002311D2*
X4013693D1*
X4054193D2*
X4061693D1*
X4081193D2*
X4089496D1*
X4091261D2*
X4113970D1*
X3781193Y2946485D2*
X3788693D1*
X3812626D2*
X3820185D1*
X3832424D2*
X3861766D1*
X3874284D2*
X3881191D1*
X3899700D2*
X3908687D1*
X3926944D2*
X3933585D1*
X3946683D2*
X3975814D1*
X3989693D2*
X3998001D1*
X3999761D2*
X4013693D1*
X4054193D2*
X4061693D1*
X4081193D2*
X4115317D1*
X3781193Y2944985D2*
X3788693D1*
X3812435D2*
X3820134D1*
X3831015D2*
X3841545D1*
X3851399D2*
X3862960D1*
X3874740D2*
X3881507D1*
X3899194D2*
X3909199D1*
X3926744D2*
X3933194D1*
X3945450D2*
X3955494D1*
X3966842D2*
X3976974D1*
X3989693D2*
X4013693D1*
X4054193D2*
X4061693D1*
X4081193D2*
X4098232D1*
X4106688D2*
X4116253D1*
X3781193Y2943485D2*
X3788693D1*
X3812013D2*
X3819938D1*
X3829891D2*
X3839366D1*
X3853770D2*
X3863920D1*
X3875170D2*
X3881837D1*
X3898737D2*
X3909702D1*
X3926487D2*
X3932880D1*
X3944475D2*
X3953170D1*
X3969021D2*
X3977869D1*
X3989693D2*
X4013693D1*
X4054193D2*
X4061693D1*
X4081193D2*
X4094844D1*
X4108129D2*
X4116827D1*
X3781193Y2941985D2*
X3788693D1*
X3811321D2*
X3819520D1*
X3829004D2*
X3837776D1*
X3855714D2*
X3864756D1*
X3875499D2*
X3882260D1*
X3898396D2*
X3910182D1*
X3926101D2*
X3932549D1*
X3943633D2*
X3951364D1*
X3970605D2*
X3978515D1*
X3989693D2*
X4007993D1*
X4054193D2*
X4061693D1*
X4081193D2*
X4092229D1*
X4109379D2*
X4117268D1*
X3781193Y2940485D2*
X3788693D1*
X3810405D2*
X3818891D1*
X3828316D2*
X3836614D1*
X3857214D2*
X3865488D1*
X3875835D2*
X3882677D1*
X3898055D2*
X3910691D1*
X3925700D2*
X3932126D1*
X3942894D2*
X3950038D1*
X3971714D2*
X3978939D1*
X3989693D2*
X4003579D1*
X4054193D2*
X4061693D1*
X4081193D2*
X4090175D1*
X4110270D2*
X4117735D1*
X3781193Y2938985D2*
X3788693D1*
X3807956D2*
X3818068D1*
X3827756D2*
X3835688D1*
X3858263D2*
X3866062D1*
X3876259D2*
X3883002D1*
X3897623D2*
X3902462D1*
X3905751D2*
X3911149D1*
X3925382D2*
X3931710D1*
X3942272D2*
X3949067D1*
X3972449D2*
X3979313D1*
X3989693D2*
X4000121D1*
X4054193D2*
X4061693D1*
X4081193D2*
X4089415D1*
X4110777D2*
X4118162D1*
X3781193Y2937485D2*
X3788693D1*
X3803511D2*
X3817073D1*
X3827215D2*
X3834920D1*
X3859002D2*
X3866456D1*
X3876677D2*
X3883336D1*
X3897158D2*
X3902084D1*
X3905943D2*
X3911491D1*
X3925050D2*
X3931385D1*
X3941739D2*
X3948396D1*
X3972858D2*
X3979752D1*
X3989693D2*
X3998443D1*
X4054193D2*
X4061693D1*
X4081193D2*
X4089001D1*
X4111021D2*
X4118440D1*
X3781193Y2935985D2*
X3788693D1*
X3796223D2*
X3815917D1*
X3826751D2*
X3834338D1*
X3859622D2*
X3866819D1*
X3877002D2*
X3883760D1*
X3896694D2*
X3901643D1*
X3906308D2*
X3911832D1*
X3924627D2*
X3931051D1*
X3941209D2*
X3948013D1*
X3973055D2*
X3980168D1*
X3989693D2*
X3997789D1*
X4054193D2*
X4061693D1*
X4081193D2*
X4088814D1*
X4111127D2*
X4118585D1*
X3781193Y2934485D2*
X3814457D1*
X3826457D2*
X3833992D1*
X3860118D2*
X3867254D1*
X3877336D2*
X3884177D1*
X3896186D2*
X3901189D1*
X3906746D2*
X3912264D1*
X3924216D2*
X3930627D1*
X3940749D2*
X3947826D1*
X3973140D2*
X3980442D1*
X3989693D2*
X3997443D1*
X4054193D2*
X4061693D1*
X4081193D2*
X4088738D1*
X4111169D2*
X4118650D1*
X3781193Y2932985D2*
X3812517D1*
X3826306D2*
X3833819D1*
X3860423D2*
X3867669D1*
X3877760D2*
X3884502D1*
X3895684D2*
X3900690D1*
X3907198D2*
X3912729D1*
X3923938D2*
X3930210D1*
X3940456D2*
X3947742D1*
X3973175D2*
X3980585D1*
X3989693D2*
X3997290D1*
X4054193D2*
X4061693D1*
X4081193D2*
X4088709D1*
X4111185D2*
X4118677D1*
X3781193Y2931485D2*
X3809648D1*
X3826238D2*
X3833742D1*
X3860579D2*
X3867942D1*
X3878177D2*
X3884836D1*
X3895204D2*
X3900236D1*
X3907703D2*
X3913193D1*
X3923742D2*
X3929885D1*
X3940306D2*
X3980651D1*
X3989693D2*
X3997229D1*
X4054193D2*
X4061693D1*
X4081193D2*
X4088699D1*
X4111191D2*
X4118688D1*
X3781193Y2929985D2*
X3804858D1*
X3826210D2*
X3833712D1*
X3860648D2*
X3868086D1*
X3878502D2*
X3885260D1*
X3894690D2*
X3899895D1*
X3908204D2*
X3913701D1*
X3923486D2*
X3929551D1*
X3940238D2*
X3980677D1*
X3989693D2*
X3997206D1*
X4054193D2*
X4061693D1*
X4081193D2*
X4088695D1*
X4111192D2*
X4118691D1*
X3781193Y2928485D2*
X3797528D1*
X3826199D2*
X3833700D1*
X3860677D2*
X3868151D1*
X3878836D2*
X3885671D1*
X3894185D2*
X3899555D1*
X3908683D2*
X3914203D1*
X3923100D2*
X3929127D1*
X3940210D2*
X3980688D1*
X3989693D2*
X3997198D1*
X4054193D2*
X4061693D1*
X4081193D2*
X4088694D1*
X4111193D2*
X4118693D1*
X3781193Y2926985D2*
X3788693D1*
X3826195D2*
X3833696D1*
X3860687D2*
X3868172D1*
X3879260D2*
X3885949D1*
X3893705D2*
X3899123D1*
X3909191D2*
X3914682D1*
X3922700D2*
X3928710D1*
X3940199D2*
X3980693D1*
X3989693D2*
X3997195D1*
X4054193D2*
X4061693D1*
X4081193D2*
X4088694D1*
X4111193D2*
X4118693D1*
X3781193Y2925485D2*
X3788693D1*
X3826194D2*
X3833694D1*
X3860686D2*
X3868129D1*
X3879677D2*
X3886144D1*
X3893196D2*
X3898658D1*
X3909649D2*
X3915197D1*
X3922382D2*
X3928385D1*
X3940195D2*
X3945899D1*
X3989693D2*
X3997194D1*
X4054193D2*
X4061693D1*
X4081193D2*
X4088693D1*
X4111193D2*
X4118693D1*
X3781193Y2923985D2*
X3788693D1*
X3826200D2*
X3833700D1*
X3860634D2*
X3867942D1*
X3880002D2*
X3886400D1*
X3892738D2*
X3898194D1*
X3909991D2*
X3915702D1*
X3922050D2*
X3928051D1*
X3940200D2*
X3946776D1*
X3989693D2*
X3997194D1*
X4054193D2*
X4061693D1*
X4081193D2*
X4088693D1*
X4111193D2*
X4118693D1*
X3781193Y2922485D2*
X3788693D1*
X3826252D2*
X3833752D1*
X3860443D2*
X3867584D1*
X3880336D2*
X3886786D1*
X3892396D2*
X3897686D1*
X3910332D2*
X3916182D1*
X3921627D2*
X3927627D1*
X3940252D2*
X3947284D1*
X3989693D2*
X3997193D1*
X4054193D2*
X4061693D1*
X4081193D2*
X4088693D1*
X4111193D2*
X4118693D1*
X3781193Y2920985D2*
X3788693D1*
X3826443D2*
X3833949D1*
X3860079D2*
X3867194D1*
X3880760D2*
X3887187D1*
X3892049D2*
X3897184D1*
X3910764D2*
X3916697D1*
X3921210D2*
X3927210D1*
X3940443D2*
X3947586D1*
X3989693D2*
X3997193D1*
X4054193D2*
X4061693D1*
X4081193D2*
X4088693D1*
X4111193D2*
X4118693D1*
X3781193Y2919485D2*
X3788693D1*
X3826808D2*
X3834361D1*
X3859635D2*
X3866880D1*
X3881177D2*
X3887510D1*
X3891565D2*
X3896704D1*
X3911229D2*
X3917206D1*
X3920881D2*
X3926885D1*
X3940808D2*
X3947941D1*
X3989693D2*
X3997193D1*
X4054193D2*
X4061693D1*
X4081193D2*
X4088693D1*
X4111193D2*
X4118693D1*
X3781193Y2917985D2*
X3788693D1*
X3827246D2*
X3834943D1*
X3859124D2*
X3866543D1*
X3881502D2*
X3887882D1*
X3890917D2*
X3896190D1*
X3911693D2*
X3917728D1*
X3920506D2*
X3926551D1*
X3941246D2*
X3948592D1*
X3989693D2*
X3997193D1*
X4054193D2*
X4061693D1*
X4081193D2*
X4088693D1*
X4111193D2*
X4118693D1*
X3781193Y2916485D2*
X3788693D1*
X3827704D2*
X3835634D1*
X3858370D2*
X3866068D1*
X3881836D2*
X3888462D1*
X3890109D2*
X3895685D1*
X3912201D2*
X3918399D1*
X3919926D2*
X3926127D1*
X3941704D2*
X3949608D1*
X3989693D2*
X3997193D1*
X4054193D2*
X4061693D1*
X4081193D2*
X4088693D1*
X4111193D2*
X4118693D1*
X3781193Y2914985D2*
X3788693D1*
X3828261D2*
X3836554D1*
X3857225D2*
X3865460D1*
X3882266D2*
X3895205D1*
X3912703D2*
X3925710D1*
X3942261D2*
X3950974D1*
X3989693D2*
X3997193D1*
X4054193D2*
X4061693D1*
X4081193D2*
X4088693D1*
X4111193D2*
X4118693D1*
X3781193Y2913485D2*
X3788693D1*
X3828959D2*
X3837778D1*
X3855765D2*
X3864770D1*
X3882730D2*
X3894690D1*
X3913182D2*
X3925385D1*
X3942959D2*
X3952626D1*
X3977693D2*
X3979193D1*
X3989693D2*
X3997193D1*
X4054193D2*
X4061693D1*
X4081193D2*
X4088693D1*
X4111193D2*
X4118693D1*
X3781193Y2911985D2*
X3788693D1*
X3829856D2*
X3841673D1*
X3852330D2*
X3863993D1*
X3883193D2*
X3894185D1*
X3913697D2*
X3925051D1*
X3943856D2*
X3956881D1*
X3971685D2*
X3979193D1*
X3989693D2*
X3997193D1*
X4054193D2*
X4061693D1*
X4081193D2*
X4088693D1*
X4111193D2*
X4118693D1*
X3781193Y2910485D2*
X3788693D1*
X3831005D2*
X3847568D1*
X3847280D2*
X3863052D1*
X3883695D2*
X3893705D1*
X3914202D2*
X3924621D1*
X3945005D2*
X3963511D1*
X3963438D2*
X3979176D1*
X3989693D2*
X3997193D1*
X4046693D2*
X4070693D1*
X4081193D2*
X4088693D1*
X4111193D2*
X4118693D1*
X3781193Y2908985D2*
X3788693D1*
X3832386D2*
X3861834D1*
X3884144D2*
X3893196D1*
X3914683D2*
X3924153D1*
X3946392D2*
X3979000D1*
X3989693D2*
X3997193D1*
X4046693D2*
X4070693D1*
X4081193D2*
X4088693D1*
X4111193D2*
X4118693D1*
X3781193Y2907485D2*
X3788693D1*
X3834057D2*
X3860255D1*
X3884434D2*
X3892740D1*
X3915205D2*
X3923648D1*
X3948120D2*
X3978578D1*
X3989693D2*
X3997193D1*
X4046693D2*
X4070693D1*
X4081193D2*
X4088693D1*
X4111193D2*
X4118693D1*
X3781193Y2905985D2*
X3788693D1*
X3836129D2*
X3858227D1*
X3884591D2*
X3892427D1*
X3915722D2*
X3922984D1*
X3950424D2*
X3976522D1*
X3989693D2*
X3997193D1*
X4046693D2*
X4070693D1*
X4081193D2*
X4088693D1*
X4111193D2*
X4118693D1*
X3781193Y2904485D2*
X3788693D1*
X3838576D2*
X3855800D1*
X3884693D2*
X3892193D1*
X3916193D2*
X3922193D1*
X3953384D2*
X3973583D1*
X3989693D2*
X3997193D1*
X4046693D2*
X4070693D1*
X4081193D2*
X4088693D1*
X4111193D2*
X4118693D1*
X3841193Y2902985D2*
X3853193D1*
X3956693D2*
X3970193D1*
X3460048Y2125343D2*
X3469048D1*
X3542548D2*
X3551548D1*
X3458605Y2123843D2*
X3467548D1*
X3544042D2*
X3552529D1*
X3457303Y2122343D2*
X3466054D1*
X3545489D2*
X3553530D1*
X3456215Y2120843D2*
X3464606D1*
X3546798D2*
X3554554D1*
X3455291Y2119343D2*
X3463298D1*
X3547933D2*
X3555542D1*
X3454418Y2117843D2*
X3462163D1*
X3548996D2*
X3556539D1*
X3453494Y2116343D2*
X3461100D1*
X3550037D2*
X3557553D1*
X3452517Y2114843D2*
X3460059D1*
X3550986D2*
X3558492D1*
X3451594Y2113343D2*
X3459110D1*
X3551841D2*
X3559343D1*
X3450749Y2111843D2*
X3458255D1*
X3552641D2*
X3560141D1*
X3449959Y2110343D2*
X3457455D1*
X3553410D2*
X3560910D1*
X3449238Y2108843D2*
X3456686D1*
X3554169D2*
X3561663D1*
X3448623Y2107343D2*
X3455932D1*
X3554921D2*
X3562368D1*
X3448093Y2105843D2*
X3455228D1*
X3502048D2*
X3508048D1*
X3555667D2*
X3562976D1*
X3447557Y2104343D2*
X3454620D1*
X3502048D2*
X3508048D1*
X3556369D2*
X3563504D1*
X3447044Y2102843D2*
X3454091D1*
X3502048D2*
X3508048D1*
X3556976D2*
X3564033D1*
X3446561Y2101343D2*
X3453562D1*
X3502048D2*
X3508048D1*
X3557504D2*
X3564499D1*
X3446051Y2099843D2*
X3453097D1*
X3502048D2*
X3508048D1*
X3558033D2*
X3564844D1*
X3445598Y2098343D2*
X3452752D1*
X3502048D2*
X3508048D1*
X3558493D2*
X3565185D1*
X3445309Y2096843D2*
X3452410D1*
X3502048D2*
X3508048D1*
X3558791D2*
X3565613D1*
X3445159Y2095343D2*
X3451983D1*
X3502048D2*
X3508048D1*
X3558994D2*
X3566025D1*
X3445092Y2093843D2*
X3451571D1*
X3502048D2*
X3508048D1*
X3559253D2*
X3566297D1*
X3445058Y2092343D2*
X3451298D1*
X3502048D2*
X3508048D1*
X3559640D2*
X3566440D1*
X3444995Y2090843D2*
X3451155D1*
X3502048D2*
X3508048D1*
X3560036D2*
X3566505D1*
X3444800Y2089343D2*
X3451091D1*
X3502048D2*
X3508048D1*
X3560301D2*
X3566532D1*
X3444439Y2087843D2*
X3451064D1*
X3502048D2*
X3508048D1*
X3560441D2*
X3566542D1*
X3444054Y2086343D2*
X3451053D1*
X3502048D2*
X3508048D1*
X3560505D2*
X3566546D1*
X3443798Y2084843D2*
X3451050D1*
X3502048D2*
X3508048D1*
X3560532D2*
X3566547D1*
X3443712Y2083343D2*
X3451048D1*
X3481048D2*
X3530548D1*
X3560542D2*
X3566548D1*
X3443840Y2081843D2*
X3451048D1*
X3481048D2*
X3530548D1*
X3560546D2*
X3566548D1*
X3444173Y2080343D2*
X3451048D1*
X3481048D2*
X3530548D1*
X3560541D2*
X3566548D1*
X3444547Y2078843D2*
X3451048D1*
X3481048D2*
X3530548D1*
X3560489D2*
X3566548D1*
X3444805Y2077343D2*
X3451054D1*
X3481048D2*
X3530548D1*
X3560298D2*
X3566548D1*
X3444943Y2075843D2*
X3451106D1*
X3502048D2*
X3508048D1*
X3559939D2*
X3566542D1*
X3445006Y2074343D2*
X3451298D1*
X3502048D2*
X3508048D1*
X3559554D2*
X3566489D1*
X3445038Y2072843D2*
X3451657D1*
X3502048D2*
X3508048D1*
X3559287D2*
X3566298D1*
X3445101Y2071343D2*
X3452047D1*
X3502048D2*
X3508048D1*
X3559095D2*
X3565939D1*
X3445296Y2069843D2*
X3452362D1*
X3502048D2*
X3508048D1*
X3558840D2*
X3565548D1*
X3445662Y2068343D2*
X3452692D1*
X3502048D2*
X3508048D1*
X3558449D2*
X3565234D1*
X3446100Y2066843D2*
X3453121D1*
X3502048D2*
X3508048D1*
X3558001D2*
X3564904D1*
X3446553Y2065343D2*
X3453584D1*
X3502048D2*
X3508048D1*
X3557539D2*
X3564475D1*
X3447057Y2063843D2*
X3454053D1*
X3502048D2*
X3508048D1*
X3556987D2*
X3564011D1*
X3447558Y2062343D2*
X3454608D1*
X3502048D2*
X3508048D1*
X3556341D2*
X3563543D1*
X3448043Y2060843D2*
X3455254D1*
X3502048D2*
X3508048D1*
X3555641D2*
X3562988D1*
X3448604Y2059343D2*
X3455955D1*
X3502048D2*
X3508048D1*
X3554910D2*
X3562341D1*
X3449253Y2057843D2*
X3456686D1*
X3502048D2*
X3508048D1*
X3554169D2*
X3561641D1*
X3449960Y2056343D2*
X3457432D1*
X3502048D2*
X3508048D1*
X3553421D2*
X3560910D1*
X3450738Y2054843D2*
X3458228D1*
X3502048D2*
X3508048D1*
X3552667D2*
X3560163D1*
X3451624Y2053343D2*
X3459120D1*
X3551869D2*
X3559368D1*
X3452587Y2051843D2*
X3460091D1*
X3550976D2*
X3558476D1*
X3453504Y2050343D2*
X3461062D1*
X3550004D2*
X3557504D1*
X3454353Y2048843D2*
X3462103D1*
X3549033D2*
X3556539D1*
X3455202Y2047343D2*
X3463310D1*
X3547993D2*
X3555552D1*
X3456166Y2045843D2*
X3464660D1*
X3546785D2*
X3554536D1*
X3457336Y2044343D2*
X3466092D1*
X3545436D2*
X3553559D1*
X3458660Y2042843D2*
X3467563D1*
X3544007D2*
X3552576D1*
X3460048Y2041343D2*
X3469048D1*
X3542548D2*
X3551548D1*
X3875036Y3089205D2*
X3871009Y3087705D1*
X3868021Y3086205D1*
X3865852Y3084705D1*
X3865164Y3083205D1*
X3864798Y3081705D1*
X3864631Y3080205D1*
X3864536Y3078705D1*
X3887036Y3089205D2*
X3889741Y3087705D1*
X3892113Y3086205D1*
X3894056Y3084705D1*
X3895556Y3083205D1*
X3896605Y3081705D1*
X3897345Y3080205D1*
X3897964Y3078705D1*
X3898460Y3077205D1*
X3898766Y3075705D1*
X3898921Y3074205D1*
X3898991Y3072705D1*
X3899013Y3071205D1*
X3898971Y3069705D1*
X3898784Y3068205D1*
X3898420Y3066705D1*
X3897984Y3065205D1*
X3897525Y3063705D1*
X3896974Y3062205D1*
X3896329Y3060705D1*
X3895623Y3059205D1*
X3894839Y3057705D1*
X3893902Y3056205D1*
X3892741Y3054705D1*
X3891418Y3053205D1*
X3890046Y3051705D1*
X3888768Y3050205D1*
X3887639Y3048705D1*
X3886527Y3047205D1*
X3885290Y3045705D1*
X3883930Y3044205D1*
X3882494Y3042705D1*
X3881020Y3041205D1*
X3879530Y3039705D1*
X3878028Y3038205D1*
X3876471Y3036705D1*
X3874722Y3035205D1*
X3872618Y3033705D1*
X3870159Y3032205D1*
X3867536Y3030705D1*
X4043036Y3089205D2*
X4039919Y3087705D1*
X4037186Y3086205D1*
X4034861Y3084705D1*
X4032911Y3083205D1*
X4031246Y3081705D1*
X4029844Y3080205D1*
X4028672Y3078705D1*
X4027601Y3077205D1*
X4026602Y3075705D1*
X4025796Y3074205D1*
X4025161Y3072705D1*
X4024583Y3071205D1*
X4024097Y3069705D1*
X4023744Y3068205D1*
X4023400Y3066705D1*
X4022972Y3065205D1*
X4022559Y3063705D1*
X4022287Y3062205D1*
X4022144Y3060705D1*
X4022079Y3059205D1*
X4022052Y3057705D1*
X4022042Y3056205D1*
X4022038Y3054705D1*
X4022042Y3053205D1*
X4022095Y3051705D1*
X4022286Y3050205D1*
X4022645Y3048705D1*
X4023035Y3047205D1*
X4023350Y3045705D1*
X4023680Y3044205D1*
X4024109Y3042705D1*
X4024572Y3041205D1*
X4025041Y3039705D1*
X4025602Y3038205D1*
X4026301Y3036705D1*
X4027198Y3035205D1*
X4028341Y3033705D1*
X4029664Y3032205D1*
X4031092Y3030705D1*
X4032625Y3029205D1*
X4034419Y3027705D1*
X4036751Y3026205D1*
X4039721Y3024705D1*
X4043036Y3023205D1*
X4056536Y3089205D2*
X4060795Y3087705D1*
X4064155Y3086205D1*
X4066752Y3084705D1*
X4067831Y3083205D1*
X4068209Y3081705D1*
X4068403Y3080205D1*
X4068486Y3078705D1*
X4068519Y3077205D1*
X4068536Y3075705D1*
X3834536Y3087705D2*
X3833769Y3086205D1*
X3832964Y3084705D1*
X3831930Y3083205D1*
X3829360Y3081705D1*
X3826407Y3080205D1*
X3823915Y3078705D1*
X3822085Y3077205D1*
X3821527Y3075705D1*
X3821224Y3074205D1*
X3821036Y3072705D1*
X3831536D1*
Y3071205D1*
Y3069705D1*
Y3068205D1*
Y3066705D1*
Y3065205D1*
Y3063705D1*
Y3062205D1*
Y3060705D1*
Y3059205D1*
Y3057705D1*
Y3056205D1*
Y3054705D1*
Y3053205D1*
Y3051705D1*
Y3050205D1*
Y3048705D1*
Y3047205D1*
Y3045705D1*
Y3044205D1*
Y3042705D1*
Y3041205D1*
Y3039705D1*
Y3038205D1*
Y3036705D1*
Y3035205D1*
Y3033705D1*
Y3032205D1*
Y3030705D1*
Y3029205D1*
X3821036D1*
Y3027705D1*
Y3026205D1*
Y3024705D1*
X3839036Y3087705D2*
Y3086205D1*
Y3084705D1*
Y3083205D1*
Y3081705D1*
Y3080205D1*
Y3078705D1*
Y3077205D1*
Y3075705D1*
Y3074205D1*
Y3072705D1*
Y3071205D1*
Y3069705D1*
Y3068205D1*
Y3066705D1*
Y3065205D1*
Y3063705D1*
Y3062205D1*
Y3060705D1*
Y3059205D1*
Y3057705D1*
Y3056205D1*
Y3054705D1*
Y3053205D1*
Y3051705D1*
Y3050205D1*
Y3048705D1*
Y3047205D1*
Y3045705D1*
Y3044205D1*
Y3042705D1*
Y3041205D1*
Y3039705D1*
Y3038205D1*
Y3036705D1*
Y3035205D1*
Y3033705D1*
Y3032205D1*
Y3030705D1*
Y3029205D1*
X3851036D1*
Y3027705D1*
Y3026205D1*
Y3024705D1*
X3906536Y3087705D2*
X3907286Y3086205D1*
X3907909Y3084705D1*
X3908492Y3083205D1*
X3909026Y3081705D1*
X3909518Y3080205D1*
X3910037Y3078705D1*
X3910543Y3077205D1*
X3911024Y3075705D1*
X3911539Y3074205D1*
X3912044Y3072705D1*
X3912524Y3071205D1*
X3913039Y3069705D1*
X3913544Y3068205D1*
X3914025Y3066705D1*
X3914539Y3065205D1*
X3915044Y3063705D1*
X3915525Y3062205D1*
X3916039Y3060705D1*
X3916544Y3059205D1*
X3917025Y3057705D1*
X3917539Y3056205D1*
X3918044Y3054705D1*
X3918525Y3053205D1*
X3919039Y3051705D1*
X3919544Y3050205D1*
X3920025Y3048705D1*
X3920539Y3047205D1*
X3921044Y3045705D1*
X3921525Y3044205D1*
X3922039Y3042705D1*
X3922544Y3041205D1*
X3923025Y3039705D1*
X3923539Y3038205D1*
X3924044Y3036705D1*
X3924525Y3035205D1*
X3925039Y3033705D1*
X3925544Y3032205D1*
X3926030Y3030705D1*
X3926597Y3029205D1*
X3927284Y3027705D1*
X3928110Y3026205D1*
X3929036Y3024705D1*
X3914036Y3087705D2*
X3914786Y3086205D1*
X3915409Y3084705D1*
X3915992Y3083205D1*
X3916526Y3081705D1*
X3917018Y3080205D1*
X3917537Y3078705D1*
X3918043Y3077205D1*
X3918524Y3075705D1*
X3919039Y3074205D1*
X3919544Y3072705D1*
X3920024Y3071205D1*
X3920539Y3069705D1*
X3921044Y3068205D1*
X3921525Y3066705D1*
X3922039Y3065205D1*
X3922544Y3063705D1*
X3923025Y3062205D1*
X3923539Y3060705D1*
X3924044Y3059205D1*
X3924525Y3057705D1*
X3925039Y3056205D1*
X3925544Y3054705D1*
X3926025Y3053205D1*
X3926539Y3051705D1*
X3927044Y3050205D1*
X3927525Y3048705D1*
X3928039Y3047205D1*
X3928544Y3045705D1*
X3929025Y3044205D1*
X3929545Y3042705D1*
X3930112Y3041205D1*
X3930866Y3039705D1*
X3932049Y3038205D1*
X3933536Y3036705D1*
X3951536Y3087705D2*
X3950786Y3086205D1*
X3950163Y3084705D1*
X3949580Y3083205D1*
X3949046Y3081705D1*
X3948554Y3080205D1*
X3948035Y3078705D1*
X3947529Y3077205D1*
X3947048Y3075705D1*
X3946533Y3074205D1*
X3946028Y3072705D1*
X3945547Y3071205D1*
X3945033Y3069705D1*
X3944528Y3068205D1*
X3944047Y3066705D1*
X3943533Y3065205D1*
X3943028Y3063705D1*
X3942547Y3062205D1*
X3942033Y3060705D1*
X3941528Y3059205D1*
X3941047Y3057705D1*
X3940533Y3056205D1*
X3940028Y3054705D1*
X3939547Y3053205D1*
X3939033Y3051705D1*
X3938528Y3050205D1*
X3938047Y3048705D1*
X3937533Y3047205D1*
X3937028Y3045705D1*
X3936547Y3044205D1*
X3936027Y3042705D1*
X3935460Y3041205D1*
X3934706Y3039705D1*
X3933523Y3038205D1*
X3932036Y3036705D1*
X3957536Y3087705D2*
X3957304Y3086205D1*
X3956926Y3084705D1*
X3956485Y3083205D1*
X3956031Y3081705D1*
X3955527Y3080205D1*
X3955026Y3078705D1*
X3954547Y3077205D1*
X3954032Y3075705D1*
X3953528Y3074205D1*
X3953047Y3072705D1*
X3952533Y3071205D1*
X3952028Y3069705D1*
X3951547Y3068205D1*
X3951033Y3066705D1*
X3950528Y3065205D1*
X3950047Y3063705D1*
X3949533Y3062205D1*
X3949028Y3060705D1*
X3948547Y3059205D1*
X3948033Y3057705D1*
X3947528Y3056205D1*
X3947047Y3054705D1*
X3946533Y3053205D1*
X3946028Y3051705D1*
X3945547Y3050205D1*
X3945033Y3048705D1*
X3944528Y3047205D1*
X3944047Y3045705D1*
X3943533Y3044205D1*
X3943028Y3042705D1*
X3942547Y3041205D1*
X3942033Y3039705D1*
X3941528Y3038205D1*
X3941047Y3036705D1*
X3940533Y3035205D1*
X3940028Y3033705D1*
X3939542Y3032205D1*
X3938980Y3030705D1*
X3938336Y3029205D1*
X3937673Y3027705D1*
X3937069Y3026205D1*
X3936536Y3024705D1*
X3966536Y3087705D2*
Y3086205D1*
Y3084705D1*
Y3083205D1*
Y3081705D1*
Y3080205D1*
Y3078705D1*
Y3077205D1*
Y3075705D1*
Y3074205D1*
Y3072705D1*
Y3071205D1*
Y3069705D1*
Y3068205D1*
Y3066705D1*
Y3065205D1*
Y3063705D1*
Y3062205D1*
Y3060705D1*
Y3059205D1*
Y3057705D1*
Y3056205D1*
Y3054705D1*
Y3053205D1*
Y3051705D1*
Y3050205D1*
Y3048705D1*
Y3047205D1*
Y3045705D1*
Y3044205D1*
Y3042705D1*
Y3041205D1*
Y3039705D1*
Y3038205D1*
Y3036705D1*
Y3035205D1*
Y3033705D1*
Y3032205D1*
Y3030705D1*
Y3029205D1*
Y3027705D1*
Y3026205D1*
Y3024705D1*
X3990536Y3087705D2*
X3994858Y3086205D1*
X3998469Y3084705D1*
X4001295Y3083205D1*
X4003495Y3081705D1*
X4005318Y3080205D1*
X4006948Y3078705D1*
X4008448Y3077205D1*
X4009770Y3075705D1*
X4010859Y3074205D1*
X4011733Y3072705D1*
X4012416Y3071205D1*
X4012974Y3069705D1*
X4013515Y3068205D1*
X4013979Y3066705D1*
X4014273Y3065205D1*
X4014424Y3063705D1*
X4014492Y3062205D1*
X4014519Y3060705D1*
X4014530Y3059205D1*
X4014534Y3057705D1*
X4014535Y3056205D1*
X4014536Y3054705D1*
Y3053205D1*
Y3051705D1*
X4014530Y3050205D1*
X4014477Y3048705D1*
X4014280Y3047205D1*
X4013868Y3045705D1*
X4013287Y3044205D1*
X4012613Y3042705D1*
X4011892Y3041205D1*
X4011149Y3039705D1*
X4010350Y3038205D1*
X4009405Y3036705D1*
X4008243Y3035205D1*
X4006906Y3033705D1*
X4005423Y3032205D1*
X4003692Y3030705D1*
X4001481Y3029205D1*
X3998529Y3027705D1*
X3994761Y3026205D1*
X3990536Y3024705D1*
X3879536Y3083205D2*
X3875312Y3081705D1*
X3871338Y3080205D1*
X3867536Y3078705D1*
X3882536Y3083205D2*
X3885184Y3081705D1*
X3887363Y3080205D1*
X3888947Y3078705D1*
X3890057Y3077205D1*
X3890791Y3075705D1*
X3891201Y3074205D1*
X3891392Y3072705D1*
X3891424Y3071205D1*
X3891267Y3069705D1*
X3890914Y3068205D1*
X3890481Y3066705D1*
X3890024Y3065205D1*
X3889468Y3063705D1*
X3888776Y3062205D1*
X3887932Y3060705D1*
X3886980Y3059205D1*
X3886017Y3057705D1*
X3884980Y3056205D1*
X3883779Y3054705D1*
X3882482Y3053205D1*
X3881241Y3051705D1*
X3880128Y3050205D1*
X3879024Y3048705D1*
X3877789Y3047205D1*
X3876430Y3045705D1*
X3874994Y3044205D1*
X3873520Y3042705D1*
X3872030Y3041205D1*
X3870534Y3039705D1*
X3869035Y3038205D1*
X3867542Y3036705D1*
X3866100Y3035205D1*
X3864850Y3033705D1*
X3863959Y3032205D1*
X3863453Y3030705D1*
X3863208Y3029205D1*
X3863102Y3027705D1*
X3863059Y3026205D1*
X3863036Y3024705D1*
X4047536Y3083205D2*
X4044599Y3081705D1*
X4041850Y3080205D1*
X4039465Y3078705D1*
X4037511Y3077205D1*
X4035964Y3075705D1*
X4034770Y3074205D1*
X4033809Y3072705D1*
X4032973Y3071205D1*
X4032241Y3069705D1*
X4031667Y3068205D1*
X4031273Y3066705D1*
X4030911Y3065205D1*
X4030476Y3063705D1*
X4030060Y3062205D1*
X4029787Y3060705D1*
X4029644Y3059205D1*
X4029579Y3057705D1*
X4029552Y3056205D1*
X4029548Y3054705D1*
X4029597Y3053205D1*
X4029786Y3051705D1*
X4030145Y3050205D1*
X4030535Y3048705D1*
X4030850Y3047205D1*
X4031186Y3045705D1*
X4031661Y3044205D1*
X4032269Y3042705D1*
X4032959Y3041205D1*
X4033736Y3039705D1*
X4034672Y3038205D1*
X4035843Y3036705D1*
X4037330Y3035205D1*
X4039140Y3033705D1*
X4043824Y3032205D1*
X4050917Y3030705D1*
X4059536Y3029205D1*
X4052036Y3083205D2*
X4056178Y3081705D1*
X4059805Y3080205D1*
X4062705Y3078705D1*
X4065001Y3077205D1*
X4067036Y3075705D1*
X3972536Y3081705D2*
Y3080205D1*
Y3078705D1*
Y3077205D1*
Y3075705D1*
Y3074205D1*
Y3072705D1*
Y3071205D1*
Y3069705D1*
Y3068205D1*
Y3066705D1*
Y3065205D1*
Y3063705D1*
Y3062205D1*
Y3060705D1*
Y3059205D1*
Y3057705D1*
Y3056205D1*
Y3054705D1*
Y3053205D1*
Y3051705D1*
Y3050205D1*
Y3048705D1*
Y3047205D1*
Y3045705D1*
Y3044205D1*
Y3042705D1*
Y3041205D1*
Y3039705D1*
Y3038205D1*
Y3036705D1*
Y3035205D1*
Y3033705D1*
Y3032205D1*
X3989036Y3030705D1*
X3983036Y3081705D2*
X3988383Y3080205D1*
X3992887Y3078705D1*
X3996282Y3077205D1*
X3998770Y3075705D1*
X4000673Y3074205D1*
X4002166Y3072705D1*
X4003327Y3071205D1*
X4004272Y3069705D1*
X4005102Y3068205D1*
X4005832Y3066705D1*
X4006399Y3065205D1*
X4006740Y3063705D1*
X4006912Y3062205D1*
X4006987Y3060705D1*
X4007018Y3059205D1*
X4007030Y3057705D1*
X4007034Y3056205D1*
X4007035Y3054705D1*
X4007036Y3053205D1*
X4007030Y3051705D1*
X4006977Y3050205D1*
X4006786Y3048705D1*
X4006421Y3047205D1*
X4005978Y3045705D1*
X4005467Y3044205D1*
X4004718Y3042705D1*
X4003661Y3041205D1*
X4002374Y3039705D1*
X4000905Y3038205D1*
X3999071Y3036705D1*
X3996098Y3035205D1*
X3990458Y3033705D1*
X3981116Y3032205D1*
X3969536Y3030705D1*
X4067036Y3035205D2*
X4063311Y3033705D1*
X4058063Y3032205D1*
X4050508Y3030705D1*
X4041536Y3029205D1*
X4068536Y3035205D2*
Y3033705D1*
X4068524Y3032205D1*
X4068407Y3030705D1*
X4068126Y3029205D1*
X4066925Y3027705D1*
X4064206Y3026205D1*
X4060626Y3024705D1*
X4056536Y3023205D1*
X3902036Y3030705D2*
Y3029205D1*
Y3027705D1*
Y3026205D1*
Y3024705D1*
X3781193Y2967485D2*
Y2965985D1*
Y2964485D1*
Y2962985D1*
Y2961485D1*
Y2959985D1*
Y2958485D1*
Y2956985D1*
Y2955485D1*
Y2953985D1*
Y2952485D1*
Y2950985D1*
Y2949485D1*
Y2947985D1*
Y2946485D1*
Y2944985D1*
Y2943485D1*
Y2941985D1*
Y2940485D1*
Y2938985D1*
Y2937485D1*
Y2935985D1*
Y2934485D1*
Y2932985D1*
Y2931485D1*
Y2929985D1*
Y2928485D1*
Y2926985D1*
Y2925485D1*
Y2923985D1*
Y2922485D1*
Y2920985D1*
Y2919485D1*
Y2917985D1*
Y2916485D1*
Y2914985D1*
Y2913485D1*
Y2911985D1*
Y2910485D1*
Y2908985D1*
Y2907485D1*
Y2905985D1*
Y2904485D1*
X3805193Y2967485D2*
X3808591Y2965985D1*
X3811399Y2964485D1*
X3813614Y2962985D1*
X3815401Y2961485D1*
X3816849Y2959985D1*
X3817988Y2958485D1*
X3818874Y2956985D1*
X3819511Y2955485D1*
X3819881Y2953985D1*
X3820063Y2952485D1*
X3820143Y2950985D1*
X3820175Y2949485D1*
X3820187Y2947985D1*
X3820185Y2946485D1*
X3820134Y2944985D1*
X3819938Y2943485D1*
X3819520Y2941985D1*
X3818891Y2940485D1*
X3818068Y2938985D1*
X3817073Y2937485D1*
X3815917Y2935985D1*
X3814457Y2934485D1*
X3812517Y2932985D1*
X3809648Y2931485D1*
X3804858Y2929985D1*
X3797528Y2928485D1*
X3788693Y2926985D1*
Y2925485D1*
Y2923985D1*
Y2922485D1*
Y2920985D1*
Y2919485D1*
Y2917985D1*
Y2916485D1*
Y2914985D1*
Y2913485D1*
Y2911985D1*
Y2910485D1*
Y2908985D1*
Y2907485D1*
Y2905985D1*
Y2904485D1*
X4046693Y2967485D2*
Y2965985D1*
Y2964485D1*
Y2962985D1*
Y2961485D1*
Y2959985D1*
X4054193D1*
Y2958485D1*
Y2956985D1*
Y2955485D1*
Y2953985D1*
Y2952485D1*
Y2950985D1*
Y2949485D1*
Y2947985D1*
Y2946485D1*
Y2944985D1*
Y2943485D1*
Y2941985D1*
Y2940485D1*
Y2938985D1*
Y2937485D1*
Y2935985D1*
Y2934485D1*
Y2932985D1*
Y2931485D1*
Y2929985D1*
Y2928485D1*
Y2926985D1*
Y2925485D1*
Y2923985D1*
Y2922485D1*
Y2920985D1*
Y2919485D1*
Y2917985D1*
Y2916485D1*
Y2914985D1*
Y2913485D1*
Y2911985D1*
Y2910485D1*
X4046693D1*
Y2908985D1*
Y2907485D1*
Y2905985D1*
Y2904485D1*
X4070693Y2967485D2*
Y2965985D1*
Y2964485D1*
Y2962985D1*
Y2961485D1*
Y2959985D1*
X4061693D1*
Y2958485D1*
Y2956985D1*
Y2955485D1*
Y2953985D1*
Y2952485D1*
Y2950985D1*
Y2949485D1*
Y2947985D1*
Y2946485D1*
Y2944985D1*
Y2943485D1*
Y2941985D1*
Y2940485D1*
Y2938985D1*
Y2937485D1*
Y2935985D1*
Y2934485D1*
Y2932985D1*
Y2931485D1*
Y2929985D1*
Y2928485D1*
Y2926985D1*
Y2925485D1*
Y2923985D1*
Y2922485D1*
Y2920985D1*
Y2919485D1*
Y2917985D1*
Y2916485D1*
Y2914985D1*
Y2913485D1*
Y2911985D1*
Y2910485D1*
X4070693D1*
Y2908985D1*
Y2907485D1*
Y2905985D1*
Y2904485D1*
X3788693Y2961485D2*
Y2959985D1*
Y2958485D1*
Y2956985D1*
Y2955485D1*
Y2953985D1*
Y2952485D1*
Y2950985D1*
Y2949485D1*
Y2947985D1*
Y2946485D1*
Y2944985D1*
Y2943485D1*
Y2941985D1*
Y2940485D1*
Y2938985D1*
Y2937485D1*
Y2935985D1*
X3802193Y2934485D1*
X3799193Y2961485D2*
X3803104Y2959985D1*
X3806352Y2958485D1*
X3808799Y2956985D1*
X3810536Y2955485D1*
X3811831Y2953985D1*
X3812276Y2952485D1*
X3812516Y2950985D1*
X3812624Y2949485D1*
X3812662Y2947985D1*
X3812626Y2946485D1*
X3812435Y2944985D1*
X3812013Y2943485D1*
X3811321Y2941985D1*
X3810405Y2940485D1*
X3807956Y2938985D1*
X3803511Y2937485D1*
X3796223Y2935985D1*
X3787193Y2934485D1*
X3841193Y2952485D2*
X3838488Y2950985D1*
X3836111Y2949485D1*
X3834114Y2947985D1*
X3832424Y2946485D1*
X3831015Y2944985D1*
X3829891Y2943485D1*
X3829004Y2941985D1*
X3828316Y2940485D1*
X3827756Y2938985D1*
X3827215Y2937485D1*
X3826751Y2935985D1*
X3826457Y2934485D1*
X3826306Y2932985D1*
X3826238Y2931485D1*
X3826210Y2929985D1*
X3826199Y2928485D1*
X3826195Y2926985D1*
X3826194Y2925485D1*
X3826200Y2923985D1*
X3826252Y2922485D1*
X3826443Y2920985D1*
X3826808Y2919485D1*
X3827246Y2917985D1*
X3827704Y2916485D1*
X3828261Y2914985D1*
X3828959Y2913485D1*
X3829856Y2911985D1*
X3831005Y2910485D1*
X3832386Y2908985D1*
X3834057Y2907485D1*
X3836129Y2905985D1*
X3838576Y2904485D1*
X3841193Y2902985D1*
X3853193Y2952485D2*
X3855899Y2950985D1*
X3858270Y2949485D1*
X3860220Y2947985D1*
X3861766Y2946485D1*
X3862960Y2944985D1*
X3863920Y2943485D1*
X3864756Y2941985D1*
X3865488Y2940485D1*
X3866062Y2938985D1*
X3866456Y2937485D1*
X3866819Y2935985D1*
X3867254Y2934485D1*
X3867669Y2932985D1*
X3867942Y2931485D1*
X3868086Y2929985D1*
X3868151Y2928485D1*
X3868172Y2926985D1*
X3868129Y2925485D1*
X3867942Y2923985D1*
X3867584Y2922485D1*
X3867194Y2920985D1*
X3866880Y2919485D1*
X3866543Y2917985D1*
X3866068Y2916485D1*
X3865460Y2914985D1*
X3864770Y2913485D1*
X3863993Y2911985D1*
X3863052Y2910485D1*
X3861834Y2908985D1*
X3860255Y2907485D1*
X3858227Y2905985D1*
X3855800Y2904485D1*
X3853193Y2902985D1*
X3956693Y2952485D2*
X3953296Y2950985D1*
X3950494Y2949485D1*
X3948326Y2947985D1*
X3946683Y2946485D1*
X3945450Y2944985D1*
X3944475Y2943485D1*
X3943633Y2941985D1*
X3942894Y2940485D1*
X3942272Y2938985D1*
X3941739Y2937485D1*
X3941209Y2935985D1*
X3940749Y2934485D1*
X3940456Y2932985D1*
X3940306Y2931485D1*
X3940238Y2929985D1*
X3940210Y2928485D1*
X3940199Y2926985D1*
X3940195Y2925485D1*
X3940200Y2923985D1*
X3940252Y2922485D1*
X3940443Y2920985D1*
X3940808Y2919485D1*
X3941246Y2917985D1*
X3941704Y2916485D1*
X3942261Y2914985D1*
X3942959Y2913485D1*
X3943856Y2911985D1*
X3945005Y2910485D1*
X3946392Y2908985D1*
X3948120Y2907485D1*
X3950424Y2905985D1*
X3953384Y2904485D1*
X3956693Y2902985D1*
X3967193Y2952485D2*
X3970078Y2950985D1*
X3972434Y2949485D1*
X3974317Y2947985D1*
X3975814Y2946485D1*
X3976974Y2944985D1*
X3977869Y2943485D1*
X3978515Y2941985D1*
X3978939Y2940485D1*
X3979313Y2938985D1*
X3979752Y2937485D1*
X3980168Y2935985D1*
X3980442Y2934485D1*
X3980585Y2932985D1*
X3980651Y2931485D1*
X3980677Y2929985D1*
X3980688Y2928485D1*
X3980693Y2926985D1*
X4099193Y2952485D2*
X4096426Y2950985D1*
X4093811Y2949485D1*
X4091261Y2947985D1*
X4088693Y2946485D1*
X4108193Y2952485D2*
X4110386Y2950985D1*
X4112311Y2949485D1*
X4113970Y2947985D1*
X4115317Y2946485D1*
X4116253Y2944985D1*
X4116827Y2943485D1*
X4117268Y2941985D1*
X4117735Y2940485D1*
X4118162Y2938985D1*
X4118440Y2937485D1*
X4118585Y2935985D1*
X4118650Y2934485D1*
X4118677Y2932985D1*
X4118688Y2931485D1*
X4118691Y2929985D1*
X4118693Y2928485D1*
Y2926985D1*
Y2925485D1*
Y2923985D1*
Y2922485D1*
Y2920985D1*
Y2919485D1*
Y2917985D1*
Y2916485D1*
Y2914985D1*
Y2913485D1*
Y2911985D1*
Y2910485D1*
Y2908985D1*
Y2907485D1*
Y2905985D1*
Y2904485D1*
X3872693Y2950985D2*
X3873392Y2949485D1*
X3873875Y2947985D1*
X3874284Y2946485D1*
X3874740Y2944985D1*
X3875170Y2943485D1*
X3875499Y2941985D1*
X3875835Y2940485D1*
X3876259Y2938985D1*
X3876677Y2937485D1*
X3877002Y2935985D1*
X3877336Y2934485D1*
X3877760Y2932985D1*
X3878177Y2931485D1*
X3878502Y2929985D1*
X3878836Y2928485D1*
X3879260Y2926985D1*
X3879677Y2925485D1*
X3880002Y2923985D1*
X3880336Y2922485D1*
X3880760Y2920985D1*
X3881177Y2919485D1*
X3881502Y2917985D1*
X3881836Y2916485D1*
X3882266Y2914985D1*
X3882730Y2913485D1*
X3883193Y2911985D1*
X3883695Y2910485D1*
X3884144Y2908985D1*
X3884434Y2907485D1*
X3884591Y2905985D1*
X3884693Y2904485D1*
X3880193Y2950985D2*
X3880425Y2949485D1*
X3880797Y2947985D1*
X3881191Y2946485D1*
X3881507Y2944985D1*
X3881837Y2943485D1*
X3882260Y2941985D1*
X3882677Y2940485D1*
X3883002Y2938985D1*
X3883336Y2937485D1*
X3883760Y2935985D1*
X3884177Y2934485D1*
X3884502Y2932985D1*
X3884836Y2931485D1*
X3885260Y2929985D1*
X3885671Y2928485D1*
X3885949Y2926985D1*
X3886144Y2925485D1*
X3886400Y2923985D1*
X3886786Y2922485D1*
X3887187Y2920985D1*
X3887510Y2919485D1*
X3887882Y2917985D1*
X3888462Y2916485D1*
X3889193Y2914985D1*
X3901193Y2950985D2*
X3900675Y2949485D1*
X3900176Y2947985D1*
X3899700Y2946485D1*
X3899194Y2944985D1*
X3898737Y2943485D1*
X3898396Y2941985D1*
X3898055Y2940485D1*
X3897623Y2938985D1*
X3897158Y2937485D1*
X3896694Y2935985D1*
X3896186Y2934485D1*
X3895684Y2932985D1*
X3895204Y2931485D1*
X3894690Y2929985D1*
X3894185Y2928485D1*
X3893705Y2926985D1*
X3893196Y2925485D1*
X3892738Y2923985D1*
X3892396Y2922485D1*
X3892049Y2920985D1*
X3891565Y2919485D1*
X3890917Y2917985D1*
X3890109Y2916485D1*
X3889193Y2914985D1*
X3907193Y2950985D2*
X3907712Y2949485D1*
X3908211Y2947985D1*
X3908687Y2946485D1*
X3909199Y2944985D1*
X3909702Y2943485D1*
X3910182Y2941985D1*
X3910691Y2940485D1*
X3911149Y2938985D1*
X3911491Y2937485D1*
X3911832Y2935985D1*
X3912264Y2934485D1*
X3912729Y2932985D1*
X3913193Y2931485D1*
X3913701Y2929985D1*
X3914203Y2928485D1*
X3914682Y2926985D1*
X3915197Y2925485D1*
X3915702Y2923985D1*
X3916182Y2922485D1*
X3916697Y2920985D1*
X3917206Y2919485D1*
X3917728Y2917985D1*
X3918399Y2916485D1*
X3919193Y2914985D1*
X3928193Y2950985D2*
X3927681Y2949485D1*
X3927234Y2947985D1*
X3926944Y2946485D1*
X3926744Y2944985D1*
X3926487Y2943485D1*
X3926101Y2941985D1*
X3925700Y2940485D1*
X3925382Y2938985D1*
X3925050Y2937485D1*
X3924627Y2935985D1*
X3924216Y2934485D1*
X3923938Y2932985D1*
X3923742Y2931485D1*
X3923486Y2929985D1*
X3923100Y2928485D1*
X3922700Y2926985D1*
X3922382Y2925485D1*
X3922050Y2923985D1*
X3921627Y2922485D1*
X3921210Y2920985D1*
X3920881Y2919485D1*
X3920506Y2917985D1*
X3919926Y2916485D1*
X3919193Y2914985D1*
X3934193Y2950985D2*
X3934136Y2949485D1*
X3933944Y2947985D1*
X3933585Y2946485D1*
X3933194Y2944985D1*
X3932880Y2943485D1*
X3932549Y2941985D1*
X3932126Y2940485D1*
X3931710Y2938985D1*
X3931385Y2937485D1*
X3931051Y2935985D1*
X3930627Y2934485D1*
X3930210Y2932985D1*
X3929885Y2931485D1*
X3929551Y2929985D1*
X3929127Y2928485D1*
X3928710Y2926985D1*
X3928385Y2925485D1*
X3928051Y2923985D1*
X3927627Y2922485D1*
X3927210Y2920985D1*
X3926885Y2919485D1*
X3926551Y2917985D1*
X3926127Y2916485D1*
X3925710Y2914985D1*
X3925385Y2913485D1*
X3925051Y2911985D1*
X3924621Y2910485D1*
X3924153Y2908985D1*
X3923648Y2907485D1*
X3922984Y2905985D1*
X3922193Y2904485D1*
X3989693Y2950985D2*
Y2949485D1*
Y2947985D1*
Y2946485D1*
Y2944985D1*
Y2943485D1*
Y2941985D1*
Y2940485D1*
Y2938985D1*
Y2937485D1*
Y2935985D1*
Y2934485D1*
Y2932985D1*
Y2931485D1*
Y2929985D1*
Y2928485D1*
Y2926985D1*
Y2925485D1*
Y2923985D1*
Y2922485D1*
Y2920985D1*
Y2919485D1*
Y2917985D1*
Y2916485D1*
Y2914985D1*
Y2913485D1*
Y2911985D1*
Y2910485D1*
Y2908985D1*
Y2907485D1*
Y2905985D1*
Y2904485D1*
X3997193Y2950985D2*
X3997255Y2949485D1*
X3997488Y2947985D1*
X3998001Y2946485D1*
X3998693Y2944985D1*
X4007693Y2950985D2*
X4004926Y2949485D1*
X4002311Y2947985D1*
X3999761Y2946485D1*
X3997193Y2944985D1*
X4013693Y2950985D2*
Y2949485D1*
Y2947985D1*
Y2946485D1*
Y2944985D1*
Y2943485D1*
X4007993Y2941985D1*
X4003579Y2940485D1*
X4000121Y2938985D1*
X3998443Y2937485D1*
X3997789Y2935985D1*
X3997443Y2934485D1*
X3997290Y2932985D1*
X3997229Y2931485D1*
X3997206Y2929985D1*
X3997198Y2928485D1*
X3997195Y2926985D1*
X3997194Y2925485D1*
Y2923985D1*
X3997193Y2922485D1*
Y2920985D1*
Y2919485D1*
Y2917985D1*
Y2916485D1*
Y2914985D1*
Y2913485D1*
Y2911985D1*
Y2910485D1*
Y2908985D1*
Y2907485D1*
Y2905985D1*
Y2904485D1*
X4081193Y2950985D2*
Y2949485D1*
Y2947985D1*
Y2946485D1*
Y2944985D1*
Y2943485D1*
Y2941985D1*
Y2940485D1*
Y2938985D1*
Y2937485D1*
Y2935985D1*
Y2934485D1*
Y2932985D1*
Y2931485D1*
Y2929985D1*
Y2928485D1*
Y2926985D1*
Y2925485D1*
Y2923985D1*
Y2922485D1*
Y2920985D1*
Y2919485D1*
Y2917985D1*
Y2916485D1*
Y2914985D1*
Y2913485D1*
Y2911985D1*
Y2910485D1*
Y2908985D1*
Y2907485D1*
Y2905985D1*
Y2904485D1*
X4088693Y2950985D2*
X4088969Y2949485D1*
X4089496Y2947985D1*
X4090193Y2946485D1*
X3844193D2*
X3841545Y2944985D1*
X3839366Y2943485D1*
X3837776Y2941985D1*
X3836614Y2940485D1*
X3835688Y2938985D1*
X3834920Y2937485D1*
X3834338Y2935985D1*
X3833992Y2934485D1*
X3833819Y2932985D1*
X3833742Y2931485D1*
X3833712Y2929985D1*
X3833700Y2928485D1*
X3833696Y2926985D1*
X3833694Y2925485D1*
X3833700Y2923985D1*
X3833752Y2922485D1*
X3833949Y2920985D1*
X3834361Y2919485D1*
X3834943Y2917985D1*
X3835634Y2916485D1*
X3836554Y2914985D1*
X3837778Y2913485D1*
X3841673Y2911985D1*
X3847568Y2910485D1*
X3854693Y2908985D1*
X3848693Y2946485D2*
X3851399Y2944985D1*
X3853770Y2943485D1*
X3855714Y2941985D1*
X3857214Y2940485D1*
X3858263Y2938985D1*
X3859002Y2937485D1*
X3859622Y2935985D1*
X3860118Y2934485D1*
X3860423Y2932985D1*
X3860579Y2931485D1*
X3860648Y2929985D1*
X3860677Y2928485D1*
X3860687Y2926985D1*
X3860686Y2925485D1*
X3860634Y2923985D1*
X3860443Y2922485D1*
X3860079Y2920985D1*
X3859635Y2919485D1*
X3859124Y2917985D1*
X3858370Y2916485D1*
X3857225Y2914985D1*
X3855765Y2913485D1*
X3852330Y2911985D1*
X3847280Y2910485D1*
X3841193Y2908985D1*
X3958193Y2946485D2*
X3955494Y2944985D1*
X3953170Y2943485D1*
X3951364Y2941985D1*
X3950038Y2940485D1*
X3949067Y2938985D1*
X3948396Y2937485D1*
X3948013Y2935985D1*
X3947826Y2934485D1*
X3947742Y2932985D1*
X3947693Y2931485D1*
X3964193Y2946485D2*
X3966842Y2944985D1*
X3969021Y2943485D1*
X3970605Y2941985D1*
X3971714Y2940485D1*
X3972449Y2938985D1*
X3972858Y2937485D1*
X3973055Y2935985D1*
X3973140Y2934485D1*
X3973175Y2932985D1*
X3973193Y2931485D1*
X4102193Y2946485D2*
X4098232Y2944985D1*
X4094844Y2943485D1*
X4092229Y2941985D1*
X4090175Y2940485D1*
X4089415Y2938985D1*
X4089001Y2937485D1*
X4088814Y2935985D1*
X4088738Y2934485D1*
X4088709Y2932985D1*
X4088699Y2931485D1*
X4088695Y2929985D1*
X4088694Y2928485D1*
Y2926985D1*
X4088693Y2925485D1*
Y2923985D1*
Y2922485D1*
Y2920985D1*
Y2919485D1*
Y2917985D1*
Y2916485D1*
Y2914985D1*
Y2913485D1*
Y2911985D1*
Y2910485D1*
Y2908985D1*
Y2907485D1*
Y2905985D1*
Y2904485D1*
X4105193Y2946485D2*
X4106688Y2944985D1*
X4108129Y2943485D1*
X4109379Y2941985D1*
X4110270Y2940485D1*
X4110777Y2938985D1*
X4111021Y2937485D1*
X4111127Y2935985D1*
X4111169Y2934485D1*
X4111185Y2932985D1*
X4111191Y2931485D1*
X4111192Y2929985D1*
X4111193Y2928485D1*
Y2926985D1*
Y2925485D1*
Y2923985D1*
Y2922485D1*
Y2920985D1*
Y2919485D1*
Y2917985D1*
Y2916485D1*
Y2914985D1*
Y2913485D1*
Y2911985D1*
Y2910485D1*
Y2908985D1*
Y2907485D1*
Y2905985D1*
Y2904485D1*
X3902693Y2940485D2*
X3902462Y2938985D1*
X3902084Y2937485D1*
X3901643Y2935985D1*
X3901189Y2934485D1*
X3900690Y2932985D1*
X3900236Y2931485D1*
X3899895Y2929985D1*
X3899555Y2928485D1*
X3899123Y2926985D1*
X3898658Y2925485D1*
X3898194Y2923985D1*
X3897686Y2922485D1*
X3897184Y2920985D1*
X3896704Y2919485D1*
X3896190Y2917985D1*
X3895685Y2916485D1*
X3895205Y2914985D1*
X3894690Y2913485D1*
X3894185Y2911985D1*
X3893705Y2910485D1*
X3893196Y2908985D1*
X3892740Y2907485D1*
X3892427Y2905985D1*
X3892193Y2904485D1*
X3905693Y2940485D2*
X3905751Y2938985D1*
X3905943Y2937485D1*
X3906308Y2935985D1*
X3906746Y2934485D1*
X3907198Y2932985D1*
X3907703Y2931485D1*
X3908204Y2929985D1*
X3908683Y2928485D1*
X3909191Y2926985D1*
X3909649Y2925485D1*
X3909991Y2923985D1*
X3910332Y2922485D1*
X3910764Y2920985D1*
X3911229Y2919485D1*
X3911693Y2917985D1*
X3912201Y2916485D1*
X3912703Y2914985D1*
X3913182Y2913485D1*
X3913697Y2911985D1*
X3914202Y2910485D1*
X3914683Y2908985D1*
X3915205Y2907485D1*
X3915722Y2905985D1*
X3916193Y2904485D1*
X3944693Y2926985D2*
X3945899Y2925485D1*
X3946776Y2923985D1*
X3947284Y2922485D1*
X3947586Y2920985D1*
X3947941Y2919485D1*
X3948592Y2917985D1*
X3949608Y2916485D1*
X3950974Y2914985D1*
X3952626Y2913485D1*
X3956881Y2911985D1*
X3963511Y2910485D1*
X3971693Y2908985D1*
X3977693Y2913485D2*
X3971685Y2911985D1*
X3963438Y2910485D1*
X3953693Y2908985D1*
X3979193Y2913485D2*
Y2911985D1*
X3979176Y2910485D1*
X3979000Y2908985D1*
X3978578Y2907485D1*
X3976522Y2905985D1*
X3973583Y2904485D1*
X3970193Y2902985D1*
X3460048Y2125343D2*
X3458605Y2123843D1*
X3457303Y2122343D1*
X3456215Y2120843D1*
X3455291Y2119343D1*
X3454418Y2117843D1*
X3453494Y2116343D1*
X3452517Y2114843D1*
X3451594Y2113343D1*
X3450749Y2111843D1*
X3449959Y2110343D1*
X3449238Y2108843D1*
X3448623Y2107343D1*
X3448093Y2105843D1*
X3447557Y2104343D1*
X3447044Y2102843D1*
X3446561Y2101343D1*
X3446051Y2099843D1*
X3445598Y2098343D1*
X3445309Y2096843D1*
X3445159Y2095343D1*
X3445092Y2093843D1*
X3445058Y2092343D1*
X3444995Y2090843D1*
X3444800Y2089343D1*
X3444439Y2087843D1*
X3444054Y2086343D1*
X3443798Y2084843D1*
X3443712Y2083343D1*
X3443840Y2081843D1*
X3444173Y2080343D1*
X3444547Y2078843D1*
X3444805Y2077343D1*
X3444943Y2075843D1*
X3445006Y2074343D1*
X3445038Y2072843D1*
X3445101Y2071343D1*
X3445296Y2069843D1*
X3445662Y2068343D1*
X3446100Y2066843D1*
X3446553Y2065343D1*
X3447057Y2063843D1*
X3447558Y2062343D1*
X3448043Y2060843D1*
X3448604Y2059343D1*
X3449253Y2057843D1*
X3449960Y2056343D1*
X3450738Y2054843D1*
X3451624Y2053343D1*
X3452587Y2051843D1*
X3453504Y2050343D1*
X3454353Y2048843D1*
X3455202Y2047343D1*
X3456166Y2045843D1*
X3457336Y2044343D1*
X3458660Y2042843D1*
X3460048Y2041343D1*
X3469048Y2125343D2*
X3467548Y2123843D1*
X3466054Y2122343D1*
X3464606Y2120843D1*
X3463298Y2119343D1*
X3462163Y2117843D1*
X3461100Y2116343D1*
X3460059Y2114843D1*
X3459110Y2113343D1*
X3458255Y2111843D1*
X3457455Y2110343D1*
X3456686Y2108843D1*
X3455932Y2107343D1*
X3455228Y2105843D1*
X3454620Y2104343D1*
X3454091Y2102843D1*
X3453562Y2101343D1*
X3453097Y2099843D1*
X3452752Y2098343D1*
X3452410Y2096843D1*
X3451983Y2095343D1*
X3451571Y2093843D1*
X3451298Y2092343D1*
X3451155Y2090843D1*
X3451091Y2089343D1*
X3451064Y2087843D1*
X3451053Y2086343D1*
X3451050Y2084843D1*
X3451048Y2083343D1*
Y2081843D1*
Y2080343D1*
Y2078843D1*
X3451054Y2077343D1*
X3451106Y2075843D1*
X3451298Y2074343D1*
X3451657Y2072843D1*
X3452047Y2071343D1*
X3452362Y2069843D1*
X3452692Y2068343D1*
X3453121Y2066843D1*
X3453584Y2065343D1*
X3454053Y2063843D1*
X3454608Y2062343D1*
X3455254Y2060843D1*
X3455955Y2059343D1*
X3456686Y2057843D1*
X3457432Y2056343D1*
X3458228Y2054843D1*
X3459120Y2053343D1*
X3460091Y2051843D1*
X3461062Y2050343D1*
X3462103Y2048843D1*
X3463310Y2047343D1*
X3464660Y2045843D1*
X3466092Y2044343D1*
X3467563Y2042843D1*
X3469048Y2041343D1*
X3542548Y2125343D2*
X3544042Y2123843D1*
X3545489Y2122343D1*
X3546798Y2120843D1*
X3547933Y2119343D1*
X3548996Y2117843D1*
X3550037Y2116343D1*
X3550986Y2114843D1*
X3551841Y2113343D1*
X3552641Y2111843D1*
X3553410Y2110343D1*
X3554169Y2108843D1*
X3554921Y2107343D1*
X3555667Y2105843D1*
X3556369Y2104343D1*
X3556976Y2102843D1*
X3557504Y2101343D1*
X3558033Y2099843D1*
X3558493Y2098343D1*
X3558791Y2096843D1*
X3558994Y2095343D1*
X3559253Y2093843D1*
X3559640Y2092343D1*
X3560036Y2090843D1*
X3560301Y2089343D1*
X3560441Y2087843D1*
X3560505Y2086343D1*
X3560532Y2084843D1*
X3560542Y2083343D1*
X3560546Y2081843D1*
X3560541Y2080343D1*
X3560489Y2078843D1*
X3560298Y2077343D1*
X3559939Y2075843D1*
X3559554Y2074343D1*
X3559287Y2072843D1*
X3559095Y2071343D1*
X3558840Y2069843D1*
X3558449Y2068343D1*
X3558001Y2066843D1*
X3557539Y2065343D1*
X3556987Y2063843D1*
X3556341Y2062343D1*
X3555641Y2060843D1*
X3554910Y2059343D1*
X3554169Y2057843D1*
X3553421Y2056343D1*
X3552667Y2054843D1*
X3551869Y2053343D1*
X3550976Y2051843D1*
X3550004Y2050343D1*
X3549033Y2048843D1*
X3547993Y2047343D1*
X3546785Y2045843D1*
X3545436Y2044343D1*
X3544007Y2042843D1*
X3542548Y2041343D1*
X3551548Y2125343D2*
X3552529Y2123843D1*
X3553530Y2122343D1*
X3554554Y2120843D1*
X3555542Y2119343D1*
X3556539Y2117843D1*
X3557553Y2116343D1*
X3558492Y2114843D1*
X3559343Y2113343D1*
X3560141Y2111843D1*
X3560910Y2110343D1*
X3561663Y2108843D1*
X3562368Y2107343D1*
X3562976Y2105843D1*
X3563504Y2104343D1*
X3564033Y2102843D1*
X3564499Y2101343D1*
X3564844Y2099843D1*
X3565185Y2098343D1*
X3565613Y2096843D1*
X3566025Y2095343D1*
X3566297Y2093843D1*
X3566440Y2092343D1*
X3566505Y2090843D1*
X3566532Y2089343D1*
X3566542Y2087843D1*
X3566546Y2086343D1*
X3566547Y2084843D1*
X3566548Y2083343D1*
Y2081843D1*
Y2080343D1*
Y2078843D1*
Y2077343D1*
X3566542Y2075843D1*
X3566489Y2074343D1*
X3566298Y2072843D1*
X3565939Y2071343D1*
X3565548Y2069843D1*
X3565234Y2068343D1*
X3564904Y2066843D1*
X3564475Y2065343D1*
X3564011Y2063843D1*
X3563543Y2062343D1*
X3562988Y2060843D1*
X3562341Y2059343D1*
X3561641Y2057843D1*
X3560910Y2056343D1*
X3560163Y2054843D1*
X3559368Y2053343D1*
X3558476Y2051843D1*
X3557504Y2050343D1*
X3556539Y2048843D1*
X3555552Y2047343D1*
X3554536Y2045843D1*
X3553559Y2044343D1*
X3552576Y2042843D1*
X3551548Y2041343D1*
X3502048Y2105843D2*
Y2104343D1*
Y2102843D1*
Y2101343D1*
Y2099843D1*
Y2098343D1*
Y2096843D1*
Y2095343D1*
Y2093843D1*
Y2092343D1*
Y2090843D1*
Y2089343D1*
Y2087843D1*
Y2086343D1*
Y2084843D1*
Y2083343D1*
X3508048Y2105843D2*
Y2104343D1*
Y2102843D1*
Y2101343D1*
Y2099843D1*
Y2098343D1*
Y2096843D1*
Y2095343D1*
Y2093843D1*
Y2092343D1*
Y2090843D1*
Y2089343D1*
Y2087843D1*
Y2086343D1*
Y2084843D1*
Y2083343D1*
X3481048D2*
Y2081843D1*
Y2080343D1*
Y2078843D1*
Y2077343D1*
X3530548Y2083343D2*
Y2081843D1*
Y2080343D1*
Y2078843D1*
Y2077343D1*
X3502048D2*
Y2075843D1*
Y2074343D1*
Y2072843D1*
Y2071343D1*
Y2069843D1*
Y2068343D1*
Y2066843D1*
Y2065343D1*
Y2063843D1*
Y2062343D1*
Y2060843D1*
Y2059343D1*
Y2057843D1*
Y2056343D1*
Y2054843D1*
X3508048Y2077343D2*
Y2075843D1*
Y2074343D1*
Y2072843D1*
Y2071343D1*
Y2069843D1*
Y2068343D1*
Y2066843D1*
Y2065343D1*
Y2063843D1*
Y2062343D1*
Y2060843D1*
Y2059343D1*
Y2057843D1*
Y2056343D1*
Y2054843D1*
X3280739Y2580957D2*
D115*
X3276937Y2579056D1*
X3273090Y2575209D1*
X3271189Y2571406D1*
X3271188Y2563757D1*
X3273090Y2559910D1*
X3276937Y2556108D1*
X3280739Y2554162D1*
X3286487Y2552261D1*
X3296082D1*
X3301786Y2554162D1*
X3305632Y2556108D1*
X3309435Y2559910D1*
X3311381Y2563757D1*
Y2571406D1*
X3309435Y2575209D1*
X3305633Y2579056D1*
X3301786Y2580957D1*
X3278882Y2593308D2*
X3276937Y2597155D1*
X3271233Y2602903D1*
X3311381D1*
X2930741Y2679506D2*
X2928840Y2683309D1*
X2924993Y2687155D1*
X2921191Y2689057D1*
X2913541D1*
X2909695Y2687155D1*
X2905892Y2683309D1*
X2903947Y2679506D1*
X2902045Y2673758D1*
Y2664163D1*
X2903947Y2658459D1*
X2905892Y2654613D1*
X2909695Y2650810D1*
X2913541Y2648865D1*
X2921191D1*
X2924993Y2650810D1*
X2928840Y2654613D1*
X2930741Y2658459D1*
X2945038Y2679462D2*
Y2681363D1*
X2946939Y2685210D1*
X2948841Y2687111D1*
X2952688Y2689012D1*
X2960337D1*
X2964139Y2687111D1*
X2966041Y2685210D1*
X2967986Y2681363D1*
Y2677561D1*
X2966041Y2673714D1*
X2962238Y2668010D1*
X2943093Y2648865D1*
X2969887D1*
X2271739Y2556093D2*
X2267937Y2554192D1*
X2264090Y2550345D1*
X2262189Y2546543D1*
X2262188Y2538893D1*
X2264090Y2535047D1*
X2267937Y2531244D1*
X2271739Y2529299D1*
X2277487Y2527397D1*
X2287082D1*
X2292786Y2529299D1*
X2296632Y2531244D1*
X2300435Y2535047D1*
X2302381Y2538893D1*
Y2546543D1*
X2300435Y2550345D1*
X2296633Y2554192D1*
X2292786Y2556093D1*
X2262233Y2572291D2*
Y2593294D1*
X2277531Y2581842D1*
Y2587590D1*
X2279433Y2591392D1*
X2281334Y2593294D1*
X2287082Y2595239D1*
X2290884D1*
X2296632Y2593294D1*
X2300479Y2589491D1*
X2302381Y2583743D1*
Y2577995D1*
X2300479Y2572291D1*
X2298534Y2570390D1*
X2294731Y2568444D1*
X2671007Y2472769D2*
X2669106Y2476571D1*
X2665259Y2480418D1*
X2661457Y2482319D1*
X2653807D1*
X2649961Y2480418D1*
X2646158Y2476571D1*
X2644213Y2472769D1*
X2642311Y2467021D1*
Y2457426D1*
X2644213Y2451722D1*
X2646158Y2447875D1*
X2649961Y2444073D1*
X2653807Y2442127D1*
X2661457D1*
X2665259Y2444073D1*
X2669106Y2447875D1*
X2671007Y2451722D1*
X2702504Y2442127D2*
Y2482275D1*
X2683359Y2455524D1*
X2712055D1*
X2452643Y3415207D2*
X2448841Y3413306D1*
X2444994Y3409459D1*
X2443093Y3405657D1*
Y3398007D1*
X2444994Y3394161D1*
X2448841Y3390358D1*
X2452643Y3388413D1*
X2458391Y3386511D1*
X2467986D1*
X2473690Y3388413D1*
X2477537Y3390358D1*
X2481339Y3394161D1*
X2483285Y3398007D1*
Y3405657D1*
X2481339Y3409459D1*
X2477537Y3413306D1*
X2473690Y3415207D1*
X2443137Y3450507D2*
Y3431405D1*
X2460337Y3429504D1*
X2458436Y3431405D1*
X2456490Y3437153D1*
Y3442857D1*
X2458436Y3448605D1*
X2462238Y3452452D1*
X2467986Y3454353D1*
X2471789D1*
X2477537Y3452452D1*
X2481383Y3448605D1*
X2483285Y3442857D1*
Y3437153D1*
X2481383Y3431405D1*
X2479438Y3429504D1*
X2475635Y3427559D1*
X3235256Y2935838D2*
X3231454Y2933936D1*
X3227607Y2930090D1*
X3225706Y2926287D1*
Y2918638D1*
X3227607Y2914791D1*
X3231454Y2910988D1*
X3235256Y2909043D1*
X3241004Y2907142D1*
X3250599D1*
X3256303Y2909043D1*
X3260150Y2910988D1*
X3263952Y2914791D1*
X3265898Y2918638D1*
Y2926287D1*
X3263952Y2930089D1*
X3260150Y2933936D1*
X3256303Y2935838D1*
X3231454Y2971137D2*
X3227651Y2969236D1*
X3225750Y2963488D1*
Y2959685D1*
X3227651Y2953937D1*
X3233399Y2950090D1*
X3242950Y2948189D1*
X3252500D1*
X3260150Y2950090D1*
X3263996Y2953937D1*
X3265898Y2959685D1*
Y2961586D1*
X3263996Y2967290D1*
X3260150Y2971137D1*
X3254402Y2973038D1*
X3252500D1*
X3246752Y2971137D1*
X3242950Y2967290D1*
X3241048Y2961586D1*
Y2959685D1*
X3242950Y2953937D1*
X3246752Y2950090D1*
X3252500Y2948189D1*
X3338308Y1516246D2*
X3336407Y1520049D1*
X3332560Y1523896D1*
X3328758Y1525797D1*
X3321108D1*
X3317262Y1523896D1*
X3313459Y1520049D1*
X3311514Y1516246D1*
X3309612Y1510498D1*
Y1500903D1*
X3311514Y1495200D1*
X3313459Y1491353D1*
X3317262Y1487550D1*
X3321108Y1485605D1*
X3328758D1*
X3332560Y1487550D1*
X3336407Y1491353D1*
X3338308Y1495200D1*
X3358309Y1485605D2*
X3377454Y1525753D1*
X3350660D1*
X1634672Y1271525D2*
X1630870Y1269623D1*
X1627023Y1265777D1*
X1625122Y1261974D1*
Y1254325D1*
X1627023Y1250478D1*
X1630870Y1246676D1*
X1634672Y1244730D1*
X1640420Y1242829D1*
X1650015D1*
X1655719Y1244730D1*
X1659566Y1246676D1*
X1663368Y1250478D1*
X1665314Y1254325D1*
Y1261974D1*
X1663368Y1265777D1*
X1659566Y1269623D1*
X1655719Y1271525D1*
X1625166Y1293427D2*
X1627067Y1287723D1*
X1630870Y1285777D1*
X1634716D1*
X1638519Y1287723D1*
X1640464Y1291525D1*
X1642366Y1299175D1*
X1644267Y1304923D1*
X1648114Y1308725D1*
X1651916Y1310626D1*
X1657664D1*
X1661467Y1308725D1*
X1663412Y1306824D1*
X1665314Y1301076D1*
Y1293427D1*
X1663412Y1287723D1*
X1661467Y1285777D1*
X1657664Y1283876D1*
X1651916D1*
X1648114Y1285777D1*
X1644267Y1289624D1*
X1642366Y1295328D1*
X1640464Y1302977D1*
X1638519Y1306824D1*
X1634716Y1308725D1*
X1630870D1*
X1627067Y1306824D1*
X1625166Y1301076D1*
Y1293427D1*
X2507302Y1321604D2*
X2503500Y1319703D1*
X2499653Y1315856D1*
X2497752Y1312054D1*
X2497751Y1304404D1*
X2499653Y1300558D1*
X2503500Y1296755D1*
X2507302Y1294810D1*
X2513050Y1292908D1*
X2522645D1*
X2528349Y1294810D1*
X2532195Y1296755D1*
X2535998Y1300558D1*
X2537944Y1304404D1*
Y1312054D1*
X2535998Y1315856D1*
X2532195Y1319703D1*
X2528349Y1321604D1*
X2511149Y1358849D2*
X2516897Y1356903D1*
X2520744Y1353101D1*
X2522645Y1347353D1*
Y1345452D1*
X2520744Y1339704D1*
X2516897Y1335901D1*
X2511149Y1333956D1*
X2509248D1*
X2503500Y1335901D1*
X2499697Y1339704D1*
X2497796Y1345452D1*
Y1347353D1*
X2499697Y1353101D1*
X2503500Y1356903D1*
X2511149Y1358849D1*
X2520744D1*
X2530294Y1356903D1*
X2536042Y1353101D1*
X2537943Y1347353D1*
X2537944Y1343550D1*
X2536042Y1337802D1*
X2532195Y1335901D1*
X3091045Y2877592D2*
Y2837400D1*
X3104442D1*
X3110190Y2839346D1*
X3114037Y2843148D1*
X3115938Y2846995D1*
X3117839Y2852699D1*
Y2862294D1*
X3115938Y2868042D1*
X3114037Y2871844D1*
X3110190Y2875691D1*
X3104442Y2877592D1*
X3091045D1*
X3130191Y2869899D2*
X3134038Y2871844D1*
X3139786Y2877548D1*
Y2837400D1*
X2398549Y2864778D2*
Y2834181D1*
X2396648Y2828433D1*
X2394702Y2826532D1*
X2390900Y2824586D1*
X2387053D1*
X2383250Y2826532D1*
X2381349Y2828433D1*
X2379404Y2834181D1*
Y2837984D1*
X2410900Y2857085D2*
X2414747Y2859030D1*
X2420495Y2864734D1*
Y2824586D1*
X2536200Y3217528D2*
Y3186931D1*
X2534298Y3181183D1*
X2532353Y3179281D1*
X2528550Y3177336D1*
X2524704D1*
X2520901Y3179281D1*
X2519000Y3181183D1*
X2517054Y3186931D1*
Y3190733D1*
X2550497Y3207933D2*
Y3209834D1*
X2552398Y3213681D1*
X2554299Y3215582D1*
X2558146Y3217484D1*
X2565795D1*
X2569598Y3215582D1*
X2571499Y3213681D1*
X2573444Y3209834D1*
Y3206032D1*
X2571499Y3202185D1*
X2567696Y3196481D1*
X2548551Y3177336D1*
X2575346D1*
X2383700Y2789778D2*
Y2759181D1*
X2381798Y2753433D1*
X2379853Y2751532D1*
X2376050Y2749586D1*
X2372204D1*
X2368401Y2751532D1*
X2366500Y2753433D1*
X2364554Y2759181D1*
Y2762984D1*
X2399898Y2789734D2*
X2420900D1*
X2409448Y2774436D1*
X2415196D1*
X2418999Y2772534D1*
X2420900Y2770633D1*
X2422846Y2764885D1*
Y2761083D1*
X2420900Y2755334D1*
X2417098Y2751488D1*
X2411350Y2749586D1*
X2405602D1*
X2399898Y2751488D1*
X2397997Y2753433D1*
X2396051Y2757236D1*
X2382749Y1852278D2*
Y1821681D1*
X2380848Y1815933D1*
X2378902Y1814032D1*
X2375100Y1812086D1*
X2371253D1*
X2367450Y1814032D1*
X2365549Y1815933D1*
X2363604Y1821681D1*
Y1825484D1*
X2414246Y1812086D2*
Y1852234D1*
X2395100Y1825484D1*
X2423796D1*
X3503139Y2244601D2*
Y2214004D1*
X3501238Y2208256D1*
X3499293Y2206355D1*
X3495490Y2204409D1*
X3491643D1*
X3487841Y2206355D1*
X3485939Y2208256D1*
X3483994Y2214004D1*
Y2217807D1*
X3523140Y2204409D2*
X3542285Y2244557D1*
X3515491D1*
X2797307Y3015519D2*
Y2975327D1*
X2820255D1*
X2832606Y3007825D2*
X2836453Y3009771D1*
X2842201Y3015474D1*
Y2975327D1*
X743665Y3310595D2*
X739819Y3308693D1*
X736016Y3304847D1*
X734071Y3301044D1*
X732169Y3295296D1*
Y3285701D1*
X734071Y3279998D1*
X736016Y3276151D1*
X739819Y3272348D1*
X743665Y3270403D1*
X751315D1*
X755117Y3272348D1*
X758964Y3276151D1*
X760865Y3279998D1*
X762767Y3285701D1*
Y3295296D1*
X760865Y3301044D1*
X758964Y3304847D1*
X755117Y3308693D1*
X751315Y3310595D1*
X743665D1*
X775118Y3289548D2*
X792362D1*
X798066Y3291449D1*
X800011Y3293395D1*
X801913Y3297197D1*
Y3302945D1*
X800011Y3306748D1*
X798066Y3308693D1*
X792362Y3310595D1*
X775118D1*
Y3270403D1*
X827661Y3310595D2*
Y3270403D1*
X814264Y3310595D2*
X841059D1*
X853410Y3302901D2*
X857257Y3304847D1*
X863005Y3310551D1*
Y3270403D1*
X1010656Y3310595D2*
X1006809Y3308693D1*
X1003007Y3304847D1*
X1001061Y3301044D1*
X999160Y3295296D1*
Y3285701D1*
X1001061Y3279998D1*
X1003007Y3276151D1*
X1006809Y3272348D1*
X1010656Y3270403D1*
X1018305D1*
X1022108Y3272348D1*
X1025955Y3276151D1*
X1027856Y3279998D1*
X1029757Y3285701D1*
Y3295296D1*
X1027856Y3301044D1*
X1025955Y3304847D1*
X1022108Y3308693D1*
X1018305Y3310595D1*
X1010656D1*
X1042109Y3289548D2*
X1059353D1*
X1065057Y3291449D1*
X1067002Y3293395D1*
X1068903Y3297197D1*
Y3302945D1*
X1067002Y3306748D1*
X1065057Y3308693D1*
X1059353Y3310595D1*
X1042109D1*
Y3270403D1*
X1094652Y3310595D2*
Y3270403D1*
X1081255Y3310595D2*
X1108049D1*
X1122346Y3301000D2*
Y3302901D1*
X1124247Y3306748D1*
X1126149Y3308649D1*
X1129996Y3310551D1*
X1137645D1*
X1141447Y3308649D1*
X1143349Y3306748D1*
X1145294Y3302901D1*
Y3299099D1*
X1143349Y3295252D1*
X1139546Y3289548D1*
X1120401Y3270403D1*
X1147195D1*
X1286248Y3316845D2*
X1282401Y3314944D1*
X1278599Y3311097D1*
X1276653Y3307295D1*
X1274752Y3301547D1*
Y3291952D1*
X1276653Y3286248D1*
X1278599Y3282401D1*
X1282401Y3278599D1*
X1286248Y3276653D1*
X1293897D1*
X1297700Y3278599D1*
X1301547Y3282401D1*
X1303448Y3286248D1*
X1305349Y3291952D1*
Y3301547D1*
X1303448Y3307295D1*
X1301547Y3311097D1*
X1297700Y3314944D1*
X1293897Y3316845D1*
X1286248D1*
X1317700Y3295799D2*
X1334945D1*
X1340648Y3297700D1*
X1342594Y3299646D1*
X1344495Y3303448D1*
Y3309196D1*
X1342594Y3312999D1*
X1340648Y3314944D1*
X1334945Y3316845D1*
X1317700D1*
Y3276653D1*
X1370244Y3316845D2*
Y3276653D1*
X1356847Y3316845D2*
X1383641D1*
X1399839Y3316801D2*
X1420842D1*
X1409390Y3301503D1*
X1415138D1*
X1418941Y3299601D1*
X1420842Y3297700D1*
X1422787Y3291952D1*
Y3288149D1*
X1420842Y3282401D1*
X1417039Y3278555D1*
X1411291Y3276653D1*
X1405543D1*
X1399839Y3278555D1*
X1397938Y3280500D1*
X1395993Y3284303D1*
X1580572Y3316845D2*
X1576725Y3314944D1*
X1572922Y3311097D1*
X1570977Y3307295D1*
X1569075Y3301547D1*
Y3291952D1*
X1570977Y3286248D1*
X1572922Y3282401D1*
X1576725Y3278599D1*
X1580572Y3276653D1*
X1588221D1*
X1592023Y3278599D1*
X1595870Y3282401D1*
X1597771Y3286248D1*
X1599673Y3291952D1*
Y3301547D1*
X1597771Y3307295D1*
X1595870Y3311097D1*
X1592023Y3314944D1*
X1588221Y3316845D1*
X1580572D1*
X1612024Y3295799D2*
X1629268D1*
X1634972Y3297700D1*
X1636917Y3299646D1*
X1638819Y3303448D1*
Y3309196D1*
X1636917Y3312999D1*
X1634972Y3314944D1*
X1629268Y3316845D1*
X1612024D1*
Y3276653D1*
X1664568Y3316845D2*
Y3276653D1*
X1651170Y3316845D2*
X1677965D1*
X1709462Y3276653D2*
Y3316801D1*
X1690316Y3290051D1*
X1719012D1*
X1837429Y3316845D2*
X1833582Y3314944D1*
X1829780Y3311097D1*
X1827834Y3307295D1*
X1825933Y3301547D1*
Y3291952D1*
X1827834Y3286248D1*
X1829780Y3282401D1*
X1833582Y3278599D1*
X1837429Y3276653D1*
X1845078D1*
X1848881Y3278599D1*
X1852728Y3282401D1*
X1854629Y3286248D1*
X1856530Y3291952D1*
Y3301547D1*
X1854629Y3307295D1*
X1852728Y3311097D1*
X1848881Y3314944D1*
X1845078Y3316845D1*
X1837429D1*
X1868882Y3295799D2*
X1886126D1*
X1891829Y3297700D1*
X1893775Y3299646D1*
X1895676Y3303448D1*
Y3309196D1*
X1893775Y3312999D1*
X1891829Y3314944D1*
X1886126Y3316845D1*
X1868882D1*
Y3276653D1*
X1921425Y3316845D2*
Y3276653D1*
X1908028Y3316845D2*
X1934822D1*
X1970122Y3316801D2*
X1951020D1*
X1949119Y3299601D1*
X1951020Y3301503D1*
X1956768Y3303448D1*
X1962472D1*
X1968220Y3301503D1*
X1972067Y3297700D1*
X1973968Y3291952D1*
Y3288149D1*
X1972067Y3282401D1*
X1968220Y3278555D1*
X1962472Y3276653D1*
X1956768D1*
X1951020Y3278555D1*
X1949119Y3280500D1*
X1947174Y3284303D1*
X2173457Y3048515D2*
X2190701D1*
X2196405Y3050417D1*
X2198351Y3052362D1*
X2200252Y3056165D1*
Y3061913D1*
X2198351Y3065715D1*
X2196405Y3067661D1*
X2190701Y3069562D1*
X2173457D1*
Y3029370D1*
X2239398Y3063814D2*
X2235596Y3067661D1*
X2229847Y3069562D1*
X2222198D1*
X2216450Y3067661D1*
X2212603Y3063814D1*
Y3060011D1*
X2214549Y3056165D1*
X2216450Y3054263D1*
X2220253Y3052362D1*
X2231749Y3048515D1*
X2235596Y3046614D1*
X2237497Y3044669D1*
X2239398Y3040866D1*
Y3035118D1*
X2235596Y3031315D1*
X2229847Y3029370D1*
X2222198D1*
X2216450Y3031315D1*
X2212603Y3035118D1*
X2251749Y3061868D2*
X2255596Y3063814D1*
X2261344Y3069518D1*
Y3029370D1*
X3280239Y2387982D2*
Y2405182D1*
X3278294Y2410930D1*
X3276393Y2412875D1*
X3272590Y2414777D1*
X3268743D1*
X3264941Y2412875D1*
X3262995Y2410930D1*
X3261094Y2405182D1*
Y2387982D1*
X3301286D1*
X3280239Y2401379D2*
X3301286Y2414777D1*
X3268788Y2427128D2*
X3266842Y2430975D1*
X3261138Y2436723D1*
X3301286D1*
X2651079Y2378661D2*
X2668279D1*
X2674027Y2380606D1*
X2675972Y2382507D1*
X2677873Y2386310D1*
Y2390157D1*
X2675972Y2393959D1*
X2674027Y2395905D1*
X2668279Y2397806D1*
X2651079D1*
Y2357614D1*
X2664476Y2378661D2*
X2677873Y2357614D1*
X2692170Y2388211D2*
Y2390113D1*
X2694072Y2393959D1*
X2695973Y2395861D1*
X2699820Y2397762D1*
X2707469D1*
X2711271Y2395861D1*
X2713173Y2393959D1*
X2715118Y2390113D1*
Y2386310D1*
X2713173Y2382463D1*
X2709370Y2376759D1*
X2690225Y2357614D1*
X2717019D1*
X2633631Y2277410D2*
X2650831D1*
X2656579Y2279355D1*
X2658525Y2281257D1*
X2660426Y2285059D1*
Y2288906D1*
X2658525Y2292709D1*
X2656579Y2294654D1*
X2650831Y2296555D1*
X2633631D1*
Y2256363D1*
X2647029Y2277410D2*
X2660426Y2256363D1*
X2676624Y2296511D2*
X2697626D1*
X2686175Y2281213D1*
X2691923D1*
X2695725Y2279311D1*
X2697626Y2277410D1*
X2699572Y2271662D1*
Y2267859D1*
X2697626Y2262111D1*
X2693824Y2258265D1*
X2688076Y2256363D1*
X2682328D1*
X2676624Y2258265D1*
X2674723Y2260210D1*
X2672777Y2264013D1*
X2965489Y2291930D2*
Y2309130D1*
X2963543Y2314878D1*
X2961642Y2316823D1*
X2957839Y2318725D1*
X2953993D1*
X2950190Y2316823D1*
X2948245Y2314878D1*
X2946343Y2309130D1*
Y2291930D1*
X2986535D1*
X2965489Y2305327D2*
X2986535Y2318725D1*
Y2350221D2*
X2946388D1*
X2973138Y2331076D1*
Y2359772D1*
X2186222Y3679196D2*
X2203422D1*
X2209170Y3681142D1*
X2211115Y3683043D1*
X2213016Y3686845D1*
Y3690692D1*
X2211115Y3694495D1*
X2209170Y3696440D1*
X2203422Y3698341D1*
X2186222D1*
Y3658149D1*
X2199619Y3679196D2*
X2213016Y3658149D1*
X2248316Y3698297D2*
X2229215D1*
X2227313Y3681097D1*
X2229215Y3682999D1*
X2234963Y3684944D1*
X2240666D1*
X2246414Y3682999D1*
X2250261Y3679196D1*
X2252162Y3673448D1*
Y3669646D1*
X2250261Y3663897D1*
X2246414Y3660051D1*
X2240666Y3658149D1*
X2234963D1*
X2229215Y3660051D1*
X2227313Y3661996D1*
X2225368Y3665799D1*
X2859192Y1328409D2*
X2876392D1*
X2882140Y1330354D1*
X2884085Y1332255D1*
X2885987Y1336058D1*
Y1339905D1*
X2884085Y1343707D1*
X2882140Y1345653D1*
X2876392Y1347554D1*
X2859192D1*
Y1307362D1*
X2872589Y1328409D2*
X2885987Y1307362D1*
X2921286Y1341806D2*
X2919385Y1345609D1*
X2913637Y1347510D1*
X2909834D1*
X2904086Y1345609D1*
X2900239Y1339861D1*
X2898338Y1330310D1*
Y1320759D1*
X2900239Y1313110D1*
X2904086Y1309263D1*
X2909834Y1307362D1*
X2911735D1*
X2917439Y1309263D1*
X2921286Y1313110D1*
X2923187Y1318858D1*
Y1320759D1*
X2921286Y1326507D1*
X2917439Y1330310D1*
X2911735Y1332211D1*
X2909834D1*
X2904086Y1330310D1*
X2900239Y1326507D1*
X2898338Y1320759D1*
X2948328Y1431411D2*
X2965528D1*
X2971276Y1433357D1*
X2973221Y1435258D1*
X2975123Y1439061D1*
Y1442907D1*
X2973221Y1446710D1*
X2971276Y1448655D1*
X2965528Y1450557D1*
X2948328D1*
Y1410365D1*
X2961725Y1431411D2*
X2975123Y1410365D1*
X2995123D2*
X3014269Y1450512D1*
X2987474D1*
X2851991Y1247159D2*
X2869190D1*
X2874938Y1249105D1*
X2876884Y1251006D1*
X2878785Y1254809D1*
Y1258655D1*
X2876884Y1262458D1*
X2874938Y1264403D1*
X2869190Y1266305D1*
X2851991D1*
Y1226113D1*
X2865388Y1247159D2*
X2878785Y1226113D1*
X2900687Y1266260D2*
X2894983Y1264359D1*
X2893038Y1260557D1*
Y1256710D1*
X2894983Y1252907D1*
X2898786Y1250962D1*
X2906435Y1249061D1*
X2912183Y1247159D1*
X2915986Y1243313D1*
X2917887Y1239510D1*
Y1233762D1*
X2915986Y1229959D1*
X2914085Y1228014D1*
X2908337Y1226113D1*
X2900687D1*
X2894983Y1228014D1*
X2893038Y1229959D1*
X2891137Y1233762D1*
Y1239510D1*
X2893038Y1243313D1*
X2896885Y1247159D1*
X2902588Y1249061D1*
X2910238Y1250962D1*
X2914085Y1252907D1*
X2915986Y1256710D1*
Y1260557D1*
X2914085Y1264359D1*
X2908337Y1266260D1*
X2900687D1*
X3186779Y1137661D2*
X3203979D1*
X3209727Y1139606D1*
X3211672Y1141507D1*
X3213573Y1145310D1*
Y1149157D1*
X3211672Y1152959D1*
X3209727Y1154905D1*
X3203979Y1156806D1*
X3186779D1*
Y1116614D1*
X3200176Y1137661D2*
X3213573Y1116614D1*
X3250818Y1143409D2*
X3248873Y1137661D1*
X3245070Y1133814D1*
X3239322Y1131913D1*
X3237421D1*
X3231673Y1133814D1*
X3227870Y1137661D1*
X3225925Y1143409D1*
Y1145310D1*
X3227870Y1151058D1*
X3231673Y1154861D1*
X3237421Y1156762D1*
X3239322D1*
X3245070Y1154861D1*
X3248873Y1151058D1*
X3250818Y1143409D1*
Y1133814D1*
X3248873Y1124263D1*
X3245070Y1118515D1*
X3239322Y1116614D1*
X3235520D1*
X3229772Y1118515D1*
X3227870Y1122362D1*
X929857Y3212994D2*
X929858Y3230194D1*
X927912Y3235942D1*
X926011Y3237888D1*
X922208Y3239789D1*
X918361D1*
X914559Y3237888D1*
X912613Y3235942D1*
X910712Y3230194D1*
Y3212994D1*
X950904D1*
X929857Y3226392D2*
X950904Y3239789D1*
X918406Y3252140D2*
X916460Y3255987D1*
X910756Y3261735D1*
X950904D1*
X910756Y3285582D2*
X912658Y3279834D1*
X918406Y3275988D1*
X927956Y3274086D1*
X933704D1*
X943255Y3275988D1*
X949003Y3279834D1*
X950904Y3285582D1*
Y3289385D1*
X949003Y3295133D1*
X943255Y3298936D1*
X933704Y3300881D1*
X927956D1*
X918406Y3298936D1*
X912658Y3295133D1*
X910756Y3289385D1*
Y3285582D1*
X918406Y3298936D2*
X943255Y3275988D1*
X1211699Y3227845D2*
Y3245045D1*
X1209753Y3250793D1*
X1207852Y3252738D1*
X1204049Y3254639D1*
X1200203D1*
X1196400Y3252738D1*
X1194455Y3250793D1*
X1192553Y3245045D1*
Y3227845D1*
X1232745D1*
X1211699Y3241242D2*
X1232745Y3254639D1*
X1200247Y3266991D2*
X1198301Y3270838D1*
X1192598Y3276586D1*
X1232745D1*
X1200247Y3288937D2*
X1198301Y3292784D1*
X1192598Y3298532D1*
X1232745D1*
X1493539Y3200494D2*
Y3217694D1*
X1491593Y3223442D1*
X1489692Y3225388D1*
X1485889Y3227289D1*
X1482043D1*
X1478240Y3225388D1*
X1476295Y3223442D1*
X1474393Y3217694D1*
Y3200494D1*
X1514585D1*
X1493539Y3213892D2*
X1514585Y3227289D1*
X1482087Y3239640D2*
X1480141Y3243487D1*
X1474437Y3249235D1*
X1514585D1*
X1483988Y3263532D2*
X1482087D1*
X1478240Y3265433D1*
X1476339Y3267334D1*
X1474437Y3271181D1*
Y3278830D1*
X1476339Y3282633D1*
X1478240Y3284534D1*
X1482087Y3286480D1*
X1485889D1*
X1489736Y3284534D1*
X1495440Y3280732D1*
X1514585Y3261586D1*
Y3288381D1*
X1769129Y3206745D2*
Y3223945D1*
X1767184Y3229693D1*
X1765282Y3231638D1*
X1761480Y3233539D1*
X1757633D1*
X1753831Y3231638D1*
X1751885Y3229693D1*
X1749984Y3223945D1*
Y3206745D1*
X1790176D1*
X1769129Y3220142D2*
X1790176Y3233539D1*
X1757677Y3245891D2*
X1755732Y3249738D1*
X1750028Y3255486D1*
X1790176D1*
X1750028Y3271684D2*
Y3292686D1*
X1765327Y3281234D1*
Y3286982D1*
X1767228Y3290785D1*
X1769129Y3292686D1*
X1774877Y3294632D1*
X1778680D1*
X1784428Y3292686D1*
X1788275Y3288884D1*
X1790176Y3283136D1*
Y3277388D1*
X1788275Y3271684D1*
X1786329Y3269782D1*
X1782526Y3267837D1*
X2044720Y3212045D2*
Y3229245D1*
X2042774Y3234993D1*
X2040873Y3236938D1*
X2037070Y3238840D1*
X2033224D1*
X2029421Y3236938D1*
X2027476Y3234993D1*
X2025574Y3229245D1*
Y3212045D1*
X2065766D1*
X2044720Y3225442D2*
X2065766Y3238839D1*
X2033268Y3251191D2*
X2031322Y3255038D1*
X2025619Y3260786D1*
X2065766D1*
Y3292282D2*
X2025619D1*
X2052369Y3273137D1*
Y3301833D1*
X3474739Y1049855D2*
Y1067055D1*
X3472794Y1072803D1*
X3470893Y1074748D1*
X3467090Y1076650D1*
X3463243D1*
X3459441Y1074748D1*
X3457495Y1072803D1*
X3455594Y1067055D1*
Y1049855D1*
X3495786D1*
X3474739Y1063252D2*
X3495786Y1076650D1*
X3463288Y1089001D2*
X3461342Y1092848D1*
X3455638Y1098596D1*
X3495786D1*
X3455638Y1133895D2*
Y1114794D1*
X3472838Y1112893D1*
X3470937Y1114794D1*
X3468991Y1120542D1*
Y1126246D1*
X3470937Y1131994D1*
X3474739Y1135841D1*
X3480487Y1137742D1*
X3484290D1*
X3490038Y1135841D1*
X3493885Y1131994D1*
X3495786Y1126246D1*
Y1120542D1*
X3493885Y1114794D1*
X3491939Y1112893D1*
X3488137Y1110947D1*
X3474739Y1350828D2*
Y1368028D1*
X3472794Y1373776D1*
X3470893Y1375721D1*
X3467090Y1377622D1*
X3463243D1*
X3459441Y1375721D1*
X3457495Y1373776D1*
X3455594Y1368028D1*
Y1350828D1*
X3495786D1*
X3474739Y1364225D2*
X3495786Y1377622D1*
X3463288Y1389974D2*
X3461342Y1393821D1*
X3455638Y1399569D1*
X3495786D1*
X3461342Y1434868D2*
X3457540Y1432967D1*
X3455638Y1427219D1*
Y1423416D1*
X3457540Y1417668D1*
X3463288Y1413821D1*
X3472838Y1411920D1*
X3482389D1*
X3490038Y1413821D1*
X3493885Y1417668D1*
X3495786Y1423416D1*
Y1425317D1*
X3493885Y1431021D1*
X3490038Y1434868D1*
X3484290Y1436769D1*
X3482389D1*
X3476641Y1434868D1*
X3472838Y1431021D1*
X3470937Y1425317D1*
Y1423416D1*
X3472838Y1417668D1*
X3476641Y1413821D1*
X3482389Y1411920D1*
X1993489Y2424658D2*
Y2441858D1*
X1991543Y2447606D1*
X1989642Y2449552D1*
X1985839Y2451453D1*
X1981993D1*
X1978190Y2449552D1*
X1976245Y2447606D1*
X1974343Y2441858D1*
Y2424658D1*
X2014535D1*
X1993489Y2438056D2*
X2014535Y2451453D1*
X1982037Y2463804D2*
X1980091Y2467651D1*
X1974388Y2473399D1*
X2014535D1*
Y2493400D2*
X1974388Y2512545D1*
Y2485750D1*
X1893489Y2424680D2*
Y2441880D1*
X1891543Y2447628D1*
X1889642Y2449574D1*
X1885839Y2451475D1*
X1881993D1*
X1878190Y2449574D1*
X1876245Y2447628D1*
X1874343Y2441880D1*
Y2424680D1*
X1914535D1*
X1893489Y2438078D2*
X1914535Y2451475D1*
X1882037Y2463826D2*
X1880091Y2467673D1*
X1874388Y2473421D1*
X1914535D1*
X1874388Y2495323D2*
X1876289Y2489619D1*
X1880091Y2487674D1*
X1883938D1*
X1887741Y2489619D1*
X1889686Y2493422D1*
X1891587Y2501071D1*
X1893489Y2506819D1*
X1897335Y2510622D1*
X1901138Y2512523D1*
X1906886D1*
X1910689Y2510622D1*
X1912634Y2508720D1*
X1914535Y2502972D1*
Y2495323D1*
X1912634Y2489619D1*
X1910689Y2487674D1*
X1906886Y2485772D1*
X1901138D1*
X1897336Y2487674D1*
X1893489Y2491521D1*
X1891587Y2497224D1*
X1889686Y2504874D1*
X1887741Y2508720D1*
X1883938Y2510622D1*
X1880091D1*
X1876289Y2508720D1*
X1874388Y2502972D1*
Y2495323D1*
X1799739Y2425609D2*
Y2442809D1*
X1797794Y2448557D1*
X1795893Y2450502D1*
X1792090Y2452404D1*
X1788243D1*
X1784441Y2450502D1*
X1782495Y2448557D1*
X1780594Y2442809D1*
Y2425609D1*
X1820786D1*
X1799739Y2439006D2*
X1820786Y2452403D1*
X1788288Y2464755D2*
X1786342Y2468602D1*
X1780638Y2474350D1*
X1820786D1*
X1793991Y2511594D2*
X1799739Y2509649D1*
X1803586Y2505846D1*
X1805487Y2500098D1*
Y2498197D1*
X1803586Y2492449D1*
X1799739Y2488647D1*
X1793991Y2486701D1*
X1792090D1*
X1786342Y2488647D1*
X1782540Y2492449D1*
X1780638Y2498197D1*
Y2500098D1*
X1782540Y2505846D1*
X1786342Y2509649D1*
X1793991Y2511594D1*
X1803586D1*
X1813137Y2509649D1*
X1818885Y2505846D1*
X1820786Y2500098D1*
Y2496296D1*
X1818885Y2490548D1*
X1815038Y2488647D1*
X2093490Y2422308D2*
Y2439508D1*
X2091545Y2445256D1*
X2089643Y2447201D1*
X2085841Y2449102D1*
X2081994D1*
X2078191Y2447201D1*
X2076246Y2445256D1*
X2074345Y2439508D1*
Y2422308D1*
X2114537D1*
X2093490Y2435705D2*
X2114537Y2449102D1*
X2083939Y2463399D2*
X2082038D1*
X2078191Y2465300D1*
X2076290Y2467202D1*
X2074389Y2471048D1*
Y2478698D1*
X2076290Y2482500D1*
X2078191Y2484402D1*
X2082038Y2486347D1*
X2085841D1*
X2089688Y2484402D1*
X2095391Y2480599D1*
X2114537Y2461454D1*
Y2488248D1*
X2074389Y2512096D2*
X2076290Y2506348D1*
X2082038Y2502501D1*
X2091589Y2500600D1*
X2097337D1*
X2106887Y2502501D1*
X2112635Y2506348D1*
X2114537Y2512096D1*
Y2515898D1*
X2112635Y2521646D1*
X2106887Y2525449D1*
X2097337Y2527394D1*
X2091589D1*
X2082038Y2525449D1*
X2076290Y2521646D1*
X2074389Y2515898D1*
Y2512096D1*
X2082038Y2525449D2*
X2106887Y2502501D1*
X3474739Y1199855D2*
Y1217055D1*
X3472794Y1222803D1*
X3470893Y1224748D1*
X3467090Y1226650D1*
X3463243D1*
X3459441Y1224748D1*
X3457495Y1222803D1*
X3455594Y1217055D1*
Y1199855D1*
X3495786D1*
X3474739Y1213252D2*
X3495786Y1226650D1*
X3465189Y1240947D2*
X3463288D1*
X3459441Y1242848D1*
X3457540Y1244749D1*
X3455638Y1248596D1*
Y1256245D1*
X3457540Y1260048D1*
X3459441Y1261949D1*
X3463288Y1263894D1*
X3467090D1*
X3470937Y1261949D1*
X3476641Y1258146D1*
X3495786Y1239001D1*
Y1265796D1*
X3463288Y1278147D2*
X3461342Y1281994D1*
X3455638Y1287742D1*
X3495786D1*
X3700654Y2642239D2*
Y2602047D1*
X3687257Y2642239D2*
X3714051D1*
X3726403D2*
Y2602047D1*
X3743647D1*
X3749395Y2603993D1*
X3751296Y2605894D1*
X3753197Y2609696D1*
Y2615444D1*
X3751296Y2619291D1*
X3749395Y2621192D1*
X3743647Y2623094D1*
X3749395Y2625039D1*
X3751296Y2626940D1*
X3753197Y2630743D1*
Y2634590D1*
X3751296Y2638392D1*
X3749395Y2640338D1*
X3743647Y2642239D1*
X3726403D1*
Y2623094D2*
X3743647D1*
X3765549Y2634546D2*
X3769395Y2636491D1*
X3775143Y2642195D1*
Y2602047D1*
X864751Y3779050D2*
Y3738858D1*
X851353Y3779050D2*
X878148D1*
X890500D2*
Y3738858D1*
X907744D1*
X913492Y3740804D1*
X915393Y3742705D1*
X917294Y3746507D1*
Y3752255D1*
X915393Y3756102D1*
X913492Y3758003D1*
X907744Y3759905D1*
X913492Y3761850D1*
X915393Y3763752D1*
X917294Y3767554D1*
Y3771401D1*
X915393Y3775203D1*
X913492Y3777149D1*
X907744Y3779050D1*
X890500D1*
Y3759905D2*
X907744D1*
X931591Y3769455D2*
Y3771357D1*
X933492Y3775203D1*
X935394Y3777105D1*
X939240Y3779006D1*
X946890D1*
X950692Y3777105D1*
X952593Y3775203D1*
X954539Y3771357D1*
Y3767554D1*
X952593Y3763707D1*
X948791Y3758003D1*
X929646Y3738858D1*
X956440D1*
X1278137Y3779050D2*
Y3738858D1*
X1264739Y3779050D2*
X1291534D1*
X1303885D2*
Y3738858D1*
X1321129D1*
X1326877Y3740804D1*
X1328779Y3742705D1*
X1330680Y3746507D1*
Y3752255D1*
X1328779Y3756102D1*
X1326877Y3758003D1*
X1321129Y3759905D1*
X1326877Y3761850D1*
X1328779Y3763752D1*
X1330680Y3767554D1*
Y3771401D1*
X1328779Y3775203D1*
X1326877Y3777149D1*
X1321129Y3779050D1*
X1303885D1*
Y3759905D2*
X1321129D1*
X1346878Y3779006D2*
X1367881D1*
X1356429Y3763707D1*
X1362177D1*
X1365979Y3761806D1*
X1367881Y3759905D1*
X1369826Y3754157D1*
Y3750354D1*
X1367881Y3744606D1*
X1364078Y3740759D1*
X1358330Y3738858D1*
X1352582D1*
X1346878Y3740759D1*
X1344977Y3742705D1*
X1343031Y3746507D1*
X1623004Y3779049D2*
Y3738857D1*
X1609606Y3779049D2*
X1636401D1*
X1648752D2*
Y3738857D1*
X1665996D1*
X1671744Y3740803D1*
X1673646Y3742704D1*
X1675547Y3746507D1*
Y3752255D1*
X1673646Y3756102D1*
X1671744Y3758003D1*
X1665996Y3759904D1*
X1671744Y3761850D1*
X1673646Y3763751D1*
X1675547Y3767553D1*
Y3771400D1*
X1673646Y3775203D1*
X1671744Y3777148D1*
X1665996Y3779049D1*
X1648752D1*
Y3759904D2*
X1665996D1*
X1707044Y3738857D2*
Y3779005D1*
X1687898Y3752255D1*
X1716594D1*
X1899545Y3779049D2*
Y3738857D1*
X1886147Y3779049D2*
X1912942D1*
X1925293D2*
Y3738857D1*
X1942538D1*
X1948286Y3740803D1*
X1950187Y3742704D1*
X1952088Y3746507D1*
Y3752255D1*
X1950187Y3756102D1*
X1948286Y3758003D1*
X1942538Y3759904D1*
X1948286Y3761850D1*
X1950187Y3763751D1*
X1952088Y3767553D1*
Y3771400D1*
X1950187Y3775203D1*
X1948286Y3777148D1*
X1942538Y3779049D1*
X1925293D1*
Y3759904D2*
X1942538D1*
X1987387Y3779005D2*
X1968286D1*
X1966385Y3761805D1*
X1968286Y3763707D1*
X1974034Y3765652D1*
X1979738D1*
X1985486Y3763707D1*
X1989333Y3759904D1*
X1991234Y3754156D1*
Y3750354D1*
X1989333Y3744605D1*
X1985486Y3740759D1*
X1979738Y3738857D1*
X1974034D1*
X1968286Y3740759D1*
X1966385Y3742704D1*
X1964440Y3746507D1*
X3803872Y1211354D2*
X3844064D1*
X3803872Y1197956D2*
Y1224751D1*
Y1237102D2*
X3844064D1*
Y1254346D1*
X3842119Y1260094D1*
X3840217Y1261996D1*
X3836415Y1263897D1*
X3830667D1*
X3826820Y1261996D1*
X3824919Y1260094D1*
X3823018Y1254346D1*
X3821072Y1260094D1*
X3819171Y1261996D1*
X3815368Y1263897D1*
X3811522D1*
X3807719Y1261996D1*
X3805774Y1260094D1*
X3803872Y1254346D1*
Y1237102D1*
X3823018D2*
Y1254346D1*
X3809620Y1299196D2*
X3805818Y1297295D1*
X3803916Y1291547D1*
Y1287744D1*
X3805818Y1281996D1*
X3811566Y1278150D1*
X3821116Y1276248D1*
X3830667D1*
X3838316Y1278150D1*
X3842163Y1281996D1*
X3844064Y1287744D1*
Y1289646D1*
X3842163Y1295349D1*
X3838316Y1299196D1*
X3832568Y1301097D1*
X3830667D1*
X3824919Y1299196D1*
X3821116Y1295349D1*
X3819215Y1289646D1*
Y1287744D1*
X3821116Y1281996D1*
X3824919Y1278150D1*
X3830667Y1276248D1*
X1770263Y786924D2*
Y746732D1*
X1756865Y786924D2*
X1783660D1*
X1796011D2*
Y746732D1*
X1813255D1*
X1819003Y748678D1*
X1820905Y750579D1*
X1822806Y754381D1*
Y760129D1*
X1820905Y763976D1*
X1819003Y765877D1*
X1813255Y767779D1*
X1819003Y769724D1*
X1820905Y771626D1*
X1822806Y775428D1*
Y779275D1*
X1820905Y783077D1*
X1819003Y785023D1*
X1813255Y786924D1*
X1796011D1*
Y767779D2*
X1813255D1*
X1842807Y746732D2*
X1861952Y786880D1*
X1835157D1*
X2183671Y786924D2*
Y746732D1*
X2170273Y786924D2*
X2197068D1*
X2209419D2*
Y746732D1*
X2226663D1*
X2232411Y748678D1*
X2234313Y750579D1*
X2236214Y754381D1*
Y760129D1*
X2234313Y763976D1*
X2232411Y765877D1*
X2226663Y767779D1*
X2232411Y769724D1*
X2234313Y771626D1*
X2236214Y775428D1*
Y779275D1*
X2234313Y783077D1*
X2232411Y785023D1*
X2226663Y786924D1*
X2209419D1*
Y767779D2*
X2226663D1*
X2258116Y786880D2*
X2252412Y784979D1*
X2250467Y781176D1*
Y777329D1*
X2252412Y773527D1*
X2256215Y771581D1*
X2263864Y769680D1*
X2269612Y767779D1*
X2273415Y763932D1*
X2275316Y760129D1*
Y754381D1*
X2273415Y750579D1*
X2271513Y748633D1*
X2265765Y746732D1*
X2258116D1*
X2252412Y748633D1*
X2250467Y750579D1*
X2248565Y754381D1*
Y760129D1*
X2250467Y763932D1*
X2254313Y767779D1*
X2260017Y769680D1*
X2267666Y771581D1*
X2271513Y773527D1*
X2273415Y777329D1*
Y781176D1*
X2271513Y784979D1*
X2265765Y786880D1*
X2258116D1*
X948713Y786935D2*
Y746743D1*
X935316Y786935D2*
X962111D1*
X974462D2*
Y746743D1*
X991706D1*
X997454Y748688D1*
X999355Y750589D1*
X1001257Y754392D1*
Y760140D1*
X999355Y763987D1*
X997454Y765888D1*
X991706Y767789D1*
X997454Y769735D1*
X999355Y771636D1*
X1001257Y775439D1*
Y779285D1*
X999355Y783088D1*
X997454Y785033D1*
X991706Y786935D1*
X974462D1*
Y767789D2*
X991706D1*
X1038501Y773537D2*
X1036556Y767789D1*
X1032753Y763943D1*
X1027005Y762041D1*
X1025104D1*
X1019356Y763943D1*
X1015554Y767789D1*
X1013608Y773537D1*
Y775439D1*
X1015554Y781187D1*
X1019356Y784989D1*
X1025104Y786890D1*
X1027005D1*
X1032753Y784989D1*
X1036556Y781187D1*
X1038501Y773537D1*
Y763943D1*
X1036556Y754392D1*
X1032753Y748644D1*
X1027005Y746743D1*
X1023203D1*
X1017455Y748644D1*
X1015554Y752491D1*
X1338719Y788007D2*
Y747815D1*
X1325321Y788007D2*
X1352116D1*
X1364467D2*
Y747815D1*
X1381711D1*
X1387459Y749760D1*
X1389361Y751662D1*
X1391262Y755464D1*
Y761212D1*
X1389361Y765059D1*
X1387459Y766960D1*
X1381711Y768861D1*
X1387459Y770807D1*
X1389361Y772708D1*
X1391262Y776511D1*
Y780358D1*
X1389361Y784160D1*
X1387459Y786106D1*
X1381711Y788007D1*
X1364467D1*
Y768861D2*
X1381711D1*
X1403613Y780313D2*
X1407460Y782259D1*
X1413208Y787963D1*
Y747815D1*
X1437056Y787963D2*
X1431308Y786061D1*
X1427461Y780313D1*
X1425560Y770763D1*
Y765015D1*
X1427461Y755464D1*
X1431308Y749716D1*
X1437056Y747815D1*
X1440858D1*
X1446606Y749716D1*
X1450409Y755464D1*
X1452354Y765015D1*
Y770763D1*
X1450409Y780313D1*
X1446606Y786061D1*
X1440858Y787963D1*
X1437056D1*
X1450409Y780313D2*
X1427461Y755464D1*
X768339Y1235350D2*
X808531D1*
X768339Y1221953D2*
Y1248748D1*
Y1261099D2*
X808531D1*
Y1278343D1*
X806585Y1284091D1*
X804684Y1285992D1*
X800881Y1287893D1*
X795133D1*
X791287Y1285992D1*
X789385Y1284091D1*
X787484Y1278343D1*
X785539Y1284091D1*
X783637Y1285992D1*
X779835Y1287894D1*
X775988D1*
X772186Y1285992D1*
X770240Y1284091D1*
X768339Y1278343D1*
Y1261099D1*
X787484D2*
Y1278343D1*
X776032Y1300245D2*
X774087Y1304092D1*
X768383Y1309840D1*
X808531D1*
X776032Y1322191D2*
X774087Y1326038D1*
X768383Y1331786D1*
X808531D1*
X768339Y941317D2*
X808531D1*
X768339Y927920D2*
Y954715D1*
Y967066D2*
X808531D1*
Y984310D1*
X806585Y990058D1*
X804684Y991959D1*
X800881Y993860D1*
X795133D1*
X791287Y991959D1*
X789385Y990058D1*
X787484Y984310D1*
X785539Y990058D1*
X783637Y991959D1*
X779835Y993861D1*
X775988D1*
X772186Y991959D1*
X770240Y990058D1*
X768339Y984310D1*
Y967066D1*
X787484D2*
Y984310D1*
X776032Y1006212D2*
X774087Y1010059D1*
X768383Y1015807D1*
X808531D1*
X777934Y1030104D2*
X776032D1*
X772186Y1032005D1*
X770284Y1033906D1*
X768383Y1037753D1*
Y1045402D1*
X770284Y1049205D1*
X772186Y1051106D1*
X776032Y1053051D1*
X779835D1*
X783682Y1051106D1*
X789385Y1047303D1*
X808531Y1028158D1*
Y1054953D1*
X2534191Y788007D2*
Y747815D1*
X2520794Y788007D2*
X2547588D1*
X2559940D2*
Y747815D1*
X2577184D1*
X2582932Y749760D1*
X2584833Y751662D1*
X2586734Y755464D1*
Y761212D1*
X2584833Y765059D1*
X2582932Y766960D1*
X2577184Y768861D1*
X2582932Y770807D1*
X2584833Y772708D1*
X2586734Y776511D1*
Y780358D1*
X2584833Y784160D1*
X2582932Y786106D1*
X2577184Y788007D1*
X2559940D1*
Y768861D2*
X2577184D1*
X2599086Y780313D2*
X2602933Y782259D1*
X2608681Y787963D1*
Y747815D1*
X2624879Y787963D2*
X2645881D1*
X2634429Y772664D1*
X2640177D1*
X2643980Y770763D1*
X2645881Y768861D1*
X2647827Y763113D1*
Y759311D1*
X2645881Y753563D1*
X2642079Y749716D1*
X2636331Y747815D1*
X2630583D1*
X2624879Y749716D1*
X2622978Y751662D1*
X2621032Y755464D1*
X2951941Y787515D2*
Y747323D1*
X2938544Y787515D2*
X2965339D1*
X2977690D2*
Y747323D1*
X2994934D1*
X3000682Y749268D1*
X3002583Y751169D1*
X3004485Y754972D1*
Y760720D1*
X3002583Y764567D1*
X3000682Y766468D1*
X2994934Y768369D1*
X3000682Y770315D1*
X3002583Y772216D1*
X3004485Y776019D1*
Y779865D1*
X3002583Y783668D1*
X3000682Y785613D1*
X2994934Y787515D1*
X2977690D1*
Y768369D2*
X2994934D1*
X3016836Y779821D2*
X3020683Y781767D1*
X3026431Y787470D1*
Y747323D1*
X3057928D2*
Y787470D1*
X3038782Y760720D1*
X3067478D1*
X3353778Y788007D2*
Y747815D1*
X3340380Y788007D2*
X3367175D1*
X3379526D2*
Y747815D1*
X3396771D1*
X3402519Y749760D1*
X3404420Y751662D1*
X3406321Y755464D1*
Y761212D1*
X3404420Y765059D1*
X3402519Y766960D1*
X3396771Y768861D1*
X3402519Y770807D1*
X3404420Y772708D1*
X3406321Y776511D1*
Y780358D1*
X3404420Y784160D1*
X3402519Y786106D1*
X3396771Y788007D1*
X3379526D1*
Y768861D2*
X3396771D1*
X3418672Y780313D2*
X3422519Y782259D1*
X3428267Y787963D1*
Y747815D1*
X3463567Y787963D2*
X3444465D1*
X3442564Y770763D1*
X3444465Y772664D1*
X3450213Y774609D1*
X3455917D1*
X3461665Y772664D1*
X3465512Y768861D1*
X3467413Y763113D1*
Y759311D1*
X3465512Y753563D1*
X3461665Y749716D1*
X3455917Y747815D1*
X3450213D1*
X3444465Y749716D1*
X3442564Y751662D1*
X3440619Y755464D1*
X3771581Y788007D2*
Y747815D1*
X3758184Y788007D2*
X3784978D1*
X3797330D2*
Y747815D1*
X3814574D1*
X3820322Y749760D1*
X3822223Y751662D1*
X3824125Y755464D1*
Y761212D1*
X3822223Y765059D1*
X3820322Y766960D1*
X3814574Y768861D1*
X3820322Y770807D1*
X3822223Y772708D1*
X3824125Y776511D1*
Y780358D1*
X3822223Y784160D1*
X3820322Y786106D1*
X3814574Y788007D1*
X3797330D1*
Y768861D2*
X3814574D1*
X3836476Y780313D2*
X3840323Y782259D1*
X3846071Y787963D1*
Y747815D1*
X3881370Y782259D2*
X3879469Y786061D1*
X3873721Y787963D1*
X3869918D1*
X3864170Y786061D1*
X3860323Y780313D1*
X3858422Y770763D1*
Y761212D1*
X3860323Y753563D1*
X3864170Y749716D1*
X3869918Y747815D1*
X3871819D1*
X3877523Y749716D1*
X3881370Y753563D1*
X3883271Y759311D1*
Y761212D1*
X3881370Y766960D1*
X3877523Y770763D1*
X3871819Y772664D1*
X3869918D1*
X3864170Y770763D1*
X3860323Y766960D1*
X3858422Y761212D1*
X765386Y1492794D2*
X805578D1*
X765386Y1479396D2*
Y1506191D1*
Y1518542D2*
X805578D1*
Y1535786D1*
X803633Y1541534D1*
X801731Y1543436D1*
X797929Y1545337D1*
X792181D1*
X788334Y1543436D1*
X786433Y1541534D1*
X784531Y1535786D1*
X782586Y1541534D1*
X780685Y1543436D1*
X776882Y1545337D1*
X773035D1*
X769233Y1543436D1*
X767287Y1541534D1*
X765386Y1535786D1*
Y1518542D1*
X784531D2*
Y1535786D1*
X773080Y1557688D2*
X771134Y1561535D1*
X765430Y1567283D1*
X805578D1*
Y1587284D2*
X765430Y1606429D1*
Y1579634D1*
X3027438Y2386789D2*
Y2358093D1*
X3029340Y2352345D1*
X3033187Y2348542D1*
X3038935Y2346597D1*
X3042737D1*
X3048485Y2348542D1*
X3052332Y2352345D1*
X3054233Y2358093D1*
Y2386789D1*
X3066585Y2379095D2*
X3070431Y2381041D1*
X3076179Y2386745D1*
Y2346597D1*
X3242029Y1338206D2*
Y1309510D1*
X3243930Y1303762D1*
X3247777Y1299959D1*
X3253525Y1298014D1*
X3257327D1*
X3263075Y1299959D1*
X3266922Y1303762D1*
X3268824Y1309510D1*
Y1338206D1*
X3283120Y1328611D2*
Y1330512D1*
X3285022Y1334359D1*
X3286923Y1336260D1*
X3290770Y1338161D1*
X3298419D1*
X3302222Y1336260D1*
X3304123Y1334359D1*
X3306068Y1330512D1*
Y1326710D1*
X3304123Y1322863D1*
X3300320Y1317159D1*
X3281175Y1298014D1*
X3307970D1*
X1548230Y1191649D2*
Y1162953D1*
X1550131Y1157205D1*
X1553978Y1153402D1*
X1559726Y1151457D1*
X1563528D1*
X1569276Y1153402D1*
X1573123Y1157205D1*
X1575024Y1162953D1*
Y1191649D1*
X1591222Y1191604D2*
X1612225D1*
X1600773Y1176306D1*
X1606521D1*
X1610324Y1174404D1*
X1612225Y1172503D1*
X1614170Y1166755D1*
Y1162953D1*
X1612225Y1157205D1*
X1608422Y1153358D1*
X1602674Y1151457D1*
X1596926D1*
X1591222Y1153358D1*
X1589321Y1155303D1*
X1587376Y1159106D1*
X2397279Y1191649D2*
Y1162953D1*
X2399180Y1157205D1*
X2403027Y1153402D1*
X2408775Y1151457D1*
X2412578D1*
X2418326Y1153402D1*
X2422172Y1157205D1*
X2424074Y1162953D1*
Y1191649D1*
X2455570Y1151457D2*
Y1191604D1*
X2436425Y1164854D1*
X2465121D1*
X454479Y3333971D2*
Y3293779D1*
X467876D1*
X473624Y3295725D1*
X477471Y3299527D1*
X479372Y3303374D1*
X481274Y3309078D1*
Y3318673D1*
X479372Y3324421D1*
X477471Y3328223D1*
X473624Y3332070D1*
X467876Y3333971D1*
X454479D1*
X495571Y3324377D2*
Y3326278D1*
X497472Y3330125D1*
X499373Y3332026D1*
X503220Y3333927D1*
X510869D1*
X514672Y3332026D1*
X516573Y3330125D1*
X518518Y3326278D1*
Y3322475D1*
X516573Y3318629D1*
X512770Y3312925D1*
X493625Y3293779D1*
X520420D1*
X469936Y2934967D2*
Y2915866D1*
X487136Y2913964D1*
X485234Y2915866D1*
X483289Y2921614D1*
Y2927318D1*
X485235Y2933066D1*
X489037Y2936912D1*
X494785Y2938814D1*
X498588D1*
X504336Y2936912D1*
X508182Y2933066D1*
X510084Y2927317D1*
Y2921614D1*
X508182Y2915866D1*
X506237Y2913964D1*
X502434Y2912019D1*
X469892Y2951165D2*
X510084Y2966464D1*
X469892Y2981762D1*
X590085Y2912019D2*
X588140Y2915866D1*
X582436Y2921614D1*
X622584D1*
X590085Y2933965D2*
X588140Y2937812D1*
X582436Y2943560D1*
X622584D1*
X677585Y2912019D2*
X675640Y2915866D1*
X669936Y2921614D1*
X710084D1*
X669936Y2945461D2*
X671837Y2939713D1*
X677585Y2935866D1*
X687136Y2933965D1*
X692884D1*
X702434Y2935866D1*
X708182Y2939713D1*
X710084Y2945461D1*
Y2949264D1*
X708182Y2955012D1*
X702434Y2958814D1*
X692884Y2960760D1*
X687136D1*
X677585Y2958814D1*
X671837Y2955012D1*
X669936Y2949264D1*
Y2945461D1*
X677585Y2958814D2*
X702434Y2935866D1*
X783289Y2936912D2*
X789037Y2934967D1*
X792884Y2931164D1*
X794785Y2925416D1*
Y2923515D1*
X792884Y2917767D1*
X789037Y2913964D1*
X783289Y2912019D1*
X781388D1*
X775640Y2913964D1*
X771837Y2917767D1*
X769936Y2923515D1*
Y2925416D1*
X771837Y2931164D1*
X775640Y2934967D1*
X783289Y2936912D1*
X792884D1*
X802434Y2934967D1*
X808182Y2931164D1*
X810084Y2925416D1*
Y2921614D1*
X808182Y2915866D1*
X804336Y2913964D1*
X883834Y2912019D2*
X881889Y2915866D1*
X876185Y2921614D1*
X916333D1*
X876185Y2937812D2*
Y2958814D1*
X891484Y2947362D1*
Y2953110D1*
X893385Y2956913D1*
X895286Y2958814D1*
X901034Y2960760D1*
X904837D1*
X910585Y2958814D1*
X914432Y2955012D1*
X916333Y2949264D1*
Y2943516D1*
X914432Y2937812D1*
X912486Y2935911D1*
X908684Y2933965D1*
X991942Y2940715D2*
X988140Y2938814D1*
X984293Y2934967D1*
X982392Y2931164D1*
Y2923515D1*
X984293Y2919668D1*
X988140Y2915866D1*
X991942Y2913920D1*
X997690Y2912019D1*
X1007285D1*
X1012989Y2913920D1*
X1016836Y2915866D1*
X1020638Y2919668D1*
X1022584Y2923515D1*
Y2931164D1*
X1020638Y2934967D1*
X1016836Y2938814D1*
X1012989Y2940715D1*
X1007285D1*
Y2931164D1*
X1077585Y2912019D2*
X1075640Y2915866D1*
X1069936Y2921614D1*
X1110084D1*
X1079486Y2935911D2*
X1077585D1*
X1073738Y2937812D1*
X1071837Y2939713D1*
X1069936Y2943560D1*
Y2951209D1*
X1071837Y2955012D1*
X1073738Y2956913D1*
X1077585Y2958858D1*
X1081388D1*
X1085235Y2956913D1*
X1090938Y2953110D1*
X1110084Y2933965D1*
Y2960760D1*
X1177585Y2912019D2*
X1175640Y2915866D1*
X1169936Y2921614D1*
X1210084D1*
Y2953110D2*
X1169936D1*
X1196686Y2933965D1*
Y2962661D1*
X1285737Y2913964D2*
X1283836D1*
X1279989Y2915866D1*
X1278088Y2917767D1*
X1276187Y2921614D1*
Y2929263D1*
X1278088Y2933066D1*
X1279989Y2934967D1*
X1283836Y2936912D1*
X1287638D1*
X1291485Y2934967D1*
X1297189Y2931164D1*
X1316334Y2912019D1*
Y2938814D1*
Y2958814D2*
X1276187Y2977960D1*
Y2951165D1*
X1379486Y2913964D2*
X1377585D1*
X1373738Y2915866D1*
X1371837Y2917767D1*
X1369936Y2921614D1*
Y2929263D1*
X1371837Y2933066D1*
X1373738Y2934967D1*
X1377585Y2936912D1*
X1381388D1*
X1385235Y2934967D1*
X1390938Y2931164D1*
X1410084Y2912019D1*
Y2938814D1*
X1375640Y2974113D2*
X1371837Y2972212D1*
X1369936Y2966464D1*
Y2962661D1*
X1371837Y2956913D1*
X1377585Y2953066D1*
X1387136Y2951165D1*
X1396686D1*
X1404336Y2953066D1*
X1408182Y2956913D1*
X1410084Y2962661D1*
Y2964562D1*
X1408182Y2970266D1*
X1404336Y2974113D1*
X1398588Y2976014D1*
X1396686D1*
X1390938Y2974113D1*
X1387136Y2970266D1*
X1385235Y2964562D1*
Y2962661D1*
X1387136Y2956913D1*
X1390938Y2953066D1*
X1396686Y2951165D1*
X1485736Y2913964D2*
X1483834D1*
X1479988Y2915866D1*
X1478086Y2917767D1*
X1476185Y2921614D1*
Y2929263D1*
X1478087Y2933066D1*
X1479988Y2934967D1*
X1483835Y2936912D1*
X1487637D1*
X1491484Y2934967D1*
X1497188Y2931164D1*
X1516333Y2912019D1*
Y2938814D1*
X1476185Y2974113D2*
Y2955012D1*
X1493385Y2953110D1*
X1491484Y2955012D1*
X1489538Y2960760D1*
Y2966464D1*
X1491484Y2972212D1*
X1495286Y2976058D1*
X1501034Y2977960D1*
X1504837D1*
X1510585Y2976058D1*
X1514432Y2972212D1*
X1516333Y2966464D1*
Y2960760D1*
X1514432Y2955012D1*
X1512486Y2953110D1*
X1508684Y2951165D1*
X1569936Y2915866D2*
Y2936868D1*
X1585234Y2925416D1*
Y2931164D1*
X1587136Y2934967D1*
X1589037Y2936868D1*
X1594785Y2938814D1*
X1598588D1*
X1604336Y2936868D1*
X1608182Y2933066D1*
X1610084Y2927317D1*
Y2921569D1*
X1608182Y2915866D1*
X1606237Y2913964D1*
X1602434Y2912019D1*
X1569936Y2955012D2*
Y2976014D1*
X1585235Y2964562D1*
Y2970310D1*
X1587136Y2974113D1*
X1589037Y2976014D1*
X1594785Y2977960D1*
X1598588D1*
X1604336Y2976014D1*
X1608182Y2972212D1*
X1610084Y2966464D1*
Y2960715D1*
X1608182Y2955012D1*
X1606237Y2953110D1*
X1602434Y2951165D1*
X1676187Y2915866D2*
Y2936868D1*
X1691485Y2925416D1*
Y2931164D1*
X1693386Y2934967D1*
X1695288Y2936868D1*
X1701036Y2938814D1*
X1704838D1*
X1710586Y2936868D1*
X1714433Y2933066D1*
X1716334Y2927317D1*
Y2921569D1*
X1714433Y2915866D1*
X1712488Y2913964D1*
X1708685Y2912019D1*
X1685737Y2953110D2*
X1683836D1*
X1679989Y2955012D1*
X1678088Y2956913D1*
X1676187Y2960760D1*
Y2968409D1*
X1678088Y2972212D1*
X1679989Y2974113D1*
X1683836Y2976058D1*
X1687638D1*
X1691485Y2974113D1*
X1697189Y2970310D1*
X1716334Y2951165D1*
Y2977960D1*
X1782436Y2915866D2*
Y2936868D1*
X1797734Y2925416D1*
Y2931164D1*
X1799636Y2934967D1*
X1801537Y2936868D1*
X1807285Y2938814D1*
X1811088D1*
X1816836Y2936868D1*
X1820682Y2933066D1*
X1822584Y2927317D1*
Y2921569D1*
X1820682Y2915866D1*
X1818737Y2913964D1*
X1814934Y2912019D1*
X1782436Y2974113D2*
Y2955012D1*
X1799636Y2953110D1*
X1797735Y2955012D1*
X1795789Y2960760D1*
Y2966464D1*
X1797735Y2972212D1*
X1801537Y2976058D1*
X1807285Y2977960D1*
X1811088D1*
X1816836Y2976058D1*
X1820682Y2972212D1*
X1822584Y2966464D1*
Y2960760D1*
X1820682Y2955012D1*
X1818737Y2953110D1*
X1814934Y2951165D1*
X1876185Y2915866D2*
Y2936868D1*
X1891484Y2925416D1*
Y2931164D1*
X1893385Y2934967D1*
X1895286Y2936868D1*
X1901034Y2938814D1*
X1904837D1*
X1910585Y2936868D1*
X1914432Y2933066D1*
X1916333Y2927317D1*
Y2921569D1*
X1914432Y2915866D1*
X1912486Y2913964D1*
X1908684Y2912019D1*
X1916333Y2970310D2*
X1876185D1*
X1902936Y2951165D1*
Y2979861D1*
X1976185Y2915866D2*
Y2936868D1*
X1991484Y2925416D1*
Y2931164D1*
X1993385Y2934967D1*
X1995286Y2936868D1*
X2001034Y2938814D1*
X2004837D1*
X2010585Y2936868D1*
X2014432Y2933066D1*
X2016333Y2927317D1*
Y2921569D1*
X2014432Y2915866D1*
X2012486Y2913964D1*
X2008684Y2912019D1*
X1989538Y2976058D2*
X1995286Y2974113D1*
X1999133Y2970310D1*
X2001034Y2964562D1*
Y2962661D1*
X1999133Y2956913D1*
X1995286Y2953110D1*
X1989538Y2951165D1*
X1987637D1*
X1981889Y2953110D1*
X1978087Y2956913D1*
X1976185Y2962661D1*
Y2964562D1*
X1978087Y2970310D1*
X1981889Y2974113D1*
X1989538Y2976058D1*
X1999133D1*
X2008684Y2974113D1*
X2014432Y2970310D1*
X2016333Y2964562D1*
Y2960760D1*
X2014432Y2955012D1*
X2010585Y2953110D1*
X2076187Y2915866D2*
Y2936868D1*
X2091485Y2925416D1*
Y2931164D1*
X2093386Y2934967D1*
X2095288Y2936868D1*
X2101036Y2938814D1*
X2104838D1*
X2110586Y2936868D1*
X2114433Y2933066D1*
X2116334Y2927317D1*
Y2921569D1*
X2114433Y2915866D1*
X2112488Y2913964D1*
X2108685Y2912019D1*
X2081890Y2974113D2*
X2078088Y2972212D1*
X2076187Y2966464D1*
Y2962661D1*
X2078088Y2956913D1*
X2083836Y2953066D1*
X2093386Y2951165D1*
X2102937D1*
X2110586Y2953066D1*
X2114433Y2956913D1*
X2116334Y2962661D1*
Y2964562D1*
X2114433Y2970266D1*
X2110586Y2974113D1*
X2104838Y2976014D1*
X2102937D1*
X2097189Y2974113D1*
X2093386Y2970266D1*
X2091485Y2964562D1*
Y2962661D1*
X2093386Y2956913D1*
X2097189Y2953066D1*
X2102937Y2951165D1*
X2182392Y2936868D2*
Y2912019D1*
X2222584D1*
Y2936868D1*
X2201537Y2912019D2*
Y2927318D1*
X2182392Y2976014D2*
X2222584D1*
X2182392Y2949219D1*
X2222584D1*
X2269936Y2915866D2*
Y2936868D1*
X2285234Y2925416D1*
Y2931164D1*
X2287136Y2934967D1*
X2289037Y2936868D1*
X2294785Y2938814D1*
X2298588D1*
X2304336Y2936868D1*
X2308182Y2933066D1*
X2310084Y2927317D1*
Y2921569D1*
X2308182Y2915866D1*
X2306237Y2913964D1*
X2302434Y2912019D1*
X2283289Y2951165D2*
X2310084Y2962661D1*
X2283289Y2974113D1*
X2269936Y2990311D2*
Y3011313D1*
X2285234Y2999862D1*
Y3005610D1*
X2287136Y3009412D1*
X2289037Y3011313D1*
X2294785Y3013259D1*
X2298588D1*
X2304336Y3011313D1*
X2308182Y3007511D1*
X2310084Y3001763D1*
Y2996015D1*
X2308182Y2990311D1*
X2306237Y2988410D1*
X2302434Y2986464D1*
X481890Y1742858D2*
X478088Y1740957D1*
X476187Y1735209D1*
Y1731406D1*
X478088Y1725658D1*
X483836Y1721811D1*
X493386Y1719910D1*
X502937D1*
X510586Y1721811D1*
X514433Y1725658D1*
X516334Y1731406D1*
Y1733307D1*
X514433Y1739011D1*
X510586Y1742858D1*
X504838Y1744759D1*
X502937D1*
X497189Y1742858D1*
X493386Y1739011D1*
X491485Y1733307D1*
Y1731406D1*
X493386Y1725658D1*
X497189Y1721811D1*
X502937Y1719910D1*
X610084Y1725614D2*
X569936Y1744760D1*
Y1717965D1*
X676185Y1727559D2*
X678086Y1721855D1*
X681889Y1719910D1*
X685736D1*
X689538Y1721855D1*
X691484Y1725658D1*
X693385Y1733307D1*
X695286Y1739055D1*
X699133Y1742858D1*
X702936Y1744759D1*
X708684D1*
X712486Y1742858D1*
X714432Y1740956D1*
X716333Y1735208D1*
Y1727559D1*
X714432Y1721855D1*
X712486Y1719910D1*
X708684Y1718008D1*
X702936D1*
X699133Y1719910D1*
X695286Y1723756D1*
X693385Y1729460D1*
X691484Y1737110D1*
X689538Y1740956D1*
X685736Y1742858D1*
X681889D1*
X678087Y1740956D1*
X676185Y1735208D1*
Y1727559D1*
X783834Y1696019D2*
X781889Y1699866D1*
X776185Y1705614D1*
X816333D1*
X776185Y1740913D2*
Y1721812D1*
X793385Y1719911D1*
X791484Y1721812D1*
X789538Y1727560D1*
Y1733264D1*
X791484Y1739012D1*
X795286Y1742858D1*
X801034Y1744760D1*
X804837D1*
X810585Y1742858D1*
X814432Y1739012D1*
X816333Y1733264D1*
Y1727560D1*
X814432Y1721812D1*
X812486Y1719911D1*
X808684Y1717965D1*
X879486Y1719911D2*
X877585D1*
X873738Y1721812D1*
X871837Y1723713D1*
X869936Y1727560D1*
Y1735209D1*
X871837Y1739012D1*
X873738Y1740913D1*
X877585Y1742859D1*
X881388D1*
X885235Y1740913D1*
X890938Y1737110D1*
X910084Y1717965D1*
Y1744760D1*
X976185Y1729461D2*
X978086Y1723713D1*
X983834Y1719866D1*
X993385Y1717965D1*
X999133D1*
X1008684Y1719866D1*
X1014432Y1723713D1*
X1016333Y1729461D1*
Y1733264D1*
X1014432Y1739012D1*
X1008684Y1742814D1*
X999133Y1744760D1*
X993385D1*
X983835Y1742814D1*
X978087Y1739012D1*
X976185Y1733264D1*
Y1729461D1*
X983835Y1742814D2*
X1008684Y1719866D1*
X1116333Y1735209D2*
X1076185D1*
X1102936Y1716064D1*
Y1744759D1*
X1177585Y1697964D2*
X1175640Y1701811D1*
X1169936Y1707559D1*
X1210084D1*
X1175640Y1742858D2*
X1171837Y1740957D1*
X1169936Y1735209D1*
Y1731406D1*
X1171837Y1725658D1*
X1177585Y1721811D1*
X1187136Y1719910D1*
X1196686D1*
X1204336Y1721811D1*
X1208182Y1725658D1*
X1210084Y1731406D1*
Y1733307D1*
X1208182Y1739011D1*
X1204336Y1742858D1*
X1198588Y1744759D1*
X1196686D1*
X1190938Y1742858D1*
X1187136Y1739011D1*
X1185235Y1733307D1*
Y1731406D1*
X1187136Y1725658D1*
X1190938Y1721811D1*
X1196686Y1719910D1*
X1277585Y1696019D2*
X1275640Y1699866D1*
X1269936Y1705614D1*
X1310084D1*
Y1725614D2*
X1269936Y1744760D1*
Y1717965D1*
X1369936Y1740913D2*
Y1721812D1*
X1387136Y1719911D1*
X1385234Y1721812D1*
X1383289Y1727560D1*
Y1733264D1*
X1385235Y1739012D1*
X1389037Y1742859D1*
X1394785Y1744760D1*
X1398588D1*
X1404336Y1742858D1*
X1408182Y1739012D1*
X1410084Y1733264D1*
Y1727560D1*
X1408182Y1721812D1*
X1406237Y1719911D1*
X1402434Y1717965D1*
X1483836Y1696062D2*
X1481890Y1699909D1*
X1476187Y1705657D1*
X1516334D1*
X1476187Y1727559D2*
X1478088Y1721855D1*
X1481890Y1719910D1*
X1485737D1*
X1489540Y1721855D1*
X1491485Y1725658D1*
X1493386Y1733307D1*
X1495288Y1739055D1*
X1499134Y1742858D1*
X1502937Y1744759D1*
X1508685D1*
X1512488Y1742858D1*
X1514433Y1740956D1*
X1516334Y1735208D1*
Y1727559D1*
X1514433Y1721855D1*
X1512488Y1719910D1*
X1508685Y1718008D1*
X1502937D1*
X1499134Y1719910D1*
X1495288Y1723756D1*
X1493386Y1729460D1*
X1491485Y1737110D1*
X1489540Y1740956D1*
X1485737Y1742858D1*
X1481890D1*
X1478088Y1740956D1*
X1476187Y1735208D1*
Y1727559D1*
X1583836Y1697919D2*
X1581890Y1701766D1*
X1576187Y1707514D1*
X1616334D1*
X1589540Y1744759D2*
X1595288Y1742813D1*
X1599134Y1739011D1*
X1601036Y1733263D1*
Y1731361D1*
X1599134Y1725613D1*
X1595288Y1721811D1*
X1589540Y1719865D1*
X1587638D1*
X1581890Y1721811D1*
X1578088Y1725613D1*
X1576187Y1731361D1*
Y1733263D1*
X1578088Y1739011D1*
X1581890Y1742813D1*
X1589540Y1744759D1*
X1599134D1*
X1608685Y1742813D1*
X1614433Y1739011D1*
X1616334Y1733263D1*
Y1729460D1*
X1614433Y1723712D1*
X1610586Y1721811D1*
X1685692Y1744759D2*
X1681889Y1742858D1*
X1678042Y1739011D1*
X1676141Y1735209D1*
Y1727560D1*
X1678042Y1723713D1*
X1681889Y1719910D1*
X1685692Y1717965D1*
X1691440Y1716064D1*
X1701034D1*
X1706738Y1717965D1*
X1710585Y1719910D1*
X1714388Y1723713D1*
X1716333Y1727560D1*
Y1735209D1*
X1714388Y1739011D1*
X1710585Y1742858D1*
X1706738Y1744759D1*
X1701034D1*
Y1735209D1*
X1785737Y1704214D2*
X1783836D1*
X1779989Y1706115D1*
X1778088Y1708016D1*
X1776187Y1711863D1*
Y1719512D1*
X1778088Y1723315D1*
X1779989Y1725216D1*
X1783836Y1727162D1*
X1787638D1*
X1791485Y1725216D1*
X1797189Y1721414D1*
X1816334Y1702268D1*
Y1729063D1*
X1783836Y1741414D2*
X1781890Y1745261D1*
X1776187Y1751009D1*
X1816334D1*
X1882436Y1721812D2*
Y1742814D1*
X1897734Y1731362D1*
Y1737110D1*
X1899636Y1740913D1*
X1901537Y1742814D1*
X1907285Y1744760D1*
X1911088D1*
X1916836Y1742814D1*
X1920682Y1739012D1*
X1922584Y1733264D1*
Y1727516D1*
X1920682Y1721812D1*
X1918737Y1719911D1*
X1914934Y1717965D1*
X1983834Y1735165D2*
X1981889Y1739011D1*
X1976185Y1744759D1*
X2016333D1*
X2085737Y1680764D2*
X2083836D1*
X2079989Y1682665D1*
X2078088Y1684566D1*
X2076187Y1688413D1*
Y1696062D1*
X2078088Y1699865D1*
X2079989Y1701766D1*
X2083836Y1703712D1*
X2087638D1*
X2091485Y1701766D1*
X2097189Y1697963D1*
X2116334Y1678818D1*
Y1705613D1*
X2085737Y1719910D2*
X2083836D1*
X2079989Y1721811D1*
X2078088Y1723712D1*
X2076187Y1727559D1*
Y1735208D1*
X2078088Y1739011D1*
X2079989Y1740912D1*
X2083836Y1742858D1*
X2087638D1*
X2091485Y1740912D1*
X2097189Y1737110D1*
X2116334Y1717964D1*
Y1744759D1*
X2185737Y1680764D2*
X2183836D1*
X2179989Y1682665D1*
X2178088Y1684566D1*
X2176187Y1688413D1*
Y1696062D1*
X2178088Y1699865D1*
X2179989Y1701766D1*
X2183836Y1703712D1*
X2187638D1*
X2191485Y1701766D1*
X2197189Y1697963D1*
X2216334Y1678818D1*
Y1705613D1*
X2176187Y1721811D2*
Y1742813D1*
X2191485Y1731361D1*
Y1737110D1*
X2193386Y1740912D1*
X2195288Y1742813D1*
X2201036Y1744759D1*
X2204838D1*
X2210586Y1742813D1*
X2214433Y1739011D1*
X2216334Y1733263D1*
Y1727515D1*
X2214433Y1721811D1*
X2212488Y1719910D1*
X2208685Y1717964D1*
X2285692Y1744759D2*
X2281889Y1742858D1*
X2278042Y1739011D1*
X2276141Y1735209D1*
Y1727560D1*
X2278042Y1723713D1*
X2281889Y1719910D1*
X2285692Y1717965D1*
X2291440Y1716064D1*
X2301034D1*
X2306738Y1717965D1*
X2310585Y1719910D1*
X2314388Y1723713D1*
X2316333Y1727560D1*
Y1735209D1*
X2314388Y1739011D1*
X2310585Y1742858D1*
X2306738Y1744759D1*
X2301034D1*
Y1735209D1*
X2643172Y3310887D2*
D116*
X2638419Y3308510D1*
X2633610Y3303702D1*
X2631234Y3298948D1*
Y3289387D1*
X2633610Y3284578D1*
X2638419Y3279825D1*
X2643172Y3277393D1*
X2650357Y3275017D1*
X2662350D1*
X2669480Y3277393D1*
X2674288Y3279825D1*
X2679042Y3284578D1*
X2681474Y3289387D1*
Y3298948D1*
X2679042Y3303701D1*
X2674289Y3308510D1*
X2669480Y3310886D1*
X2662350Y3310887D1*
Y3298948D1*
X2731289Y3273576D2*
Y3299829D1*
X2750412Y3285514D1*
Y3292699D1*
X2752789Y3297452D1*
X2755165Y3299829D1*
X2762350Y3302261D1*
X2767103D1*
X2774289Y3299829D1*
X2779097Y3295076D1*
X2781474Y3287890D1*
Y3280705D1*
X2779097Y3273576D1*
X2776665Y3271199D1*
X2771912Y3268767D1*
X2747980Y3317700D2*
X2781474Y3332070D1*
X2747980Y3346385D1*
X2731289Y3366632D2*
Y3392885D1*
X2750412Y3378571D1*
Y3385756D1*
X2752789Y3390509D1*
X2755165Y3392885D1*
X2762350Y3395317D1*
X2767103D1*
X2774288Y3392885D1*
X2779097Y3388132D1*
X2781474Y3380947D1*
Y3373762D1*
X2779097Y3366632D1*
X2776665Y3364256D1*
X2771912Y3361824D1*
X2831290Y3303702D2*
Y3279825D1*
X2852790Y3277448D1*
X2850413Y3279825D1*
X2847982Y3287010D1*
Y3294140D1*
X2850413Y3301325D1*
X2855167Y3306133D1*
X2862352Y3308510D1*
X2867105D1*
X2874290Y3306133D1*
X2879098Y3301325D1*
X2881475Y3294140D1*
Y3287010D1*
X2879098Y3279825D1*
X2876666Y3277448D1*
X2871913Y3275017D1*
X2937484Y3268767D2*
X2987724Y3287890D1*
X2937484Y3307014D1*
Y3322453D2*
X2939861Y3324830D1*
X2937484Y3327261D1*
X2935052Y3324830D1*
X2937484Y3322453D1*
X2954231Y3324830D2*
X2987724D1*
X2954231Y3342701D2*
X2987724D1*
X2963793D2*
X2956607Y3349886D1*
X2954231Y3354694D1*
Y3361824D1*
X2956607Y3366632D1*
X2963792Y3369009D1*
X2987724D1*
X4110300Y1405300D2*
D115*
X4108399Y1409103D1*
X4104552Y1412950D1*
X4100749Y1414851D1*
X4093100D1*
X4089253Y1412950D1*
X4085451Y1409103D1*
X4083505Y1405300D1*
X4081604Y1399552D1*
Y1389957D1*
X4083505Y1384254D1*
X4085451Y1380407D1*
X4089253Y1376604D1*
X4093100Y1374659D1*
X4100749D1*
X4104552Y1376604D1*
X4108399Y1380407D1*
X4110300Y1384254D1*
Y1389957D1*
X4100749D1*
X4122651Y1401454D2*
Y1374659D1*
Y1393804D2*
X4128399Y1399552D1*
X4132246Y1401454D1*
X4137950D1*
X4141797Y1399552D1*
X4143698Y1393804D1*
Y1374659D1*
X4178997Y1414851D2*
Y1374659D1*
Y1395706D2*
X4175195Y1399552D1*
X4171348Y1401454D1*
X4165600D1*
X4161798Y1399552D1*
X4157951Y1395706D1*
X4156049Y1389957D1*
Y1386155D1*
X4157951Y1380407D1*
X4161798Y1376604D1*
X4165600Y1374659D1*
X4171348D1*
X4175195Y1376604D1*
X4178997Y1380407D1*
X4118496Y1105908D2*
X4103153Y1146100D1*
X4087855Y1105908D1*
X4093603Y1119306D2*
X4112748D1*
X4091647Y1277351D2*
Y1237159D1*
X4108892D1*
X4114640Y1239104D1*
X4116541Y1241006D1*
X4118442Y1244808D1*
Y1250556D1*
X4116541Y1254403D1*
X4114640Y1256304D1*
X4108892Y1258206D1*
X4114640Y1260151D1*
X4116541Y1262052D1*
X4118442Y1265855D1*
Y1269702D1*
X4116541Y1273504D1*
X4114640Y1275450D1*
X4108892Y1277351D1*
X4091647D1*
Y1258206D2*
X4108892D1*
X3740294Y1152804D2*
Y1170004D1*
X3738349Y1175752D1*
X3736448Y1177697D1*
X3732645Y1179598D1*
X3728798D1*
X3724996Y1177697D1*
X3723050Y1175752D1*
X3721149Y1170004D1*
Y1152804D1*
X3761341D1*
X3740294Y1166201D2*
X3761341Y1179598D1*
X3726897Y1218744D2*
X3723050Y1214942D1*
X3721149Y1209194D1*
Y1201545D1*
X3723050Y1195797D1*
X3726897Y1191950D1*
X3730699D1*
X3734546Y1193895D1*
X3736448Y1195796D1*
X3738349Y1199599D1*
X3742196Y1211095D1*
X3744097Y1214942D1*
X3746042Y1216843D1*
X3749845Y1218744D1*
X3755593D1*
X3759395Y1214942D1*
X3761341Y1209194D1*
Y1201544D1*
X3759395Y1195796D1*
X3755593Y1191950D1*
X3761341Y1250241D2*
X3721193D1*
X3747944Y1231096D1*
Y1259792D1*
X3721193Y1281694D2*
X3723094Y1275990D1*
X3726897Y1274044D1*
X3730744D1*
X3734546Y1275990D1*
X3736492Y1279792D1*
X3738393Y1287442D1*
X3740294Y1293190D1*
X3744141Y1296992D1*
X3747944Y1298894D1*
X3753692D1*
X3757494Y1296992D1*
X3759440Y1295091D1*
X3761341Y1289343D1*
Y1281694D1*
X3759440Y1275990D1*
X3757494Y1274044D1*
X3753692Y1272143D1*
X3747944D1*
X3744141Y1274044D1*
X3740294Y1277891D1*
X3738393Y1283595D1*
X3736492Y1291244D1*
X3734546Y1295091D1*
X3730744Y1296992D1*
X3726897D1*
X3723094Y1295091D1*
X3721193Y1289343D1*
Y1281694D1*
Y1334193D2*
Y1315092D1*
X3738393Y1313190D1*
X3736492Y1315092D1*
X3734546Y1320840D1*
Y1326544D1*
X3736492Y1332292D1*
X3740294Y1336138D1*
X3746042Y1338040D1*
X3749845D1*
X3755593Y1336138D1*
X3759440Y1332292D1*
X3761341Y1326544D1*
Y1320840D1*
X3759440Y1315092D1*
X3757494Y1313190D1*
X3753692Y1311245D1*
X1390617Y433365D2*
Y408516D1*
X1430809D1*
Y433365D1*
X1409763Y408516D2*
Y423815D1*
X1404015Y445717D2*
X1430809D1*
X1411664D2*
X1405916Y451465D1*
X1404015Y455312D1*
Y461015D1*
X1405916Y464862D1*
X1411664Y466763D1*
X1430809D1*
X1410736Y479115D2*
Y501223D1*
X2625068Y3832295D2*
D116*
X2622691Y3837048D1*
X2617882Y3841857D1*
X2613129Y3844233D1*
X2603568D1*
X2598759Y3841857D1*
X2594006Y3837048D1*
X2591574Y3832295D1*
X2589198Y3825110D1*
Y3813117D1*
X2591574Y3805987D1*
X2594006Y3801178D1*
X2598759Y3796425D1*
X2603568Y3793993D1*
X2613129D1*
X2617882Y3796425D1*
X2622691Y3801178D1*
X2625068Y3805987D1*
Y3813117D1*
X2613129D1*
X2640507Y3827487D2*
Y3793993D1*
Y3813117D2*
X2642939Y3820302D1*
X2647692Y3825110D1*
X2652500Y3827487D1*
X2659685D1*
X2675125Y3844233D2*
Y3793993D1*
Y3820302D2*
X2679933Y3825110D1*
X2684686Y3827487D1*
X2691871D1*
X2696624Y3825110D1*
X2701433Y3820302D1*
X2703809Y3813117D1*
Y3808364D1*
X2701433Y3801178D1*
X2696624Y3796425D1*
X2691871Y3793993D1*
X2684686D1*
X2679933Y3796425D1*
X2675125Y3801178D1*
X2719249Y3844233D2*
Y3793993D1*
X2734688Y3785703D2*
X2780119D1*
X2826620Y3844233D2*
X2795559D1*
Y3793993D1*
X2826620D1*
X2795559Y3820302D2*
X2814682D1*
X2875553Y3837048D2*
X2870800Y3841857D1*
X2863615Y3844233D1*
X2854053D1*
X2846868Y3841857D1*
X2842059Y3837048D1*
Y3832295D1*
X2844491Y3827487D1*
X2846868Y3825110D1*
X2851621Y3822734D1*
X2865991Y3817925D1*
X2870800Y3815549D1*
X2873176Y3813117D1*
X2875553Y3808364D1*
Y3801178D1*
X2870800Y3796425D1*
X2863615Y3793993D1*
X2854053D1*
X2846868Y3796425D1*
X2842059Y3801178D1*
X2890992Y3817925D2*
X2912547D1*
X2919677Y3820302D1*
X2922109Y3822734D1*
X2924485Y3827487D1*
Y3834672D1*
X2922109Y3839425D1*
X2919677Y3841857D1*
X2912547Y3844233D1*
X2890992D1*
Y3793993D1*
X2944733Y3844178D2*
X2970986D1*
X2956671Y3825055D1*
X2963856D1*
X2968610Y3822678D1*
X2970986Y3820302D1*
X2973418Y3813117D1*
Y3808364D1*
X2970986Y3801178D1*
X2966233Y3796370D1*
X2959048Y3793993D1*
X2951863D1*
X2944733Y3796370D1*
X2942356Y3798802D1*
X2939925Y3803555D1*
X2991289Y3832240D2*
Y3834617D1*
X2993666Y3839425D1*
X2996042Y3841802D1*
X3000851Y3844178D1*
X3010412D1*
X3015166Y3841802D1*
X3017542Y3839425D1*
X3019974Y3834617D1*
Y3829863D1*
X3017542Y3825055D1*
X3012789Y3817925D1*
X2988857Y3793993D1*
X3022351D1*
X3122261Y3832295D2*
X3119884Y3837048D1*
X3115076Y3841857D1*
X3110322Y3844233D1*
X3100761D1*
X3095952Y3841857D1*
X3091199Y3837048D1*
X3088767Y3832295D1*
X3086391Y3825110D1*
Y3813117D1*
X3088767Y3805987D1*
X3091199Y3801178D1*
X3095952Y3796425D1*
X3100761Y3793993D1*
X3110322D1*
X3115076Y3796425D1*
X3119884Y3801178D1*
X3122261Y3805987D1*
X3171193Y3844233D2*
Y3793993D1*
X3137700Y3844233D1*
Y3793993D1*
X3222502Y3832295D2*
X3220126Y3837048D1*
X3215317Y3841857D1*
X3210564Y3844233D1*
X3201003D1*
X3196194Y3841857D1*
X3191441Y3837048D1*
X3189009Y3832295D1*
X3186633Y3825110D1*
Y3813117D1*
X3189009Y3805987D1*
X3191441Y3801178D1*
X3196194Y3796425D1*
X3201003Y3793993D1*
X3210564D1*
X3215317Y3796425D1*
X3220126Y3801178D1*
X3222502Y3805987D1*
X3322413Y3832295D2*
X3320036Y3837048D1*
X3315228Y3841857D1*
X3310474Y3844233D1*
X3300913D1*
X3296104Y3841857D1*
X3291351Y3837048D1*
X3288919Y3832295D1*
X3286543Y3825110D1*
Y3813117D1*
X3288919Y3805987D1*
X3291351Y3801178D1*
X3296104Y3796425D1*
X3300913Y3793993D1*
X3310474D1*
X3315228Y3796425D1*
X3320036Y3801178D1*
X3322413Y3805987D1*
X3349790Y3827487D2*
X3345037Y3825110D1*
X3340228Y3820302D1*
X3337852Y3813117D1*
Y3808364D1*
X3340228Y3801178D1*
X3345037Y3796425D1*
X3349790Y3793993D1*
X3356975D1*
X3361784Y3796425D1*
X3366537Y3801178D1*
X3368969Y3808364D1*
Y3813117D1*
X3366537Y3820302D1*
X3361784Y3825110D1*
X3356975Y3827487D1*
X3349790D1*
X3384408D2*
Y3793993D1*
Y3817925D2*
X3391593Y3825110D1*
X3396401Y3827487D1*
X3403531D1*
X3408340Y3825110D1*
X3410716Y3817925D1*
Y3793993D1*
X3433340Y3844233D2*
Y3803555D1*
X3435717Y3796425D1*
X3440525Y3793993D1*
X3445279D1*
X3426155Y3827487D2*
X3442902D1*
X3460718D2*
Y3793993D1*
Y3813117D2*
X3463150Y3820302D1*
X3467903Y3825110D1*
X3472711Y3827487D1*
X3479896D1*
X3507274D2*
X3502521Y3825110D1*
X3497712Y3820302D1*
X3495336Y3813117D1*
Y3808364D1*
X3497712Y3801178D1*
X3502521Y3796425D1*
X3507274Y3793993D1*
X3514459D1*
X3519267Y3796425D1*
X3524021Y3801178D1*
X3526452Y3808364D1*
Y3813117D1*
X3524021Y3820302D1*
X3519267Y3825110D1*
X3514459Y3827487D1*
X3507274D1*
X3541892Y3844233D2*
Y3793993D1*
X3557331Y3844233D2*
Y3793993D1*
X3572770Y3813117D2*
X3601455D1*
Y3817925D1*
X3599078Y3822734D1*
X3596702Y3825110D1*
X3591893Y3827487D1*
X3584708D1*
X3579955Y3825110D1*
X3575147Y3820302D1*
X3572770Y3813117D1*
Y3808364D1*
X3575147Y3801178D1*
X3579955Y3796425D1*
X3584708Y3793993D1*
X3591893D1*
X3596702Y3796425D1*
X3601455Y3801178D1*
X3616894Y3827487D2*
Y3793993D1*
Y3813117D2*
X3619326Y3820302D1*
X3624079Y3825110D1*
X3628888Y3827487D1*
X3636073D1*
X2621238Y3717135D2*
Y3767320D1*
X2597307Y3733882D1*
X2633176D1*
X2735518Y3717135D2*
X2716340Y3767375D1*
X2697217Y3717135D1*
X2704402Y3733882D2*
X2728333D1*
X2750958Y3750628D2*
X2777266Y3717135D1*
Y3750628D2*
X2750958Y3717135D1*
X2792705Y3767375D2*
X2795082Y3764999D1*
X2797514Y3767375D1*
X2795082Y3769807D1*
X2792705Y3767375D1*
X2795082Y3750628D2*
Y3717135D1*
X2839261Y3743443D2*
X2836885Y3748252D1*
X2829700Y3750628D1*
X2822515D1*
X2815330Y3748252D1*
X2812953Y3743443D1*
X2815330Y3738690D1*
X2820138Y3736258D1*
X2832076Y3733882D1*
X2836885Y3731505D1*
X2839261Y3726697D1*
Y3724320D1*
X2836885Y3719567D1*
X2829700Y3717135D1*
X2822515D1*
X2815330Y3719567D1*
X2812953Y3724320D1*
X2934363Y3767375D2*
X2903301D1*
Y3717135D1*
X2934363D1*
X2903301Y3743443D2*
X2922425D1*
X2949802Y3750628D2*
X2976110Y3717135D1*
Y3750628D2*
X2949802Y3717135D1*
X2998735Y3767375D2*
Y3726697D1*
X3001111Y3719567D1*
X3005920Y3717135D1*
X3010673D1*
X2991550Y3750628D2*
X3008296D1*
X3026112Y3736258D2*
X3054797D1*
Y3741067D1*
X3052421Y3745875D1*
X3050044Y3748252D1*
X3045235Y3750628D1*
X3038050D1*
X3033297Y3748252D1*
X3028489Y3743443D1*
X3026112Y3736258D1*
Y3731505D1*
X3028489Y3724320D1*
X3033297Y3719567D1*
X3038050Y3717135D1*
X3045235D1*
X3050044Y3719567D1*
X3054797Y3724320D1*
X3070236Y3750628D2*
Y3717135D1*
Y3736258D2*
X3072668Y3743443D1*
X3077421Y3748252D1*
X3082230Y3750628D1*
X3089415D1*
X3104854D2*
Y3717135D1*
Y3741067D2*
X3112039Y3748252D1*
X3116848Y3750628D1*
X3123977D1*
X3128786Y3748252D1*
X3131162Y3741067D1*
Y3717135D1*
X3175287Y3750628D2*
Y3717135D1*
Y3743443D2*
X3170533Y3748252D1*
X3165725Y3750628D1*
X3158595D1*
X3153787Y3748252D1*
X3149034Y3743443D1*
X3146602Y3736258D1*
Y3731505D1*
X3149034Y3724320D1*
X3153787Y3719567D1*
X3158595Y3717135D1*
X3165725D1*
X3170533Y3719567D1*
X3175287Y3724320D1*
X3190726Y3767375D2*
Y3717135D1*
X3254766Y3767375D2*
Y3717135D1*
X3271513D1*
X3278698Y3719567D1*
X3283506Y3724320D1*
X3285883Y3729129D1*
X3288259Y3736258D1*
Y3748252D1*
X3285883Y3755437D1*
X3283506Y3760190D1*
X3278698Y3764999D1*
X3271513Y3767375D1*
X3254766D1*
X3303699Y3750628D2*
Y3717135D1*
Y3736258D2*
X3306130Y3743443D1*
X3310884Y3748252D1*
X3315692Y3750628D1*
X3322877D1*
X3338316Y3767375D2*
X3340693Y3764999D1*
X3343125Y3767375D1*
X3340693Y3769807D1*
X3338316Y3767375D1*
X3340693Y3750628D2*
Y3717135D1*
X3358564Y3750628D2*
X3372934Y3717135D1*
X3387249Y3750628D1*
X3402688Y3736258D2*
X3431373D1*
Y3741067D1*
X3428997Y3745875D1*
X3426620Y3748252D1*
X3421811Y3750628D1*
X3414626D1*
X3409873Y3748252D1*
X3405065Y3743443D1*
X3402688Y3736258D1*
Y3731505D1*
X3405065Y3724320D1*
X3409873Y3719567D1*
X3414626Y3717135D1*
X3421811D1*
X3426620Y3719567D1*
X3431373Y3724320D1*
X3446812Y3750628D2*
Y3717135D1*
Y3736258D2*
X3449244Y3743443D1*
X3453997Y3748252D1*
X3458806Y3750628D1*
X3465991D1*
X3507738Y3743443D2*
X3505362Y3748252D1*
X3498177Y3750628D1*
X3490992D1*
X3483807Y3748252D1*
X3481430Y3743443D1*
X3483807Y3738690D1*
X3488615Y3736258D1*
X3500553Y3733882D1*
X3505362Y3731505D1*
X3507738Y3726697D1*
Y3724320D1*
X3505362Y3719567D1*
X3498177Y3717135D1*
X3490992D1*
X3483807Y3719567D1*
X3481430Y3724320D1*
X3571779Y3767375D2*
X3590902Y3717135D1*
X3610025Y3767375D1*
X3627896Y3755382D2*
Y3757758D1*
X3630273Y3762567D1*
X3632649Y3764943D1*
X3637458Y3767320D1*
X3647020D1*
X3651773Y3764943D1*
X3654149Y3762567D1*
X3656581Y3757758D1*
Y3753005D1*
X3654149Y3748197D1*
X3649396Y3741067D1*
X3625464Y3717135D1*
X3658958D1*
X3676774Y3721944D2*
X3674397Y3719512D1*
X3676774Y3717135D1*
X3679205Y3719512D1*
X3676774Y3721944D1*
X3709015Y3767320D2*
X3701830Y3764943D1*
X3697021Y3757758D1*
X3694645Y3745820D1*
Y3738635D1*
X3697021Y3726697D1*
X3701830Y3719512D1*
X3709015Y3717135D1*
X3713768D1*
X3720953Y3719512D1*
X3725706Y3726697D1*
X3728138Y3738635D1*
Y3745820D1*
X3725706Y3757758D1*
X3720953Y3764943D1*
X3713768Y3767320D1*
X3709015D1*
X3725706Y3757758D2*
X3697021Y3726697D1*
X2596135Y3693546D2*
X2615258Y3643306D1*
X2634381Y3693546D1*
X2680937D2*
X2649820D1*
Y3643306D1*
Y3669614D2*
X2668944D1*
X2696376Y3693546D2*
Y3643306D1*
X2713123D1*
X2720308Y3645738D1*
X2725117Y3650491D1*
X2727493Y3655299D1*
X2729870Y3662429D1*
Y3674423D1*
X2727493Y3681608D1*
X2725117Y3686361D1*
X2720308Y3691169D1*
X2713123Y3693546D1*
X2696376D1*
X2827403Y3686361D2*
X2822650Y3691169D1*
X2815465Y3693546D1*
X2805903D1*
X2798718Y3691169D1*
X2793910Y3686361D1*
Y3681608D1*
X2796342Y3676799D1*
X2798718Y3674423D1*
X2803472Y3672046D1*
X2817842Y3667237D1*
X2822650Y3664861D1*
X2825027Y3662429D1*
X2827403Y3657676D1*
Y3650491D1*
X2822650Y3645738D1*
X2815465Y3643306D1*
X2805903D1*
X2798718Y3645738D1*
X2793910Y3650491D1*
X2842843Y3676799D2*
Y3626559D1*
Y3669614D2*
X2847651Y3674367D1*
X2852404Y3676799D1*
X2859589D1*
X2864398Y3674367D1*
X2869151Y3669614D1*
X2871583Y3662429D1*
Y3657621D1*
X2869151Y3650491D1*
X2864398Y3645682D1*
X2859589Y3643306D1*
X2852404D1*
X2847651Y3645682D1*
X2842843Y3650491D1*
X2887022Y3693546D2*
X2889399Y3691169D1*
X2891830Y3693546D1*
X2889399Y3695978D1*
X2887022Y3693546D1*
X2889399Y3676799D2*
Y3643306D1*
X2907270Y3676799D2*
Y3643306D1*
Y3667237D2*
X2914455Y3674423D1*
X2919263Y3676799D1*
X2926393D1*
X2931201Y3674423D1*
X2933578Y3667237D1*
Y3643306D1*
X2977702Y3693546D2*
Y3643306D1*
Y3669614D2*
X2972949Y3674423D1*
X2968140Y3676799D1*
X2960955D1*
X2956202Y3674423D1*
X2951394Y3669614D1*
X2949017Y3662429D1*
Y3657676D1*
X2951394Y3650491D1*
X2956202Y3645738D1*
X2960955Y3643306D1*
X2968140D1*
X2972949Y3645738D1*
X2977702Y3650491D1*
X2993141Y3693546D2*
Y3643306D1*
X3008581Y3662429D2*
X3037265D1*
Y3667237D1*
X3034889Y3672046D1*
X3032512Y3674423D1*
X3027704Y3676799D1*
X3020519D1*
X3015766Y3674423D1*
X3010957Y3669614D1*
X3008581Y3662429D1*
Y3657676D1*
X3010957Y3650491D1*
X3015766Y3645738D1*
X3020519Y3643306D1*
X3027704D1*
X3032512Y3645738D1*
X3037265Y3650491D1*
X3137176Y3681608D2*
X3134799Y3686361D1*
X3129991Y3691169D1*
X3125237Y3693546D1*
X3115676D1*
X3110867Y3691169D1*
X3106114Y3686361D1*
X3103682Y3681608D1*
X3101306Y3674423D1*
Y3662429D1*
X3103682Y3655299D1*
X3106114Y3650491D1*
X3110867Y3645738D1*
X3115676Y3643306D1*
X3125237D1*
X3129991Y3645738D1*
X3134799Y3650491D1*
X3137176Y3655299D1*
X3164553Y3676799D2*
X3159800Y3674423D1*
X3154991Y3669614D1*
X3152615Y3662429D1*
Y3657676D1*
X3154991Y3650491D1*
X3159800Y3645738D1*
X3164553Y3643306D1*
X3171738D1*
X3176547Y3645738D1*
X3181300Y3650491D1*
X3183732Y3657676D1*
Y3662429D1*
X3181300Y3669614D1*
X3176547Y3674423D1*
X3171738Y3676799D1*
X3164553D1*
X3199171D2*
Y3643306D1*
Y3667237D2*
X3206356Y3674423D1*
X3211164Y3676799D1*
X3218294D1*
X3223103Y3674423D1*
X3225479Y3667237D1*
Y3643306D1*
X3248103Y3693546D2*
Y3652867D1*
X3250480Y3645738D1*
X3255288Y3643306D1*
X3260042D1*
X3240918Y3676799D2*
X3257665D1*
X3275481D2*
Y3643306D1*
Y3662429D2*
X3277913Y3669614D1*
X3282666Y3674423D1*
X3287474Y3676799D1*
X3294659D1*
X3322037D2*
X3317284Y3674423D1*
X3312475Y3669614D1*
X3310099Y3662429D1*
Y3657676D1*
X3312475Y3650491D1*
X3317284Y3645738D1*
X3322037Y3643306D1*
X3329222D1*
X3334030Y3645738D1*
X3338784Y3650491D1*
X3341215Y3657676D1*
Y3662429D1*
X3338784Y3669614D1*
X3334030Y3674423D1*
X3329222Y3676799D1*
X3322037D1*
X3356655Y3693546D2*
Y3643306D1*
X2622443Y3600303D2*
X2615258D1*
X2610505Y3597926D1*
X2608073Y3595550D1*
X2605696Y3590741D1*
Y3581180D1*
X2608073Y3578803D1*
X2612881D1*
X2622443Y3581180D1*
X2624820Y3576426D1*
X2627196D1*
X2632005Y3581180D1*
X2634381Y3593118D1*
X2632005Y3600303D1*
X2629628Y3605111D1*
X2624820Y3609865D1*
X2620066Y3612241D1*
X2610505D1*
X2605696Y3609865D1*
X2600943Y3605111D1*
X2598511Y3600303D1*
X2596135Y3593118D1*
Y3581180D1*
X2598511Y3573995D1*
X2600943Y3569241D1*
X2605696Y3564433D1*
X2610505Y3562056D1*
X2620066D1*
X2624820Y3564433D1*
X2629628Y3569241D1*
X2622443Y3602680D2*
Y3581180D1*
X2649820Y3612296D2*
Y3562056D1*
Y3588365D2*
X2654629Y3593173D1*
X2659382Y3595550D1*
X2666567D1*
X2671320Y3593173D1*
X2676129Y3588365D1*
X2678505Y3581180D1*
Y3576426D1*
X2676129Y3569241D1*
X2671320Y3564488D1*
X2666567Y3562056D1*
X2659382D1*
X2654629Y3564488D1*
X2649820Y3569241D1*
X2693945Y3595550D2*
Y3571618D1*
X2696321Y3564488D1*
X2701130Y3562056D1*
X2708315D1*
X2713068Y3564488D1*
X2720253Y3571618D1*
Y3595550D2*
Y3562056D1*
X2735692Y3612296D2*
X2738069Y3609920D1*
X2740501Y3612296D1*
X2738069Y3614728D1*
X2735692Y3612296D1*
X2738069Y3595550D2*
Y3562056D1*
X2755940Y3612296D2*
Y3562056D1*
X2800064Y3612296D2*
Y3562056D1*
Y3588365D2*
X2795311Y3593173D1*
X2790502Y3595550D1*
X2783317D1*
X2778564Y3593173D1*
X2773756Y3588365D1*
X2771379Y3581180D1*
Y3576426D1*
X2773756Y3569241D1*
X2778564Y3564488D1*
X2783317Y3562056D1*
X2790502D1*
X2795311Y3564488D1*
X2800064Y3569241D1*
X2815503Y3612296D2*
Y3562056D1*
X2842881Y3595550D2*
X2838127Y3593173D1*
X2833319Y3588365D1*
X2830942Y3581180D1*
Y3576426D1*
X2833319Y3569241D1*
X2838127Y3564488D1*
X2842881Y3562056D1*
X2850066D1*
X2854874Y3564488D1*
X2859627Y3569241D1*
X2862059Y3576426D1*
Y3581180D1*
X2859627Y3588365D1*
X2854874Y3593173D1*
X2850066Y3595550D1*
X2842881D1*
X2906183Y3593173D2*
Y3554871D1*
X2903807Y3547742D1*
X2901430Y3545310D1*
X2896622Y3542933D1*
X2889437D1*
X2884683Y3545310D1*
X2906183Y3585988D2*
X2901430Y3590741D1*
X2896622Y3593173D1*
X2889437D1*
X2884683Y3590741D1*
X2879875Y3585988D1*
X2877498Y3578803D1*
Y3573995D1*
X2879875Y3566865D1*
X2884683Y3562056D1*
X2889437Y3559680D1*
X2896622D1*
X2901430Y3562056D1*
X2906183Y3566865D1*
X2970223Y3602680D2*
X2975032Y3605111D1*
X2982217Y3612241D1*
Y3562056D1*
X2997656D2*
X3031150Y3612241D1*
X3049021Y3600303D2*
Y3602680D1*
X3051397Y3607488D1*
X3053774Y3609865D1*
X3058582Y3612241D1*
X3068144D1*
X3072897Y3609865D1*
X3075274Y3607488D1*
X3077706Y3602680D1*
Y3597926D1*
X3075274Y3593118D1*
X3070521Y3585988D1*
X3046589Y3562056D1*
X3080082D1*
X3109891Y3612241D2*
X3102706Y3609865D1*
X3097898Y3602680D1*
X3095521Y3590741D1*
Y3583556D1*
X3097898Y3571618D1*
X3102706Y3564433D1*
X3109891Y3562056D1*
X3114645D1*
X3121830Y3564433D1*
X3126583Y3571618D1*
X3129015Y3583556D1*
Y3590741D1*
X3126583Y3602680D1*
X3121830Y3609865D1*
X3114645Y3612241D1*
X3109891D1*
X3126583Y3602680D2*
X3097898Y3571618D1*
X3146886Y3600303D2*
Y3602680D1*
X3149262Y3607488D1*
X3151639Y3609865D1*
X3156447Y3612241D1*
X3166009D1*
X3170762Y3609865D1*
X3173139Y3607488D1*
X3175571Y3602680D1*
Y3597926D1*
X3173139Y3593118D1*
X3168386Y3585988D1*
X3144454Y3562056D1*
X3177947D1*
X3207757Y3612241D2*
X3200572Y3609865D1*
X3195763Y3602680D1*
X3193387Y3590741D1*
Y3583556D1*
X3195763Y3571618D1*
X3200572Y3564433D1*
X3207757Y3562056D1*
X3212510D1*
X3219695Y3564433D1*
X3224448Y3571618D1*
X3226880Y3583556D1*
Y3590741D1*
X3224448Y3602680D1*
X3219695Y3609865D1*
X3212510Y3612241D1*
X3207757D1*
X3224448Y3602680D2*
X3195763Y3571618D1*
X2602384Y3531044D2*
Y3480804D1*
Y3507113D2*
X2607192Y3511921D1*
X2611946Y3514298D1*
X2619131D1*
X2623884Y3511921D1*
X2628692Y3507113D1*
X2631069Y3499928D1*
Y3495175D1*
X2628692Y3487989D1*
X2623884Y3483236D1*
X2619131Y3480804D1*
X2611946D1*
X2607192Y3483236D1*
X2602384Y3487989D1*
X2675193Y3531044D2*
Y3480804D1*
Y3507113D2*
X2670440Y3511921D1*
X2665631Y3514298D1*
X2658446D1*
X2653693Y3511921D1*
X2648885Y3507113D1*
X2646508Y3499928D1*
Y3495175D1*
X2648885Y3487989D1*
X2653693Y3483236D1*
X2658446Y3480804D1*
X2665631D1*
X2670440Y3483236D1*
X2675193Y3487989D1*
X2690632Y3514298D2*
Y3480804D1*
Y3499928D2*
X2693064Y3507113D1*
X2697817Y3511921D1*
X2702626Y3514298D1*
X2709811D1*
X2725250Y3531044D2*
X2727627Y3528668D1*
X2730058Y3531044D1*
X2727627Y3533476D1*
X2725250Y3531044D1*
X2727627Y3514298D2*
Y3480804D1*
X2745498Y3514298D2*
Y3480804D1*
Y3504736D2*
X2752683Y3511921D1*
X2757491Y3514298D1*
X2764621D1*
X2769429Y3511921D1*
X2771806Y3504736D1*
Y3480804D1*
X2815930Y3511921D2*
Y3473619D1*
X2813554Y3466490D1*
X2811177Y3464058D1*
X2806369Y3461681D1*
X2799183D1*
X2794430Y3464058D1*
X2815930Y3504736D2*
X2811177Y3509489D1*
X2806369Y3511921D1*
X2799183D1*
X2794430Y3509489D1*
X2789622Y3504736D1*
X2787245Y3497551D1*
Y3492743D1*
X2789622Y3485613D1*
X2794430Y3480804D1*
X2799183Y3478428D1*
X2806369D1*
X2811177Y3480804D1*
X2815930Y3485613D1*
X2857678Y3519051D2*
X2850493D1*
X2845739Y3516674D1*
X2843308Y3514298D1*
X2840931Y3509489D1*
Y3499928D1*
X2843308Y3497551D1*
X2848116D1*
X2857678Y3499928D1*
X2860054Y3495175D1*
X2862431D1*
X2867239Y3499928D1*
X2869616Y3511866D1*
X2867239Y3519051D1*
X2864863Y3523859D1*
X2860054Y3528613D1*
X2855301Y3530989D1*
X2845739D1*
X2840931Y3528613D1*
X2836178Y3523859D1*
X2833746Y3519051D1*
X2831369Y3511866D1*
Y3499928D1*
X2833746Y3492743D1*
X2836178Y3487989D1*
X2840931Y3483181D1*
X2845739Y3480804D1*
X2855301D1*
X2860054Y3483181D1*
X2864863Y3487989D1*
X2857678Y3521428D2*
Y3499928D1*
X2885055Y3531044D2*
Y3480804D1*
Y3507113D2*
X2889864Y3511921D1*
X2894617Y3514298D1*
X2901802D1*
X2906555Y3511921D1*
X2911363Y3507113D1*
X2913740Y3499928D1*
Y3495175D1*
X2911363Y3487989D1*
X2906555Y3483236D1*
X2901802Y3480804D1*
X2894617D1*
X2889864Y3483236D1*
X2885055Y3487989D1*
X2929179Y3514298D2*
Y3490366D1*
X2931556Y3483236D1*
X2936364Y3480804D1*
X2943549D1*
X2948303Y3483236D1*
X2955488Y3490366D1*
Y3514298D2*
Y3480804D1*
X2970927Y3531044D2*
X2973303Y3528668D1*
X2975735Y3531044D1*
X2973303Y3533476D1*
X2970927Y3531044D1*
X2973303Y3514298D2*
Y3480804D1*
X2991175Y3531044D2*
Y3480804D1*
X3035299Y3531044D2*
Y3480804D1*
Y3507113D2*
X3030545Y3511921D1*
X3025737Y3514298D1*
X3018552D1*
X3013799Y3511921D1*
X3008990Y3507113D1*
X3006614Y3499928D1*
Y3495175D1*
X3008990Y3487989D1*
X3013799Y3483236D1*
X3018552Y3480804D1*
X3025737D1*
X3030545Y3483236D1*
X3035299Y3487989D1*
X3050738Y3531044D2*
Y3480804D1*
X3078115Y3514298D2*
X3073362Y3511921D1*
X3068554Y3507113D1*
X3066177Y3499928D1*
Y3495175D1*
X3068554Y3487989D1*
X3073362Y3483236D1*
X3078115Y3480804D1*
X3085300D1*
X3090109Y3483236D1*
X3094862Y3487989D1*
X3097294Y3495175D1*
Y3499928D1*
X3094862Y3507113D1*
X3090109Y3511921D1*
X3085300Y3514298D1*
X3078115D1*
X3141418Y3511921D2*
Y3473619D1*
X3139041Y3466490D1*
X3136665Y3464058D1*
X3131856Y3461681D1*
X3124671D1*
X3119918Y3464058D1*
X3141418Y3504736D2*
X3136665Y3509489D1*
X3131856Y3511921D1*
X3124671D1*
X3119918Y3509489D1*
X3115110Y3504736D1*
X3112733Y3497551D1*
Y3492743D1*
X3115110Y3485613D1*
X3119918Y3480804D1*
X3124671Y3478428D1*
X3131856D1*
X3136665Y3480804D1*
X3141418Y3485613D1*
X3159234D2*
X3156857Y3483181D1*
X3159234Y3480804D1*
X3161666Y3483181D1*
X3159234Y3485613D1*
X3177105Y3514298D2*
Y3480804D1*
Y3504736D2*
X3184290Y3511921D1*
X3189098Y3514298D1*
X3196228D1*
X3201037Y3511921D1*
X3203413Y3504736D1*
Y3480804D1*
X3218853Y3499928D2*
X3247537D1*
Y3504736D1*
X3245161Y3509545D1*
X3242784Y3511921D1*
X3237976Y3514298D1*
X3230791D1*
X3226038Y3511921D1*
X3221229Y3507113D1*
X3218853Y3499928D1*
Y3495175D1*
X3221229Y3487989D1*
X3226038Y3483236D1*
X3230791Y3480804D1*
X3237976D1*
X3242784Y3483236D1*
X3247537Y3487989D1*
X3270162Y3531044D2*
Y3490366D1*
X3272538Y3483236D1*
X3277347Y3480804D1*
X3282100D1*
X3262977Y3514298D2*
X3279723D1*
X1253117Y433365D2*
D115*
Y408516D1*
X1293309D1*
Y433365D1*
X1272263Y408516D2*
Y423815D1*
X1266515Y445717D2*
X1293309D1*
X1274164D2*
X1268416Y451465D1*
X1266515Y455312D1*
Y461015D1*
X1268416Y464862D1*
X1274164Y466763D1*
X1293309D1*
X1256014Y496315D2*
X1290457D1*
X1273258Y479115D2*
Y513559D1*
X1121365Y435311D2*
X1117519Y431508D1*
X1115617Y425760D1*
Y418111D1*
X1117519Y412363D1*
X1121365Y408516D1*
X1125168D1*
X1129015Y410462D1*
X1130916Y412363D1*
X1132817Y416166D1*
X1136664Y427662D1*
X1138565Y431508D1*
X1140511Y433410D1*
X1144313Y435311D1*
X1150061D1*
X1153864Y431508D1*
X1155809Y425760D1*
Y418111D1*
X1153864Y412363D1*
X1150061Y408516D1*
X1115617Y453410D2*
X1148160D1*
X1153864Y455312D1*
X1155809Y459158D1*
Y462961D1*
X1129015Y447662D2*
Y461060D1*
X1135736Y475312D2*
Y497420D1*
X983865Y435311D2*
X980019Y431508D1*
X978117Y425760D1*
Y418111D1*
X980019Y412363D1*
X983865Y408516D1*
X987668D1*
X991515Y410462D1*
X993416Y412363D1*
X995317Y416166D1*
X999164Y427662D1*
X1001065Y431508D1*
X1003011Y433410D1*
X1006813Y435311D1*
X1012561D1*
X1016364Y431508D1*
X1018309Y425760D1*
Y418111D1*
X1016364Y412363D1*
X1012561Y408516D1*
X978117Y453410D2*
X1010660D1*
X1016364Y455312D1*
X1018309Y459158D1*
Y462961D1*
X991515Y447662D2*
Y461060D1*
X981014Y492512D2*
X1015457D1*
X998258Y475312D2*
Y509756D1*
X840617Y408516D2*
X880809D1*
Y421914D1*
X878864Y427662D1*
X875061Y431508D1*
X871215Y433410D1*
X865511Y435311D1*
X855916D1*
X850168Y433410D1*
X846365Y431508D1*
X842519Y427662D1*
X840617Y421914D1*
Y408516D1*
X854015Y447662D2*
X880809D1*
X865511D2*
X859763Y449608D1*
X855916Y453410D1*
X854015Y457257D1*
Y463005D1*
X860736Y475357D2*
Y497464D1*
X693275Y418359D2*
X733467D1*
Y431756D1*
X731521Y437504D1*
X727719Y441351D1*
X723872Y443252D1*
X718168Y445153D1*
X708573D1*
X702825Y443252D1*
X699023Y441351D1*
X695176Y437504D1*
X693275Y431756D1*
Y418359D1*
X706672Y457505D2*
X733467D1*
X718168D2*
X712420Y459450D1*
X708573Y463253D1*
X706672Y467100D1*
Y472848D1*
X696171Y502399D2*
X730615D1*
X713415Y485199D2*
Y519643D1*
X445548Y1494613D2*
X443647Y1498415D1*
X439800Y1502262D1*
X435998Y1504163D1*
X428348D1*
X424501Y1502262D1*
X420699Y1498415D1*
X418753Y1494613D1*
X416852Y1488865D1*
Y1479270D1*
X418753Y1473566D1*
X420699Y1469719D1*
X424501Y1465917D1*
X428348Y1463971D1*
X435998D1*
X439800Y1465917D1*
X443647Y1469719D1*
X445548Y1473566D1*
Y1479270D1*
X435998D1*
X457899Y1490766D2*
Y1463971D1*
Y1483117D2*
X463648Y1488865D1*
X467494Y1490766D1*
X473198D1*
X477045Y1488865D1*
X478946Y1483117D1*
Y1463971D1*
X514245Y1504163D2*
Y1463971D1*
Y1485018D2*
X510443Y1488865D1*
X506596Y1490766D1*
X500848D1*
X497046Y1488865D1*
X493199Y1485018D1*
X491298Y1479270D1*
Y1475467D1*
X493199Y1469719D1*
X497046Y1465917D1*
X500848Y1463971D1*
X506596D1*
X510443Y1465917D1*
X514245Y1469719D1*
X1098925Y893869D2*
D117*
X1139117Y833581D1*
Y893869D2*
X1098925Y833581D1*
X1157644Y863692D2*
X1190806D1*
X1255295Y833581D2*
X1232281Y893869D1*
X1209333Y833581D1*
X1217955Y853677D2*
X1246673D1*
X1273822Y873773D2*
X1305392Y833581D1*
Y873773D2*
X1273822Y833581D1*
X1323919Y893869D2*
X1326771Y891017D1*
X1329689Y893869D1*
X1326771Y896787D1*
X1323919Y893869D1*
X1326771Y873773D2*
Y833581D1*
X1379786Y865151D2*
X1376934Y870921D1*
X1368312Y873773D1*
X1359690D1*
X1351068Y870921D1*
X1348216Y865151D1*
X1351068Y859447D1*
X1356838Y856529D1*
X1371164Y853677D1*
X1376934Y850825D1*
X1379786Y845055D1*
Y842203D1*
X1376934Y836499D1*
X1368312Y833581D1*
X1359690D1*
X1351068Y836499D1*
X1348216Y842203D1*
X447449Y1601471D2*
D115*
Y1641663D1*
X432151Y1601471D1*
X416852Y1641663D1*
Y1601471D1*
X459801Y1641663D2*
X461702Y1639762D1*
X463648Y1641663D1*
X461702Y1643609D1*
X459801Y1641663D1*
X461702Y1628266D2*
Y1601471D1*
X497046Y1622518D2*
X495144Y1626365D1*
X489396Y1628266D1*
X483648D1*
X477900Y1626365D1*
X475999Y1622518D1*
X477900Y1618715D1*
X481747Y1616770D1*
X491298Y1614869D1*
X495144Y1612967D1*
X497046Y1609121D1*
Y1607219D1*
X495144Y1603417D1*
X489396Y1601471D1*
X483648D1*
X477900Y1603417D1*
X475999Y1607219D1*
X515145Y1641663D2*
Y1609121D1*
X517046Y1603417D1*
X520893Y1601471D1*
X524696D1*
X509397Y1628266D2*
X522794D1*
X458048Y1219613D2*
X456147Y1223415D1*
X452300Y1227262D1*
X448498Y1229163D1*
X440848D1*
X437001Y1227262D1*
X433199Y1223415D1*
X431253Y1219613D1*
X429352Y1213865D1*
Y1204270D1*
X431253Y1198566D1*
X433199Y1194719D1*
X437001Y1190917D1*
X440848Y1188971D1*
X448498D1*
X452300Y1190917D1*
X456147Y1194719D1*
X458048Y1198566D1*
Y1204270D1*
X448498D1*
X470399Y1215766D2*
Y1188971D1*
Y1208117D2*
X476148Y1213865D1*
X479994Y1215766D1*
X485698D1*
X489545Y1213865D1*
X491446Y1208117D1*
Y1188971D1*
X526745Y1229163D2*
Y1188971D1*
Y1210018D2*
X522943Y1213865D1*
X519096Y1215766D1*
X513348D1*
X509546Y1213865D1*
X505699Y1210018D1*
X503798Y1204270D1*
Y1200467D1*
X505699Y1194719D1*
X509546Y1190917D1*
X513348Y1188971D1*
X519096D1*
X522943Y1190917D1*
X526745Y1194719D1*
X479201Y1085413D2*
X454352D1*
Y1045221D1*
X479201D1*
X454352Y1066267D2*
X469651D1*
X491553Y1072015D2*
Y1045221D1*
Y1064366D2*
X497301Y1070114D1*
X501148Y1072015D1*
X506851D1*
X510698Y1070114D1*
X512599Y1064366D1*
Y1045221D1*
X458048Y944613D2*
X456147Y948415D1*
X452300Y952262D1*
X448498Y954163D1*
X440848D1*
X437001Y952262D1*
X433199Y948415D1*
X431253Y944613D1*
X429352Y938865D1*
Y929270D1*
X431253Y923566D1*
X433199Y919719D1*
X437001Y915917D1*
X440848Y913971D1*
X448498D1*
X452300Y915917D1*
X456147Y919719D1*
X458048Y923566D1*
Y929270D1*
X448498D1*
X470399Y940766D2*
Y913971D1*
Y933117D2*
X476148Y938865D1*
X479994Y940766D1*
X485698D1*
X489545Y938865D1*
X491446Y933117D1*
Y913971D1*
X526745Y954163D2*
Y913971D1*
Y935018D2*
X522943Y938865D1*
X519096Y940766D1*
X513348D1*
X509546Y938865D1*
X505699Y935018D1*
X503798Y929270D1*
Y925467D1*
X505699Y919719D1*
X509546Y915917D1*
X513348Y913971D1*
X519096D1*
X522943Y915917D1*
X526745Y919719D1*
X416852Y1339366D2*
X434096D1*
X439800Y1341267D1*
X441746Y1343213D1*
X443647Y1347015D1*
Y1352763D1*
X441746Y1356566D1*
X439800Y1358511D1*
X434096Y1360413D1*
X416852D1*
Y1320221D1*
X455998Y1360413D2*
X465593Y1320221D1*
X475144Y1360413D1*
X484694Y1320221D1*
X494289Y1360413D1*
X537238Y1320221D2*
Y1360413D1*
X521939Y1320221D1*
X506640Y1360413D1*
Y1320221D1*
X883609Y1214705D2*
X887456Y1218507D1*
X889357Y1224255D1*
Y1231904D1*
X887456Y1237652D1*
X883609Y1241499D1*
X879807D1*
X875960Y1239554D1*
X874059Y1237652D1*
X872158Y1233850D1*
X868311Y1222354D1*
X866409Y1218507D1*
X864464Y1216606D1*
X860661Y1214705D1*
X854913D1*
X851111Y1218507D1*
X849165Y1224255D1*
Y1231904D1*
X851111Y1237652D1*
X854913Y1241499D1*
X875960Y1202353D2*
X835768D1*
X870212D2*
X874015Y1198506D1*
X875960Y1194704D1*
Y1188956D1*
X874015Y1185109D1*
X870212Y1181307D1*
X864464Y1179361D1*
X860617D1*
X854913Y1181307D1*
X851067Y1185109D1*
X849165Y1188956D1*
Y1194704D1*
X851067Y1198506D1*
X854913Y1202353D1*
X889357Y1167010D2*
X887456Y1165108D1*
X889357Y1163163D1*
X891303Y1165108D1*
X889357Y1167010D1*
X875960Y1165108D2*
X849165D1*
X875960Y1150812D2*
X849165D1*
X868311D2*
X874059Y1145063D1*
X875960Y1141217D1*
Y1135513D1*
X874059Y1131666D1*
X868311Y1129765D1*
X849165D1*
X889357Y1094466D2*
X849165D1*
X870212D2*
X874059Y1098268D1*
X875960Y1102115D1*
Y1107863D1*
X874059Y1111665D1*
X870212Y1115512D1*
X864464Y1117413D1*
X860661Y1117414D1*
X854913Y1115512D1*
X851111Y1111665D1*
X849165Y1107863D1*
Y1102115D1*
X851111Y1098268D1*
X854913Y1094466D1*
X889357Y1082114D2*
X849165D1*
X864464Y1069763D2*
Y1046815D1*
X868311D1*
X872158Y1048716D1*
X874059Y1050617D1*
X875960Y1054464D1*
Y1060212D1*
X874059Y1064015D1*
X870212Y1067862D1*
X864464Y1069763D1*
X860661D1*
X854913Y1067862D1*
X851111Y1064015D1*
X849165Y1060212D1*
Y1054464D1*
X851111Y1050617D1*
X854913Y1046815D1*
X2228117Y433365D2*
Y408516D1*
X2268309D1*
Y433365D1*
X2247263Y408516D2*
Y423815D1*
X2241515Y445717D2*
X2268309D1*
X2249164D2*
X2243416Y451465D1*
X2241515Y455312D1*
Y461015D1*
X2243416Y464862D1*
X2249164Y466763D1*
X2268309D1*
X2248236Y479115D2*
Y501223D1*
X2090617Y433365D2*
Y408516D1*
X2130809D1*
Y433365D1*
X2109763Y408516D2*
Y423815D1*
X2104015Y445717D2*
X2130809D1*
X2111664D2*
X2105916Y451465D1*
X2104015Y455312D1*
Y461015D1*
X2105916Y464862D1*
X2111664Y466763D1*
X2130809D1*
X2093514Y496315D2*
X2127957D1*
X2110758Y479115D2*
Y513559D1*
X1958865Y435311D2*
X1955019Y431508D1*
X1953117Y425760D1*
Y418111D1*
X1955019Y412363D1*
X1958865Y408516D1*
X1962668D1*
X1966515Y410462D1*
X1968416Y412363D1*
X1970317Y416166D1*
X1974164Y427662D1*
X1976065Y431508D1*
X1978011Y433410D1*
X1981813Y435311D1*
X1987561D1*
X1991364Y431508D1*
X1993309Y425760D1*
Y418111D1*
X1991364Y412363D1*
X1987561Y408516D1*
X1953117Y453410D2*
X1985660D1*
X1991364Y455312D1*
X1993309Y459158D1*
Y462961D1*
X1966515Y447662D2*
Y461060D1*
X1973236Y475312D2*
Y497420D1*
X1821365Y435311D2*
X1817519Y431508D1*
X1815617Y425760D1*
Y418111D1*
X1817519Y412363D1*
X1821365Y408516D1*
X1825168D1*
X1829015Y410462D1*
X1830916Y412363D1*
X1832817Y416166D1*
X1836664Y427662D1*
X1838565Y431508D1*
X1840511Y433410D1*
X1844313Y435311D1*
X1850061D1*
X1853864Y431508D1*
X1855809Y425760D1*
Y418111D1*
X1853864Y412363D1*
X1850061Y408516D1*
X1815617Y453410D2*
X1848160D1*
X1853864Y455312D1*
X1855809Y459158D1*
Y462961D1*
X1829015Y447662D2*
Y461060D1*
X1818514Y492512D2*
X1852957D1*
X1835758Y475312D2*
Y509756D1*
X1678117Y408516D2*
X1718309D1*
Y421914D1*
X1716364Y427662D1*
X1712561Y431508D1*
X1708715Y433410D1*
X1703011Y435311D1*
X1693416D1*
X1687668Y433410D1*
X1683865Y431508D1*
X1680019Y427662D1*
X1678117Y421914D1*
Y408516D1*
X1691515Y447662D2*
X1718309D1*
X1703011D2*
X1697263Y449608D1*
X1693416Y453410D1*
X1691515Y457257D1*
Y463005D1*
X1698236Y475357D2*
Y497464D1*
X1540617Y408516D2*
X1580809D1*
Y421914D1*
X1578864Y427662D1*
X1575061Y431508D1*
X1571215Y433410D1*
X1565511Y435311D1*
X1555916D1*
X1550168Y433410D1*
X1546365Y431508D1*
X1542519Y427662D1*
X1540617Y421914D1*
Y408516D1*
X1554015Y447662D2*
X1580809D1*
X1565511D2*
X1559763Y449608D1*
X1555916Y453410D1*
X1554015Y457257D1*
Y463005D1*
X1543514Y492556D2*
X1577957D1*
X1560758Y475357D2*
Y509800D1*
X1768315Y890276D2*
D117*
X1791263Y861558D1*
Y829988D1*
X1814211Y890276D2*
X1791263Y861558D1*
X1832738Y860099D2*
X1865899D1*
X1930389Y829988D2*
X1907374Y890276D1*
X1884426Y829988D1*
X1893048Y850084D2*
X1921767D1*
X1948916Y870180D2*
X1980486Y829988D1*
Y870180D2*
X1948916Y829988D1*
X1999013Y890276D2*
X2001865Y887424D1*
X2004783Y890276D1*
X2001865Y893194D1*
X1999013Y890276D1*
X2001865Y870180D2*
Y829988D1*
X2054880Y861558D2*
X2052028Y867328D1*
X2043406Y870180D1*
X2034784D1*
X2026162Y867328D1*
X2023310Y861558D1*
X2026162Y855854D1*
X2031932Y852936D1*
X2046258Y850084D1*
X2052028Y847232D1*
X2054880Y841462D1*
Y838610D1*
X2052028Y832906D1*
X2043406Y829988D1*
X2034784D1*
X2026162Y832906D1*
X2023310Y838610D1*
X2903117Y433365D2*
D115*
Y408516D1*
X2943309D1*
Y433365D1*
X2922263Y408516D2*
Y423815D1*
X2916515Y445717D2*
X2943309D1*
X2924164D2*
X2918416Y451465D1*
X2916515Y455312D1*
Y461015D1*
X2918416Y464862D1*
X2924164Y466763D1*
X2943309D1*
X2906014Y496315D2*
X2940457D1*
X2923258Y479115D2*
Y513559D1*
X3046867Y433365D2*
Y408516D1*
X3087059D1*
Y433365D1*
X3066012Y408516D2*
Y423815D1*
X3060264Y445717D2*
X3087059D1*
X3067913D2*
X3062165Y451465D1*
X3060264Y455312D1*
Y461015D1*
X3062165Y464862D1*
X3067913Y466763D1*
X3087059D1*
X3066985Y479115D2*
Y501223D1*
X2640116Y435311D2*
X2636269Y431508D1*
X2634368Y425760D1*
Y418111D1*
X2636269Y412363D1*
X2640116Y408516D1*
X2643919D1*
X2647765Y410462D1*
X2649667Y412363D1*
X2651568Y416166D1*
X2655415Y427662D1*
X2657316Y431508D1*
X2659261Y433410D1*
X2663064Y435311D1*
X2668812D1*
X2672615Y431508D1*
X2674560Y425760D1*
Y418111D1*
X2672615Y412363D1*
X2668812Y408516D1*
X2634368Y453410D2*
X2666911D1*
X2672615Y455312D1*
X2674560Y459158D1*
Y462961D1*
X2647765Y447662D2*
Y461060D1*
X2637264Y492512D2*
X2671708D1*
X2654508Y475312D2*
Y509756D1*
X2777615Y435311D2*
X2773768Y431508D1*
X2771867Y425760D1*
Y418111D1*
X2773768Y412363D1*
X2777615Y408516D1*
X2781417D1*
X2785264Y410462D1*
X2787165Y412363D1*
X2789067Y416166D1*
X2792913Y427662D1*
X2794815Y431508D1*
X2796760Y433410D1*
X2800563Y435311D1*
X2806311D1*
X2810113Y431508D1*
X2812059Y425760D1*
Y418111D1*
X2810113Y412363D1*
X2806311Y408516D1*
X2771867Y453410D2*
X2804409D1*
X2810113Y455312D1*
X2812059Y459158D1*
Y462961D1*
X2785264Y447662D2*
Y461060D1*
X2791985Y475312D2*
Y497420D1*
X2365617Y408516D2*
X2405809D1*
Y421914D1*
X2403864Y427662D1*
X2400061Y431508D1*
X2396215Y433410D1*
X2390511Y435311D1*
X2380916D1*
X2375168Y433410D1*
X2371365Y431508D1*
X2367519Y427662D1*
X2365617Y421914D1*
Y408516D1*
X2379015Y447662D2*
X2405809D1*
X2390511D2*
X2384763Y449608D1*
X2380916Y453410D1*
X2379015Y457257D1*
Y463005D1*
X2368514Y492556D2*
X2402957D1*
X2385758Y475357D2*
Y509800D1*
X2496867Y414767D2*
X2537059D1*
Y428164D1*
X2535113Y433912D1*
X2531311Y437759D1*
X2527464Y439660D1*
X2521760Y441562D1*
X2512165D1*
X2506417Y439660D1*
X2502615Y437759D1*
X2498768Y433912D1*
X2496867Y428164D1*
Y414767D1*
X2510264Y453913D2*
X2537059D1*
X2521760D2*
X2516012Y455858D1*
X2512165Y459661D1*
X2510264Y463508D1*
Y469256D1*
X2516985Y481607D2*
Y503715D1*
X2609408Y890276D2*
D117*
X2649600D1*
X2609408Y829988D1*
X2649600D1*
X2668127Y860099D2*
X2701289D1*
X2765778Y829988D2*
X2742764Y890276D1*
X2719816Y829988D1*
X2728438Y850084D2*
X2757156D1*
X2784305Y870180D2*
X2815875Y829988D1*
Y870180D2*
X2784305Y829988D1*
X2834402Y890276D2*
X2837254Y887424D1*
X2840172Y890276D1*
X2837254Y893194D1*
X2834402Y890276D1*
X2837254Y870180D2*
Y829988D1*
X2890269Y861558D2*
X2887417Y867328D1*
X2878795Y870180D1*
X2870173D1*
X2861551Y867328D1*
X2858699Y861558D1*
X2861551Y855854D1*
X2867321Y852936D1*
X2881647Y850084D1*
X2887417Y847232D1*
X2890269Y841462D1*
Y838610D1*
X2887417Y832906D1*
X2878795Y829988D1*
X2870173D1*
X2861551Y832906D1*
X2858699Y838610D1*
X3746867Y433365D2*
D115*
Y408516D1*
X3787059D1*
Y433365D1*
X3766012Y408516D2*
Y423815D1*
X3760264Y445717D2*
X3787059D1*
X3767913D2*
X3762165Y451465D1*
X3760264Y455312D1*
Y461015D1*
X3762165Y464862D1*
X3767913Y466763D1*
X3787059D1*
X3749763Y496315D2*
X3784207D1*
X3767007Y479115D2*
Y513559D1*
X3878117Y433365D2*
Y408516D1*
X3918309D1*
Y433365D1*
X3897263Y408516D2*
Y423815D1*
X3891515Y445717D2*
X3918309D1*
X3899164D2*
X3893416Y451465D1*
X3891515Y455312D1*
Y461015D1*
X3893416Y464862D1*
X3899164Y466763D1*
X3918309D1*
X3898236Y479115D2*
Y501223D1*
X3465115Y435311D2*
X3461268Y431508D1*
X3459367Y425760D1*
Y418111D1*
X3461268Y412363D1*
X3465115Y408516D1*
X3468917D1*
X3472764Y410462D1*
X3474665Y412363D1*
X3476567Y416166D1*
X3480413Y427662D1*
X3482315Y431508D1*
X3484260Y433410D1*
X3488063Y435311D1*
X3493811D1*
X3497613Y431508D1*
X3499559Y425760D1*
Y418111D1*
X3497613Y412363D1*
X3493811Y408516D1*
X3459367Y453410D2*
X3491909D1*
X3497613Y455312D1*
X3499559Y459158D1*
Y462961D1*
X3472764Y447662D2*
Y461060D1*
X3462263Y492512D2*
X3496707D1*
X3479507Y475312D2*
Y509756D1*
X3608865Y441562D2*
X3605019Y437759D1*
X3603117Y432011D1*
Y424362D1*
X3605019Y418614D1*
X3608865Y414767D1*
X3612668D1*
X3616515Y416712D1*
X3618416Y418614D1*
X3620317Y422416D1*
X3624164Y433912D1*
X3626065Y437759D1*
X3628011Y439660D1*
X3631813Y441562D1*
X3637561D1*
X3641364Y437759D1*
X3643309Y432011D1*
Y424362D1*
X3641364Y418614D1*
X3637561Y414767D1*
X3603117Y459661D2*
X3635660D1*
X3641364Y461562D1*
X3643309Y465409D1*
Y469212D1*
X3616515Y453913D2*
Y467310D1*
X3623236Y481563D2*
Y503671D1*
X3190617Y408516D2*
X3230809D1*
Y421914D1*
X3228864Y427662D1*
X3225061Y431508D1*
X3221215Y433410D1*
X3215511Y435311D1*
X3205916D1*
X3200168Y433410D1*
X3196365Y431508D1*
X3192519Y427662D1*
X3190617Y421914D1*
Y408516D1*
X3204015Y447662D2*
X3230809D1*
X3215511D2*
X3209763Y449608D1*
X3205916Y453410D1*
X3204015Y457257D1*
Y463005D1*
X3193514Y492556D2*
X3227957D1*
X3210758Y475357D2*
Y509800D1*
X3321868Y414767D2*
X3362060D1*
Y428164D1*
X3360115Y433912D1*
X3356312Y437759D1*
X3352465Y439660D1*
X3346761Y441562D1*
X3337167D1*
X3331419Y439660D1*
X3327616Y437759D1*
X3323769Y433912D1*
X3321868Y428164D1*
Y414767D1*
X3335265Y453913D2*
X3362060D1*
X3346761D2*
X3341013Y455858D1*
X3337167Y459661D1*
X3335265Y463508D1*
Y469256D1*
X3341986Y481607D2*
Y503715D1*
X3467870Y823739D2*
D117*
X3444856Y884027D1*
X3421908Y823739D1*
X3430530Y843835D2*
X3459248D1*
X3486397Y853850D2*
X3519559D1*
X3584048Y823739D2*
X3561034Y884027D1*
X3538086Y823739D1*
X3546708Y843835D2*
X3575426D1*
X3602575Y863931D2*
X3634145Y823739D1*
Y863931D2*
X3602575Y823739D1*
X3652672Y884027D2*
X3655524Y881175D1*
X3658442Y884027D1*
X3655524Y886945D1*
X3652672Y884027D1*
X3655524Y863931D2*
Y823739D1*
X3708539Y855309D2*
X3705688Y861079D1*
X3697065Y863931D1*
X3688443D1*
X3679821Y861079D1*
X3676969Y855309D1*
X3679821Y849605D1*
X3685592Y846687D1*
X3699917Y843835D1*
X3705688Y840983D1*
X3708539Y835213D1*
Y832361D1*
X3705688Y826657D1*
X3697065Y823739D1*
X3688443D1*
X3679821Y826657D1*
X3676969Y832361D1*
X3659936Y1171740D2*
D115*
X3656090Y1167938D1*
X3654188Y1162190D1*
Y1154540D1*
X3656089Y1148792D1*
X3659936Y1144945D1*
X3663739D1*
X3667586Y1146891D1*
X3669487Y1148792D1*
X3671388Y1152595D1*
X3675235Y1164091D1*
X3677136Y1167938D1*
X3679082Y1169839D1*
X3682884Y1171740D1*
X3688632D1*
X3692435Y1167938D1*
X3694380Y1162189D1*
Y1154540D1*
X3692435Y1148792D1*
X3688632Y1144945D1*
X3667586Y1184091D2*
X3707778D1*
X3673334D2*
X3669531Y1187938D1*
X3667586Y1191741D1*
Y1197489D1*
X3669531Y1201336D1*
X3673334Y1205138D1*
X3679082Y1207084D1*
X3682928D1*
X3688632Y1205138D1*
X3692479Y1201336D1*
X3694380Y1197489D1*
Y1191741D1*
X3692479Y1187938D1*
X3688632Y1184091D1*
X3654188Y1219435D2*
X3656090Y1221336D1*
X3654188Y1223282D1*
X3652243Y1221336D1*
X3654188Y1219435D1*
X3667586Y1221336D2*
X3694380D1*
X3667586Y1235633D2*
X3694380D1*
X3675235D2*
X3669487Y1241381D1*
X3667586Y1245228D1*
Y1250932D1*
X3669487Y1254778D1*
X3675235Y1256680D1*
X3694380D1*
X3654188Y1291979D2*
X3694380D1*
X3673334D2*
X3669487Y1288176D1*
X3667586Y1284330D1*
Y1278582D1*
X3669487Y1274779D1*
X3673334Y1270932D1*
X3679082Y1269031D1*
X3682884D1*
X3688632Y1270932D1*
X3692435Y1274779D1*
X3694380Y1278582D1*
Y1284330D1*
X3692435Y1288176D1*
X3688632Y1291979D1*
X3654188Y1304330D2*
X3694380D1*
X3679082Y1316682D2*
Y1339630D1*
X3675235D1*
X3671388Y1337728D1*
X3669487Y1335827D1*
X3667586Y1331980D1*
Y1326232D1*
X3669487Y1322430D1*
X3673334Y1318583D1*
X3679082Y1316682D1*
X3682884D1*
X3688632Y1318583D1*
X3692435Y1322430D1*
X3694380Y1326232D1*
Y1331980D1*
X3692435Y1335827D1*
X3688632Y1339630D1*
X4130379Y2532367D2*
X4128478Y2536170D1*
X4124631Y2540017D1*
X4120828Y2541918D1*
X4113179D1*
X4109332Y2540017D1*
X4105530Y2536170D1*
X4103584Y2532367D1*
X4101683Y2526619D1*
Y2517024D1*
X4103584Y2511321D1*
X4105530Y2507474D1*
X4109332Y2503671D1*
X4113179Y2501726D1*
X4120828D1*
X4124631Y2503671D1*
X4128478Y2507474D1*
X4130379Y2511321D1*
Y2517024D1*
X4120828D1*
X4142730Y2528520D2*
Y2501726D1*
Y2520871D2*
X4148478Y2526619D1*
X4152325Y2528520D1*
X4158029D1*
X4161876Y2526619D1*
X4163777Y2520871D1*
Y2501726D1*
X4199076Y2541918D2*
Y2501726D1*
Y2522772D2*
X4195274Y2526619D1*
X4191427Y2528520D1*
X4185679D1*
X4181876Y2526619D1*
X4178030Y2522772D1*
X4176128Y2517024D1*
Y2513222D1*
X4178030Y2507474D1*
X4181876Y2503671D1*
X4185679Y2501726D1*
X4191427D1*
X4195274Y2503671D1*
X4199076Y2507474D1*
X4079790Y2743549D2*
Y2709105D1*
X4062590Y2726305D2*
X4097034D1*
X4109385Y2738752D2*
X4113232Y2740697D1*
X4118980Y2746401D1*
Y2706253D1*
X4133277Y2736851D2*
Y2738752D1*
X4135178Y2742599D1*
X4137079Y2744500D1*
X4140926Y2746401D1*
X4148575D1*
X4152378Y2744500D1*
X4154279Y2742599D1*
X4156225Y2738752D1*
Y2734949D1*
X4154279Y2731103D1*
X4150477Y2725399D1*
X4131331Y2706253D1*
X4158126D1*
X4170477Y2746445D2*
X4185776Y2706253D1*
X4201075Y2746445D1*
X1012481Y3884469D2*
X1027779Y3865324D1*
Y3844277D1*
X1043078Y3884469D2*
X1027779Y3865324D1*
X1094310Y3884469D2*
Y3844277D1*
X1117258D1*
X1129609Y3884469D2*
X1131511Y3882568D1*
X1133456Y3884469D1*
X1131511Y3886414D1*
X1129609Y3884469D1*
X1131511Y3871072D2*
Y3844277D1*
X1145808Y3871072D2*
Y3844277D1*
Y3863422D2*
X1151556Y3869170D1*
X1155402Y3871072D1*
X1161106D1*
X1164953Y3869170D1*
X1166854Y3863422D1*
Y3844277D1*
Y3863422D2*
X1172602Y3869170D1*
X1176449Y3871072D1*
X1182153D1*
X1186000Y3869170D1*
X1187945Y3863422D1*
Y3844277D1*
X1200297Y3884469D2*
X1202198Y3882568D1*
X1204143Y3884469D1*
X1202198Y3886414D1*
X1200297Y3884469D1*
X1202198Y3871072D2*
Y3844277D1*
X1222243Y3884469D2*
Y3851926D1*
X1224144Y3846222D1*
X1227991Y3844277D1*
X1231793D1*
X1216495Y3871072D2*
X1229892D1*
X1586873Y3844277D2*
X1571530Y3884469D1*
X1556231Y3844277D1*
X1561979Y3857674D2*
X1581125D1*
X1638105Y3884469D2*
Y3844277D1*
X1661053D1*
X1673404Y3884469D2*
X1675306Y3882568D1*
X1677251Y3884469D1*
X1675306Y3886414D1*
X1673404Y3884469D1*
X1675306Y3871072D2*
Y3844277D1*
X1689602Y3871072D2*
Y3844277D1*
Y3863422D2*
X1695351Y3869170D1*
X1699197Y3871072D1*
X1704901D1*
X1708748Y3869170D1*
X1710649Y3863422D1*
Y3844277D1*
Y3863422D2*
X1716397Y3869170D1*
X1720244Y3871072D1*
X1725948D1*
X1729794Y3869170D1*
X1731740Y3863422D1*
Y3844277D1*
X1744091Y3884469D2*
X1745993Y3882568D1*
X1747938Y3884469D1*
X1745993Y3886414D1*
X1744091Y3884469D1*
X1745993Y3871072D2*
Y3844277D1*
X1766038Y3884469D2*
Y3851926D1*
X1767939Y3846222D1*
X1771786Y3844277D1*
X1775588D1*
X1760290Y3871072D2*
X1773687D1*
X1287481Y3884469D2*
X1314275D1*
X1287481Y3844277D1*
X1314275D1*
X1365508Y3884469D2*
Y3844277D1*
X1388456D1*
X1400807Y3884469D2*
X1402708Y3882568D1*
X1404654Y3884469D1*
X1402708Y3886414D1*
X1400807Y3884469D1*
X1402708Y3871072D2*
Y3844277D1*
X1417005Y3871072D2*
Y3844277D1*
Y3863422D2*
X1422753Y3869170D1*
X1426600Y3871072D1*
X1432304D1*
X1436150Y3869170D1*
X1438052Y3863422D1*
Y3844277D1*
Y3863422D2*
X1443800Y3869170D1*
X1447646Y3871072D1*
X1453350D1*
X1457197Y3869170D1*
X1459143Y3863422D1*
Y3844277D1*
X1471494Y3884469D2*
X1473395Y3882568D1*
X1475341Y3884469D1*
X1473395Y3886414D1*
X1471494Y3884469D1*
X1473395Y3871072D2*
Y3844277D1*
X1493440Y3884469D2*
Y3851926D1*
X1495341Y3846222D1*
X1499188Y3844277D1*
X1502991D1*
X1487692Y3871072D2*
X1501089D1*
X1862481Y3863422D2*
X1879725D1*
X1885429Y3865324D1*
X1887374Y3867269D1*
X1889275Y3871072D1*
Y3876820D1*
X1887374Y3880622D1*
X1885429Y3882568D1*
X1879725Y3884469D1*
X1862481D1*
Y3844277D1*
X1901627Y3871072D2*
Y3844277D1*
Y3859576D2*
X1903572Y3865324D1*
X1907375Y3869170D1*
X1911222Y3871072D1*
X1916970D1*
X1938872D2*
X1935069Y3869170D1*
X1931222Y3865324D1*
X1929321Y3859576D1*
Y3855773D1*
X1931222Y3850025D1*
X1935069Y3846222D1*
X1938872Y3844277D1*
X1944620D1*
X1948466Y3846222D1*
X1952269Y3850025D1*
X1954214Y3855773D1*
Y3859576D1*
X1952269Y3865324D1*
X1948466Y3869170D1*
X1944620Y3871072D1*
X1938872D1*
X1966566Y3884469D2*
Y3844277D1*
Y3865324D2*
X1970413Y3869170D1*
X1974215Y3871072D1*
X1979963D1*
X1983766Y3869170D1*
X1987612Y3865324D1*
X1989514Y3859576D1*
Y3855773D1*
X1987612Y3850025D1*
X1983766Y3846222D1*
X1979963Y3844277D1*
X1974215D1*
X1970413Y3846222D1*
X1966566Y3850025D1*
X2001865Y3859576D2*
X2024813D1*
Y3863422D1*
X2022912Y3867269D1*
X2021011Y3869170D1*
X2017164Y3871072D1*
X2011416D1*
X2007613Y3869170D1*
X2003766Y3865324D1*
X2001865Y3859576D1*
Y3855773D1*
X2003766Y3850025D1*
X2007613Y3846222D1*
X2011416Y3844277D1*
X2017164D1*
X2021011Y3846222D1*
X2024813Y3850025D1*
X731231Y3884469D2*
X758026Y3844277D1*
Y3884469D2*
X731231Y3844277D1*
X809258Y3884469D2*
Y3844277D1*
X832206D1*
X844558Y3884469D2*
X846459Y3882568D1*
X848404Y3884469D1*
X846459Y3886414D1*
X844558Y3884469D1*
X846459Y3871072D2*
Y3844277D1*
X860756Y3871072D2*
Y3844277D1*
Y3863422D2*
X866504Y3869170D1*
X870351Y3871072D1*
X876054D1*
X879901Y3869170D1*
X881802Y3863422D1*
Y3844277D1*
Y3863422D2*
X887550Y3869170D1*
X891397Y3871072D1*
X897101D1*
X900948Y3869170D1*
X902893Y3863422D1*
Y3844277D1*
X915245Y3884469D2*
X917146Y3882568D1*
X919091Y3884469D1*
X917146Y3886414D1*
X915245Y3884469D1*
X917146Y3871072D2*
Y3844277D1*
X937191Y3884469D2*
Y3851926D1*
X939092Y3846222D1*
X942939Y3844277D1*
X946741D1*
X931443Y3871072D2*
X944840D1*
X553186Y2363626D2*
D117*
X510142D1*
X501520Y2360774D1*
X495816Y2355004D1*
X492897Y2346382D1*
Y2340678D1*
X495816Y2332056D1*
X501520Y2326286D1*
X510142Y2323434D1*
X553185D1*
X544563Y2264715D2*
X550334Y2270419D1*
X553185Y2279041D1*
Y2290515D1*
X550334Y2299137D1*
X544563Y2304907D1*
X538860D1*
X533089Y2301989D1*
X530238Y2299137D1*
X527386Y2293433D1*
X521616Y2276189D1*
X518764Y2270419D1*
X515845Y2267567D1*
X510142Y2264715D1*
X501520D1*
X495816Y2270419D1*
X492897Y2279041D1*
Y2290515D1*
X495816Y2299137D1*
X501520Y2304907D1*
X553185Y2246188D2*
X492897D1*
X492898Y2220322D1*
X495816Y2211700D1*
X498668Y2208848D1*
X504371Y2205996D1*
X512993D1*
X518764Y2208848D1*
X521616Y2211700D1*
X524467Y2220322D1*
X527386Y2211700D1*
X530238Y2208848D1*
X535941Y2205996D1*
X541712D1*
X547415Y2208848D1*
X550334Y2211700D1*
X553185Y2220322D1*
Y2246188D1*
X524467D2*
Y2220322D1*
M02*
